<svg xmlns="https://www.w3.org/2000/svg" viewBox="0 0 50 62.5"><path d="M7.061 10.688c11.654-1.822 23.457.164 35.166-1 2.968-.295 4.698-3.943.701-3.546-11.712 1.164-23.49-.825-35.166 1-2.901.453-4.682 4.169-.701 3.546zM6.106 25.999c7.635.141 15.129-1.374 22.745-1.534 4.658-.098 9.73.559 14.279-.81 1.131-.34 2.521-.994 2.476-2.351l-.006-.165c-.044-1.313-2.486-1.266-4.187-.429-4.141.949-8.845.097-13.016.319-6.713.358-13.358 1.592-20.096 1.467-2.32-.042-6.122 3.43-2.195 3.503zM41.549 37.726c-4.651 2.286-10.269 2.103-15.327 1.842-6.049-.312-12.073-.74-18.052-1.742-2.831-.474-5.9 3.527-2.016 4.178 7.162 1.199 14.527 1.806 21.791 1.88 5.508.057 11.144-.314 16.161-2.78 3.558-1.75.37-4.817-2.557-3.378z"/><text y="65" font-size="5" font-weight="bold" font-family="'Helvetica Neue', Helvetica, Arial-Unicode, Arial, Sans-serif">Created by naiara</text><text y="70" font-size="5" font-weight="bold" font-family="'Helvetica Neue', Helvetica, Arial-Unicode, Arial, Sans-serif">from the Noun Project</text></svg>