<svg xmlns="http://www.w3.org/2000/svg" viewBox="0 0 50 50"><path fill="#1D1D1B" d="M45.673 11.367c2.807-2.021 1.771-6.011 1.438-8.758-.079-.666-2.096-.304-2.452-.206-3.095.848-6.146 2.095-8.465 4.052-4.903-1.862-11.144-2.491-15.973-.66-2.011-1.966-4.716-3.513-7.36-4.698-1.275-.57-3.575-.085-3.991 1.222-.812 2.552-1.136 6.048.177 8.559a1.22 1.22 0 00-.323.373c-3 5.919-4.605 10.649-.934 16.706 2.546 4.199 7.122 7.004 12.464 7.58-1.131 1.854-1.156 4.135-1.042 6.184l.006.08-.16-.018c-.56-.131-1.078-.396-1.568-.654-1.014-.535-1.908-1.248-2.78-1.939-1.619-1.283-3.083-2.705-4.718-3.977-2.307-1.793-5.904-2.32-8.137-.027-.749.768 1.067.811 2.544.504.369.182.705.424 1.037.65.713.49 1.358 1.061 2.005 1.613 1.472 1.256 2.893 2.547 4.48 3.697 2.269 1.646 4.798 2.336 7.433 1.854.12 1.662.159 3.754-.603 4.525l.271-.064c-.509.287-.712.562-.205.691l.138.037c1.066.271 3.113-.148 3.852-.895 1.035-1.049.835-3.223.905-4.512.157-2.916-.706-6.1 1.152-8.732.129-.182-.213-.279-.755-.299.34-.539.126-1.047-1.204-1.119-5.771-.312-9.692-4.064-11.872-8.418-2.373-4.737-.326-8.827 1.897-13.214.032-.063.043-.119.064-.177.579-.322.908-.759.64-1.217-.894-1.523-1.08-3.403-.895-5.216 1.553.927 2.987 2.005 4.113 3.289.859.981 3.748.281 4.254-.766a5.72 5.72 0 00.707-.345c3.089-1.784 10.085.503 12.903 2.015 1.213.651 5.113-.914 4.171-1.42-.008-.004-.018-.008-.025-.013.98-1.241 2.393-2.239 3.955-2.961.363 2.109.947 5.343-.786 6.507-.613.313-1.006.739-.82 1.194 3.665 8.999 3.522 16.769-6.492 21.964-1.438-.574-4.816.666-3.733 1.795 2.33 2.434 1.174 4.906.913 7.707-.075.807.246 2.145.188 3.154-.583.311-.928.721-.689 1.131.684 1.178 2.167 1.172 3.469.682 1.529-.574 1.502-1.598 1.502-2.859.001-3.293 1.361-6.795-.146-9.795a2.72 2.72 0 00.534-.176c4.846-2.33 8.811-5.246 10.74-9.853 1.98-4.722 0-10.294-1.824-14.777z"/></svg>