<svg xmlns="http://www.w3.org/2000/svg" viewBox="0 0 50 50"><path fill="#1D1D1B" d="M5.936 9.11c4.01 6.15 9.822 10.435 15.783 14.566 5.788 4.012 14.842 8.7 16.884 15.933.465 1.647 6.252.065 5.795-1.553-1.773-6.283-8.475-10.403-13.527-13.927-6.901-4.812-14.447-9.378-19.139-16.573-1.077-1.649-6.482.503-5.796 1.554z"/><path fill="#1D1D1B" d="M37.158 7.358c-5.19 6.268-11.474 11.478-16.922 17.507C14.6 31.103 10.918 38.91 7.281 46.408l5.783-1.185-.167-.667c-.451-1.805-6.255-.285-5.796 1.553l.167.667c.51 2.041 5.201.017 5.783-1.185 3.557-7.332 7.191-14.564 12.535-20.775 5.303-6.163 11.726-11.232 16.921-17.508 1.514-1.825-4.263-1.262-5.349.05z"/></svg>