<svg xmlns="http://www.w3.org/2000/svg" viewBox="0 0 50 62.5" x="0px" y="0px"><path d="M5.1 38.9c4.4-3.8 8.4-7.8 12.2-12.2 3.4-4.1 6.3-9.8 10.8-12.8l-2.7.3c7.6 5.7 14.3 12.5 20 20.1.8 1.1 4.6-.2 3.6-1.6-6-7.8-12.9-14.6-20.7-20.5-.7-.5-2.1-.1-2.7.3-4.1 2.7-6.5 7.1-9.5 10.9C11.9 28.7 7.1 33.6 2 38c-1.8 1.6 2 1.8 3.1.9z"/><text x="0" y="65" fill="#000000" font-size="5px" font-weight="bold" font-family="'Helvetica Neue', Helvetica, Arial-Unicode, Arial, Sans-serif">Created by naiara</text><text x="0" y="70" fill="#000000" font-size="5px" font-weight="bold" font-family="'Helvetica Neue', Helvetica, Arial-Unicode, Arial, Sans-serif">from the Noun Project</text></svg>