<?xml version="1.0" encoding="utf-8"?>
<!-- Generator: Adobe Illustrator 15.0.0, SVG Export Plug-In . SVG Version: 6.00 Build 0)  -->
<!DOCTYPE svg PUBLIC "-//W3C//DTD SVG 1.1//EN" "https://www.w3.org/Graphics/SVG/1.1/DTD/svg11.dtd">
<svg version="1.1" id="Capa_1" xmlns="https://www.w3.org/2000/svg" xmlns:xlink="https://www.w3.org/1999/xlink" x="0px" y="0px"
	 width="50px" height="50px" viewBox="0 0 50 50" enable-background="new 0 0 50 50" xml:space="preserve">
<path fill="#1D1D1B" d="M47.287,7.023c-4.764-8.13-17.418-4.969-22.676,1.223c-1.833-1.567-3.31-3.226-5.894-3.817
	c-2.984-0.683-5.786-0.584-8.741,0.17c-5.777,1.475-8.671,6.586-8.993,12.246C0.248,29.78,15.916,38.626,22.958,47.463
	c0.655,0.822,2.843,0.25,3.521-0.69c6.065-4.217,11.164-10.318,15.554-16.198C46.729,24.286,51.799,14.724,47.287,7.023z
	 M44.819,17.637c-0.867,6.44-5.243,11.988-9.229,16.817c-2.955,3.581-6.035,7.257-9.62,10.27c-0.169-0.064-0.365-0.1-0.579-0.109
	C19.969,38.287,13.17,33.257,8.338,26.39c-2.829-4.021-4.095-8.662-3.016-13.499c0.879-3.94,3.502-6.638,7.752-6.881
	c4.149-0.237,6.105,2.454,9.058,4.617c0.677,0.496,2.331,0.063,3.206-0.506c0.816-0.14,1.633-0.424,1.879-0.852
	c2.773-4.81,7.902-6.592,12.961-4.124C44.927,7.464,45.439,13.023,44.819,17.637z"/>
</svg>
