<svg xmlns="http://www.w3.org/2000/svg" viewBox="0 0 50 50"><g fill="#1D1D1B"><path d="M48.717 18.531c-.183-3.466.013-7.837-1.354-11.095-1.174-2.8-5.094-3.795-7.684-4.542-6.722-1.938-15.315-1.75-22.305-1.271-3.958.273-9.659.91-11.954 4.611-2.866 2.501-3.549 6.667-3.778 10.797C1.164 25.678.558 36.209 2.85 44.595c.646 2.361 2.707 3.385 4.902 3.887 1.777.406 3.743.143 5.536-.021 3.442-.312 6.732-.167 10.176-.025a90.195 90.195 0 0015.419-.687c2.926-.384 5.587-1.014 7.509-3.36 1.845-2.252 1.553-7.291 1.764-9.95.415-5.244.837-10.652.561-15.908zM21.373 3.724c6.099.141 12.677-.098 18.443 2.093 5.681 2.158 4.648 8.692 5.036 13.749.072.939.111 1.888.132 2.842-2.257.068-4.533.445-6.781.159a2.643 2.643 0 00-.775.027c-.663-2.708-2.305-5.067-4.9-6.457.333.098.701.117.959.084 2.098-.267 4.804.458 7.104-.391 2.548-.94 1.261-5.035 1.214-6.918-.019-.769-.562-1-1.251-1.118-1.771-.303-3.55-.191-5.327.002a3.75 3.75 0 00-.559.111c-1.068-.393-3.102.231-3.26 1.364-.29 2.076-.019 4.123.351 6.171a.73.73 0 00.234.413 10.577 10.577 0 00-1.139-.448c-5.625-1.834-12.704.864-15.87 5.777h-.004c-2.797.569-5.633.609-8.473.746-.408.02-.763.137-1.057.312.002-.484.006-.97.006-1.45-.004-2.75-.421-9.239 1.577-12.561.747-.208 1.427-.59 1.588-1.089.074-.229.175-.437.285-.637.125-.054.24-.124.374-.164 1.215-.359 1.64-1.065 1.432-1.549 2.95-1.568 8.007-1.129 10.661-1.068zm-4.385 19.714c.529-.175.994-.478 1.227-.916 2.113-3.987 7.317-5.411 11.438-4.067 4.392 1.432 4.632 7.215 3.628 10.852-3.322 12.037-20.479 5.086-16.293-5.869zm20.985-13.179c.05.595.111 1.189.165 1.783.043.489.066.976.064 1.467-.001.074-.013.146-.017.219-.896-.001-1.801-.106-2.7-.144-.175-1.079-.302-2.149-.286-3.232.935-.093 1.85-.148 2.774-.093zm.148 4.121c-.052.249-.11.188 0 0zm4.678 29.938c-.762 1.498-5.544 1.589-7.111 1.749-4.178.426-8.415.291-12.603.119-3.175-.13-6.107-.228-9.263.158-4.409.539-6.833-.604-7.573-4.9-.925-5.377-.871-11.062-.818-16.601.218.06.472.091.775.076 2.212-.107 4.4-.21 6.581-.467-1.514 6.206 2.137 12.524 8.836 14.044 7.146 1.624 12.936-1.859 15.375-8.664a13.12 13.12 0 00.774-4.463c2.399.154 4.81-.215 7.209-.247-.11 5.25-.791 10.613-1.304 15.713-.122 1.227-.312 2.367-.878 3.483z"/><path d="M29.398 31.073c2.46-1.359 2.786-4.504 2.001-6.928-.933-2.875-3.558-4.248-6.451-3.397-.658-.291-1.637-.068-2.199.179-3.281 1.445-5.036 4.895-2.983 8.167 2.041 3.254 6.438 3.743 9.632 1.979zm-5.482-8.239c.517.132 1.192.034 1.542-.071.042-.013.062-.021.092-.032.007.002.006.005.014.008.28.099.511.265.732.457.603.526.967 1.248 1.238 1.984.51 1.38.595 3.103-.236 4.37-.325.497-.275.345-1.008.24-1.18-.169-2.079-.995-2.749-1.923-1.018-1.408-1.163-3.972.375-5.033z"/></g></svg>