<?xml version="1.0" encoding="utf-8"?>
<!-- Generator: Adobe Illustrator 15.0.0, SVG Export Plug-In . SVG Version: 6.00 Build 0)  -->
<!DOCTYPE svg PUBLIC "-//W3C//DTD SVG 1.1//EN" "http://www.w3.org/Graphics/SVG/1.1/DTD/svg11.dtd">
<svg version="1.1" id="Capa_1" xmlns="http://www.w3.org/2000/svg" xmlns:xlink="http://www.w3.org/1999/xlink" x="0px" y="0px"
	 width="342.444px" height="358.141px" viewBox="0 0 342.444 358.141" enable-background="new 0 0 342.444 358.141"
	 xml:space="preserve">
<g>
	<g>
		<path d="M171.387,4.889c-18.553,0-33.64,14.549-34.711,32.831c-34.974,8.01-65.548,27.893-87.173,55.123
			c-1.2,1.6-0.929,4.138,0.533,5.338c1.604,1.2,4.139,0.934,5.339-0.533c20.292-25.626,48.86-44.308,81.696-52.185
			c2.81,16.415,17.091,28.964,34.311,28.964c17.22,0,31.502-12.544,34.307-28.964c32.841,7.877,61.409,26.559,81.568,52.185
			c1.333,1.472,3.871,1.733,5.338,0.533c1.601-1.2,1.872-3.738,0.667-5.338c-21.625-27.227-52.194-46.979-87.173-54.985
			C205.023,19.571,189.941,4.889,171.387,4.889L171.387,4.889z M171.387,12.228c15.082,0,27.235,12.41,27.235,27.492
			s-12.153,27.226-27.235,27.226c-15.215,0-27.235-12.144-27.235-27.226S156.167,12.228,171.387,12.228L171.387,12.228z
			 M311.821,129.279c-2.271,0.271-4.005,3.076-3.071,5.21c6.672,16.948,10.415,35.369,10.415,54.718
			c0,14.683-2.271,28.831-6.139,42.174c-15.62-5.872-33.641,0.267-42.322,15.082c-8.544,14.949-4.938,33.636,7.877,44.312
			c-22.297,23.492-52.199,39.774-85.835,44.575c-2.005,0.271-3.472,2.404-3.205,4.271c0.267,2,2.271,3.601,4.267,3.333
			c35.912-5.205,67.687-22.691,91.312-47.917c16.287,8.276,36.584,2.404,45.927-13.749c9.211-16.016,4.139-36.569-11.21-46.575
			c4.405-14.415,6.811-29.634,6.811-45.516c0-20.283-3.872-39.637-10.949-57.386C315.158,130.217,313.425,129.145,311.821,129.279
			L311.821,129.279z M30.015,129.416c-1.338,0.129-2.538,1.2-3.076,2.4c-6.943,17.754-10.943,37.103-10.943,57.385
			c0,15.754,2.528,31.098,6.938,45.517c-15.487,10.011-20.554,30.56-11.216,46.575c9.22,16.153,29.641,22.025,46.061,13.615
			c23.497,25.354,55.399,42.841,91.178,48.046c2,0.268,4.001-1.333,4.268-3.333c0.271-1.872-1.2-4.005-3.205-4.271
			c-33.636-4.806-63.676-21.088-85.973-44.713c12.811-10.544,16.554-29.23,7.872-44.175c-8.539-14.815-26.564-20.954-42.18-15.082
			c-4.01-13.348-6.139-27.63-6.139-42.174c0-19.349,3.601-37.77,10.277-54.585c0.929-2.267-0.934-5.2-3.472-5.2
			C30.277,129.416,30.149,129.416,30.015,129.416L30.015,129.416z M41.093,236.581c9.748-0.129,19.226,4.672,24.431,13.749
			c7.472,13.082,3.071,29.631-10.016,37.103c-13.082,7.61-29.773,3.205-37.384-9.872c-7.472-13.082-3.071-29.764,10.021-37.236
			C32.287,237.919,36.687,236.719,41.093,236.581L41.093,236.581z M301.543,236.581c4.405,0.134,8.943,1.333,12.949,3.738
			c13.086,7.473,17.62,24.154,10.015,37.236c-7.61,13.077-24.159,17.615-37.241,10.01c-13.215-7.472-17.491-24.153-10.015-37.235
			C282.451,241.258,291.929,236.319,301.543,236.581L301.543,236.581z"/>
	</g>
</g>
<g>
	<path d="M74.495,196.924v-35.146h6.507c0.655,0,1.203,0.147,1.644,0.44c0.441,0.294,0.751,0.735,0.932,1.322l0.61,2.034
		c0.678-0.632,1.378-1.22,2.102-1.762c0.723-0.542,1.497-1,2.321-1.373c0.825-0.373,1.717-0.667,2.678-0.881
		c0.96-0.214,2.005-0.322,3.135-0.322c1.92,0,3.621,0.333,5.101,1c1.479,0.667,2.729,1.593,3.745,2.779
		c1.017,1.186,1.785,2.598,2.305,4.236c0.52,1.638,0.779,3.417,0.779,5.338v22.334H95.847v-22.334c0-1.717-0.396-3.056-1.186-4.016
		c-0.791-0.96-1.955-1.44-3.491-1.44c-1.152,0-2.237,0.249-3.254,0.746c-1.017,0.497-1.988,1.164-2.915,2v25.046H74.495z"/>
	<path d="M138.075,196.924c-0.995,0-1.746-0.136-2.254-0.407s-0.932-0.835-1.271-1.694l-0.746-1.932
		c-0.881,0.746-1.729,1.401-2.542,1.966c-0.813,0.565-1.655,1.045-2.525,1.44c-0.87,0.396-1.796,0.689-2.779,0.881
		c-0.983,0.191-2.073,0.288-3.271,0.288c-1.605,0-3.062-0.21-4.372-0.629c-1.311-0.419-2.423-1.037-3.338-1.853
		c-0.915-0.816-1.622-1.831-2.118-3.043c-0.498-1.213-0.746-2.612-0.746-4.199c0-1.247,0.316-2.527,0.949-3.842
		c0.632-1.314,1.729-2.51,3.288-3.587c1.559-1.076,3.66-1.977,6.304-2.703s5.976-1.088,9.998-1.088v-1.505
		c0-2.075-0.424-3.574-1.271-4.498c-0.847-0.923-2.05-1.385-3.609-1.385c-1.243,0-2.26,0.136-3.05,0.407
		c-0.791,0.271-1.497,0.576-2.118,0.915c-0.622,0.339-1.226,0.644-1.813,0.915c-0.588,0.271-1.288,0.407-2.102,0.407
		c-0.723,0-1.339-0.175-1.847-0.525c-0.508-0.35-0.91-0.785-1.203-1.305l-1.898-3.288c2.124-1.875,4.479-3.271,7.066-4.186
		c2.587-0.915,5.36-1.373,8.32-1.373c2.124,0,4.039,0.345,5.745,1.034c1.706,0.689,3.152,1.649,4.338,2.881
		c1.186,1.231,2.095,2.694,2.728,4.389c0.632,1.695,0.949,3.548,0.949,5.558v21.962H138.075z M126.01,190.518
		c1.355,0,2.542-0.237,3.559-0.712c1.017-0.475,2.044-1.242,3.084-2.305v-4.812c-2.101,0-3.83,0.137-5.186,0.41
		c-1.355,0.273-2.429,0.616-3.22,1.026c-0.791,0.411-1.338,0.877-1.644,1.402s-0.458,1.093-0.458,1.709
		c0,1.208,0.327,2.057,0.983,2.547C123.783,190.274,124.744,190.518,126.01,190.518z"/>
	<path d="M160.849,146.188v28.435h1.559c0.655,0,1.158-0.09,1.508-0.271c0.35-0.181,0.683-0.508,1-0.983l6.644-9.896
		c0.383-0.587,0.842-1.017,1.371-1.288c0.531-0.271,1.203-0.407,2.018-0.407h9.625l-9.082,12.506
		c-0.43,0.588-0.898,1.107-1.408,1.559c-0.508,0.452-1.055,0.859-1.643,1.22c1.016,0.769,1.898,1.785,2.643,3.05l9.896,16.81h-9.488
		c-0.793,0-1.475-0.13-2.051-0.39s-1.045-0.717-1.406-1.373l-6.644-12.438c-0.316-0.564-0.644-0.932-0.983-1.102
		c-0.339-0.169-0.847-0.254-1.525-0.254h-2.034v15.556h-10.506v-50.735H160.849z"/>
	<path d="M232.801,172.928c0,3.706-0.555,7.038-1.661,9.998c-1.107,2.96-2.666,5.479-4.677,7.558
		c-2.012,2.079-4.418,3.672-7.219,4.779c-2.803,1.107-5.909,1.661-9.32,1.661h-17.488v-47.957h17.488
		c3.411,0,6.518,0.554,9.32,1.661c2.801,1.107,5.207,2.7,7.219,4.779c2.011,2.079,3.569,4.598,4.677,7.558
		C232.246,165.925,232.801,169.246,232.801,172.928z M229.208,172.928c0-3.344-0.464-6.326-1.39-8.947
		c-0.927-2.621-2.231-4.835-3.914-6.643c-1.684-1.807-3.712-3.186-6.084-4.135c-2.372-0.949-5.005-1.423-7.896-1.423h-13.997v42.331
		h13.997c2.892,0,5.524-0.475,7.896-1.423c2.372-0.949,4.4-2.327,6.084-4.135c1.683-1.808,2.987-4.021,3.914-6.643
		C228.744,179.289,229.208,176.295,229.208,172.928z"/>
	<path d="M267.166,154.797c-0.203,0.384-0.497,0.576-0.881,0.576c-0.295,0-0.675-0.209-1.14-0.627s-1.094-0.881-1.887-1.39
		c-0.794-0.508-1.785-0.977-2.976-1.407c-1.189-0.429-2.657-0.644-4.402-0.644c-1.746,0-3.281,0.249-4.607,0.746
		c-1.326,0.498-2.438,1.175-3.332,2.034c-0.896,0.859-1.576,1.853-2.04,2.982c-0.465,1.13-0.697,2.316-0.697,3.559
		c0,1.627,0.345,2.971,1.035,4.033c0.689,1.062,1.601,1.966,2.732,2.711c1.131,0.746,2.415,1.373,3.852,1.881
		s2.913,1.011,4.43,1.508c1.516,0.497,2.991,1.045,4.429,1.644c1.437,0.599,2.721,1.351,3.852,2.254
		c1.131,0.904,2.042,2.017,2.732,3.338s1.035,2.965,1.035,4.931c0,2.011-0.345,3.903-1.033,5.677c-0.689,1.774-1.689,3.316-3,4.626
		c-1.311,1.311-2.914,2.345-4.812,3.101c-1.897,0.757-4.066,1.136-6.507,1.136c-3.164,0-5.886-0.56-8.168-1.678
		c-2.282-1.119-4.282-2.649-5.999-4.592l0.949-1.491c0.271-0.339,0.587-0.508,0.949-0.508c0.203,0,0.464,0.135,0.78,0.406
		c0.316,0.271,0.701,0.605,1.154,1c0.452,0.396,0.995,0.825,1.629,1.288c0.633,0.463,1.368,0.893,2.206,1.288
		c0.837,0.396,1.798,0.729,2.884,1c1.087,0.271,2.32,0.407,3.7,0.407c1.9,0,3.598-0.288,5.091-0.864s2.755-1.361,3.784-2.355
		c1.029-0.994,1.815-2.174,2.358-3.542c0.543-1.367,0.814-2.83,0.814-4.389c0-1.695-0.345-3.089-1.035-4.186
		c-0.69-1.096-1.602-2.011-2.732-2.745s-2.415-1.35-3.852-1.847s-2.913-0.983-4.429-1.458c-1.517-0.475-2.993-1.005-4.43-1.593
		c-1.437-0.587-2.721-1.339-3.852-2.254c-1.132-0.915-2.043-2.056-2.732-3.423c-0.69-1.367-1.035-3.079-1.035-5.135
		c0-1.604,0.305-3.152,0.916-4.643s1.505-2.807,2.682-3.948c1.177-1.141,2.63-2.056,4.361-2.745c1.73-0.689,3.705-1.034,5.923-1.034
		c2.488,0,4.722,0.396,6.702,1.186c1.979,0.791,3.783,2,5.411,3.626L267.166,154.797z"/>
</g>
</svg>
