<svg width="50" height="50" viewBox="0 0 50 50" fill="none" xmlns="http://www.w3.org/2000/svg">
<path fill-rule="evenodd" clip-rule="evenodd" d="M27.9653 20.2973C28.0747 20.3558 28.1793 20.4117 28.2775 20.4628C29.5661 21.1319 30.4357 22.2372 30.734 23.5445C31.0327 24.8533 30.737 26.2695 29.8666 27.5105C29.1725 28.5003 27.9897 29.2513 26.7781 29.6543C25.569 30.0565 24.1873 30.1596 23.0731 29.6696C22.3726 29.3616 21.6133 28.8493 20.9985 28.191C20.388 27.5374 19.8676 26.6817 19.763 25.6843C19.4961 23.1394 20.5314 20.6963 22.8729 19.7828C23.0057 19.731 23.1437 19.727 23.2708 19.7626C23.3249 19.7475 23.3816 19.7395 23.44 19.7395C23.6235 19.7395 23.8152 19.6964 24.0728 19.6246C24.1054 19.6155 24.1397 19.6058 24.1754 19.5956C24.3973 19.5324 24.6753 19.4533 24.9608 19.4184C25.6288 19.3368 26.2541 19.5034 26.7983 19.7251C27.2042 19.8904 27.6101 20.1074 27.9653 20.2973ZM23.2765 21.1834C21.6872 21.8341 20.8967 23.516 21.1067 25.5189C21.1641 26.0667 21.4657 26.6311 21.9489 27.1485C22.4277 27.6611 23.0336 28.0707 23.5816 28.3117C24.3027 28.6288 25.3396 28.5998 26.3813 28.2533C27.4204 27.9076 28.3204 27.2933 28.79 26.6238C29.4451 25.6896 29.6095 24.7217 29.4212 23.8963C29.2325 23.0694 28.6679 22.2905 27.6932 21.7844C27.5651 21.7179 27.4414 21.6518 27.3205 21.5872C26.9795 21.4051 26.66 21.2344 26.3225 21.0969C25.8785 20.9161 25.4827 20.8295 25.1122 20.8747C24.9316 20.8968 24.7588 20.9456 24.5322 21.0095C24.4931 21.0206 24.4524 21.032 24.4098 21.0439C24.1428 21.1184 23.8079 21.205 23.44 21.205C23.3836 21.205 23.3289 21.1975 23.2765 21.1834Z" fill="black"/>
<path fill-rule="evenodd" clip-rule="evenodd" d="M31.5895 18.2174C31.5042 18.3485 31.4123 18.4898 31.3654 18.5524C31.1324 18.8636 30.8951 19.2007 30.6507 19.5478C30.1381 20.276 29.5946 21.048 28.9963 21.7156C28.7361 22.0059 28.308 22.0126 28.0401 21.7306C27.7723 21.4486 27.7661 20.9847 28.0263 20.6944C28.5709 20.0868 29.0251 19.4402 29.5059 18.7557C29.7622 18.3909 30.0261 18.0153 30.3152 17.6291C30.3147 17.6297 30.3144 17.6301 30.3144 17.6301C30.3144 17.6301 30.3186 17.6242 30.3289 17.6091C30.3402 17.5925 30.3547 17.5706 30.3727 17.5434C30.4087 17.4888 30.4536 17.4199 30.5049 17.3411L30.5063 17.339C30.6067 17.1846 30.7298 16.9955 30.8382 16.8357C30.8925 16.7557 30.9469 16.6773 30.9955 16.6115L30.9966 16.61C31.0297 16.5651 31.1042 16.4641 31.1878 16.39C31.2089 16.3713 31.2733 16.315 31.3676 16.2723C31.4265 16.2456 31.7756 16.1018 32.0858 16.4016C32.3321 16.6396 32.3155 16.9516 32.3133 16.9926C32.3133 16.9937 32.3132 16.9945 32.3132 16.9952C32.3092 17.0814 32.2922 17.1497 32.2846 17.1788C32.2558 17.2883 32.2014 17.4102 32.1588 17.5025C32.0871 17.6579 31.9712 17.7737 31.836 17.8408C31.7609 17.9539 31.6822 18.0749 31.61 18.1858C31.6032 18.1962 31.5964 18.2068 31.5895 18.2174Z" fill="black"/>
<path fill-rule="evenodd" clip-rule="evenodd" d="M32.5914 14.0984C32.8522 13.8087 33.2803 13.803 33.5476 14.0856C33.5475 14.0855 33.5476 14.0856 33.5478 14.0858C33.55 14.088 33.5673 14.1046 33.6104 14.1408C33.6534 14.1768 33.7067 14.2195 33.7709 14.2705C33.787 14.2833 33.8037 14.2965 33.8211 14.3102C33.9353 14.4007 34.0731 14.5098 34.1979 14.6172C34.3285 14.7295 34.5056 14.8901 34.6266 15.0644C34.6776 15.1379 34.7991 15.3237 34.8139 15.5807C34.8226 15.7313 34.7941 15.9039 34.7007 16.0644C34.611 16.2186 34.4908 16.3111 34.392 16.3646C34.058 16.5456 33.6519 16.3989 33.4849 16.0369C33.4527 15.9672 33.4317 15.8946 33.4213 15.8214C33.4016 15.8037 33.3803 15.7849 33.3572 15.7651C33.2552 15.6774 33.1417 15.5874 33.0255 15.4954C33.0077 15.4813 32.9898 15.4671 32.9718 15.4528C32.9695 15.451 32.9673 15.4492 32.965 15.4474C32.8534 15.3588 32.7007 15.2377 32.6032 15.1346C32.3359 14.852 32.3306 14.3881 32.5914 14.0984Z" fill="black"/>
<path fill-rule="evenodd" clip-rule="evenodd" d="M29.0876 26.3778C29.2521 26.0145 29.6573 25.8646 29.9925 26.043C31.5274 26.8595 32.9303 27.5179 34.5346 27.8982C34.6979 27.9369 34.8104 27.9556 34.898 27.9701C34.9333 27.976 34.9646 27.9812 34.9935 27.9867L34.9945 27.9869C35.0024 27.9884 35.0393 27.9954 35.0796 28.0081C35.0925 28.0122 35.1168 28.0202 35.1463 28.0331L35.1469 28.0334C35.1656 28.0416 35.2394 28.074 35.3175 28.142C35.3636 28.1823 35.6759 28.4742 35.5374 28.9389C35.4818 29.1254 35.374 29.2365 35.3131 29.2887C35.2497 29.343 35.1911 29.373 35.1596 29.3876C35.0968 29.4168 35.0441 29.4288 35.0261 29.4327C35.0017 29.438 34.9817 29.4409 34.97 29.4424C34.9467 29.4455 34.9274 29.4467 34.9179 29.4472C34.8975 29.4484 34.8778 29.4487 34.8649 29.4489C34.8372 29.4492 34.7924 29.4491 34.7361 29.4489C34.6951 29.4488 34.6479 29.4486 34.5968 29.4486C34.4567 29.4486 34.3267 29.4025 34.2188 29.3235C32.4651 28.9042 30.9535 28.1868 29.3966 27.3585C29.0613 27.1802 28.923 26.7411 29.0876 26.3778Z" fill="black"/>
<path fill-rule="evenodd" clip-rule="evenodd" d="M38.0652 28.7707C38.4107 28.9243 38.5759 29.3523 38.4341 29.7268C38.3878 29.8492 38.3105 30.0254 38.2413 30.1755C38.1781 30.3124 38.0932 30.4901 38.0331 30.5879C37.8259 30.9246 37.4061 31.0156 37.0954 30.7911C36.7847 30.5666 36.7007 30.1117 36.9079 29.7749C36.9068 29.7767 36.9071 29.7761 36.9089 29.7727C36.913 29.7652 36.9246 29.7435 36.9448 29.7027C36.9699 29.6521 37.0001 29.5886 37.0316 29.5203C37.0968 29.3788 37.1561 29.2415 37.183 29.1705C37.3247 28.7961 37.7197 28.6171 38.0652 28.7707Z" fill="black"/>
<path fill-rule="evenodd" clip-rule="evenodd" d="M26.1294 28.3772C26.4887 28.2669 26.8625 28.4931 26.9643 28.8825C27.1392 29.5517 27.359 30.1912 27.5951 30.8475C27.6432 30.9812 27.6922 31.1161 27.7416 31.2523C27.9317 31.7759 28.1283 32.3175 28.3053 32.8736C28.3197 32.9188 28.3483 33.0176 28.3829 33.137C28.4034 33.2078 28.426 33.2858 28.4489 33.3643C28.5153 33.5909 28.5944 33.8545 28.6698 34.0826C28.6751 34.0986 28.6804 34.1143 28.6855 34.1298C28.8848 34.2572 29.0184 34.4923 29.0184 34.7612C29.0184 34.8293 29.0157 34.9146 29.002 35.0013C28.9951 35.0448 28.9825 35.1087 28.9568 35.1797C28.9335 35.2439 28.8809 35.3667 28.7676 35.4767C28.6341 35.6064 28.4464 35.6867 28.2398 35.6658C28.0629 35.6479 27.9395 35.5624 27.8799 35.5138C27.7666 35.4214 27.7002 35.3098 27.6767 35.2697C27.5715 35.0901 27.4705 34.8 27.3967 34.5767C27.3127 34.3227 27.2277 34.0386 27.16 33.8078C27.1275 33.6969 27.1006 33.6037 27.0793 33.53C27.0532 33.4397 27.0356 33.3789 27.0268 33.3513C26.8603 32.8278 26.6773 32.3237 26.4886 31.8038C26.4378 31.6639 26.3866 31.5228 26.3351 31.3798C26.0958 30.7145 25.8565 30.0215 25.6632 29.282C25.5614 28.8926 25.7701 28.4875 26.1294 28.3772Z" fill="black"/>
<path fill-rule="evenodd" clip-rule="evenodd" d="M29.8046 39.4891C29.7731 39.5344 29.7441 39.5762 29.7186 39.6113C29.4874 39.9292 29.0623 39.9838 28.769 39.7334C28.4756 39.4829 28.4252 39.0222 28.6563 38.7043C28.6598 38.6994 28.6676 38.6882 28.6789 38.6718C28.7528 38.5641 28.9796 38.2339 29.1842 38.0158C29.2481 37.9477 29.3295 37.8684 29.4223 37.8009C29.4979 37.7459 29.6673 37.6334 29.8925 37.6239C30.0208 37.6185 30.1699 37.647 30.3121 37.7389C30.4519 37.8293 30.5423 37.9534 30.5978 38.0659C30.697 38.2669 30.7088 38.4773 30.7088 38.6082C30.7088 39.0129 30.4061 39.341 30.0326 39.341C29.9931 39.341 29.9543 39.3373 29.9165 39.3302C29.877 39.385 29.8393 39.4393 29.8046 39.4891ZM29.3558 38.5911C29.3559 38.5909 29.3563 38.5941 29.3564 38.6011C29.3557 38.5947 29.3557 38.5912 29.3558 38.5911Z" fill="black"/>
<path fill-rule="evenodd" clip-rule="evenodd" d="M22.8293 28.4942C23.1289 28.7357 23.1912 29.1947 22.9684 29.5195C22.3589 30.4078 21.8785 31.3037 21.3712 32.2499C21.137 32.6867 20.897 33.1342 20.636 33.5966C20.5641 33.724 20.4063 33.9268 20.2871 34.08L20.2795 34.0899C20.2493 34.1286 20.2187 34.1678 20.1881 34.2071C20.1448 34.2626 20.1014 34.3182 20.059 34.3729C20.0651 34.6029 19.9715 34.8325 19.7887 34.981C19.678 35.071 19.5562 35.1644 19.4443 35.2227C19.4126 35.2392 19.3643 35.2624 19.3052 35.2804C19.2574 35.295 19.1373 35.3276 18.9877 35.2996C18.7993 35.2644 18.5854 35.1325 18.4767 34.8717C18.3916 34.6675 18.4162 34.4853 18.4277 34.4188C18.4518 34.279 18.5083 34.1707 18.526 34.1368L18.5264 34.136C18.5539 34.0834 18.5845 34.0334 18.6116 33.9915C18.6665 33.9064 18.7346 33.8116 18.8027 33.7199C18.9121 33.5726 19.0438 33.4039 19.1613 33.2533C19.1904 33.216 19.2187 33.1798 19.2455 33.1453C19.3153 33.0555 19.3754 32.9775 19.4221 32.9147C19.4557 32.8695 19.4733 32.8442 19.4803 32.8341C19.4847 32.8277 19.4849 32.8273 19.4824 32.8318C19.7093 32.4299 19.9317 32.0154 20.1572 31.5952C20.6837 30.6139 21.2269 29.6015 21.8832 28.645C22.106 28.3202 22.5296 28.2527 22.8293 28.4942Z" fill="black"/>
<path fill-rule="evenodd" clip-rule="evenodd" d="M16.0239 36.4494C16.2838 36.1588 16.7119 36.1517 16.98 36.4334C17.0559 36.5132 17.1347 36.6068 17.1945 36.6779C17.2106 36.6971 17.2254 36.7147 17.2383 36.7298C17.2669 36.7634 17.291 36.7907 17.3114 36.8131C17.5932 36.712 17.9135 36.822 18.0861 37.1026C18.2933 37.4393 18.2093 37.8943 17.8986 38.1188C17.682 38.2753 17.4273 38.3597 17.1536 38.3245C16.8981 38.2917 16.7009 38.1637 16.5681 38.0542C16.4364 37.9455 16.3245 37.8176 16.2451 37.7244C16.2182 37.6929 16.1947 37.665 16.1735 37.6398C16.1209 37.5773 16.0819 37.5311 16.0386 37.4855C15.7705 37.2038 15.7639 36.7399 16.0239 36.4494ZM17.3988 36.8969C17.3988 36.8969 17.3982 36.8965 17.3969 36.8956C17.3982 36.8964 17.3988 36.8968 17.3988 36.8969Z" fill="black"/>
<path fill-rule="evenodd" clip-rule="evenodd" d="M12.7475 21.8104C12.807 21.8221 12.9032 21.8495 13.0131 21.8815C13.591 22.0502 14.1647 22.0863 14.8221 22.1276C14.9933 22.1384 15.1702 22.1495 15.3543 22.1634C17.0918 22.2948 18.853 22.4516 20.6074 23.0732C20.9623 23.1989 21.156 23.6127 21.04 23.9974C20.9239 24.382 20.5421 24.5919 20.1871 24.4662C18.6109 23.9077 17.0048 23.7573 15.2602 23.6254C15.1141 23.6144 14.9626 23.6051 14.8069 23.5955C14.2569 23.5618 13.6548 23.5249 13.0556 23.396C12.9419 23.4138 12.8226 23.4004 12.7083 23.3509C12.6553 23.3279 12.6129 23.3119 12.5652 23.2939C12.522 23.2776 12.4745 23.2596 12.4109 23.2334C12.3991 23.2286 12.3838 23.2221 12.368 23.215C12.3678 23.2149 12.3675 23.2147 12.3671 23.2146C12.3591 23.211 12.3173 23.1922 12.2725 23.1634C12.2585 23.1545 12.2304 23.1358 12.1979 23.1082C12.1975 23.1079 12.1971 23.1075 12.1967 23.1071C12.1769 23.0904 12.0886 23.0155 12.0217 22.8831C11.9835 22.8076 11.9292 22.668 11.9397 22.485C11.9514 22.2826 12.0371 22.1167 12.1437 22.0046C12.3042 21.8358 12.4892 21.8091 12.518 21.8049C12.519 21.8048 12.5198 21.8047 12.5204 21.8046C12.6095 21.7909 12.6832 21.8005 12.6933 21.8018C12.6937 21.8019 12.694 21.8019 12.6942 21.8019C12.7176 21.8048 12.7369 21.8083 12.7475 21.8104ZM12.8782 21.8578C12.8785 21.8579 12.8825 21.8595 12.889 21.8625C12.8811 21.8592 12.8778 21.8577 12.8782 21.8578Z" fill="black"/>
<path fill-rule="evenodd" clip-rule="evenodd" d="M11.0077 20.3392C11.3556 20.4863 11.5275 20.9112 11.3918 21.2882C11.3694 21.3503 11.3427 21.4205 11.3146 21.4942C11.3129 21.4987 11.3112 21.5032 11.3095 21.5077C11.5016 21.7943 11.4784 22.1975 11.24 22.4559C11.1447 22.5592 11.0365 22.6653 10.9212 22.7428C10.8646 22.7809 10.7716 22.8361 10.6523 22.8653C10.5279 22.8959 10.3198 22.9095 10.1123 22.7733C9.90762 22.6389 9.82391 22.4374 9.7913 22.3139C9.75941 22.1932 9.7586 22.0862 9.76098 22.0226C9.76582 21.8933 9.79244 21.7695 9.81385 21.6832C9.88084 21.4129 10.0265 21.0322 10.0973 20.8471C10.1132 20.8055 10.1254 20.7738 10.132 20.7554C10.2677 20.3784 10.6598 20.192 11.0077 20.3392Z" fill="black"/>
<path fill-rule="evenodd" clip-rule="evenodd" d="M23.2407 14.7796C23.2406 14.7797 23.2399 14.7774 23.2387 14.7732C23.476 15.5759 23.6625 16.402 23.8421 17.1977C23.8637 17.2935 23.8853 17.3888 23.9068 17.4835C24.1095 18.3776 24.3117 19.2313 24.5826 20.0386C24.7102 20.4189 24.5291 20.8394 24.1782 20.9777C23.8272 21.116 23.4393 20.9198 23.3117 20.5394C23.0131 19.6498 22.7961 18.7265 22.5935 17.8333C22.5718 17.7377 22.5503 17.6425 22.5289 17.5477C22.3476 16.7451 22.1727 15.9708 21.9509 15.2204C21.9213 15.1205 21.9025 15.0025 21.8902 14.9206C21.876 14.8252 21.8618 14.7137 21.8478 14.6025C21.845 14.5804 21.8423 14.5581 21.8395 14.5359C21.8155 14.344 21.791 14.1478 21.7629 13.9705C21.4453 13.7823 21.3196 13.3538 21.4829 13C21.5161 12.9279 21.5646 12.8364 21.6346 12.7499C21.7004 12.6686 21.8319 12.534 22.0393 12.4813C22.2776 12.4207 22.4891 12.4987 22.6323 12.6092C22.7559 12.7045 22.8279 12.8205 22.8649 12.8882C22.9399 13.0257 22.9835 13.1783 23.0102 13.2847C23.0401 13.4043 23.0648 13.5345 23.0856 13.6597C23.1227 13.8835 23.1537 14.1321 23.1793 14.3374C23.1822 14.3606 23.1851 14.3832 23.1878 14.4052C23.202 14.5178 23.2141 14.6119 23.2252 14.6864C23.2353 14.7541 23.241 14.7796 23.2407 14.7796ZM22.6925 13.6554C22.6925 13.6554 22.6924 13.6554 22.6924 13.6554C22.6924 13.6554 22.6925 13.6554 22.6925 13.6554ZM22.6936 13.653C22.6936 13.6531 22.6932 13.6539 22.6925 13.6554C22.6932 13.6538 22.6936 13.653 22.6936 13.653Z" fill="black"/>
<path fill-rule="evenodd" clip-rule="evenodd" d="M22.052 9.37488C22.386 9.55587 22.5214 9.99602 22.3544 10.358C22.2258 10.6367 22.0027 10.8171 21.8529 10.9223C21.6856 11.0399 21.4968 11.1392 21.3295 11.2203C21.2038 11.2812 21.0713 11.3406 20.9565 11.3921C20.9189 11.4089 20.8832 11.4249 20.8503 11.4398C20.6991 11.5083 20.6128 11.5513 20.5698 11.5786C20.2475 11.7831 19.8333 11.6657 19.6447 11.3164C19.456 10.9672 19.5643 10.5183 19.8866 10.3139C20.0202 10.2292 20.1897 10.1507 20.3286 10.0877C20.3713 10.0684 20.4132 10.0496 20.4545 10.0311C20.5646 9.98172 20.6707 9.93415 20.7774 9.88244C20.9237 9.81158 21.0377 9.74846 21.1174 9.6925C21.1441 9.67374 21.1611 9.65982 21.1709 9.6512C21.3512 9.32709 21.7342 9.20272 22.052 9.37488Z" fill="black"/>
<path fill-rule="evenodd" clip-rule="evenodd" d="M37.3623 5.81934C36.525 5.86103 35.6646 6.15357 35.012 6.51036C32.2612 8.01434 29.7031 10.0738 28.4839 13.1566C28.0542 14.2431 27.8782 15.4044 27.7093 16.6139C27.7009 16.6741 27.6925 16.7344 27.6841 16.7949C27.5258 17.9343 27.3615 19.1162 26.9677 20.2363C26.9013 20.4254 26.7059 20.5202 26.5315 20.4482C26.357 20.3762 26.2694 20.1645 26.3359 19.9754C26.7029 18.9313 26.8574 17.8212 27.0188 16.6617C27.0261 16.6093 27.0334 16.5569 27.0408 16.5043C27.2086 15.3023 27.3941 14.0523 27.8624 12.8679C29.1747 9.54953 31.9039 7.38894 34.7074 5.85613C35.4289 5.46171 36.3821 5.1346 37.3313 5.08735C38.2798 5.04012 39.2678 5.27212 39.9916 6.05648C40.8616 6.99933 41.2649 8.31712 41.3326 9.6387C41.4003 10.9609 41.1351 12.3255 40.6264 13.403C39.2399 16.3398 37.4258 19.555 34.8065 21.4972C34.6435 21.618 33.464 22.5751 32.4012 23.4637C31.8713 23.9067 31.377 24.3272 31.0584 24.613C30.9789 24.6843 30.9139 24.7441 30.8633 24.7921C30.8372 24.8849 30.7774 24.9665 30.691 25.0133C30.6654 25.0272 30.6301 25.0452 30.5927 25.058C30.5759 25.0637 30.5388 25.0755 30.4921 25.0778C30.4633 25.0792 30.3164 25.0839 30.209 24.9421C30.0948 24.7913 30.1371 24.6272 30.1483 24.5898C30.1638 24.5375 30.1868 24.4996 30.1965 24.4841C30.2189 24.4484 30.2449 24.4177 30.2624 24.3979C30.3346 24.3162 30.4679 24.1914 30.6272 24.0485C30.9555 23.7541 31.4577 23.327 31.9881 22.8835C33.0459 21.9991 34.2424 21.0276 34.4246 20.8924C36.894 19.0615 38.6443 15.9926 40.0244 13.0693C40.4759 12.1129 40.7189 10.8783 40.6575 9.67932C40.596 8.47966 40.2328 7.35409 39.5135 6.57462C38.9716 5.98738 38.2003 5.77762 37.3623 5.81934Z" fill="black"/>
<path fill-rule="evenodd" clip-rule="evenodd" d="M15.1662 4.05696C14.7585 4.8506 14.5355 5.79745 14.4722 6.58658C14.2054 9.91304 14.4759 13.3541 16.2538 16.0994C16.8804 17.067 17.6992 17.8402 18.5595 18.632C18.6023 18.6714 18.6452 18.7109 18.6883 18.7504C19.4991 19.4958 20.3402 20.2689 21.0121 21.221C21.1255 21.3818 21.0972 21.6117 20.9489 21.7346C20.8006 21.8575 20.5884 21.8269 20.475 21.6662C19.8487 20.7786 19.0588 20.0523 18.2338 19.2935C18.1965 19.2593 18.1592 19.2249 18.1218 19.1905C17.2668 18.4036 16.3834 17.575 15.7003 16.5203C13.7865 13.5652 13.5266 9.91334 13.7985 6.52313C13.8685 5.65076 14.1132 4.60017 14.5755 3.7005C15.0374 2.80147 15.7392 2.01285 16.7355 1.7584C17.9331 1.45254 19.1794 1.77409 20.2521 2.4069C21.3254 3.04003 22.2567 4.00233 22.8347 5.038C24.41 7.86072 25.9789 11.224 26.1252 14.6598C26.1343 14.8754 26.2316 16.1435 26.3393 17.3648C26.3929 17.9732 26.4487 18.5642 26.4966 19.0005C26.5206 19.2195 26.5422 19.3947 26.5601 19.5124C26.5659 19.5506 26.5707 19.5789 26.5745 19.5988C26.5865 19.6244 26.5959 19.6519 26.6022 19.6811C26.6451 19.8781 26.5325 20.0753 26.3507 20.1218C26.1691 20.1682 26.05 20.0468 26.0188 20.0097C25.9819 19.9659 25.9629 19.9222 25.9561 19.9061C25.9399 19.8677 25.9304 19.8299 25.9253 19.8084C25.9135 19.759 25.9028 19.6967 25.8929 19.6314C25.8725 19.497 25.8495 19.3085 25.8251 19.087C25.7763 18.6422 25.72 18.0445 25.6662 17.4345C25.559 16.2188 25.4598 14.9309 25.4497 14.6936C25.3118 11.4546 23.8242 8.22699 22.2561 5.41721C21.7431 4.49799 20.9021 3.62463 19.9288 3.0505C18.9551 2.47606 17.8807 2.21877 16.8906 2.47163C16.1447 2.66214 15.5743 3.26269 15.1662 4.05696ZM26.1956 19.4085C26.263 19.3913 26.3214 19.3976 26.3696 19.4139C26.3149 19.3962 26.2552 19.3933 26.1956 19.4085Z" fill="black"/>
<path fill-rule="evenodd" clip-rule="evenodd" d="M2.32146 22.9923C2.71513 23.7943 3.32782 24.5113 3.90499 24.9973C6.33799 27.0459 9.15148 28.6678 12.2441 28.54C13.3332 28.495 14.7974 28.0535 16.3129 27.5796C16.3927 27.5547 16.4727 27.5296 16.5528 27.5045C17.9632 27.0627 19.3993 26.6129 20.4974 26.5187C20.6835 26.5027 20.8464 26.6533 20.8611 26.855C20.8758 27.0567 20.7369 27.2332 20.5508 27.2492C19.5239 27.3373 18.1486 27.7678 16.7033 28.2202C16.6358 28.2413 16.5681 28.2625 16.5003 28.2837C15.0107 28.7494 13.4589 29.2231 12.2699 29.2722C8.94086 29.4098 5.96975 27.6638 3.49013 25.5759C2.85207 25.0386 2.17078 24.2456 1.72451 23.3365C1.27856 22.428 1.04843 21.3612 1.39209 20.3163C1.80519 19.0603 2.73095 18.1006 3.80371 17.4678C4.877 16.8347 6.12833 16.5095 7.24469 16.5457C10.2873 16.6444 13.7454 17.0423 16.4874 18.7744C16.6594 18.8831 17.695 19.483 18.6998 20.0479C19.2005 20.3294 19.6887 20.5995 20.0528 20.7928C20.2356 20.8898 20.3831 20.9653 20.484 21.0129C20.5167 21.0284 20.5413 21.0393 20.5588 21.0467C20.5851 21.0496 20.6116 21.056 20.6376 21.0661C20.8135 21.134 20.9053 21.3436 20.8426 21.5342C20.7799 21.7247 20.6212 21.7672 20.5755 21.7755C20.5215 21.7853 20.4774 21.7788 20.4612 21.7763C20.4227 21.7702 20.3882 21.7583 20.3687 21.7513C20.3241 21.7352 20.27 21.7112 20.214 21.6847C20.0988 21.6303 19.9402 21.549 19.7554 21.4509C19.3842 21.2538 18.8904 20.9806 18.3885 20.6984C17.3882 20.136 16.3363 19.5271 16.1469 19.4075C13.562 17.7746 10.2532 17.3763 7.22447 17.2781C6.23362 17.246 5.10024 17.5373 4.12697 18.1114C3.15318 18.6858 2.37053 19.524 2.02901 20.5623C1.77171 21.3446 1.92747 22.1897 2.32146 22.9923ZM20.2056 21.2882C20.2289 21.2176 20.2655 21.1678 20.3043 21.1328C20.2608 21.173 20.2262 21.2257 20.2056 21.2882Z" fill="black"/>
<path fill-rule="evenodd" clip-rule="evenodd" d="M12.8951 44.813C13.7333 44.8131 14.6052 44.5638 15.2722 44.2399C18.084 42.8746 20.7268 40.9448 22.0754 37.926C22.5503 36.863 22.8785 35.2548 23.2044 33.5823C23.2215 33.4942 23.2387 33.4059 23.2559 33.3175C23.5585 31.7607 23.8667 30.1755 24.3057 29.0806C24.3802 28.895 24.5793 28.81 24.7506 28.8906C24.9218 28.9713 25.0003 29.1871 24.9259 29.3727C24.5153 30.3965 24.2199 31.9145 23.9095 33.5097C23.895 33.5842 23.8805 33.6589 23.8659 33.7337C23.5456 35.3776 23.2025 37.0847 22.684 38.2454C21.2323 41.4948 18.4143 43.5171 15.5487 44.9086C14.8113 45.2666 13.8452 45.5459 12.895 45.5458C11.9455 45.5457 10.9683 45.2647 10.2786 44.4451C9.44952 43.4599 9.10259 42.1234 9.09104 40.7999C9.07948 39.4757 9.40236 38.1257 9.95624 37.0747C11.4659 34.2102 13.4145 31.0888 16.1135 29.2792C16.2828 29.1656 17.2579 28.4567 18.1902 27.7607C18.6547 27.414 19.104 27.0738 19.4325 26.8163C19.5974 26.6869 19.7282 26.5813 19.8144 26.5071C19.8423 26.4831 19.8628 26.4647 19.877 26.4515C19.8918 26.4276 19.9094 26.4054 19.9299 26.3852C20.0678 26.2488 20.2817 26.2595 20.4075 26.409C20.5332 26.5584 20.4933 26.7302 20.4786 26.7778C20.4612 26.834 20.4352 26.8733 20.4255 26.8875C20.4024 26.9215 20.3766 26.949 20.3617 26.9643C20.3276 26.9994 20.2827 27.0398 20.2348 27.081C20.1364 27.1657 19.9956 27.2791 19.8289 27.4099C19.494 27.6725 19.0395 28.0165 18.5738 28.3642C17.6458 29.057 16.6557 29.7773 16.4692 29.9023C13.9248 31.6083 12.0461 34.5867 10.5434 37.4381C10.0518 38.371 9.7567 39.5921 9.76718 40.7929C9.77767 41.9944 10.0928 43.1369 10.7782 43.9514C11.2946 44.565 12.0562 44.813 12.8951 44.813ZM19.9079 26.9028C19.8612 26.8473 19.8379 26.7889 19.8276 26.7353C19.8399 26.7958 19.8666 26.8537 19.9079 26.9028Z" fill="black"/>
<path fill-rule="evenodd" clip-rule="evenodd" d="M35.9049 45.9185C36.3014 45.1183 36.5111 44.1678 36.5634 43.3778C36.7834 40.0473 36.4647 36.6111 34.6484 33.8954C34.0088 32.9391 32.8566 31.8651 31.651 30.7628C31.5875 30.7047 31.5239 30.6465 31.4602 30.5883C30.3376 29.5629 29.1946 28.5188 28.5122 27.5817C28.3965 27.4229 28.4216 27.1925 28.5682 27.0671C28.7148 26.9418 28.9273 26.9689 29.043 27.1278C29.6811 28.0041 30.7755 29.0041 31.9256 30.0551C31.9793 30.1042 32.0332 30.1534 32.0871 30.2027C33.2721 31.2862 34.4976 32.4213 35.1959 33.4654C37.151 36.3886 37.4621 40.0358 37.2378 43.4301C37.1801 44.3035 36.9501 45.358 36.5006 46.2652C36.0513 47.1717 35.3606 47.9718 34.3681 48.2427C33.1749 48.5683 31.9242 48.2673 30.8427 47.6522C29.7607 47.0369 28.816 46.09 28.2235 45.064C26.6088 42.2676 24.9929 38.9305 24.7984 35.4975C24.7862 35.2822 24.6711 34.0158 24.5463 32.7964C24.4841 32.189 24.4201 31.599 24.3661 31.1635C24.339 30.9449 24.3149 30.7701 24.2954 30.6527C24.2891 30.6146 24.2838 30.5864 24.2798 30.5665C24.2674 30.5412 24.2576 30.5138 24.2509 30.4847C24.2053 30.2885 24.3151 30.0894 24.4962 30.04C24.6771 29.9906 24.7979 30.1099 24.8297 30.1465C24.8671 30.1897 24.8867 30.2331 24.8938 30.2491C24.9105 30.2872 24.9206 30.3249 24.926 30.3463C24.9384 30.3955 24.95 30.4575 24.9609 30.5228C24.9832 30.6568 25.0088 30.8448 25.0362 31.0659C25.0913 31.5099 25.156 32.1065 25.2183 32.7156C25.3426 33.9294 25.4598 35.2155 25.4733 35.4526C25.6566 38.689 27.1893 41.8917 28.7967 44.6753C29.3226 45.586 30.1757 46.4454 31.1569 47.0034C32.1387 47.5617 33.2166 47.8012 34.203 47.5321C34.9461 47.3293 35.508 46.7194 35.9049 45.9185ZM24.6613 30.7505C24.5942 30.7689 24.5356 30.7635 24.4872 30.748C24.5422 30.7648 24.6019 30.7668 24.6613 30.7505Z" fill="black"/>
<path fill-rule="evenodd" clip-rule="evenodd" d="M48.2694 30.4506C48.0062 29.5882 47.5139 28.7694 47.0207 28.1849C44.9416 25.7207 42.4209 23.6077 39.3528 23.1681C38.2735 23.0135 37.0837 23.1641 35.8467 23.3368C35.7857 23.3453 35.7246 23.3539 35.6635 23.3625C34.5026 23.5253 33.303 23.6935 32.1996 23.585C32.0137 23.5667 31.8766 23.3885 31.8935 23.187C31.9104 22.9855 32.0748 22.8369 32.2607 22.8552C33.2876 22.9562 34.4189 22.7978 35.6051 22.6318C35.6568 22.6245 35.7085 22.6173 35.7603 22.6101C36.9834 22.4393 38.2605 22.2725 39.4414 22.4417C42.744 22.9148 45.4007 25.179 47.5197 27.6904C48.065 28.3366 48.613 29.2429 48.9114 30.2205C49.2095 31.1975 49.2702 32.2912 48.7688 33.2582C48.1661 34.4206 47.1042 35.1973 45.9482 35.6249C44.7918 36.0526 43.5078 36.1444 42.413 35.9046C39.4294 35.251 36.0828 34.2264 33.6498 32.0178L33.6178 31.9887C33.3717 31.7653 32.275 30.7694 31.2093 29.8165C30.6476 29.3143 30.096 28.8254 29.6824 28.4681C29.4752 28.289 29.3053 28.1453 29.187 28.05C29.1357 28.0087 29.0982 27.9797 29.0732 27.9616C29.0558 27.9548 29.0385 27.9463 29.0218 27.9361C28.859 27.837 28.8012 27.6136 28.8927 27.4372C28.9501 27.3266 29.0428 27.2757 29.1142 27.2581C29.1765 27.2427 29.2274 27.2501 29.2504 27.2544C29.2977 27.2633 29.3338 27.2811 29.3461 27.2873C29.3775 27.3031 29.4069 27.3228 29.4269 27.3367C29.4712 27.3676 29.5277 27.4113 29.5905 27.4619C29.7182 27.5649 29.8954 27.7149 30.104 27.8951C30.5221 28.2564 31.0773 28.7485 31.6396 29.2513C32.7073 30.2059 33.8057 31.2033 34.0519 31.4269L34.084 31.4561C36.3777 33.5382 39.577 34.5358 42.547 35.1864C43.5186 35.3992 44.6811 35.3193 45.7298 34.9314C46.7791 34.5433 47.681 33.8603 48.1793 32.8992C48.5547 32.1752 48.5328 31.3137 48.2694 30.4506Z" fill="black"/>
<path fill-rule="evenodd" clip-rule="evenodd" d="M22.0221 21.2977C22.1149 21.3091 22.1816 21.3998 22.1711 21.5003C22.1515 21.6888 22.1317 21.8774 22.1119 22.066C22.01 23.0366 21.9079 24.0082 21.8335 24.9756C21.8258 25.0765 21.7441 25.1514 21.651 25.143C21.558 25.1346 21.4889 25.046 21.4966 24.9452C21.5715 23.9718 21.6742 22.9938 21.7761 22.0231C21.7959 21.8349 21.8157 21.6469 21.8352 21.4593C21.8456 21.3587 21.9293 21.2864 22.0221 21.2977Z" fill="black"/>
<path fill-rule="evenodd" clip-rule="evenodd" d="M22.6052 21.2053C22.6983 21.2116 22.7692 21.2985 22.7635 21.3994C22.697 22.5701 22.6452 23.7017 22.7628 24.8486C22.7731 24.9492 22.7062 25.0397 22.6134 25.0509C22.5206 25.0621 22.4371 24.9896 22.4268 24.8891C22.3056 23.7071 22.3596 22.5466 22.426 21.3769C22.4318 21.2759 22.512 21.1991 22.6052 21.2053Z" fill="black"/>
<path fill-rule="evenodd" clip-rule="evenodd" d="M23.4543 20.4729C23.5474 20.4814 23.6164 20.5701 23.6084 20.6709C23.5201 21.7959 23.4725 22.9194 23.4399 24.0502C23.437 24.1513 23.359 24.2307 23.2657 24.2276C23.1724 24.2244 23.0991 24.1399 23.102 24.0387C23.1347 22.9047 23.1825 21.774 23.2716 20.6399C23.2795 20.5391 23.3613 20.4643 23.4543 20.4729Z" fill="black"/>
<path fill-rule="evenodd" clip-rule="evenodd" d="M24.1405 20.4741C24.2329 20.4887 24.2969 20.5817 24.2835 20.6818C24.1888 21.3871 24.1936 22.0968 24.1985 22.8227C24.1996 22.9848 24.2007 23.1478 24.2007 23.3117C24.2007 23.4129 24.125 23.4949 24.0317 23.4949C23.9383 23.4949 23.8626 23.4129 23.8626 23.3117C23.8626 23.1539 23.8615 22.9951 23.8604 22.8355C23.8553 22.1083 23.8502 21.3647 23.9489 20.629C23.9623 20.5289 24.0481 20.4596 24.1405 20.4741Z" fill="black"/>
<path fill-rule="evenodd" clip-rule="evenodd" d="M24.6261 20.6555C24.7194 20.6571 24.7938 20.7405 24.7923 20.8416C24.7859 21.2644 24.7685 21.6857 24.7512 22.104C24.749 22.1579 24.7467 22.2117 24.7445 22.2655C24.7252 22.738 24.7078 23.2073 24.7078 23.6781C24.7078 23.7793 24.6321 23.8613 24.5388 23.8613C24.4454 23.8613 24.3697 23.7793 24.3697 23.6781C24.3697 23.1984 24.3874 22.7219 24.4068 22.2493C24.409 22.1953 24.4112 22.1414 24.4134 22.0876C24.4308 21.6686 24.448 21.2528 24.4543 20.8356C24.4558 20.7345 24.5327 20.6538 24.6261 20.6555Z" fill="black"/>
<path fill-rule="evenodd" clip-rule="evenodd" d="M25.3151 20.5646C25.4081 20.574 25.4764 20.6632 25.4678 20.764C25.4001 21.5519 25.384 22.3322 25.384 23.1285C25.384 23.2297 25.3083 23.3117 25.2149 23.3117C25.1216 23.3117 25.0459 23.2297 25.0459 23.1285C25.0459 22.3275 25.0621 21.5343 25.1311 20.73C25.1398 20.6293 25.2222 20.5552 25.3151 20.5646Z" fill="black"/>
<path fill-rule="evenodd" clip-rule="evenodd" d="M26.1874 20.5698C26.2778 20.5954 26.3318 20.6955 26.3082 20.7934C26.1 21.6562 26.0621 22.4079 26.1438 23.2935C26.1531 23.3942 26.0853 23.4839 25.9925 23.494C25.8996 23.5041 25.8167 23.4306 25.8074 23.3299C25.7222 22.4065 25.7615 21.6107 25.9811 20.7007C26.0048 20.6028 26.0971 20.5442 26.1874 20.5698Z" fill="black"/>
<path fill-rule="evenodd" clip-rule="evenodd" d="M26.8208 21.0218C26.9142 21.0218 26.9899 21.1038 26.9899 21.205V23.3117C26.9899 23.4129 26.9142 23.4949 26.8208 23.4949C26.7275 23.4949 26.6518 23.4129 26.6518 23.3117V21.205C26.6518 21.1038 26.7275 21.0218 26.8208 21.0218Z" fill="black"/>
<path fill-rule="evenodd" clip-rule="evenodd" d="M27.6963 21.2995C27.7881 21.3176 27.8491 21.413 27.8324 21.5125C27.7327 22.1067 27.6992 22.7068 27.6658 23.3224C27.6603 23.4234 27.5803 23.5005 27.4871 23.4946C27.3939 23.4886 27.3228 23.4019 27.3283 23.3009C27.3615 22.6884 27.3958 22.0665 27.4997 21.447C27.5164 21.3475 27.6044 21.2814 27.6963 21.2995Z" fill="black"/>
<path fill-rule="evenodd" clip-rule="evenodd" d="M28.2608 22.121C28.3541 22.1228 28.4284 22.2063 28.4267 22.3075C28.4194 22.7454 28.3853 23.1768 28.3412 23.6067C28.3309 23.7073 28.2473 23.7797 28.1545 23.7685C28.0617 23.7574 27.9949 23.6668 28.0052 23.5662C28.0487 23.1419 28.0816 22.7229 28.0887 22.3008C28.0904 22.1996 28.1674 22.1191 28.2608 22.121Z" fill="black"/>
<path fill-rule="evenodd" clip-rule="evenodd" d="M28.9562 22.3973C29.0487 22.4107 29.1138 22.5029 29.1014 22.6031C29.0607 22.934 29.0388 23.26 29.018 23.5987C29.0118 23.6996 28.9313 23.776 28.8381 23.7693C28.7449 23.7625 28.6745 23.6753 28.6807 23.5743C28.7015 23.2355 28.724 22.8987 28.7663 22.5547C28.7786 22.4544 28.8637 22.384 28.9562 22.3973Z" fill="black"/>
<path fill-rule="evenodd" clip-rule="evenodd" d="M30.5185 22.7636C30.6111 22.7508 30.6957 22.8219 30.7075 22.9223C30.7739 23.4898 30.8304 23.9465 31.0318 24.4266C31.0704 24.5187 31.0328 24.6273 30.9478 24.6692C30.8628 24.7111 30.7626 24.6703 30.724 24.5782C30.4985 24.0408 30.4379 23.531 30.3721 22.9683C30.3603 22.868 30.4259 22.7763 30.5185 22.7636Z" fill="black"/>
<path fill-rule="evenodd" clip-rule="evenodd" d="M31.099 21.4832C31.1906 21.4638 31.2794 21.5285 31.2973 21.6278C31.3311 21.815 31.3625 22.0008 31.3938 22.1855C31.4661 22.6127 31.5374 23.0337 31.6335 23.4505C31.6561 23.5486 31.6011 23.6481 31.5105 23.6726C31.4199 23.6971 31.3282 23.6375 31.3055 23.5393C31.2066 23.1108 31.1322 22.6712 31.059 22.2388C31.0282 22.0568 30.9976 21.8762 30.9655 21.6981C30.9476 21.5988 31.0074 21.5026 31.099 21.4832Z" fill="black"/>
<path fill-rule="evenodd" clip-rule="evenodd" d="M31.7793 20.9328C31.8713 20.9159 31.9586 20.983 31.9742 21.0827C32.0182 21.3632 32.0592 21.6417 32.1001 21.9191C32.167 22.3738 32.2335 22.8255 32.3118 23.2779C32.329 23.3774 32.2686 23.4731 32.1768 23.4918C32.0851 23.5104 31.9967 23.4449 31.9795 23.3455C31.9006 22.8895 31.8326 22.4276 31.7649 21.9684C31.7242 21.692 31.6836 21.4166 31.6409 21.1441C31.6253 21.0443 31.6872 20.9497 31.7793 20.9328Z" fill="black"/>
<path fill-rule="evenodd" clip-rule="evenodd" d="M32.602 20.6639C32.6911 20.6335 32.786 20.6871 32.814 20.7836C32.8812 21.0148 32.9667 21.3626 33.0348 21.6495C33.069 21.7936 33.0991 21.9234 33.1206 22.0173L33.1459 22.1284L33.155 22.1686L32.9909 22.2125L32.8266 22.2558L32.8176 22.2157L32.7925 22.1056C32.7711 22.0125 32.7413 21.8836 32.7074 21.7407C32.6393 21.4536 32.5557 21.1145 32.4916 20.8936C32.4635 20.7971 32.513 20.6942 32.602 20.6639ZM33.0308 22.3906C32.9401 22.4144 32.8487 22.3541 32.8266 22.2558L32.9909 22.2125L33.1552 22.1693C33.1772 22.2676 33.1215 22.3667 33.0308 22.3906Z" fill="black"/>
<path fill-rule="evenodd" clip-rule="evenodd" d="M33.288 20.0197C33.3785 19.9952 33.4703 20.0548 33.493 20.153C33.5914 20.5798 33.7283 20.9044 33.9045 21.3102C33.9443 21.4017 33.908 21.5109 33.8236 21.5539C33.7391 21.597 33.6384 21.5577 33.5986 21.4662C33.4221 21.0596 33.2722 20.7066 33.165 20.2419C33.1423 20.1437 33.1974 20.0442 33.288 20.0197Z" fill="black"/>
<path fill-rule="evenodd" clip-rule="evenodd" d="M33.8659 19.8409C33.9542 19.8082 34.0504 19.8592 34.0806 19.9549C34.1137 20.0599 34.1611 20.23 34.211 20.4089C34.2549 20.5664 34.3007 20.7307 34.3404 20.8636C34.3594 20.9273 34.3768 20.983 34.3922 21.0296C34.4617 21.0523 34.5123 21.1222 34.5123 21.205C34.5123 21.2355 34.5111 21.2672 34.5067 21.296C34.5045 21.3103 34.5006 21.3302 34.4928 21.3513C34.4861 21.3694 34.4695 21.4085 34.4313 21.4393C34.3834 21.478 34.3245 21.4857 34.2735 21.4687C34.2328 21.4551 34.2067 21.4291 34.1952 21.4166C34.1711 21.3903 34.155 21.3595 34.146 21.3412C34.1078 21.2638 34.0624 21.1227 34.0187 20.9764C33.9732 20.8239 33.9268 20.6569 33.8837 20.5017C33.8371 20.3339 33.7943 20.18 33.7607 20.0735C33.7305 19.9778 33.7776 19.8737 33.8659 19.8409Z" fill="black"/>
<path fill-rule="evenodd" clip-rule="evenodd" d="M34.7892 19.3855C34.8762 19.3489 34.9742 19.3957 35.008 19.49C35.0317 19.5563 35.0548 19.6309 35.0773 19.7034C35.0837 19.7241 35.09 19.7446 35.0963 19.7648C35.1258 19.8586 35.1554 19.9481 35.1892 20.0286C35.2615 20.2004 35.3308 20.2761 35.3985 20.2945C35.4891 20.319 35.5441 20.4185 35.5215 20.5166C35.4988 20.6148 35.4071 20.6745 35.3165 20.6499C35.0863 20.5876 34.9596 20.3661 34.8816 20.1805C34.8403 20.0823 34.8062 19.9781 34.7762 19.8826C34.7689 19.8591 34.7618 19.8364 34.755 19.8143C34.7331 19.7436 34.7134 19.6801 34.6928 19.6225C34.659 19.5282 34.7022 19.4221 34.7892 19.3855Z" fill="black"/>
<path fill-rule="evenodd" clip-rule="evenodd" d="M35.4435 18.6639C35.5249 18.6142 35.628 18.6454 35.6738 18.7336C35.8017 18.9796 35.9452 19.2351 36.0867 19.4498C36.1409 19.5321 36.1233 19.6465 36.0474 19.7053C35.9714 19.7641 35.8658 19.7451 35.8116 19.6627C35.6604 19.4334 35.5103 19.1655 35.3792 18.9134C35.3334 18.8253 35.3622 18.7135 35.4435 18.6639Z" fill="black"/>
<path fill-rule="evenodd" clip-rule="evenodd" d="M36.1157 18.3916C36.1958 18.3396 36.2996 18.3677 36.3476 18.4545L36.6012 18.9125C36.6492 18.9992 36.6233 19.1117 36.5432 19.1638C36.4631 19.2158 36.3593 19.1877 36.3113 19.101L36.0577 18.643C36.0097 18.5562 36.0356 18.4437 36.1157 18.3916Z" fill="black"/>
<path fill-rule="evenodd" clip-rule="evenodd" d="M36.4393 17.9442C36.514 17.8835 36.62 17.8999 36.676 17.9808L36.9295 18.3472C36.9856 18.4281 36.9704 18.543 36.8957 18.6037C36.8211 18.6644 36.7151 18.648 36.6591 18.567L36.4055 18.2006C36.3495 18.1197 36.3646 18.0049 36.4393 17.9442Z" fill="black"/>
<path fill-rule="evenodd" clip-rule="evenodd" d="M31.381 28.8075C31.4744 28.8052 31.5518 28.8853 31.554 28.9864C31.5621 29.3642 31.6194 29.5836 31.7863 29.9092C31.8316 29.9977 31.8022 30.1092 31.7206 30.1583C31.639 30.2075 31.5361 30.1756 31.4908 30.0872C31.2979 29.7109 31.2254 29.4336 31.216 28.9949C31.2138 28.8938 31.2877 28.8099 31.381 28.8075Z" fill="black"/>
<path fill-rule="evenodd" clip-rule="evenodd" d="M31.8709 28.9921C31.9635 28.9794 32.0481 29.0504 32.0598 29.1508C32.1107 29.5859 32.1654 30.0204 32.2202 30.456C32.223 30.4784 32.2258 30.5007 32.2286 30.523C32.2413 30.6233 32.1765 30.7156 32.084 30.7293C31.9915 30.743 31.9063 30.6728 31.8937 30.5725C31.8908 30.55 31.888 30.5275 31.8852 30.505C31.8304 30.0698 31.7755 29.6338 31.7244 29.1969C31.7127 29.0965 31.7782 29.0048 31.8709 28.9921Z" fill="black"/>
<path fill-rule="evenodd" clip-rule="evenodd" d="M32.458 29.176C32.5503 29.1606 32.6366 29.2292 32.6508 29.3292C32.7103 29.7484 32.787 30.1612 32.8649 30.5807C32.8776 30.6492 32.8904 30.7178 32.9031 30.7867C32.9214 30.8859 32.862 30.9824 32.7705 31.0022C32.6789 31.0221 32.5899 30.9577 32.5716 30.8585C32.559 30.7904 32.5463 30.7223 32.5337 30.6541C32.4558 30.2351 32.3775 29.8131 32.3167 29.3849C32.3025 29.2849 32.3658 29.1914 32.458 29.176Z" fill="black"/>
<path fill-rule="evenodd" clip-rule="evenodd" d="M33.1274 29.452C33.219 29.4326 33.3078 29.4973 33.3258 29.5966C33.4373 30.2128 33.5211 30.8216 33.5816 31.4445C33.5914 31.5452 33.524 31.6353 33.4312 31.6459C33.3383 31.6565 33.2551 31.5835 33.2454 31.4829C33.1859 30.8704 33.1036 30.2724 32.994 29.6671C32.9761 29.5678 33.0358 29.4715 33.1274 29.452Z" fill="black"/>
<path fill-rule="evenodd" clip-rule="evenodd" d="M34.1724 29.9066C34.2657 29.9056 34.3422 29.9867 34.3432 30.0879C34.3492 30.6954 34.3805 31.2993 34.4271 31.9065C34.4349 32.0073 34.3658 32.0959 34.2727 32.1043C34.1797 32.1127 34.098 32.0378 34.0902 31.9369C34.043 31.3233 34.0112 30.7103 34.0051 30.0918C34.0041 29.9906 34.079 29.9077 34.1724 29.9066Z" fill="black"/>
<path fill-rule="evenodd" clip-rule="evenodd" d="M34.7422 30.5496C34.8347 30.5355 34.9202 30.6052 34.9332 30.7054C35.0179 31.3571 35.1567 31.972 35.3488 32.5966C35.3783 32.6925 35.3304 32.7963 35.2419 32.8283C35.1533 32.8603 35.0576 32.8084 35.028 32.7124C34.8301 32.0689 34.6862 31.4323 34.5984 30.7565C34.5854 30.6563 34.6498 30.5637 34.7422 30.5496Z" fill="black"/>
<path fill-rule="evenodd" clip-rule="evenodd" d="M35.5089 31.0984C35.6018 31.0878 35.6849 31.1609 35.6946 31.2615C35.7064 31.3832 35.716 31.5029 35.7254 31.6216C35.742 31.8284 35.7583 32.0322 35.7855 32.2386C35.8275 32.5575 35.8931 32.8563 36.0158 33.1221C36.0575 33.2126 36.0237 33.3227 35.9402 33.3679C35.8567 33.4132 35.7552 33.3765 35.7134 33.286C35.5677 32.9702 35.4952 32.6276 35.4508 32.2904C35.4225 32.0755 35.4045 31.8517 35.3872 31.6371C35.3779 31.5209 35.3688 31.4075 35.3584 31.2996C35.3487 31.199 35.4161 31.1089 35.5089 31.0984Z" fill="black"/>
<path fill-rule="evenodd" clip-rule="evenodd" d="M36.3692 31.7385C36.4626 31.7371 36.5394 31.8179 36.5407 31.919C36.5472 32.3956 36.581 32.8034 36.7027 33.243C36.7295 33.3399 36.6787 33.4421 36.5893 33.4711C36.4999 33.5002 36.4057 33.4452 36.3788 33.3483C36.2445 32.8632 36.2094 32.4177 36.2027 31.9244C36.2013 31.8232 36.2759 31.74 36.3692 31.7385Z" fill="black"/>
<path fill-rule="evenodd" clip-rule="evenodd" d="M36.923 32.385C37.0136 32.3608 37.1052 32.4208 37.1275 32.5191C37.1905 32.7965 37.2467 33.0724 37.2982 33.3513C37.3165 33.4505 37.2571 33.547 37.1656 33.5669C37.074 33.5867 36.985 33.5224 36.9667 33.4232C36.9161 33.149 36.8609 32.8783 36.7992 32.6067C36.7769 32.5084 36.8323 32.4092 36.923 32.385Z" fill="black"/>
<path fill-rule="evenodd" clip-rule="evenodd" d="M37.6128 32.84C37.705 32.824 37.7917 32.892 37.8064 32.9919C37.8157 33.0547 37.8242 33.1157 37.8325 33.1752C37.8675 33.4258 37.8989 33.6512 37.9689 33.8789C37.9984 33.9749 37.9506 34.0786 37.862 34.1106C37.7734 34.1426 37.6777 34.0907 37.6482 33.9948C37.5681 33.7342 37.5315 33.4708 37.4964 33.2179C37.4886 33.1613 37.4808 33.1052 37.4726 33.0498C37.4579 32.9499 37.5206 32.856 37.6128 32.84Z" fill="black"/>
<path fill-rule="evenodd" clip-rule="evenodd" d="M38.1272 33.2428C38.2008 33.1806 38.307 33.1948 38.3644 33.2745C38.5178 33.4875 38.659 33.7067 38.7944 33.9268C38.8462 34.011 38.8252 34.1247 38.7475 34.1808C38.6699 34.237 38.5649 34.2142 38.5131 34.13C38.3803 33.914 38.2442 33.7031 38.0979 33.5C38.0405 33.4202 38.0536 33.3051 38.1272 33.2428Z" fill="black"/>
<path fill-rule="evenodd" clip-rule="evenodd" d="M25.685 31.1661C25.7434 31.2451 25.7315 31.3604 25.6586 31.4236C25.4255 31.6257 25.2531 31.8939 25.0646 32.1871C25.0208 32.2551 24.9762 32.3246 24.9298 32.3948C24.8754 32.4771 24.7698 32.4959 24.6939 32.437C24.618 32.3781 24.6006 32.2636 24.655 32.1814C24.6949 32.121 24.7351 32.0583 24.776 31.9944C24.9656 31.6986 25.1722 31.3761 25.4474 31.1375C25.5203 31.0743 25.6267 31.0871 25.685 31.1661Z" fill="black"/>
<path fill-rule="evenodd" clip-rule="evenodd" d="M25.9261 31.8838C25.9921 31.9553 25.9921 32.0713 25.9261 32.1428C25.6722 32.418 25.4646 32.697 25.2736 33.0267C25.2239 33.1124 25.1196 33.1382 25.0405 33.0844C24.9615 33.0306 24.9376 32.9175 24.9873 32.8318C25.1924 32.4778 25.4161 32.1774 25.6871 31.8838C25.7531 31.8122 25.8601 31.8122 25.9261 31.8838Z" fill="black"/>
<path fill-rule="evenodd" clip-rule="evenodd" d="M26.1604 33.3314C26.2356 33.3914 26.2516 33.5061 26.1962 33.5875C26.1601 33.6407 26.1239 33.694 26.0877 33.7473C25.8736 34.0629 25.6581 34.3805 25.4323 34.6913C25.3745 34.7708 25.2683 34.7845 25.1949 34.722C25.1216 34.6594 25.1089 34.5442 25.1667 34.4647C25.3887 34.159 25.6006 33.8468 25.8148 33.531C25.8512 33.4775 25.8876 33.4239 25.9241 33.3702C25.9795 33.2887 26.0853 33.2714 26.1604 33.3314Z" fill="black"/>
<path fill-rule="evenodd" clip-rule="evenodd" d="M26.4268 34.9914C26.4962 35.0591 26.5018 35.1749 26.4394 35.2501C26.0976 35.6617 25.859 36.0796 25.6188 36.5854C25.5761 36.6753 25.4742 36.7107 25.3912 36.6644C25.3082 36.6181 25.2755 36.5076 25.3182 36.4177C25.5662 35.8956 25.8202 35.4481 26.1881 35.005C26.2505 34.9298 26.3574 34.9237 26.4268 34.9914Z" fill="black"/>
<path fill-rule="evenodd" clip-rule="evenodd" d="M26.7714 36.83C26.8374 36.9015 26.8374 37.0175 26.7714 37.089C26.455 37.4319 26.2228 37.7766 26.0465 38.2224C26.0097 38.3154 25.9104 38.3585 25.8245 38.3186C25.7387 38.2788 25.699 38.1711 25.7358 38.0781C25.9319 37.5821 26.1912 37.1997 26.5323 36.83C26.5983 36.7584 26.7053 36.7584 26.7714 36.83Z" fill="black"/>
<path fill-rule="evenodd" clip-rule="evenodd" d="M26.8215 38.0836C26.9021 38.1346 26.9294 38.2467 26.8823 38.3341C26.7161 38.6429 26.5476 38.9496 26.3728 39.2544C26.3235 39.3404 26.2193 39.3668 26.14 39.3134C26.0607 39.26 26.0363 39.1471 26.0856 39.0611C26.2582 38.76 26.4251 38.4564 26.5903 38.1495C26.6373 38.0621 26.7409 38.0326 26.8215 38.0836Z" fill="black"/>
<path fill-rule="evenodd" clip-rule="evenodd" d="M15.0742 30.9794C15.0876 30.8793 15.1734 30.8099 15.2658 30.8245C15.3606 30.8394 15.4535 30.8545 15.545 30.8695C16.1078 30.9613 16.6149 31.044 17.1749 31.0061C17.2681 30.9998 17.3483 31.0765 17.3542 31.1775C17.36 31.2785 17.2892 31.3655 17.196 31.3718C16.5974 31.4123 16.0516 31.323 15.4902 31.2311C15.3997 31.2163 15.3088 31.2015 15.2172 31.187C15.1248 31.1725 15.0608 31.0796 15.0742 30.9794Z" fill="black"/>
<path fill-rule="evenodd" clip-rule="evenodd" d="M15.9295 30.0224C15.9638 29.9284 16.062 29.8822 16.1489 29.9194C16.5994 30.1125 16.9822 30.2311 17.4531 30.2736C17.5461 30.282 17.6152 30.3706 17.6075 30.4714C17.5997 30.5722 17.518 30.6471 17.425 30.6387C16.9114 30.5924 16.4952 30.4618 16.0246 30.2602C15.9377 30.223 15.8952 30.1165 15.9295 30.0224Z" fill="black"/>
<path fill-rule="evenodd" clip-rule="evenodd" d="M16.5966 29.4155C16.6135 29.316 16.7016 29.2502 16.7934 29.2685C17.4366 29.3966 18.0517 29.4486 18.7068 29.4486C18.8002 29.4486 18.8759 29.5307 18.8759 29.6318C18.8759 29.733 18.8002 29.815 18.7068 29.815C18.0342 29.815 17.3984 29.7616 16.7323 29.6288C16.6405 29.6105 16.5797 29.515 16.5966 29.4155Z" fill="black"/>
<path fill-rule="evenodd" clip-rule="evenodd" d="M17.6962 28.6783C17.7153 28.5793 17.8049 28.5158 17.8963 28.5365C17.9245 28.543 17.9525 28.5493 17.9803 28.5557C18.3512 28.6403 18.6827 28.7159 19.0449 28.7159C19.1383 28.7159 19.214 28.7979 19.214 28.899C19.214 29.0002 19.1383 29.0822 19.0449 29.0822C18.6459 29.0822 18.2813 28.9989 17.9168 28.9156C17.8868 28.9088 17.8569 28.9019 17.827 28.8952C17.7356 28.8744 17.6771 28.7774 17.6962 28.6783Z" fill="black"/>
<path fill-rule="evenodd" clip-rule="evenodd" d="M18.3706 28.1389C18.3846 28.0389 18.4707 27.97 18.563 27.9851C18.7843 28.0213 19.0072 28.0494 19.2332 28.0774C19.2473 28.0791 19.2614 28.0808 19.2755 28.0826C19.4868 28.1087 19.7008 28.1351 19.914 28.1681C20.0065 28.1824 20.0707 28.2752 20.0575 28.3754C20.0443 28.4755 19.9586 28.5451 19.8662 28.5308C19.658 28.4986 19.4485 28.4727 19.2361 28.4465C19.2224 28.4448 19.2086 28.4431 19.1949 28.4414C18.9693 28.4135 18.7407 28.3847 18.5126 28.3474C18.4202 28.3323 18.3567 28.239 18.3706 28.1389Z" fill="black"/>
<path fill-rule="evenodd" clip-rule="evenodd" d="M19.2159 27.5889C19.2301 27.4889 19.3164 27.4203 19.4087 27.4357C19.6847 27.4817 19.9544 27.5035 20.2403 27.5256C20.3334 27.5328 20.4035 27.6205 20.3968 27.7214C20.3902 27.8223 20.3093 27.8983 20.2162 27.891C19.9315 27.869 19.6487 27.8464 19.3573 27.7978C19.265 27.7824 19.2017 27.6889 19.2159 27.5889Z" fill="black"/>
<path fill-rule="evenodd" clip-rule="evenodd" d="M15.3811 18.5515C15.4731 18.5339 15.5608 18.6004 15.577 18.7001C15.6834 19.3534 15.8031 19.9785 15.9935 20.5975C16.023 20.6935 15.9751 20.7972 15.8866 20.8292C15.798 20.8612 15.7023 20.8093 15.6728 20.7133C15.4745 20.0687 15.3514 19.4227 15.2441 18.7637C15.2278 18.6641 15.2892 18.5691 15.3811 18.5515Z" fill="black"/>
<path fill-rule="evenodd" clip-rule="evenodd" d="M16.0273 19.1099C16.1148 19.0744 16.2122 19.1224 16.245 19.2172C16.4171 19.7145 16.5584 20.2269 16.6976 20.7315C16.7449 20.9031 16.792 21.0738 16.8399 21.2427C16.8674 21.3394 16.8173 21.4419 16.7281 21.4717C16.6388 21.5014 16.5442 21.4472 16.5168 21.3505C16.467 21.1752 16.4188 21.0005 16.3709 20.8266C16.2326 20.3254 16.0961 19.8303 15.9284 19.3458C15.8956 19.2511 15.9399 19.1455 16.0273 19.1099Z" fill="black"/>
<path fill-rule="evenodd" clip-rule="evenodd" d="M16.8909 19.4701C16.9815 19.4456 17.0733 19.5053 17.0959 19.6034C17.1056 19.6456 17.1153 19.6875 17.1249 19.7293C17.2596 20.3152 17.3864 20.8667 17.5951 21.4093C17.631 21.5027 17.5902 21.61 17.504 21.6489C17.4179 21.6878 17.3189 21.6436 17.283 21.5502C17.0641 20.981 16.9315 20.4039 16.7981 19.8234C16.788 19.7797 16.778 19.736 16.7679 19.6923C16.7453 19.5941 16.8003 19.4947 16.8909 19.4701Z" fill="black"/>
<path fill-rule="evenodd" clip-rule="evenodd" d="M17.9627 19.8319C18.0556 19.8419 18.1236 19.9315 18.1144 20.0322C18.0664 20.5608 18.1725 21.0024 18.2974 21.5219C18.3192 21.6125 18.3415 21.7055 18.3637 21.8017C18.3864 21.8999 18.3313 21.9994 18.2407 22.0239C18.1502 22.0484 18.0584 21.9888 18.0358 21.8906C18.0151 21.8013 17.9937 21.7127 17.9724 21.6243C17.847 21.1055 17.7236 20.5951 17.778 19.9963C17.7871 19.8956 17.8698 19.822 17.9627 19.8319Z" fill="black"/>
<path fill-rule="evenodd" clip-rule="evenodd" d="M18.5745 20.3881C18.664 20.3595 18.758 20.4149 18.7845 20.512C18.9348 21.0642 19.1017 21.6106 19.2877 22.1482C19.3205 22.243 19.2762 22.3486 19.1888 22.3841C19.1014 22.4196 19.004 22.3716 18.9712 22.2769C18.782 21.7303 18.6126 21.1755 18.4602 20.6157C18.4338 20.5186 18.4849 20.4168 18.5745 20.3881Z" fill="black"/>
<path fill-rule="evenodd" clip-rule="evenodd" d="M19.4477 21.0231C19.5404 21.0112 19.6244 21.083 19.6354 21.1835C19.6787 21.5798 19.7384 21.9672 19.803 22.3639C19.8193 22.4635 19.7579 22.5586 19.666 22.5761C19.574 22.5937 19.4863 22.5272 19.4701 22.4276C19.4053 22.0295 19.3442 21.6336 19.2997 21.2265C19.2887 21.1261 19.3549 21.035 19.4477 21.0231Z" fill="black"/>
<path fill-rule="evenodd" clip-rule="evenodd" d="M25.744 12.5442C25.8165 12.6079 25.8277 12.7233 25.7689 12.8019C25.535 13.1146 25.3042 13.431 25.0728 13.748C24.5836 14.4184 24.0923 15.0916 23.5669 15.7386C23.5052 15.8146 23.3984 15.822 23.3283 15.7552C23.2582 15.6883 23.2514 15.5726 23.3131 15.4966C23.8327 14.8567 24.3144 14.1966 24.8005 13.5304C25.0332 13.2115 25.2669 12.8913 25.5062 12.5712C25.565 12.4926 25.6714 12.4805 25.744 12.5442Z" fill="black"/>
<path fill-rule="evenodd" clip-rule="evenodd" d="M25.6419 13.6299C25.7213 13.6831 25.7459 13.796 25.6968 13.8821C25.1955 14.7609 24.6833 15.573 24.078 16.3748C24.0188 16.4531 23.9123 16.4647 23.8401 16.4006C23.7678 16.3365 23.7572 16.2211 23.8163 16.1428C24.4096 15.3569 24.9133 14.5589 25.4092 13.6894C25.4583 13.6033 25.5625 13.5767 25.6419 13.6299Z" fill="black"/>
<path fill-rule="evenodd" clip-rule="evenodd" d="M25.7544 14.7525C25.8219 14.8224 25.8242 14.9384 25.7597 15.0115C25.1859 15.6616 24.7544 16.4194 24.3113 17.1977C24.2106 17.3746 24.1093 17.5526 24.0055 17.7306C23.9557 17.8161 23.8513 17.8417 23.7723 17.7876C23.6934 17.7336 23.6698 17.6205 23.7197 17.5349C23.8191 17.3644 23.9175 17.1914 24.0164 17.0176C24.4603 16.2373 24.9145 15.439 25.5154 14.7583C25.5799 14.6851 25.6869 14.6826 25.7544 14.7525Z" fill="black"/>
<path fill-rule="evenodd" clip-rule="evenodd" d="M25.8283 16.1163C25.9009 16.1799 25.9122 16.2952 25.8536 16.3739C25.5796 16.7415 25.3452 17.1347 25.105 17.5376C25.0929 17.5579 25.0808 17.5783 25.0686 17.5986C24.8173 18.0199 24.5577 18.45 24.2452 18.8502C24.1849 18.9275 24.0783 18.9371 24.007 18.8718C23.9357 18.8064 23.9268 18.6908 23.9871 18.6136C24.2838 18.2337 24.5326 17.8223 24.7847 17.3997C24.7977 17.3779 24.8107 17.3561 24.8238 17.3342C25.0616 16.9352 25.305 16.5269 25.5906 16.1437C25.6492 16.065 25.7557 16.0527 25.8283 16.1163Z" fill="black"/>
<path fill-rule="evenodd" clip-rule="evenodd" d="M25.904 17.2082C25.9803 17.2665 25.9986 17.3808 25.9448 17.4635C25.5846 18.0172 25.2824 18.5605 25.0314 19.1727C24.9934 19.2651 24.8935 19.3068 24.8082 19.2657C24.7229 19.2246 24.6845 19.1163 24.7224 19.0239C24.9847 18.3843 25.2992 17.8201 25.6684 17.2524C25.7222 17.1697 25.8277 17.1499 25.904 17.2082Z" fill="black"/>
<path fill-rule="evenodd" clip-rule="evenodd" d="M26.0582 18.4804C26.1396 18.5298 26.1688 18.6414 26.1232 18.7297C25.9705 19.0256 25.8391 19.3217 25.7065 19.633C25.6674 19.7249 25.567 19.765 25.4822 19.7226C25.3974 19.6802 25.3604 19.5714 25.3996 19.4795C25.5333 19.1654 25.669 18.8592 25.8281 18.5509C25.8737 18.4626 25.9767 18.431 26.0582 18.4804Z" fill="black"/>
<path fill-rule="evenodd" clip-rule="evenodd" d="M29.3522 29.6822C29.3731 29.7808 29.3164 29.8791 29.2255 29.9019C28.5336 30.0749 27.8819 30.1915 27.1766 30.272C27.0838 30.2826 27.0006 30.2096 26.9908 30.109C26.9811 30.0083 27.0484 29.9182 27.1412 29.9076C27.8333 29.8286 28.4715 29.7144 29.1494 29.5449C29.2404 29.5221 29.3312 29.5836 29.3522 29.6822Z" fill="black"/>
<path fill-rule="evenodd" clip-rule="evenodd" d="M28.8315 30.5575C28.8732 30.6479 28.8394 30.758 28.7559 30.8032C28.3391 31.0291 27.9684 31.1144 27.5221 31.1869C27.4298 31.2019 27.3437 31.133 27.3298 31.0329C27.316 30.9329 27.3796 30.8396 27.4719 30.8246C27.905 30.7542 28.2348 30.676 28.6047 30.4755C28.6882 30.4303 28.7897 30.467 28.8315 30.5575Z" fill="black"/>
<path fill-rule="evenodd" clip-rule="evenodd" d="M28.6728 31.5931C28.7003 31.6898 28.6502 31.7923 28.561 31.822C28.5314 31.8319 28.5023 31.8418 28.4734 31.8515C28.2466 31.9285 28.0374 31.9994 27.7583 32.0131C27.665 32.0177 27.5859 31.9395 27.5817 31.8384C27.5775 31.7374 27.6496 31.6517 27.7429 31.6471C27.9761 31.6356 28.1441 31.5789 28.3729 31.5016C28.4014 31.492 28.4309 31.4821 28.4615 31.4718C28.5508 31.4421 28.6454 31.4964 28.6728 31.5931Z" fill="black"/>
<path fill-rule="evenodd" clip-rule="evenodd" d="M28.9252 32.3218C28.9547 32.4178 28.9069 32.5215 28.8183 32.5535C28.7103 32.5925 28.602 32.6381 28.4893 32.6861C28.482 32.6892 28.4748 32.6923 28.4675 32.6954C28.3627 32.74 28.2541 32.7862 28.1441 32.8276C28.0559 32.8607 27.9596 32.8101 27.929 32.7145C27.8984 32.619 27.9451 32.5146 28.0333 32.4814C28.1365 32.4426 28.2392 32.3989 28.3454 32.3537C28.3522 32.3508 28.359 32.3479 28.3658 32.345C28.4779 32.2973 28.5939 32.2484 28.7114 32.2059C28.8 32.1739 28.8957 32.2258 28.9252 32.3218Z" fill="black"/>
<path fill-rule="evenodd" clip-rule="evenodd" d="M29.0788 33.2014C29.1269 33.2882 29.1009 33.4007 29.0208 33.4527L28.5982 33.7275C28.5182 33.7796 28.4143 33.7514 28.3663 33.6647C28.3183 33.5779 28.3442 33.4654 28.4243 33.4134L28.8469 33.1386C28.927 33.0865 29.0308 33.1146 29.0788 33.2014Z" fill="black"/>
<path fill-rule="evenodd" clip-rule="evenodd" d="M23.6055 18.1448C23.6246 18.2438 23.566 18.3409 23.4746 18.3616C23.0027 18.4687 22.6046 18.707 22.1705 18.9669C22.0595 19.0333 21.9462 19.1012 21.8287 19.1686C21.7462 19.2159 21.6439 19.1818 21.6002 19.0924C21.5565 19.003 21.588 18.8921 21.6705 18.8448C21.7756 18.7845 21.8807 18.7214 21.9866 18.6578C22.4252 18.3946 22.8787 18.1225 23.4054 18.003C23.4968 17.9823 23.5863 18.0458 23.6055 18.1448Z" fill="black"/>
<path fill-rule="evenodd" clip-rule="evenodd" d="M23.1629 17.0816C23.2104 17.1687 23.1838 17.281 23.1034 17.3325C22.6334 17.6335 22.149 17.8959 21.668 18.1565L21.6562 18.163C21.5726 18.2082 21.4711 18.1716 21.4294 18.0811C21.3876 17.9906 21.4215 17.8805 21.505 17.8353L21.5119 17.8315C21.9963 17.5691 22.4716 17.3115 22.9314 17.0171C23.0118 16.9656 23.1154 16.9945 23.1629 17.0816Z" fill="black"/>
<path fill-rule="evenodd" clip-rule="evenodd" d="M22.8255 16.0752C22.8724 16.1626 22.845 16.2747 22.7643 16.3256C22.4667 16.5131 22.1513 16.66 21.8449 16.8027C21.7217 16.8601 21.6 16.9168 21.4815 16.9752C21.3965 17.017 21.2963 16.9763 21.2576 16.8842C21.219 16.7921 21.2566 16.6835 21.3416 16.6416C21.474 16.5764 21.6038 16.516 21.7312 16.4566C22.0296 16.3177 22.3154 16.1846 22.5944 16.0089C22.6751 15.958 22.7785 15.9877 22.8255 16.0752Z" fill="black"/>
<path fill-rule="evenodd" clip-rule="evenodd" d="M20.939 31.9023C20.9955 31.8218 21.1016 31.8063 21.1759 31.8676C21.2023 31.8894 21.2275 31.9105 21.2516 31.9307C21.4413 32.0895 21.569 32.1965 21.7496 32.1965C21.843 32.1965 21.9186 32.2785 21.9186 32.3797C21.9186 32.4809 21.843 32.5629 21.7496 32.5629C21.4446 32.5629 21.2187 32.37 21.0405 32.2177C21.0165 32.1972 20.9933 32.1775 20.971 32.159C20.8967 32.0977 20.8824 31.9828 20.939 31.9023Z" fill="black"/>
<path fill-rule="evenodd" clip-rule="evenodd" d="M21.4193 31.0425C21.4472 30.946 21.5421 30.8923 21.6312 30.9226C21.9407 31.0278 22.2062 31.0974 22.5103 31.0974C22.6037 31.0974 22.6793 31.1794 22.6793 31.2806C22.6793 31.3817 22.6037 31.4637 22.5103 31.4637C22.1552 31.4637 21.8512 31.3814 21.53 31.2722C21.4409 31.2419 21.3913 31.1391 21.4193 31.0425Z" fill="black"/>
<path fill-rule="evenodd" clip-rule="evenodd" d="M21.8874 30.0479C21.9555 29.9786 22.0624 29.9822 22.1264 30.056C22.4029 30.375 22.6702 30.4196 23.1149 30.4567C23.208 30.4645 23.2776 30.5525 23.2705 30.6534C23.2633 30.7543 23.182 30.8298 23.0889 30.822C22.6333 30.784 22.2499 30.7337 21.8799 30.3068C21.816 30.2331 21.8194 30.1171 21.8874 30.0479Z" fill="black"/>
</svg>
