<svg width="50" height="50" viewBox="0 0 50 50" fill="none" xmlns="http://www.w3.org/2000/svg">
<path fill-rule="evenodd" clip-rule="evenodd" d="M27.4221 21.1041C27.4994 21.1455 27.5734 21.185 27.6429 21.2212C28.554 21.6947 29.1688 22.4768 29.3797 23.4019C29.5909 24.3281 29.3818 25.3302 28.7664 26.2084C28.2757 26.9088 27.4393 27.4403 26.5827 27.7255C25.7278 28.0101 24.7508 28.083 23.963 27.7363C23.4678 27.5183 22.9309 27.1558 22.4962 26.6899C22.0646 26.2274 21.6966 25.6219 21.6227 24.9161C21.434 23.1153 22.1659 21.3864 23.8215 20.74C23.9154 20.7033 24.013 20.7005 24.1028 20.7257C24.1411 20.715 24.1812 20.7093 24.2225 20.7093C24.3522 20.7093 24.4878 20.6789 24.6699 20.628C24.693 20.6216 24.7172 20.6147 24.7424 20.6075C24.8993 20.5628 25.0959 20.5068 25.2978 20.4821C25.77 20.4244 26.2122 20.5423 26.597 20.6991C26.884 20.8162 27.171 20.9697 27.4221 21.1041ZM24.1069 21.7311C22.9831 22.1916 22.4242 23.3818 22.5727 24.799C22.6133 25.1867 22.8266 25.5861 23.1682 25.9522C23.5068 26.315 23.9351 26.6048 24.3226 26.7753C24.8325 26.9998 25.5656 26.9792 26.3021 26.734C27.0368 26.4894 27.6732 26.0547 28.0052 25.5809C28.4684 24.9199 28.5846 24.2349 28.4515 23.6509C28.3181 23.0657 27.9188 22.5146 27.2297 22.1564C27.1391 22.1093 27.0517 22.0626 26.9662 22.0169C26.7251 21.888 26.4992 21.7672 26.2605 21.6699C25.9467 21.5419 25.6668 21.4807 25.4048 21.5127C25.2771 21.5283 25.1549 21.5628 24.9947 21.6081C24.9671 21.6159 24.9383 21.624 24.9082 21.6324C24.7194 21.6851 24.4826 21.7464 24.2225 21.7464C24.1826 21.7464 24.1439 21.7411 24.1069 21.7311Z" fill="black"/>
<path fill-rule="evenodd" clip-rule="evenodd" d="M29.9846 19.6322C29.9243 19.725 29.8593 19.825 29.8261 19.8693C29.6614 20.0895 29.4936 20.3281 29.3208 20.5737C28.9584 21.089 28.5741 21.6353 28.151 22.1077C27.9671 22.3131 27.6644 22.3179 27.475 22.1183C27.2856 21.9188 27.2812 21.5905 27.4652 21.3851C27.8503 20.9551 28.1714 20.4976 28.5114 20.0132C28.6926 19.755 28.8792 19.4892 29.0836 19.2159C29.0832 19.2164 29.083 19.2167 29.083 19.2167C29.083 19.2167 29.086 19.2125 29.0933 19.2018C29.1013 19.1901 29.1116 19.1746 29.1243 19.1553C29.1497 19.1167 29.1815 19.0679 29.2177 19.0122L29.2187 19.0107C29.2897 18.9014 29.3768 18.7676 29.4534 18.6545C29.4918 18.5979 29.5303 18.5424 29.5646 18.4959L29.5654 18.4948C29.5888 18.463 29.6415 18.3915 29.7006 18.3391C29.7155 18.3259 29.761 18.286 29.8277 18.2558C29.8693 18.237 30.1162 18.1352 30.3355 18.3473C30.5096 18.5157 30.4979 18.7365 30.4964 18.7656C30.4963 18.7663 30.4963 18.7669 30.4963 18.7674C30.4934 18.8284 30.4814 18.8767 30.476 18.8973C30.4557 18.9748 30.4172 19.061 30.3871 19.1264C30.3364 19.2364 30.2545 19.3183 30.1588 19.3658C30.1058 19.4458 30.0501 19.5314 29.9991 19.6099C29.9943 19.6173 29.9894 19.6247 29.9846 19.6322Z" fill="black"/>
<path fill-rule="evenodd" clip-rule="evenodd" d="M30.693 16.7175C30.8774 16.5125 31.18 16.5084 31.369 16.7084C31.369 16.7084 31.3691 16.7084 31.3692 16.7086C31.3708 16.7101 31.383 16.7219 31.4135 16.7475C31.4439 16.773 31.4815 16.8032 31.5269 16.8392C31.5383 16.8483 31.5502 16.8577 31.5624 16.8674C31.6432 16.9314 31.7406 17.0086 31.8288 17.0846C31.9212 17.1641 32.0464 17.2777 32.1319 17.401C32.168 17.4531 32.2539 17.5845 32.2644 17.7664C32.2706 17.873 32.2504 17.9952 32.1844 18.1087C32.1209 18.2178 32.036 18.2833 31.9661 18.3212C31.7299 18.4492 31.4428 18.3454 31.3247 18.0893C31.3019 18.0399 31.2871 17.9885 31.2797 17.9368C31.2658 17.9242 31.2507 17.9109 31.2344 17.8969C31.1623 17.8348 31.0821 17.7712 30.9999 17.7061C30.9873 17.696 30.9746 17.686 30.9619 17.6759C30.9603 17.6746 30.9587 17.6734 30.9571 17.6721C30.8782 17.6094 30.7703 17.5237 30.7013 17.4507C30.5123 17.2507 30.5086 16.9224 30.693 16.7175Z" fill="black"/>
<path fill-rule="evenodd" clip-rule="evenodd" d="M28.2156 25.4069C28.332 25.1498 28.6184 25.0437 28.8554 25.1699C29.9407 25.7477 30.9326 26.2136 32.0669 26.4828C32.1824 26.5102 32.2619 26.5234 32.3238 26.5336C32.3488 26.5378 32.371 26.5415 32.3914 26.5454L32.3921 26.5455C32.3977 26.5466 32.4238 26.5515 32.4523 26.5605C32.4614 26.5634 32.4786 26.5691 32.4994 26.5782L32.4998 26.5784C32.5131 26.5842 32.5652 26.6071 32.6204 26.6553C32.6531 26.6838 32.8739 26.8903 32.7759 27.2192C32.7366 27.3511 32.6604 27.4298 32.6173 27.4667C32.5725 27.5051 32.5311 27.5264 32.5088 27.5367C32.4644 27.5574 32.4271 27.5658 32.4144 27.5686C32.3972 27.5724 32.383 27.5744 32.3748 27.5755C32.3583 27.5777 32.3446 27.5785 32.3379 27.5789C32.3235 27.5797 32.3096 27.58 32.3004 27.5801C32.2808 27.5803 32.2492 27.5802 32.2094 27.5801C32.1804 27.58 32.147 27.5799 32.1109 27.5799C32.0119 27.5799 31.9199 27.5473 31.8436 27.4914C30.6037 27.1946 29.5349 26.687 28.4341 26.1009C28.1971 25.9747 28.0992 25.6639 28.2156 25.4069Z" fill="black"/>
<path fill-rule="evenodd" clip-rule="evenodd" d="M34.5632 27.1002C34.8075 27.2089 34.9243 27.5118 34.8241 27.7767C34.7913 27.8633 34.7366 27.988 34.6877 28.0943C34.6431 28.1911 34.583 28.3169 34.5405 28.3861C34.394 28.6243 34.0972 28.6887 33.8775 28.5299C33.6578 28.371 33.5985 28.0491 33.7449 27.8108C33.7442 27.812 33.7444 27.8116 33.7457 27.8092C33.7485 27.8039 33.7567 27.7885 33.771 27.7597C33.7888 27.7239 33.8101 27.679 33.8324 27.6306C33.8785 27.5305 33.9204 27.4333 33.9395 27.3831C34.0397 27.1181 34.3189 26.9915 34.5632 27.1002Z" fill="black"/>
<path fill-rule="evenodd" clip-rule="evenodd" d="M26.124 26.8217C26.3781 26.7437 26.6424 26.9038 26.7143 27.1793C26.838 27.6528 26.9934 28.1054 27.1603 28.5698C27.1943 28.6644 27.229 28.7599 27.2639 28.8562C27.3984 29.2268 27.5374 29.61 27.6625 30.0035C27.6727 30.0355 27.6929 30.1054 27.7173 30.1899C27.7318 30.24 27.7478 30.2953 27.7641 30.3508C27.811 30.5112 27.8669 30.6976 27.9202 30.8591C27.924 30.8704 27.9277 30.8815 27.9314 30.8925C28.0722 30.9827 28.1667 31.149 28.1667 31.3393C28.1667 31.3875 28.1648 31.4478 28.1551 31.5092C28.1502 31.54 28.1413 31.5852 28.1231 31.6354C28.1067 31.6808 28.0695 31.7678 27.9894 31.8456C27.895 31.9374 27.7623 31.9942 27.6162 31.9794C27.4911 31.9668 27.4039 31.9063 27.3617 31.8719C27.2816 31.8065 27.2346 31.7275 27.218 31.6991C27.1437 31.5721 27.0723 31.3668 27.0201 31.2088C26.9607 31.029 26.9005 30.828 26.8527 30.6646C26.8298 30.5862 26.8107 30.5202 26.7957 30.4681C26.7772 30.4042 26.7648 30.3611 26.7586 30.3416C26.6408 29.9712 26.5114 29.6145 26.378 29.2465C26.3421 29.1475 26.3059 29.0477 26.2695 28.9465C26.1002 28.4757 25.9311 27.9853 25.7944 27.462C25.7224 27.1865 25.87 26.8998 26.124 26.8217Z" fill="black"/>
<path fill-rule="evenodd" clip-rule="evenodd" d="M28.7226 34.6849C28.7003 34.717 28.6798 34.7465 28.6617 34.7714C28.4983 34.9963 28.1977 35.035 27.9903 34.8578C27.7829 34.6805 27.7473 34.3545 27.9107 34.1296C27.9132 34.1261 27.9186 34.1182 27.9266 34.1065C27.9789 34.0304 28.1393 33.7967 28.284 33.6424C28.3291 33.5942 28.3867 33.5381 28.4523 33.4903C28.5057 33.4514 28.6255 33.3717 28.7847 33.365C28.8755 33.3612 28.9809 33.3814 29.0814 33.4464C29.1803 33.5104 29.2442 33.5982 29.2834 33.6778C29.3536 33.82 29.3619 33.9689 29.3619 34.0616C29.3619 34.3479 29.1478 34.5801 28.8838 34.5801C28.8558 34.5801 28.8284 34.5775 28.8017 34.5725C28.7738 34.6113 28.7471 34.6496 28.7226 34.6849ZM28.4052 34.0494C28.4053 34.0493 28.4056 34.0516 28.4057 34.0565C28.4052 34.052 28.4052 34.0496 28.4052 34.0494Z" fill="black"/>
<path fill-rule="evenodd" clip-rule="evenodd" d="M23.7907 26.9045C24.0026 27.0754 24.0466 27.4002 23.8891 27.63C23.4581 28.2586 23.1185 28.8926 22.7598 29.5622C22.5942 29.8713 22.4245 30.188 22.24 30.5152C22.1891 30.6053 22.0775 30.7488 21.9933 30.8572L21.9879 30.8642C21.9665 30.8917 21.9449 30.9194 21.9233 30.9472C21.8927 30.9864 21.862 31.0258 21.832 31.0645C21.8363 31.2273 21.7701 31.3897 21.6409 31.4948C21.5626 31.5585 21.4765 31.6246 21.3973 31.6659C21.375 31.6776 21.3408 31.6939 21.299 31.7067C21.2652 31.717 21.1803 31.74 21.0745 31.7203C20.9413 31.6954 20.7901 31.602 20.7132 31.4175C20.6531 31.2729 20.6705 31.144 20.6786 31.097C20.6957 30.998 20.7356 30.9214 20.7481 30.8974L20.7484 30.8968C20.7678 30.8596 20.7895 30.8243 20.8086 30.7946C20.8475 30.7344 20.8956 30.6673 20.9438 30.6024C21.0211 30.4982 21.1142 30.3788 21.1973 30.2722C21.2179 30.2458 21.2378 30.2202 21.2568 30.1958C21.3062 30.1323 21.3487 30.0771 21.3817 30.0327C21.4055 30.0006 21.4178 29.9827 21.4228 29.9756C21.4259 29.971 21.4261 29.9708 21.4243 29.974C21.5847 29.6896 21.742 29.3963 21.9014 29.0989C22.2737 28.4045 22.6578 27.6881 23.1218 27.0112C23.2793 26.7814 23.5788 26.7336 23.7907 26.9045Z" fill="black"/>
<path fill-rule="evenodd" clip-rule="evenodd" d="M18.9789 32.5339C19.1627 32.3283 19.4654 32.3233 19.655 32.5226C19.7086 32.579 19.7643 32.6453 19.8066 32.6956C19.818 32.7092 19.8285 32.7216 19.8376 32.7324C19.8578 32.7561 19.8748 32.7754 19.8893 32.7913C20.0886 32.7198 20.315 32.7976 20.4371 32.9961C20.5835 33.2344 20.5242 33.5564 20.3045 33.7152C20.1513 33.826 19.9712 33.8857 19.7777 33.8608C19.5971 33.8376 19.4576 33.7471 19.3638 33.6695C19.2706 33.5926 19.1915 33.5021 19.1354 33.4362C19.1163 33.4139 19.0998 33.3942 19.0847 33.3763C19.0475 33.3321 19.02 33.2994 18.9893 33.2671C18.7998 33.0678 18.7951 32.7395 18.9789 32.5339ZM19.9511 32.8506C19.9511 32.8506 19.9506 32.8503 19.9497 32.8497C19.9506 32.8502 19.9511 32.8505 19.9511 32.8506Z" fill="black"/>
<path fill-rule="evenodd" clip-rule="evenodd" d="M16.6624 22.1748C16.7044 22.1831 16.7725 22.2024 16.8502 22.2251C17.2588 22.3445 17.6644 22.37 18.1292 22.3993C18.2503 22.4069 18.3753 22.4148 18.5055 22.4246C19.734 22.5176 20.9793 22.6286 22.2197 23.0684C22.4707 23.1574 22.6076 23.4502 22.5256 23.7224C22.4435 23.9946 22.1736 24.1431 21.9226 24.0541C20.8081 23.6589 19.6725 23.5525 18.439 23.4592C18.3357 23.4514 18.2286 23.4448 18.1185 23.438C17.7296 23.4142 17.3039 23.3881 16.8802 23.2968C16.7999 23.3094 16.7155 23.3 16.6347 23.2649C16.5972 23.2487 16.5672 23.2373 16.5335 23.2246C16.503 23.213 16.4694 23.2003 16.4244 23.1818C16.4161 23.1783 16.4052 23.1738 16.3941 23.1687C16.3939 23.1687 16.3937 23.1686 16.3934 23.1684C16.3878 23.1659 16.3582 23.1526 16.3265 23.1322C16.3166 23.1259 16.2968 23.1127 16.2738 23.0931C16.2735 23.0929 16.2732 23.0927 16.2729 23.0924C16.259 23.0806 16.1965 23.0276 16.1492 22.9339C16.1222 22.8805 16.0838 22.7816 16.0913 22.6522C16.0995 22.509 16.1601 22.3916 16.2355 22.3122C16.3489 22.1928 16.4798 22.1739 16.5001 22.1709C16.5008 22.1708 16.5014 22.1707 16.5018 22.1707C16.5648 22.161 16.6169 22.1678 16.624 22.1687C16.6244 22.1688 16.6246 22.1688 16.6247 22.1688C16.6413 22.1708 16.6549 22.1733 16.6624 22.1748ZM16.7548 22.2083C16.755 22.2084 16.7578 22.2095 16.7624 22.2117C16.7569 22.2094 16.7546 22.2083 16.7548 22.2083Z" fill="black"/>
<path fill-rule="evenodd" clip-rule="evenodd" d="M15.4323 21.1337C15.6782 21.2378 15.7998 21.5385 15.7038 21.8053C15.688 21.8493 15.6691 21.8989 15.6493 21.9511C15.6481 21.9543 15.6469 21.9574 15.6457 21.9606C15.7815 22.1634 15.7651 22.4488 15.5965 22.6316C15.5291 22.7047 15.4526 22.7797 15.3711 22.8346C15.3311 22.8616 15.2654 22.9006 15.181 22.9213C15.093 22.943 14.9459 22.9526 14.7992 22.8562C14.6545 22.7611 14.5953 22.6185 14.5722 22.5311C14.5497 22.4457 14.5491 22.37 14.5508 22.325C14.5542 22.2335 14.573 22.1459 14.5882 22.0848C14.6355 21.8936 14.7385 21.6241 14.7886 21.4931C14.7998 21.4637 14.8084 21.4412 14.8131 21.4282C14.9091 21.1615 15.1863 21.0296 15.4323 21.1337Z" fill="black"/>
<path fill-rule="evenodd" clip-rule="evenodd" d="M24.0816 17.1996C24.0815 17.1996 24.081 17.198 24.0802 17.195C24.248 17.763 24.3798 18.3476 24.5068 18.9107C24.5221 18.9784 24.5373 19.0459 24.5525 19.1129C24.6959 19.7456 24.8388 20.3498 25.0304 20.921C25.1206 21.1902 24.9926 21.4877 24.7444 21.5855C24.4963 21.6834 24.222 21.5446 24.1318 21.2754C23.9207 20.6459 23.7672 19.9925 23.624 19.3605C23.6087 19.2928 23.5935 19.2254 23.5783 19.1583C23.4501 18.5904 23.3265 18.0425 23.1696 17.5115C23.1487 17.4407 23.1354 17.3573 23.1268 17.2993C23.1167 17.2318 23.1066 17.1529 23.0968 17.0742C23.0948 17.0586 23.0928 17.0428 23.0909 17.0271C23.0739 16.8913 23.0566 16.7524 23.0367 16.627C22.8121 16.4938 22.7233 16.1906 22.8387 15.9403C22.8622 15.8892 22.8965 15.8244 22.946 15.7632C22.9925 15.7057 23.0855 15.6105 23.2322 15.5732C23.4006 15.5303 23.5502 15.5855 23.6514 15.6637C23.7388 15.7311 23.7897 15.8132 23.8159 15.8611C23.8689 15.9584 23.8998 16.0664 23.9186 16.1417C23.9398 16.2263 23.9572 16.3184 23.9719 16.407C23.9982 16.5654 24.0201 16.7413 24.0382 16.8866C24.0403 16.903 24.0423 16.919 24.0442 16.9346C24.0542 17.0143 24.0628 17.0808 24.0706 17.1336C24.0778 17.1815 24.0818 17.1995 24.0816 17.1996ZM23.694 16.404C23.694 16.404 23.694 16.404 23.6939 16.404C23.694 16.404 23.694 16.404 23.694 16.404ZM23.6948 16.4023C23.6948 16.4024 23.6945 16.4029 23.694 16.404C23.6945 16.4029 23.6948 16.4023 23.6948 16.4023Z" fill="black"/>
<path fill-rule="evenodd" clip-rule="evenodd" d="M23.2411 13.375C23.4773 13.503 23.573 13.8145 23.4549 14.0706C23.364 14.2679 23.2063 14.3955 23.1004 14.47C22.982 14.5532 22.8486 14.6235 22.7302 14.6809C22.6414 14.724 22.5477 14.766 22.4665 14.8024C22.44 14.8143 22.4147 14.8256 22.3915 14.8362C22.2846 14.8847 22.2236 14.9151 22.1931 14.9344C21.9653 15.0791 21.6724 14.996 21.539 14.7489C21.4056 14.5017 21.4822 14.1841 21.7101 14.0394C21.8045 13.9795 21.9244 13.9239 22.0226 13.8794C22.0528 13.8657 22.0824 13.8524 22.1116 13.8393C22.1895 13.8044 22.2645 13.7707 22.3399 13.7341C22.4433 13.684 22.524 13.6393 22.5803 13.5997C22.5992 13.5864 22.6112 13.5766 22.6181 13.5705C22.7456 13.3411 23.0164 13.2531 23.2411 13.375Z" fill="black"/>
<path fill-rule="evenodd" clip-rule="evenodd" d="M34.0662 10.8589C33.4742 10.8884 32.8659 11.0954 32.4045 11.3479C30.4595 12.4122 28.6508 13.8696 27.7888 16.051C27.485 16.8199 27.3605 17.6417 27.2411 18.4976C27.2352 18.5402 27.2293 18.5829 27.2233 18.6256C27.1113 19.4319 26.9952 20.2683 26.7168 21.0609C26.6698 21.1947 26.5317 21.2618 26.4083 21.2109C26.2849 21.1599 26.223 21.0101 26.27 20.8763C26.5295 20.1374 26.6388 19.3519 26.7529 18.5314C26.7581 18.4943 26.7632 18.4572 26.7684 18.42C26.8871 17.5695 27.0182 16.6849 27.3494 15.8468C28.2772 13.4986 30.2069 11.9696 32.1891 10.885C32.6992 10.6059 33.3732 10.3744 34.0443 10.341C34.7149 10.3075 35.4135 10.4717 35.9253 11.0267C36.5404 11.6939 36.8256 12.6265 36.8734 13.5617C36.9213 14.4973 36.7338 15.4629 36.3741 16.2254C35.3938 18.3036 34.1111 20.5788 32.2591 21.9532C32.1439 22.0387 31.3099 22.7159 30.5585 23.3447C30.1838 23.6582 29.8343 23.9558 29.6091 24.158C29.5529 24.2085 29.5069 24.2508 29.4711 24.2847C29.4527 24.3505 29.4104 24.4082 29.3493 24.4413C29.3312 24.4511 29.3063 24.4639 29.2798 24.4729C29.268 24.477 29.2417 24.4853 29.2087 24.4869C29.1883 24.4879 29.0845 24.4912 29.0085 24.3909C28.9278 24.2842 28.9577 24.1681 28.9656 24.1416C28.9766 24.1046 28.9928 24.0778 28.9997 24.0668C29.0155 24.0416 29.0339 24.0199 29.0463 24.0059C29.0973 23.948 29.1916 23.8597 29.3042 23.7586C29.5363 23.5502 29.8914 23.248 30.2664 22.9342C31.0144 22.3084 31.8603 21.6209 31.9892 21.5252C33.7351 20.2296 34.9727 18.0579 35.9485 15.9892C36.2677 15.3125 36.4395 14.4389 36.3961 13.5904C36.3526 12.7415 36.0958 11.945 35.5872 11.3934C35.2041 10.9778 34.6587 10.8294 34.0662 10.8589Z" fill="black"/>
<path fill-rule="evenodd" clip-rule="evenodd" d="M35.1732 8.9167C34.4977 8.94954 33.805 9.17974 33.28 9.46007C31.0776 10.6359 29.0259 12.2479 28.048 14.6625C27.7033 15.5136 27.5622 16.4228 27.4273 17.3666C27.4206 17.4134 27.414 17.4603 27.4073 17.5072C27.2806 18.3973 27.1495 19.3177 26.8356 20.1898C26.7876 20.3232 26.649 20.3891 26.526 20.337C26.403 20.2849 26.3422 20.1346 26.3903 20.0012C26.6845 19.1839 26.8083 18.3153 26.9372 17.4109C26.9431 17.3697 26.949 17.3285 26.9549 17.2871C27.0891 16.3486 27.2371 15.3754 27.6103 14.4539C28.656 11.8717 30.831 10.1896 33.0688 8.99484C33.6421 8.68877 34.3992 8.43527 35.1518 8.39868C35.9034 8.36214 36.6823 8.54161 37.2527 9.14516C37.9422 9.87486 38.2637 10.8972 38.3176 11.9259C38.3716 12.9548 38.1601 14.0162 37.7554 14.8534C36.647 17.1459 35.1992 19.6499 33.1119 21.1612C32.9808 21.2561 32.0371 22.0039 31.1877 22.6973C30.764 23.0432 30.3686 23.3717 30.1134 23.5952C30.047 23.6534 29.9928 23.7021 29.951 23.7409C29.9332 23.8095 29.8895 23.8698 29.8258 23.9035C29.8058 23.9141 29.7795 23.9271 29.7523 23.9362C29.74 23.9403 29.7139 23.9484 29.6813 23.9499C29.662 23.9508 29.559 23.9546 29.4826 23.8562C29.399 23.7484 29.4299 23.6297 29.4383 23.6021C29.4498 23.5643 29.4667 23.537 29.4739 23.5257C29.4906 23.4998 29.5102 23.4772 29.5239 23.4621C29.5803 23.3998 29.6855 23.3035 29.8131 23.1918C30.075 22.9623 30.4761 22.6292 30.9001 22.2831C31.746 21.5925 32.7016 20.8348 32.8465 20.7299C34.8271 19.2959 36.2287 16.8945 37.332 14.6126C37.6948 13.8621 37.8896 12.8946 37.8403 11.9554C37.7911 11.016 37.4997 10.131 36.9188 9.5163C36.4774 9.04917 35.8498 8.8838 35.1732 8.9167Z" fill="black"/>
<path fill-rule="evenodd" clip-rule="evenodd" d="M37.3328 5.80654C36.4475 5.84791 35.5423 6.13738 34.8567 6.48917C32.0052 7.95222 29.3389 9.96302 28.0676 12.98C27.62 14.0422 27.401 15.4373 27.1899 16.8776C27.1795 16.9485 27.1692 17.0195 27.1588 17.0905C26.9612 18.4433 26.76 19.8214 26.3563 20.899C26.3066 21.0316 26.1672 21.0955 26.0449 21.0416C25.9226 20.9877 25.8637 20.8365 25.9134 20.7038C26.2956 19.6834 26.4891 18.3599 26.6906 16.9821C26.6996 16.9202 26.7087 16.8582 26.7178 16.7962C26.9265 15.3722 27.153 13.9029 27.6327 12.7645C28.9752 9.57867 31.7684 7.50012 34.6522 6.02044C35.3853 5.6443 36.3528 5.33332 37.3122 5.28849C38.2697 5.24375 39.2521 5.46365 39.9701 6.19389C40.8465 7.0852 41.2589 8.33864 41.3282 9.60759C41.3974 10.876 41.1259 12.1839 40.608 13.2134C39.1765 16.0589 37.3124 19.154 34.6314 21.0196C34.5651 21.0658 34.3173 21.2339 33.9625 21.4747C33.3622 21.8821 32.4556 22.4973 31.6045 23.0804C30.9257 23.5455 30.2814 23.9907 29.8507 24.2971C29.6794 24.419 29.5451 24.5167 29.4564 24.5843C29.4332 24.6349 29.3947 24.6776 29.3439 24.7034C29.3213 24.7149 29.2923 24.729 29.2648 24.7381L29.264 24.7384C29.2568 24.7408 29.2126 24.7561 29.1594 24.75C29.1319 24.7469 29.0403 24.7308 28.9814 24.6313C28.9211 24.5296 28.9476 24.4305 28.958 24.3998C28.977 24.3433 29.0109 24.3061 29.0158 24.3008L29.0163 24.3003C29.0275 24.2876 29.039 24.2765 29.0478 24.2685C29.0659 24.2518 29.088 24.2333 29.1114 24.2146C29.2045 24.14 29.3728 24.017 29.5885 23.8636C30.0229 23.5544 30.6703 23.1071 31.3492 22.642C32.2069 22.0544 33.1135 21.4392 33.7114 21.0334C34.0626 20.7951 34.3074 20.629 34.3732 20.5832C36.9466 18.7925 38.763 15.7982 40.1883 12.9651C40.6618 12.0237 40.9151 10.813 40.8509 9.63823C40.7868 8.46403 40.4077 7.3498 39.6431 6.57214C39.0542 5.97327 38.22 5.76509 37.3328 5.80654Z" fill="black"/>
<path fill-rule="evenodd" clip-rule="evenodd" d="M18.3726 9.61181C18.0843 10.1734 17.9266 10.8434 17.8818 11.4019C17.6932 13.7558 17.8844 16.1908 19.1415 18.1335C19.5846 18.8182 20.1635 19.3653 20.7718 19.9257C20.802 19.9535 20.8324 19.9815 20.8628 20.0095C21.4361 20.5369 22.0308 21.084 22.5059 21.7577C22.586 21.8715 22.566 22.0342 22.4612 22.1212C22.3563 22.2082 22.2063 22.1865 22.1261 22.0727C21.6833 21.4447 21.1248 20.9307 20.5415 20.3938C20.5151 20.3695 20.4887 20.3452 20.4623 20.3209C19.8578 19.764 19.2331 19.1777 18.7502 18.4314C17.397 16.3402 17.2133 13.756 17.4055 11.357C17.455 10.7396 17.628 9.99621 17.9549 9.35957C18.2814 8.72338 18.7777 8.16532 19.4821 7.98526C20.3289 7.76882 21.21 7.99636 21.9685 8.44417C22.7274 8.89219 23.3859 9.57315 23.7945 10.306C24.9084 12.3035 26.0176 14.6835 26.121 17.1148C26.1275 17.2673 26.1963 18.1647 26.2725 19.0289C26.3104 19.4595 26.3498 19.8777 26.3836 20.1864C26.4007 20.3414 26.4159 20.4654 26.4285 20.5487C26.4326 20.5757 26.4361 20.5957 26.4387 20.6098C26.4472 20.6279 26.4539 20.6474 26.4584 20.668C26.4886 20.8074 26.409 20.947 26.2805 20.9799C26.1521 21.0127 26.0679 20.9268 26.0458 20.9006C26.0198 20.8696 26.0063 20.8386 26.0015 20.8273C25.9901 20.8001 25.9833 20.7733 25.9797 20.7581C25.9714 20.7232 25.9638 20.6791 25.9568 20.6328C25.9424 20.5378 25.9261 20.4044 25.9089 20.2477C25.8744 19.9329 25.8346 19.5099 25.7965 19.0782C25.7208 18.218 25.6506 17.3066 25.6435 17.1387C25.546 14.8467 24.4942 12.5627 23.3855 10.5744C23.0227 9.9239 22.4281 9.30588 21.74 8.8996C21.0514 8.49311 20.2918 8.31104 19.5918 8.48997C19.0644 8.62478 18.6611 9.04975 18.3726 9.61181ZM26.1709 20.4752C26.2185 20.463 26.2598 20.4674 26.2939 20.479C26.2552 20.4664 26.213 20.4644 26.1709 20.4752Z" fill="black"/>
<path fill-rule="evenodd" clip-rule="evenodd" d="M17.3546 7.34056C17.0249 7.98282 16.8449 8.74798 16.7939 9.38553C16.5796 12.0594 16.7961 14.8322 18.2288 17.0463C18.7342 17.8274 19.3941 18.4508 20.084 19.0863C20.1181 19.1177 20.1524 19.1492 20.1866 19.1807C20.8377 19.7798 21.51 20.3983 22.0468 21.1596C22.127 21.2734 22.107 21.4361 22.0021 21.5231C21.8973 21.61 21.7473 21.5884 21.6671 21.4746C21.1625 20.759 20.5264 20.1736 19.8653 19.5651C19.8351 19.5373 19.8048 19.5094 19.7745 19.4815C19.0884 18.8495 18.3828 18.1869 17.8375 17.3442C16.3087 14.9816 16.0997 12.0596 16.3176 9.34063C16.3734 8.64417 16.5687 7.8056 16.9369 7.08831C17.3049 6.37148 17.8617 5.74726 18.649 5.54601C19.5998 5.30296 20.5915 5.55807 21.4473 6.06337C22.3036 6.5689 23.0464 7.33728 23.507 8.16326C24.7704 10.429 26.0251 13.1229 26.1421 15.8721C26.1495 16.0462 26.2276 17.0653 26.314 18.0456C26.357 18.5342 26.4017 19.009 26.4402 19.3597C26.4595 19.5357 26.4769 19.677 26.4913 19.7722C26.4965 19.806 26.5008 19.8308 26.5041 19.8478C26.5135 19.867 26.5208 19.8879 26.5256 19.91C26.5559 20.0494 26.4763 20.189 26.3478 20.2219C26.2192 20.2547 26.1349 20.1688 26.1126 20.1423C26.0864 20.1112 26.0728 20.08 26.0679 20.0682C26.0561 20.0402 26.049 20.0123 26.045 19.9955C26.036 19.9574 26.0275 19.9087 26.0196 19.8564C26.0034 19.7493 25.985 19.5987 25.9655 19.4209C25.9263 19.0642 25.8812 18.5846 25.8381 18.0949C25.752 17.1186 25.6725 16.0855 25.6645 15.896C25.5535 13.2861 24.3562 10.6882 23.0979 8.43161C22.6833 7.68803 22.0043 6.98258 21.2188 6.51881C20.4329 6.05482 19.5628 5.84517 18.7586 6.05072C18.1484 6.20672 17.6845 6.69786 17.3546 7.34056ZM26.2381 19.7172C26.2843 19.7053 26.3246 19.7092 26.358 19.72C26.3202 19.7083 26.2791 19.7067 26.2381 19.7172Z" fill="black"/>
<path fill-rule="evenodd" clip-rule="evenodd" d="M15.0223 3.87768C14.6043 4.6919 14.3769 5.65992 14.3123 6.46621C14.0433 9.82217 14.3137 13.3153 16.121 16.1084C16.7593 17.0948 17.5919 17.8809 18.4559 18.6768C18.4982 18.7158 18.5406 18.7548 18.5831 18.7939C19.4001 19.5455 20.2378 20.3163 20.9063 21.2644C20.9865 21.3782 20.9665 21.5409 20.8617 21.6279C20.7568 21.7149 20.6068 21.6932 20.5266 21.5794C19.8903 20.677 19.0887 19.9393 18.2618 19.1782C18.2234 19.1429 18.1849 19.1075 18.1464 19.072C17.2862 18.2796 16.4079 17.4543 15.7297 16.4063C13.8262 13.4647 13.5634 9.82238 13.836 6.42131C13.9053 5.55612 14.1481 4.51469 14.6046 3.62543C15.0609 2.73663 15.7467 1.97133 16.7108 1.72489C17.8837 1.4251 19.1108 1.73899 20.1743 2.3669C21.2382 2.99503 22.1609 3.94984 22.7322 4.97436C24.3146 7.81211 25.8795 11.1754 26.0252 14.6025C26.0346 14.8225 26.1327 16.1012 26.2408 17.329C26.2948 17.9413 26.3509 18.5369 26.3992 18.977C26.4234 19.1978 26.4453 19.376 26.4636 19.4969C26.471 19.5458 26.4772 19.581 26.482 19.6043C26.4933 19.6255 26.5019 19.6489 26.5074 19.6739C26.5376 19.8133 26.458 19.9529 26.3295 19.9858C26.2007 20.0187 26.116 19.9326 26.0935 19.9058C26.0669 19.8742 26.053 19.8424 26.0477 19.8298C26.0352 19.8002 26.0274 19.7697 26.0226 19.7496C26.0119 19.7048 26.0017 19.6461 25.9919 19.5811C25.9717 19.4484 25.9488 19.2608 25.9244 19.0383C25.8755 18.5921 25.819 17.9918 25.7649 17.3783C25.6571 16.1545 25.5577 14.8618 25.5477 14.6264C25.4078 11.3385 23.9004 8.0713 22.3231 5.24271C21.7978 4.30059 20.939 3.40871 19.9458 2.82233C18.9522 2.23574 17.8466 1.96731 16.8205 2.2296C16.0334 2.43079 15.4405 3.063 15.0223 3.87768ZM26.2199 19.4811C26.2632 19.47 26.3013 19.4727 26.3335 19.482C26.2974 19.4721 26.2586 19.4712 26.2199 19.4811Z" fill="black"/>
<path fill-rule="evenodd" clip-rule="evenodd" d="M9.2907 23.0112C9.56904 23.5787 10.0022 24.086 10.4103 24.43C12.1306 25.8797 14.1198 27.0273 16.3065 26.9369C17.0765 26.9051 18.1118 26.5926 19.1833 26.2573C19.2398 26.2397 19.2963 26.2219 19.3529 26.2042C20.3501 25.8916 21.3655 25.5732 22.1419 25.5066C22.2736 25.4953 22.3887 25.6018 22.3991 25.7445C22.4095 25.8873 22.3113 26.0122 22.1797 26.0235C21.4537 26.0858 20.4812 26.3905 19.4593 26.7106C19.4116 26.7256 19.3638 26.7405 19.3158 26.7555C18.2626 27.0851 17.1654 27.4203 16.3247 27.4551C13.9709 27.5524 11.8702 26.3169 10.117 24.8394C9.66586 24.4592 9.18415 23.898 8.86862 23.2547C8.55332 22.6119 8.3906 21.8569 8.63359 21.1175C8.92567 20.2287 9.58023 19.5496 10.3387 19.1018C11.0976 18.6538 11.9823 18.4237 12.7717 18.4493C14.923 18.5191 17.368 18.8007 19.3067 20.0264C19.4283 20.1033 20.1605 20.5278 20.871 20.9276C21.225 21.1268 21.5702 21.3179 21.8276 21.4547C21.9568 21.5233 22.0611 21.5768 22.1325 21.6105C22.1556 21.6214 22.173 21.6292 22.1853 21.6344C22.204 21.6365 22.2227 21.641 22.2411 21.6481C22.3654 21.6962 22.4303 21.8445 22.386 21.9794C22.3417 22.1142 22.2295 22.1443 22.1972 22.1501C22.159 22.157 22.1278 22.1525 22.1164 22.1507C22.0891 22.1463 22.0647 22.138 22.051 22.133C22.0194 22.1216 21.9812 22.1046 21.9416 22.0859C21.8601 22.0474 21.748 21.9898 21.6173 21.9204C21.3548 21.781 21.0057 21.5876 20.6508 21.3879C19.9436 20.9899 19.1998 20.5591 19.0659 20.4744C17.2383 19.3189 14.8988 19.0371 12.7574 18.9676C12.0568 18.9449 11.2554 19.151 10.5673 19.5573C9.87876 19.9637 9.32539 20.5569 9.08392 21.2916C8.902 21.8452 9.01213 22.4432 9.2907 23.0112ZM21.9357 21.8053C21.9521 21.7553 21.978 21.7201 22.0054 21.6953C21.9747 21.7237 21.9502 21.761 21.9357 21.8053Z" fill="black"/>
<path fill-rule="evenodd" clip-rule="evenodd" d="M7.04996 22.577C7.36828 23.226 7.86305 23.8053 8.32897 24.1979C10.283 25.8446 12.5475 27.1527 15.0398 27.0496C15.9182 27.0133 17.097 26.6573 18.3115 26.2772C18.3751 26.2573 18.4387 26.2374 18.5024 26.2174C19.6354 25.8623 20.7845 25.502 21.662 25.4267C21.7937 25.4154 21.9088 25.5219 21.9192 25.6647C21.9296 25.8074 21.8314 25.9323 21.6998 25.9436C20.8727 26.0146 19.7665 26.3612 18.6088 26.7238C18.554 26.741 18.4991 26.7582 18.4441 26.7754C17.2478 27.1498 16.0071 27.5286 15.058 27.5678C12.3986 27.6778 10.0226 26.2819 8.03564 24.6074C7.52668 24.1784 6.98339 23.5453 6.62789 22.8205C6.27261 22.0962 6.09154 21.2502 6.36312 20.4238C6.69111 19.4257 7.42697 18.661 8.28285 18.1557C9.1391 17.6502 10.1373 17.3907 11.0269 17.4195C13.4672 17.4987 16.2342 17.8183 18.4264 19.2042C18.5652 19.292 19.3967 19.774 20.2027 20.2275C20.6043 20.4536 20.9963 20.6706 21.2887 20.8259C21.4354 20.9039 21.5543 20.9648 21.6359 21.0033C21.6648 21.017 21.6864 21.0266 21.7013 21.0327C21.7213 21.0346 21.7414 21.0393 21.7612 21.0469C21.8856 21.095 21.9504 21.2433 21.9061 21.3782C21.8618 21.5131 21.7494 21.5433 21.7169 21.5492C21.6785 21.5561 21.647 21.5516 21.6352 21.5497C21.6071 21.5453 21.5816 21.5366 21.5665 21.5311C21.5321 21.5187 21.4898 21.4999 21.445 21.4787C21.3532 21.4354 21.2266 21.3703 21.0784 21.2916C20.7809 21.1336 20.3851 20.9144 19.9825 20.6878C19.1798 20.2362 18.3367 19.7477 18.1856 19.6522C16.1045 18.3365 13.443 18.0167 11.0126 17.9378C10.2118 17.9119 9.29695 18.1474 8.51141 18.6111C7.7255 19.0751 7.09083 19.7538 6.81345 20.5979C6.60293 21.2385 6.73142 21.9276 7.04996 22.577ZM21.4558 21.2041C21.4717 21.1556 21.4965 21.121 21.5231 21.0964C21.4935 21.1246 21.4699 21.161 21.4558 21.2041Z" fill="black"/>
<path fill-rule="evenodd" clip-rule="evenodd" d="M2.11022 23.0313C2.51377 23.8541 3.13985 24.5867 3.72909 25.0833C6.18161 27.1501 9.03314 28.8002 12.177 28.6702C12.7175 28.6479 13.4863 28.4588 14.3885 28.1732C15.2855 27.8892 16.2935 27.5167 17.3061 27.1389C17.3887 27.108 17.4714 27.0772 17.554 27.0463C18.4815 26.6999 19.4052 26.355 20.2341 26.0796C21.1324 25.7812 21.94 25.5573 22.5304 25.5066C22.662 25.4953 22.7771 25.6018 22.7875 25.7446C22.798 25.8873 22.6997 26.0122 22.5681 26.0235C22.0351 26.0693 21.2719 26.2772 20.3742 26.5754C19.5535 26.8481 18.6376 27.1901 17.7081 27.5372C17.626 27.5678 17.5438 27.5985 17.4616 27.6292C16.4505 28.0065 15.4321 28.383 14.5224 28.671C13.6179 28.9574 12.7997 29.1634 12.1952 29.1884C8.88422 29.3253 5.92125 27.5874 3.43576 25.4928C2.80348 24.9599 2.12889 24.1735 1.68815 23.2749C1.24764 22.3768 1.02741 21.3366 1.35997 20.3246C1.76454 19.0935 2.67375 18.1462 3.73731 17.5183C4.80123 16.8902 6.04145 16.5681 7.14487 16.6039C10.2012 16.7031 13.6549 17.1035 16.3876 18.8312C16.5625 18.9418 18.058 19.7971 19.5226 20.6173C20.2529 21.0263 20.9719 21.4245 21.5098 21.7141C21.7791 21.8591 22.0012 21.9759 22.156 22.053C22.2341 22.0919 22.2912 22.1187 22.3274 22.134C22.3296 22.1349 22.3316 22.1357 22.3334 22.1364C22.3525 22.1385 22.3716 22.143 22.3905 22.1503C22.5148 22.1984 22.5797 22.3467 22.5354 22.4816C22.5037 22.5779 22.4337 22.6229 22.3894 22.6402C22.3494 22.6558 22.3151 22.6562 22.3004 22.656C22.269 22.6554 22.2429 22.6485 22.2322 22.6455C22.206 22.6383 22.1783 22.6274 22.1546 22.6174C22.1044 22.5963 22.0365 22.5641 21.9565 22.5242C21.7949 22.4437 21.5676 22.3241 21.2972 22.1786C20.7559 21.8871 20.0342 21.4874 19.3032 21.078C17.8452 20.2615 16.3352 19.3983 16.1469 19.2792C13.5252 17.6217 10.177 17.2211 7.13057 17.1222C6.11589 17.0893 4.95908 17.3874 3.96587 17.9738C2.97229 18.5603 2.16426 19.4217 1.8103 20.4987C1.5388 21.3249 1.70645 22.2081 2.11022 23.0313Z" fill="black"/>
<path fill-rule="evenodd" clip-rule="evenodd" d="M16.7668 38.4523C17.3594 38.4524 17.9759 38.2759 18.4475 38.0467C20.4355 37.0806 22.3041 35.715 23.2577 33.5788C23.5935 32.8265 23.8255 31.6885 24.0559 30.505C24.0681 30.4427 24.0802 30.3802 24.0923 30.3176C24.3063 29.216 24.5242 28.0942 24.8346 27.3195C24.8873 27.1881 25.0281 27.1279 25.1492 27.185C25.2702 27.2421 25.3257 27.3948 25.2731 27.5261C24.9828 28.2506 24.774 29.3248 24.5545 30.4537C24.5443 30.5064 24.534 30.5592 24.5237 30.6121C24.2972 31.7755 24.0546 32.9834 23.688 33.8048C22.6616 36.1042 20.6691 37.5353 18.643 38.5199C18.1216 38.7733 17.4386 38.9709 16.7667 38.9708C16.0954 38.9708 15.4045 38.7719 14.9168 38.192C14.3306 37.4948 14.0853 36.549 14.0771 35.6124C14.069 34.6754 14.2972 33.7201 14.6889 32.9764C15.7562 30.9493 17.134 28.7405 19.0423 27.4599C19.162 27.3796 19.8515 26.8779 20.5107 26.3855C20.8391 26.1401 21.1568 25.8994 21.389 25.7171C21.5056 25.6256 21.5981 25.5508 21.659 25.4984C21.6788 25.4813 21.6933 25.4683 21.7033 25.459C21.7138 25.4421 21.7262 25.4263 21.7407 25.412C21.8382 25.3156 21.9894 25.3231 22.0784 25.4289C22.1673 25.5346 22.1391 25.6562 22.1287 25.6899C22.1164 25.7297 22.098 25.7574 22.0912 25.7675C22.0748 25.7916 22.0565 25.811 22.046 25.8218C22.0219 25.8467 21.9901 25.8753 21.9563 25.9045C21.8867 25.9644 21.7872 26.0447 21.6693 26.1372C21.4325 26.323 21.1112 26.5665 20.7819 26.8125C20.1257 27.3027 19.4257 27.8125 19.2939 27.9009C17.4949 29.1081 16.1665 31.2158 15.104 33.2335C14.7564 33.8937 14.5478 34.7578 14.5552 35.6075C14.5626 36.4577 14.7854 37.2662 15.27 37.8425C15.6352 38.2768 16.1737 38.4522 16.7668 38.4523ZM21.7252 25.7783C21.6922 25.7391 21.6757 25.6978 21.6684 25.6598C21.6771 25.7026 21.696 25.7436 21.7252 25.7783Z" fill="black"/>
<path fill-rule="evenodd" clip-rule="evenodd" d="M15.5607 40.1151C16.2385 40.1152 16.9424 39.9136 17.4809 39.6519C19.7391 38.5544 21.8675 37.0006 22.9543 34.5659C23.3374 33.7077 23.6014 32.4118 23.8625 31.0704C23.8762 31.0002 23.8899 30.9299 23.9035 30.8595C24.1467 29.6078 24.3932 28.3383 24.7441 27.4627C24.7967 27.3314 24.9375 27.2712 25.0586 27.3283C25.1797 27.3853 25.2352 27.5381 25.1826 27.6694C24.8519 28.4947 24.6143 29.7167 24.3657 30.9955C24.3539 31.056 24.3421 31.1167 24.3303 31.1775C24.0731 32.4988 23.7985 33.8646 23.3846 34.7919C22.2249 37.3898 19.9727 39.0091 17.6763 40.1251C17.0881 40.4109 16.3176 40.6337 15.5607 40.6337C14.8042 40.6336 14.0306 40.4095 13.4855 39.7613C12.8272 38.9784 12.5504 37.9146 12.5412 36.8577C12.532 35.8004 12.7897 34.7227 13.2311 33.8845C14.4418 31.5852 16.0017 29.0859 18.1595 27.6379C18.2985 27.5446 19.4133 26.765 20.4085 26.0399C20.9066 25.6771 21.3703 25.3312 21.6658 25.093C21.734 25.038 21.7901 24.9913 21.8342 24.9531C21.8457 24.8589 21.9048 24.7751 21.9934 24.7421C22.0197 24.7322 22.0526 24.7213 22.0866 24.7159C22.1032 24.7133 22.1308 24.7101 22.1633 24.7141C22.1923 24.7177 22.2579 24.731 22.3143 24.7927C22.3801 24.8647 22.3906 24.9538 22.3839 25.014C22.3781 25.066 22.3598 25.1044 22.3505 25.1223C22.3308 25.1601 22.3054 25.1904 22.2895 25.2085C22.2236 25.2832 22.0984 25.3904 21.951 25.5092C21.6454 25.7555 21.1734 26.1074 20.6751 26.4704C19.6777 27.1969 18.5574 27.9806 18.411 28.0788C16.3625 29.4535 14.852 31.8516 13.6462 34.1417C13.2489 34.8963 13.0108 35.8828 13.0193 36.8528C13.0277 37.8233 13.282 38.7498 13.8387 39.4119C14.2613 39.9144 14.8825 40.115 15.5607 40.1151ZM21.9476 24.8457C21.9476 24.8458 21.9473 24.8462 21.9466 24.847C21.9473 24.8461 21.9477 24.8456 21.9476 24.8457Z" fill="black"/>
<path fill-rule="evenodd" clip-rule="evenodd" d="M12.8275 45.0411C13.6867 45.0412 14.5771 44.7859 15.2581 44.4549C18.0924 43.0775 20.775 41.1223 22.1459 38.051C22.6298 36.967 22.9619 35.3344 23.2886 33.6561C23.3055 33.5693 23.3225 33.4823 23.3394 33.3952C23.6446 31.8237 23.9524 30.2392 24.3895 29.1484C24.4421 29.0171 24.583 28.9569 24.704 29.014C24.8251 29.071 24.8806 29.2238 24.828 29.3551C24.4111 30.3956 24.1123 31.9326 23.8015 33.5312C23.7865 33.6084 23.7715 33.6858 23.7564 33.7633C23.4336 35.4214 23.091 37.1239 22.5762 38.277C21.1324 41.5116 18.326 43.5322 15.4536 44.9281C14.7228 45.2833 13.7658 45.5597 12.8274 45.5596C11.8895 45.5595 10.9394 45.2818 10.2719 44.488C9.45996 43.5223 9.11598 42.2068 9.10453 40.8935C9.09307 39.5797 9.41347 38.2409 9.96094 37.2012C11.4773 34.3214 13.4256 31.2026 16.1155 29.3975C16.2882 29.2816 17.2707 28.5667 18.2071 27.8671C18.6742 27.5181 19.1266 27.1753 19.4577 26.9154C19.6238 26.7851 19.7567 26.6777 19.8452 26.6015C19.8809 26.5707 19.9063 26.5477 19.9227 26.5318C19.9344 26.5108 19.949 26.4913 19.9665 26.474C20.0641 26.3775 20.2153 26.385 20.3042 26.4908C20.3934 26.5969 20.3652 26.719 20.3546 26.7534C20.3421 26.7939 20.3232 26.8226 20.3156 26.8338C20.2979 26.86 20.2771 26.8822 20.2632 26.8966C20.2324 26.9284 20.19 26.9666 20.1424 27.0076C20.0453 27.0912 19.9053 27.2042 19.738 27.3355C19.4023 27.599 18.9462 27.9445 18.4783 28.2941C17.5449 28.9915 16.5519 29.7145 16.367 29.8385C13.7864 31.5702 11.8876 34.5878 10.3761 37.4584C9.87265 38.4144 9.57189 39.6621 9.58259 40.8886C9.59329 42.1154 9.91478 43.2937 10.6252 44.1386C11.1701 44.7866 11.9678 45.041 12.8275 45.0411ZM19.951 26.8402C19.9209 26.8045 19.9046 26.7671 19.8965 26.7321C19.906 26.7711 19.9241 26.8083 19.951 26.8402Z" fill="black"/>
<path fill-rule="evenodd" clip-rule="evenodd" d="M33.0358 39.2346C33.3161 38.6683 33.4644 37.9958 33.5013 37.4367C33.6569 35.0799 33.4316 32.6483 32.1474 30.7266C31.6952 30.0499 30.8805 29.2899 30.0281 28.5098C29.9832 28.4687 29.9382 28.4276 29.8931 28.3864C29.0994 27.6608 28.2913 26.9219 27.8088 26.2588C27.727 26.1464 27.7447 25.9834 27.8484 25.8947C27.952 25.806 28.1023 25.8252 28.1841 25.9376C28.6353 26.5577 29.409 27.2654 30.2222 28.0091C30.2602 28.0438 30.2983 28.0786 30.3364 28.1135C31.1742 28.8803 32.0407 29.6835 32.5345 30.4223C33.9168 32.4909 34.1368 35.0718 33.9782 37.4737C33.9374 38.0918 33.7748 38.838 33.4569 39.4799C33.1393 40.1214 32.651 40.6876 31.9492 40.8793C31.1055 41.1097 30.2213 40.8967 29.4566 40.4615C28.6915 40.026 28.0236 39.356 27.6047 38.6299C26.463 36.6511 25.3204 34.2897 25.1829 31.8603C25.1743 31.708 25.0929 30.8118 25.0047 29.9489C24.9607 29.5191 24.9155 29.1016 24.8773 28.7934C24.8581 28.6387 24.8411 28.515 24.8273 28.432C24.8228 28.405 24.8191 28.385 24.8163 28.371C24.8075 28.353 24.8006 28.3336 24.7958 28.3131C24.7636 28.1742 24.8412 28.0333 24.9693 27.9984C25.0972 27.9634 25.1826 28.0479 25.205 28.0738C25.2315 28.1043 25.2454 28.135 25.2504 28.1463C25.2622 28.1733 25.2693 28.2 25.2732 28.2151C25.282 28.2499 25.2902 28.2939 25.2978 28.34C25.3136 28.4348 25.3317 28.5679 25.3511 28.7243C25.39 29.0385 25.4358 29.4608 25.4799 29.8918C25.5677 30.7507 25.6506 31.6608 25.6601 31.8286C25.7898 34.1187 26.8735 36.3851 28.0099 38.3549C28.3817 38.9993 28.985 39.6074 29.6787 40.0023C30.3729 40.3974 31.135 40.5669 31.8324 40.3764C32.3579 40.2329 32.7551 39.8014 33.0358 39.2346ZM25.086 28.5012C25.0385 28.5142 24.9972 28.5104 24.9629 28.4994C25.0018 28.5113 25.044 28.5127 25.086 28.5012Z" fill="black"/>
<path fill-rule="evenodd" clip-rule="evenodd" d="M34.048 40.9843C34.3687 40.3367 34.5379 39.5687 34.58 38.9303C34.7568 36.2533 34.5014 33.4844 33.0378 31.2941C32.5219 30.5221 31.5941 29.6569 30.6279 28.7727C30.5774 28.7264 30.5267 28.6801 30.476 28.6338C29.5743 27.8094 28.6597 26.9732 28.1144 26.2237C28.0326 26.1113 28.0503 25.9483 28.154 25.8596C28.2576 25.7709 28.4079 25.7901 28.4897 25.9025C29.0037 26.609 29.8839 27.414 30.8051 28.2565C30.8487 28.2964 30.8925 28.3363 30.9362 28.3764C31.8878 29.2472 32.8675 30.1556 33.4249 30.9898C34.9867 33.3269 35.2366 36.2452 35.0569 38.9674C35.0109 39.6647 34.8274 40.5064 34.4692 41.2296C34.1113 41.9525 33.5634 42.5858 32.779 42.8C31.8316 43.0587 30.8366 42.82 29.9737 42.3289C29.1105 41.8376 28.3569 41.0815 27.8848 40.2632C26.5898 38.0186 25.2974 35.3457 25.1419 32.5988C25.1318 32.4203 25.0404 31.1023 24.942 29.8296C24.8928 29.1936 24.8421 28.571 24.7991 28.1093C24.7775 27.8779 24.7582 27.6895 24.7421 27.5607C24.7348 27.5014 24.7286 27.459 24.7238 27.4322C24.7172 27.417 24.7118 27.4009 24.7078 27.3839C24.6756 27.2451 24.7533 27.1042 24.8813 27.0692C24.9622 27.0471 25.0313 27.0746 25.0736 27.105C25.1106 27.1316 25.1319 27.1629 25.1411 27.1776C25.16 27.2079 25.1695 27.2365 25.1729 27.2469C25.1813 27.2729 25.187 27.3003 25.1908 27.3203C25.1991 27.3643 25.2075 27.4234 25.2159 27.4913C25.2331 27.6291 25.2531 27.8245 25.2747 28.0572C25.3182 28.5234 25.3692 29.1496 25.4184 29.7863C25.5168 31.0589 25.6087 32.3821 25.6191 32.567C25.7667 35.1748 27.0003 37.7526 28.2901 39.9882C28.7151 40.7248 29.4039 41.419 30.1959 41.8697C30.9882 42.3207 31.8611 42.516 32.6622 42.2972C33.2703 42.1311 33.7272 41.6324 34.048 40.9843Z" fill="black"/>
<path fill-rule="evenodd" clip-rule="evenodd" d="M36.045 46.0956C36.4515 45.2746 36.6653 44.3029 36.7186 43.4957C36.9405 40.1357 36.6212 36.6474 34.7749 33.8844C34.1203 32.905 32.7617 31.5431 31.3661 30.1645C31.2813 30.0808 31.1964 29.997 31.1115 29.9132C29.8162 28.6348 28.5293 27.3647 27.8595 26.4442C27.7778 26.3318 27.7955 26.1687 27.8991 26.08C28.0027 25.9913 28.1531 26.0105 28.2348 26.1229C28.8789 27.0082 30.1386 28.2516 31.4521 29.5482C31.5306 29.6257 31.6093 29.7034 31.688 29.7812C33.0678 31.1441 34.4717 32.5471 35.162 33.5801C37.1064 36.4899 37.4203 40.1275 37.1955 43.5327C37.1383 44.399 36.9102 45.4443 36.4662 46.341C36.0224 47.2372 35.3474 48.0137 34.3868 48.276C33.2183 48.5951 31.987 48.3015 30.9147 47.6912C29.8421 47.0807 28.9062 46.1413 28.3206 45.1263C26.6986 42.315 25.0867 38.9779 24.8929 35.5536C24.8878 35.4642 24.8718 35.104 24.8486 34.5829C24.8125 33.7709 24.7589 32.5684 24.7025 31.3921C24.6561 30.4244 24.6076 29.473 24.565 28.7655C24.5436 28.4113 24.5239 28.1205 24.5067 27.9198C24.4981 27.8187 24.4904 27.7447 24.484 27.6983C24.4834 27.6933 24.4827 27.689 24.4822 27.6853C24.4767 27.6719 24.4722 27.6579 24.4688 27.6432C24.4366 27.5043 24.5142 27.3634 24.6422 27.3285C24.7444 27.3006 24.8234 27.3504 24.8606 27.3859C24.8937 27.4175 24.9108 27.4512 24.9171 27.4643C24.9312 27.4936 24.9382 27.5212 24.9409 27.5325C24.9478 27.5607 24.9529 27.5929 24.9569 27.6219C24.9653 27.6831 24.9739 27.7688 24.9827 27.8719C25.0005 28.0799 25.0206 28.3765 25.042 28.7317C25.0849 29.4428 25.1335 30.397 25.1799 31.3651C25.2369 32.5513 25.2905 33.756 25.3264 34.565C25.3493 35.0794 25.3651 35.4338 25.3701 35.5219C25.556 38.807 27.1091 42.049 28.7258 44.8512C29.2643 45.7846 30.1356 46.6622 31.1369 47.2321C32.1386 47.8022 33.2478 48.0524 34.2701 47.7732C35.0543 47.559 35.6383 46.9171 36.045 46.0956ZM24.759 27.8313C24.7253 27.8405 24.6943 27.8411 24.6665 27.8366C24.6965 27.8413 24.7278 27.8398 24.759 27.8313Z" fill="black"/>
<path fill-rule="evenodd" clip-rule="evenodd" d="M41.7781 28.2889C41.592 27.6786 41.2439 27.0993 40.8952 26.6856C39.4251 24.9419 37.6429 23.4466 35.4736 23.1356C34.7105 23.0262 33.8692 23.1327 32.9946 23.255C32.9515 23.261 32.9083 23.267 32.8651 23.2731C32.0443 23.3883 31.1961 23.5074 30.416 23.4306C30.2845 23.4176 30.1876 23.2915 30.1995 23.1489C30.2114 23.0063 30.3277 22.9012 30.4592 22.9141C31.1852 22.9856 31.9851 22.8735 32.8238 22.756C32.8603 22.7509 32.8969 22.7458 32.9335 22.7407C33.7983 22.6198 34.7013 22.5018 35.5362 22.6215C37.8714 22.9563 39.7498 24.5585 41.248 26.3357C41.6335 26.793 42.021 27.4343 42.232 28.1261C42.4427 28.8175 42.4857 29.5914 42.1312 30.2757C41.705 31.0983 40.9542 31.6479 40.1369 31.9504C39.3192 32.2531 38.4114 32.3181 37.6373 32.1484C35.5277 31.6859 33.1616 30.9608 31.4413 29.3979L31.4187 29.3773C31.2447 29.2192 30.4693 28.5145 29.7157 27.8402C29.3186 27.4849 28.9286 27.1389 28.6362 26.886C28.4896 26.7593 28.3695 26.6576 28.2859 26.5902C28.2497 26.5609 28.2231 26.5404 28.2055 26.5276C28.1931 26.5228 28.1809 26.5168 28.1691 26.5096C28.054 26.4394 28.0131 26.2814 28.0778 26.1565C28.1184 26.0783 28.1839 26.0423 28.2345 26.0298C28.2784 26.0189 28.3145 26.0241 28.3307 26.0272C28.3642 26.0334 28.3897 26.0461 28.3984 26.0504C28.4206 26.0616 28.4414 26.0756 28.4555 26.0854C28.4869 26.1073 28.5268 26.1382 28.5712 26.174C28.6615 26.2469 28.7868 26.353 28.9342 26.4806C29.2299 26.7362 29.6224 27.0845 30.02 27.4403C30.7749 28.1158 31.5515 28.8216 31.7256 28.9798L31.7483 29.0004C33.37 30.4738 35.6321 31.1797 37.7321 31.6401C38.4191 31.7907 39.241 31.7342 39.9825 31.4597C40.7244 31.1851 41.3621 30.7017 41.7144 30.0217C41.9798 29.5093 41.9643 28.8997 41.7781 28.2889Z" fill="black"/>
<path fill-rule="evenodd" clip-rule="evenodd" d="M43.9694 28.5378C43.7566 27.8399 43.359 27.1783 42.9609 26.7061C41.291 24.7254 39.2624 23.0216 36.7899 22.6671C35.9193 22.5423 34.9606 22.664 33.9689 22.8026C33.9204 22.8093 33.8718 22.8162 33.8231 22.823C32.8908 22.9538 31.9317 23.0884 31.0502 23.0017C30.9187 22.9887 30.8218 22.8626 30.8338 22.72C30.8457 22.5774 30.9619 22.4723 31.0934 22.4852C31.9208 22.5667 32.8316 22.4391 33.7819 22.3059C33.8238 22.3 33.8658 22.2941 33.9078 22.2883C34.8897 22.1511 35.9101 22.0179 36.8526 22.1531C39.4909 22.5313 41.6157 24.342 43.3137 26.3562C43.7486 26.8721 44.1856 27.5955 44.4233 28.375C44.6608 29.154 44.7077 30.021 44.3114 30.7859C43.8329 31.7096 42.9886 32.3287 42.0664 32.6701C41.1438 33.0117 40.1195 33.0848 39.2471 32.8935C36.8542 32.3689 34.1765 31.5475 32.2314 29.7803L32.2056 29.7569C32.0082 29.5775 31.1283 28.7779 30.2733 28.0127C29.8227 27.6095 29.38 27.2168 29.048 26.9297C28.8817 26.7858 28.745 26.6702 28.6497 26.5933C28.6062 26.5582 28.5744 26.5338 28.5537 26.5189C28.5401 26.5138 28.5267 26.5074 28.5138 26.4995C28.3987 26.4293 28.3578 26.2713 28.4225 26.1464C28.4631 26.0681 28.5287 26.032 28.5793 26.0195C28.6234 26.0087 28.6595 26.0138 28.6759 26.0169C28.7096 26.0233 28.7355 26.036 28.7446 26.0406C28.7677 26.0522 28.7898 26.067 28.8056 26.078C28.8402 26.1021 28.8847 26.1367 28.935 26.1772C29.037 26.2595 29.1788 26.3796 29.3461 26.5243C29.6813 26.8142 30.1265 27.2091 30.5776 27.6128C31.434 28.3792 32.3151 29.1799 32.5126 29.3594L32.5384 29.3828C34.385 31.0605 36.9586 31.8628 39.3418 32.3853C40.1272 32.5574 41.0655 32.4927 41.9119 32.1794C42.7588 31.8659 43.4899 31.313 43.8946 30.5318C44.2018 29.939 44.1823 29.2362 43.9694 28.5378Z" fill="black"/>
<path fill-rule="evenodd" clip-rule="evenodd" d="M48.4804 30.4488C48.2106 29.564 47.7075 28.7272 47.2039 28.13C45.1081 25.644 42.5542 23.4957 39.4352 23.0485C38.3264 22.8895 36.7748 22.9726 35.1947 23.0718C35.0913 23.0783 34.9878 23.0849 34.8844 23.0914C33.4224 23.1841 31.963 23.2765 30.8941 23.1713C30.7626 23.1584 30.6657 23.0323 30.6776 22.8897C30.6896 22.7471 30.8058 22.6419 30.9373 22.6549C31.9689 22.7564 33.3938 22.6663 34.8723 22.5728C34.9703 22.5666 35.0686 22.5603 35.1671 22.5542C36.7333 22.4558 38.3347 22.3677 39.4978 22.5344C42.7826 23.0054 45.4328 25.2606 47.5568 27.7801C48.0971 28.421 48.6397 29.3196 48.9343 30.286C49.2288 31.2518 49.284 32.3174 48.7988 33.254C48.2085 34.3934 47.165 35.1607 46.019 35.585C44.8726 36.0094 43.6001 36.0999 42.518 35.8627C39.521 35.2056 36.1791 34.1789 33.7543 31.9759L33.7217 31.9463C33.4738 31.721 32.3716 30.7193 31.3005 29.7609C30.7359 29.2556 30.1809 28.7632 29.7645 28.4031C29.556 28.2228 29.3841 28.0773 29.2638 27.9803C29.2043 27.9323 29.1612 27.8992 29.1338 27.88C29.1178 27.8747 29.1021 27.8674 29.087 27.8582C28.9719 27.788 28.931 27.63 28.9957 27.5052C29.0364 27.4267 29.1021 27.3905 29.1529 27.378C29.1972 27.367 29.2335 27.3722 29.2502 27.3754C29.2845 27.3818 29.3111 27.3949 29.3212 27.4C29.3463 27.4126 29.3711 27.429 29.3903 27.4424C29.4319 27.4714 29.4863 27.5136 29.5491 27.5642C29.6761 27.6666 29.8531 27.8166 30.0625 27.9977C30.4821 28.3606 31.0397 28.8552 31.6048 29.3609C32.6778 30.3211 33.7818 31.3244 34.0291 31.5491L34.0613 31.5784C36.3876 33.6919 39.6254 34.6995 42.6128 35.3544C43.6078 35.5726 44.7944 35.4904 45.8646 35.0943C46.9351 34.6979 47.8656 33.9968 48.382 33C48.7781 32.2354 48.7503 31.3341 48.4804 30.4488Z" fill="black"/>
<path fill-rule="evenodd" clip-rule="evenodd" d="M31.5397 14.1378C31.5854 14.1894 31.5839 14.2715 31.5364 14.3211C30.2987 15.6118 29.3317 17.0679 28.5969 18.7589C28.4348 19.1318 28.2981 19.5194 28.1595 19.9125C28.1311 19.9929 28.1026 20.0737 28.0738 20.1545C27.9054 20.6278 27.7268 21.1039 27.4939 21.5509C27.4614 21.6132 27.3885 21.6352 27.331 21.6C27.2735 21.5648 27.2533 21.4857 27.2858 21.4233C27.5095 20.994 27.6828 20.5332 27.8508 20.0611C27.879 19.9819 27.9071 19.9023 27.9352 19.8225C28.0739 19.4293 28.2144 19.031 28.3806 18.6483C29.128 16.9286 30.1122 15.4467 31.3707 14.1342C31.4183 14.0846 31.4939 14.0862 31.5397 14.1378Z" fill="black"/>
<path fill-rule="evenodd" clip-rule="evenodd" d="M30.6293 17.4948C30.6819 17.538 30.6923 17.6193 30.6524 17.6764C30.5759 17.7859 30.4995 17.895 30.4233 18.0038C29.5452 19.2576 28.6939 20.4731 28.034 21.8703C28.004 21.934 27.9319 21.9592 27.8732 21.9266C27.8144 21.8939 27.7912 21.8158 27.8213 21.7521C28.4912 20.3334 29.3551 19.1001 30.231 17.8497C30.3079 17.7399 30.3849 17.63 30.4619 17.5198C30.5017 17.4628 30.5767 17.4516 30.6293 17.4948Z" fill="black"/>
<path fill-rule="evenodd" clip-rule="evenodd" d="M31.1712 18.6002C31.2221 18.6459 31.2291 18.7276 31.187 18.7827C30.8732 19.1935 30.5683 19.6214 30.2618 20.0518C29.6643 20.8904 29.0604 21.7383 28.3708 22.4862C28.3241 22.5369 28.2484 22.5369 28.2017 22.4862C28.155 22.4356 28.155 22.3535 28.2017 22.3029C28.8813 21.5658 29.4679 20.742 30.059 19.912C30.3678 19.4783 30.6778 19.0429 31.0029 18.6173C31.0451 18.5622 31.1204 18.5545 31.1712 18.6002Z" fill="black"/>
<path fill-rule="evenodd" clip-rule="evenodd" d="M33.03 18.2173C33.0778 18.2666 33.0796 18.3487 33.0341 18.4005C32.933 18.5156 32.832 18.6308 32.7311 18.746C31.8113 19.7956 30.8924 20.8442 29.8568 21.7811C29.7634 21.8657 29.6622 21.9505 29.5638 22.033C29.4913 22.0939 29.4202 22.1535 29.3548 22.2108C29.1936 22.3521 29.0446 22.4975 28.9174 22.67C28.8762 22.7259 28.801 22.7349 28.7494 22.6902C28.6979 22.6455 28.6895 22.5639 28.7308 22.508C28.8736 22.3144 29.0377 22.1554 29.2045 22.0091C29.2807 21.9424 29.3537 21.8813 29.4258 21.821C29.5184 21.7435 29.6094 21.6673 29.7037 21.582C30.728 20.6553 31.6372 19.6178 32.5585 18.5666C32.6591 18.4517 32.7599 18.3367 32.861 18.2217C32.9066 18.1698 32.9822 18.1679 33.03 18.2173Z" fill="black"/>
<path fill-rule="evenodd" clip-rule="evenodd" d="M30.6524 24.5243C30.2191 24.4407 29.8559 24.3978 29.4399 24.4672C29.3746 24.4781 29.3136 24.4295 29.3035 24.3588C29.2935 24.288 29.3383 24.2218 29.4035 24.2109C29.8583 24.135 30.2521 24.1837 30.6943 24.269C31.8845 24.4987 33.0019 24.8884 34.1344 25.2834C34.2289 25.3164 34.3235 25.3494 34.4183 25.3823C34.4811 25.4042 34.5158 25.4771 34.4956 25.5453C34.4755 25.6135 34.4082 25.651 34.3453 25.6292C34.2512 25.5965 34.1574 25.5638 34.0638 25.5311C32.9285 25.1352 31.826 24.7508 30.6524 24.5243Z" fill="black"/>
<path fill-rule="evenodd" clip-rule="evenodd" d="M29.3654 24.5673C29.3812 24.4978 29.446 24.4553 29.51 24.4725C30.8947 24.8427 32.2785 25.2283 33.6616 25.6137C34.7882 25.9276 35.9144 26.2414 37.0402 26.5467C37.1043 26.5641 37.1432 26.6344 37.1272 26.7039C37.1112 26.7734 37.0463 26.8156 36.9823 26.7982C35.8519 26.4917 34.7254 26.1778 33.5993 25.864C32.2186 25.4793 30.8385 25.0947 29.4528 24.7242C29.3887 24.7071 29.3496 24.6368 29.3654 24.5673Z" fill="black"/>
<path fill-rule="evenodd" clip-rule="evenodd" d="M28.8906 25.0739C28.9124 25.0064 28.9806 24.9708 29.0429 24.9945C31.5591 25.9517 34.073 26.7829 36.6777 27.3883C36.7423 27.4033 36.7834 27.4722 36.7696 27.5422C36.7557 27.6122 36.6922 27.6568 36.6277 27.6418C34.01 27.0334 31.4859 26.1986 28.9638 25.2392C28.9015 25.2155 28.8687 25.1415 28.8906 25.0739Z" fill="black"/>
<path fill-rule="evenodd" clip-rule="evenodd" d="M25.7449 27.39C25.8086 27.3712 25.8743 27.412 25.8916 27.4811C26.087 28.2602 26.3639 29.0028 26.6437 29.7533C26.796 30.1616 26.9491 30.5722 27.0904 30.9923C27.4696 32.1196 27.8549 33.2292 28.2772 34.3361C28.3024 34.4022 28.2734 34.4781 28.2124 34.5054C28.1514 34.5328 28.0815 34.5014 28.0563 34.4352C27.6321 33.3234 27.2456 32.2099 26.8659 31.0812C26.7307 30.6793 26.5808 30.2769 26.4299 29.8721C26.1464 29.1112 25.8596 28.3415 25.661 27.5491C25.6437 27.48 25.6812 27.4088 25.7449 27.39Z" fill="black"/>
<path fill-rule="evenodd" clip-rule="evenodd" d="M27.2896 27.5227C27.3517 27.4985 27.4202 27.5334 27.4425 27.6008C28.103 29.5907 29.0368 31.4402 30.0037 33.2845C30.0363 33.3467 30.0162 33.4259 29.9589 33.4613C29.9015 33.4967 29.8285 33.4749 29.7959 33.4127C28.8289 31.5681 27.8857 29.7016 27.2176 27.6886C27.1953 27.6213 27.2275 27.547 27.2896 27.5227Z" fill="black"/>
<path fill-rule="evenodd" clip-rule="evenodd" d="M27.5695 26.9488C27.6268 26.9133 27.6998 26.9348 27.7326 26.997C28.944 29.2934 30.4115 31.404 32.0214 33.3927C32.065 33.4465 32.0601 33.5284 32.0105 33.5756C31.9609 33.6229 31.8853 33.6175 31.8418 33.5637C30.2242 31.5657 28.7464 29.4409 27.5251 27.1257C27.4923 27.0636 27.5122 26.9844 27.5695 26.9488Z" fill="black"/>
<path fill-rule="evenodd" clip-rule="evenodd" d="M22.8198 26.7184C22.8624 26.7731 22.8561 26.8549 22.8057 26.9011C21.7599 27.8594 20.7966 28.8864 19.825 29.9401C19.7783 29.9908 19.7027 29.9908 19.656 29.9401C19.6093 29.8895 19.6093 29.8074 19.656 29.7568C20.6278 28.7028 21.5973 27.669 22.6514 26.7031C22.7018 26.6569 22.7772 26.6637 22.8198 26.7184Z" fill="black"/>
<path fill-rule="evenodd" clip-rule="evenodd" d="M23.6481 26.5143C23.6956 26.564 23.697 26.6461 23.6512 26.6976C21.9495 28.6116 20.6643 30.9843 19.4117 33.2968C19.2964 33.5095 19.1815 33.7217 19.0665 33.933C19.033 33.9946 18.9597 34.0151 18.9029 33.9787C18.846 33.9424 18.8271 33.8629 18.8607 33.8012C18.976 33.5892 19.0915 33.3759 19.2075 33.1619C20.4572 30.8543 21.7567 28.455 23.4791 26.5176C23.5249 26.4661 23.6006 26.4646 23.6481 26.5143Z" fill="black"/>
<path fill-rule="evenodd" clip-rule="evenodd" d="M24.7121 26.698C24.7651 26.7407 24.7762 26.8219 24.7368 26.8794C23.5854 28.5604 22.6643 30.4268 21.7455 32.2884C21.4529 32.8813 21.1605 33.4738 20.861 34.0596C20.8289 34.1222 20.7562 34.1448 20.6985 34.1101C20.6407 34.0754 20.6199 33.9965 20.6519 33.9339C20.9475 33.3557 21.2374 32.7682 21.5286 32.1783C22.4492 30.3128 23.382 28.4227 24.5449 26.7248C24.5843 26.6673 24.6591 26.6553 24.7121 26.698Z" fill="black"/>
<path fill-rule="evenodd" clip-rule="evenodd" d="M21.6156 15.7897C21.6784 15.7674 21.7459 15.8045 21.7664 15.8725C21.8823 16.256 21.9922 16.644 22.1024 17.0325C22.5154 18.4898 22.9308 19.9554 23.6664 21.2236C23.7015 21.2842 23.6847 21.3643 23.6288 21.4024C23.5729 21.4405 23.4992 21.4223 23.464 21.3617C22.7099 20.0614 22.2825 18.5525 21.8686 17.0911C21.7598 16.707 21.6519 16.3261 21.5393 15.9532C21.5187 15.8852 21.5529 15.812 21.6156 15.7897Z" fill="black"/>
<path fill-rule="evenodd" clip-rule="evenodd" d="M22.1573 14.2328C22.2207 14.2128 22.287 14.2523 22.3055 14.3211C22.3804 14.6004 22.4549 14.8799 22.5293 15.1594C23.0585 17.1451 23.5875 19.1306 24.2742 21.0513C24.2981 21.1181 24.2675 21.1932 24.206 21.2191C24.1444 21.245 24.0752 21.2118 24.0513 21.1451C23.3605 19.2128 22.8283 17.2155 22.2995 15.2308C22.2251 14.9514 22.1507 14.6722 22.0759 14.3935C22.0575 14.3247 22.0939 14.2528 22.1573 14.2328Z" fill="black"/>
<path fill-rule="evenodd" clip-rule="evenodd" d="M24.611 14.4262C24.675 14.4083 24.7401 14.4501 24.7566 14.5194C24.8129 14.7564 24.8711 14.9942 24.9295 15.2328C25.1826 16.2663 25.4394 17.3153 25.5596 18.3854C25.6488 19.1794 25.5629 19.9574 25.4766 20.725C25.4686 20.7961 25.409 20.8467 25.3435 20.838C25.278 20.8293 25.2313 20.7647 25.2393 20.6936C25.3261 19.9216 25.4074 19.1745 25.3223 18.4168C25.2043 17.3663 24.9528 16.3387 24.7001 15.3063C24.6413 15.066 24.5824 14.8253 24.5251 14.5841C24.5086 14.5147 24.5471 14.444 24.611 14.4262Z" fill="black"/>
<path fill-rule="evenodd" clip-rule="evenodd" d="M14.8595 26.1616C17.2022 25.2484 19.7554 24.2819 22.3182 24.469C22.3841 24.4738 22.4339 24.5356 22.4295 24.607C22.425 24.6785 22.368 24.7325 22.3022 24.7277C19.7971 24.5448 17.2906 25.4895 14.9403 26.4055C14.8782 26.4298 14.8098 26.3948 14.7874 26.3274C14.7651 26.26 14.7974 26.1858 14.8595 26.1616Z" fill="black"/>
<path fill-rule="evenodd" clip-rule="evenodd" d="M18.7328 24.0061C19.8196 23.7736 20.9255 23.6623 22.0334 23.8876C22.0983 23.9008 22.141 23.9685 22.1289 24.0389C22.1167 24.1092 22.0543 24.1556 21.9894 24.1424C20.9236 23.9256 19.8514 24.031 18.779 24.2604C18.1163 24.4022 17.4626 24.5889 16.811 24.775C16.4021 24.8917 15.9939 25.0083 15.5848 25.1134C15.5206 25.1299 15.4562 25.0868 15.441 25.0171C15.4258 24.9474 15.4655 24.8776 15.5297 24.8611C15.926 24.7593 16.3294 24.6442 16.7369 24.5279C17.3957 24.3399 18.0652 24.1489 18.7328 24.0061Z" fill="black"/>
<path fill-rule="evenodd" clip-rule="evenodd" d="M16.58 21.2497C16.6018 21.1822 16.67 21.1466 16.7323 21.1703C18.1962 21.7275 19.662 22.2539 21.154 22.7091C21.3185 22.7592 21.4811 22.8173 21.6406 22.8743C21.6874 22.891 21.7339 22.9076 21.7802 22.9239C21.9857 22.9964 22.1879 23.0634 22.3945 23.1103C22.4591 23.1249 22.5005 23.1936 22.487 23.2637C22.4734 23.3338 22.4101 23.3787 22.3455 23.364C22.1257 23.3142 21.9135 23.2435 21.7063 23.1705C21.658 23.1535 21.6102 23.1364 21.5626 23.1194C21.4041 23.0628 21.2482 23.0071 21.0893 22.9587C19.5905 22.5015 18.1195 21.973 16.6532 21.415C16.5909 21.3913 16.5581 21.3173 16.58 21.2497Z" fill="black"/>
<path fill-rule="evenodd" clip-rule="evenodd" d="M28.9312 12.6335C28.9838 12.5903 29.0588 12.6015 29.0986 12.6586C29.1312 12.7052 29.1615 12.7606 29.1876 12.8081C29.1885 12.8098 29.1894 12.8114 29.1903 12.8131C29.2189 12.8652 29.2427 12.9081 29.2659 12.9408C29.2729 12.9507 29.2788 12.9579 29.2834 12.9632C29.3303 12.9187 29.4017 12.9207 29.4465 12.9693C29.4931 13.0199 29.4931 13.102 29.4465 13.1526C29.3895 13.2144 29.3127 13.252 29.2268 13.2244C29.157 13.202 29.1079 13.1431 29.0767 13.0992C29.0433 13.0524 29.0124 12.9958 28.9859 12.9475L28.9848 12.9455C28.9562 12.8933 28.932 12.8494 28.9081 12.8151C28.8682 12.7581 28.8786 12.6768 28.9312 12.6335Z" fill="black"/>
<path fill-rule="evenodd" clip-rule="evenodd" d="M29.5302 11.9842C29.5834 11.9418 29.6582 11.9542 29.6973 12.0119C29.7206 12.0463 29.7504 12.1045 29.7783 12.1588C29.7808 12.1638 29.7834 12.1687 29.7859 12.1736C29.8186 12.2374 29.8528 12.3032 29.8857 12.3564C29.8884 12.3609 29.8911 12.3652 29.8938 12.3693C29.9207 12.3501 29.9548 12.3427 29.9885 12.3518C30.0526 12.3692 30.0915 12.4396 30.0755 12.509C30.066 12.5503 30.0479 12.6053 30.0057 12.6433C29.982 12.6647 29.9524 12.6789 29.9193 12.6817C29.8876 12.6844 29.8603 12.6761 29.8397 12.6661C29.8013 12.6476 29.7712 12.6161 29.7506 12.5912C29.7281 12.5641 29.7066 12.5324 29.687 12.5006C29.6479 12.4372 29.6091 12.3622 29.5771 12.2998L29.5769 12.2995C29.5421 12.2317 29.5186 12.1861 29.5047 12.1655C29.4656 12.1078 29.477 12.0267 29.5302 11.9842ZM29.8394 12.4608C29.8392 12.4613 29.8391 12.4615 29.8391 12.4615C29.8391 12.4615 29.8392 12.4613 29.8394 12.4608Z" fill="black"/>
<path fill-rule="evenodd" clip-rule="evenodd" d="M30.1057 11.316C30.1691 11.2961 30.2354 11.3358 30.2537 11.4046C30.2619 11.4358 30.2701 11.4668 30.2781 11.4974C30.3338 11.7095 30.3858 11.9078 30.4672 12.0929C30.4842 12.088 30.5024 12.0872 30.5208 12.0912C30.5855 12.1052 30.6275 12.1735 30.6146 12.2437C30.6112 12.2618 30.6081 12.2792 30.6053 12.2951C30.601 12.3191 30.5974 12.3397 30.5944 12.3543C30.592 12.366 30.5882 12.3836 30.5822 12.3999C30.5793 12.4076 30.5727 12.4242 30.56 12.4408C30.5465 12.4583 30.5159 12.4883 30.4677 12.4895C30.4232 12.4906 30.3935 12.4661 30.3822 12.4553C30.3698 12.4435 30.3618 12.4312 30.358 12.4251C30.3501 12.4125 30.3434 12.3982 30.3393 12.3894C30.3367 12.384 30.3342 12.3785 30.3316 12.3728C30.3238 12.3557 30.3152 12.337 30.3033 12.3137C30.1805 12.0739 30.1124 11.8139 30.0482 11.5685C30.0401 11.5376 30.032 11.5068 30.024 11.4764C30.0057 11.4076 30.0423 11.3358 30.1057 11.316Z" fill="black"/>
<path fill-rule="evenodd" clip-rule="evenodd" d="M30.6999 10.7337C30.7628 10.7119 30.8301 10.7494 30.8502 10.8176C30.8707 10.8868 30.8882 10.9769 30.9056 11.0662L30.9064 11.0705C30.9245 11.1631 30.9433 11.2597 30.9669 11.3522C30.9908 11.4459 31.0182 11.5291 31.0512 11.5944C31.0846 11.6606 31.1179 11.6969 31.1484 11.7135C31.2075 11.7455 31.2314 11.8234 31.2019 11.8874C31.1723 11.9514 31.1006 11.9774 31.0415 11.9454C30.95 11.8958 30.8867 11.8085 30.8415 11.7188C30.7958 11.6283 30.7626 11.5233 30.7366 11.4215C30.7109 11.3211 30.6908 11.2178 30.6732 11.1273L30.6722 11.1221C30.6537 11.0273 30.6387 10.9511 30.6226 10.8968C30.6024 10.8286 30.637 10.7556 30.6999 10.7337Z" fill="black"/>
<path fill-rule="evenodd" clip-rule="evenodd" d="M36.6211 16.2031C36.523 16.2192 36.4127 16.237 36.2941 16.237C36.2281 16.237 36.1746 16.1789 36.1746 16.1073C36.1746 16.0357 36.2281 15.9777 36.2941 15.9777C36.3924 15.9777 36.4862 15.963 36.5853 15.9467C36.5896 15.946 36.5939 15.9453 36.5982 15.9446C36.6909 15.9293 36.7909 15.9129 36.8917 15.9129C36.9577 15.9129 37.0112 15.9709 37.0112 16.0425C37.0112 16.1141 36.9577 16.1721 36.8917 16.1721C36.8093 16.1721 36.7253 16.186 36.6269 16.2021C36.6249 16.2025 36.623 16.2028 36.6211 16.2031Z" fill="black"/>
<path fill-rule="evenodd" clip-rule="evenodd" d="M37.3712 15.3571C37.3197 15.3936 37.2354 15.4268 37.1879 15.4404C37.0756 15.4727 36.9601 15.4668 36.8569 15.4513C36.7883 15.441 36.7161 15.4246 36.6521 15.4101C36.6229 15.4034 36.5953 15.3972 36.5706 15.392C36.5057 15.3786 36.4632 15.3108 36.4755 15.2404C36.4879 15.1701 36.5504 15.124 36.6153 15.1374C36.6489 15.1443 36.6811 15.1516 36.7126 15.1588C36.7718 15.1723 36.8289 15.1853 36.8897 15.1945C36.9798 15.208 37.0589 15.2093 37.1267 15.1898C37.1282 15.1894 37.1297 15.1889 37.1312 15.1885C37.1365 15.1222 37.1878 15.0703 37.2503 15.0703C37.2772 15.0703 37.3031 15.0718 37.326 15.0764C37.3376 15.0788 37.3518 15.0826 37.3664 15.0894C37.3801 15.0958 37.4019 15.1085 37.4203 15.1331C37.4413 15.1613 37.4519 15.1979 37.4481 15.2359C37.4448 15.2691 37.4314 15.2932 37.4225 15.3064C37.4055 15.3318 37.3835 15.3484 37.3712 15.3571ZM37.2427 15.1384C37.2427 15.1384 37.2424 15.1387 37.2416 15.1393C37.2423 15.1387 37.2427 15.1384 37.2427 15.1384Z" fill="black"/>
<path fill-rule="evenodd" clip-rule="evenodd" d="M37.3861 14.6159C37.4176 14.5574 37.4861 14.5347 37.5428 14.5654C37.5622 14.5759 37.5831 14.5888 37.6007 14.6048C37.6113 14.6143 37.6561 14.6555 37.6537 14.7257C37.6509 14.8073 37.5906 14.8417 37.5761 14.8492C37.5552 14.8599 37.534 14.8645 37.5209 14.8669C37.4927 14.8719 37.4601 14.8734 37.4358 14.8741C37.4227 14.8745 37.4122 14.8747 37.4034 14.8748C37.3922 14.875 37.3837 14.8752 37.3761 14.8756C37.2519 14.8827 37.1189 14.9135 36.9788 14.9521C36.9361 14.9639 36.892 14.9766 36.8475 14.9895C36.7506 15.0175 36.6512 15.0463 36.5576 15.0675C36.493 15.0822 36.4297 15.0373 36.4162 14.9672C36.4026 14.8971 36.4441 14.8284 36.5087 14.8137C36.596 14.7939 36.6845 14.7683 36.7777 14.7413C36.8238 14.728 36.871 14.7143 36.9199 14.7009C37.0631 14.6614 37.2149 14.6252 37.3635 14.6167C37.3697 14.6164 37.3776 14.6161 37.3861 14.6159Z" fill="black"/>
<path fill-rule="evenodd" clip-rule="evenodd" d="M36.9879 14.4297C36.8572 14.4388 36.7248 14.4398 36.6298 14.4197C36.565 14.406 36.5227 14.3379 36.5354 14.2676C36.548 14.1974 36.6108 14.1515 36.6756 14.1652C36.7382 14.1785 36.8443 14.1799 36.9726 14.171C37.0978 14.1623 37.2338 14.1445 37.3509 14.1246C37.411 14.1144 37.4642 14.1039 37.5074 14.0943C37.5285 14.0576 37.566 14.0332 37.6088 14.0332C37.6307 14.0332 37.6515 14.034 37.6693 14.0364C37.6779 14.0375 37.6898 14.0396 37.7023 14.0438L37.7026 14.0439C37.7102 14.0464 37.7422 14.0572 37.7667 14.0908C37.7822 14.112 37.7942 14.1422 37.793 14.178C37.7919 14.2113 37.7797 14.236 37.7703 14.2503C37.7538 14.2757 37.733 14.2888 37.7265 14.2929C37.7092 14.3037 37.6897 14.3111 37.6758 14.3159C37.6163 14.3366 37.5084 14.3603 37.3879 14.3807C37.2652 14.4016 37.1218 14.4204 36.9879 14.4297Z" fill="black"/>
<path fill-rule="evenodd" clip-rule="evenodd" d="M36.8452 9.86293C36.8335 9.90762 36.8205 9.9566 36.8094 9.98548C36.6987 10.2717 36.5228 10.5221 36.3472 10.7551C36.3131 10.8003 36.2791 10.8448 36.2455 10.8888C36.1025 11.0759 35.9663 11.2539 35.8579 11.4439C35.8231 11.5048 35.7495 11.5236 35.6933 11.4859C35.6372 11.4483 35.6199 11.3684 35.6546 11.3075C35.7727 11.1007 35.922 10.9054 36.0658 10.7175C36.0983 10.675 36.1306 10.6328 36.1621 10.591C36.3365 10.3596 36.4927 10.134 36.5889 9.88521C36.5938 9.87253 36.6029 9.83918 36.6178 9.78267L36.6178 9.78263C36.6313 9.73144 36.648 9.66839 36.6663 9.61018C36.6836 9.55528 36.7064 9.49119 36.7351 9.445C36.7479 9.42444 36.7744 9.38624 36.8188 9.36713C36.8443 9.3561 36.875 9.35191 36.907 9.36081C36.9377 9.36933 36.9605 9.38735 36.9762 9.40437C37.0229 9.45499 37.0229 9.53707 36.9762 9.5877C36.9595 9.6058 36.9391 9.61742 36.9177 9.62258C36.9104 9.64048 36.9019 9.66427 36.8925 9.69395C36.8765 9.74503 36.8614 9.80186 36.8476 9.85411C36.8468 9.85703 36.846 9.85997 36.8452 9.86293ZM36.9353 9.5871C36.9353 9.58716 36.9349 9.58785 36.9339 9.58898C36.9348 9.5876 36.9353 9.58704 36.9353 9.5871Z" fill="black"/>
<path fill-rule="evenodd" clip-rule="evenodd" d="M42.0311 29.587C42.0322 29.5154 42.0867 29.4584 42.1527 29.4596C42.3934 29.464 42.6303 29.4949 42.8603 29.5248L42.8719 29.5263C43.1075 29.557 43.336 29.5863 43.5664 29.5892C43.5937 29.5896 43.637 29.5855 43.6975 29.5799L43.7011 29.5795C43.7599 29.5741 43.8299 29.5677 43.8985 29.5663C43.9659 29.5649 44.0396 29.5679 44.1045 29.5846C44.1655 29.6004 44.248 29.636 44.2894 29.7257C44.3189 29.7897 44.295 29.8676 44.2359 29.8996C44.1789 29.9305 44.11 29.9074 44.0788 29.8481C44.0754 29.8459 44.0669 29.8415 44.0491 29.8369C44.0138 29.8277 43.9639 29.8242 43.9031 29.8255C43.8436 29.8268 43.7809 29.8323 43.7215 29.8379C43.7174 29.8382 43.7133 29.8386 43.7092 29.839C43.6571 29.8439 43.6031 29.849 43.5636 29.8485C43.3183 29.8454 43.0773 29.8142 42.8434 29.7838L42.8372 29.7829C42.6035 29.7525 42.377 29.723 42.1486 29.7188C42.0826 29.7176 42.03 29.6586 42.0311 29.587Z" fill="black"/>
<path fill-rule="evenodd" clip-rule="evenodd" d="M39.4452 31.8225C39.4962 31.777 39.5715 31.7849 39.6134 31.8402C39.654 31.8936 39.6978 31.9481 39.7439 32.0053L39.7452 32.007C39.7904 32.0631 39.8376 32.1217 39.8835 32.1818C39.9605 32.2827 40.0368 32.3915 40.0982 32.5079C40.1171 32.5043 40.1371 32.5056 40.1566 32.5126C40.2192 32.5352 40.253 32.6087 40.2322 32.6766C40.2234 32.705 40.2138 32.7352 40.2032 32.7586C40.1981 32.7698 40.1886 32.7893 40.1726 32.8071C40.1554 32.8264 40.1197 32.8553 40.0681 32.8508C40.0227 32.8469 39.994 32.8187 39.9828 32.8064C39.97 32.7923 39.9608 32.7772 39.955 32.767C39.9434 32.7467 39.931 32.7198 39.9193 32.6944L39.9189 32.6936C39.8652 32.577 39.7877 32.4628 39.6994 32.3472C39.6555 32.2897 39.6101 32.2333 39.5642 32.1763L39.5638 32.1758C39.5182 32.1192 39.4721 32.0618 39.4289 32.005C39.387 31.9497 39.3942 31.8681 39.4452 31.8225ZM39.9888 32.644C39.9884 32.6449 39.9884 32.6447 39.9889 32.6437Z" fill="black"/>
<path fill-rule="evenodd" clip-rule="evenodd" d="M40.1185 31.8753C40.1755 31.8394 40.2487 31.8604 40.2819 31.9223C40.2988 31.9538 40.3264 32.0185 40.3557 32.0873C40.3604 32.0984 40.3652 32.1096 40.37 32.1208C40.4067 32.2066 40.4482 32.3021 40.4871 32.3808C40.4881 32.3828 40.4891 32.3848 40.4901 32.3867C40.5045 32.38 40.5204 32.3763 40.5371 32.3763C40.6031 32.3763 40.6566 32.4344 40.6566 32.506C40.6566 32.5348 40.6553 32.5619 40.652 32.5863C40.649 32.6091 40.6431 32.6383 40.6293 32.6658C40.6147 32.695 40.5837 32.7353 40.5296 32.7453C40.4807 32.7543 40.4427 32.7326 40.4243 32.7194C40.3885 32.6938 40.3604 32.6528 40.3416 32.6227C40.3199 32.588 40.2978 32.5464 40.2765 32.5034C40.2339 32.4172 40.1897 32.3153 40.1532 32.2299C40.1483 32.2185 40.1436 32.2074 40.139 32.1969C40.1078 32.1238 40.086 32.0727 40.0752 32.0526C40.042 31.9907 40.0614 31.9113 40.1185 31.8753Z" fill="black"/>
<path fill-rule="evenodd" clip-rule="evenodd" d="M40.4923 31.4784C40.5535 31.4515 40.6231 31.4835 40.6479 31.5499C40.6844 31.6477 40.7179 31.7445 40.7509 31.8398C40.8116 32.0153 40.8706 32.1859 40.9434 32.3485C40.956 32.3766 40.9682 32.411 40.9791 32.4437C41.0338 32.4556 41.0749 32.508 41.0749 32.5708C41.0749 32.6068 41.0739 32.6377 41.0712 32.6626C41.0698 32.6748 41.0677 32.6897 41.0635 32.7047C41.0608 32.7148 41.0515 32.7476 41.0237 32.7744C41.0071 32.7903 40.9829 32.805 40.9523 32.8079C40.9226 32.8108 40.8983 32.8017 40.8823 32.7924C40.8544 32.7763 40.8389 32.7526 40.8339 32.7448C40.821 32.7248 40.8115 32.7013 40.8055 32.6855C40.7945 32.6568 40.7824 32.6189 40.7713 32.5843C40.769 32.5771 40.7667 32.57 40.7645 32.5632C40.7504 32.5195 40.7384 32.4841 40.7284 32.4618C40.6511 32.2892 40.5846 32.0974 40.5212 31.9143C40.4891 31.8219 40.4578 31.7317 40.4263 31.6472C40.4016 31.5808 40.4311 31.5052 40.4923 31.4784Z" fill="black"/>
<path fill-rule="evenodd" clip-rule="evenodd" d="M37.852 22.7007C37.8451 22.7107 37.8382 22.7207 37.8314 22.7305C37.7104 22.9058 37.6062 23.0567 37.4646 23.2103C37.4179 23.2609 37.4179 23.343 37.4646 23.3936C37.5112 23.4443 37.5869 23.4443 37.6336 23.3936C37.7829 23.2317 37.8944 23.0718 38.0098 22.9047C38.0549 22.8861 38.0869 22.8389 38.0869 22.7834C38.0869 22.7773 38.087 22.7717 38.0871 22.7668C38.0876 22.7649 38.0881 22.763 38.0886 22.7612C38.0919 22.7483 38.0941 22.7354 38.0952 22.7229L38.0952 22.7228C38.0958 22.7158 38.0979 22.6918 38.0908 22.6652C38.0888 22.6578 38.0836 22.6404 38.0709 22.6222C38.0575 22.603 38.0252 22.5696 37.9733 22.5705C37.9267 22.5714 37.8981 22.5998 37.8883 22.6108C37.8769 22.6238 37.8705 22.6363 37.8676 22.6424C37.8576 22.6635 37.8543 22.6847 37.8532 22.6921L37.8532 22.6922C37.8528 22.6949 37.8524 22.6977 37.852 22.7007ZM38.0889 22.735C38.0892 22.7332 38.0893 22.7336 38.0888 22.7357ZM37.8584 22.6914C37.8585 22.6913 37.8585 22.6913 37.8585 22.6913C37.8585 22.6913 37.8585 22.6913 37.8585 22.6913C37.8585 22.6913 37.8584 22.6913 37.8584 22.6914Z" fill="black"/>
<path fill-rule="evenodd" clip-rule="evenodd" d="M38.1519 23.9108C38.1417 23.9297 38.1342 23.9437 38.1299 23.9517C38.0961 24.0132 38.0228 24.0334 37.966 23.9967C37.9093 23.9601 37.8907 23.8806 37.9245 23.819C37.928 23.8125 37.9347 23.8002 37.9438 23.7831C37.9874 23.7021 38.0881 23.5147 38.1895 23.3407C38.2507 23.2358 38.3144 23.1317 38.3678 23.0569C38.3937 23.0206 38.4215 22.9849 38.4483 22.9596C38.4606 22.9479 38.4815 22.9299 38.5085 22.9191C38.5383 22.9072 38.5999 22.8973 38.6495 22.9511C38.6962 23.0017 38.6962 23.0838 38.6495 23.1344C38.6332 23.1521 38.6134 23.1636 38.5925 23.1689C38.5837 23.1793 38.5718 23.1946 38.5569 23.2155C38.5107 23.2802 38.452 23.3757 38.3915 23.4793C38.2933 23.6478 38.1969 23.8271 38.1519 23.9108ZM38.6073 23.1533C38.6073 23.1533 38.607 23.1536 38.6064 23.1541C38.607 23.1535 38.6073 23.1533 38.6073 23.1533Z" fill="black"/>
<path fill-rule="evenodd" clip-rule="evenodd" d="M39.5531 23.2556C39.5467 23.2873 39.537 23.3271 39.5219 23.36C39.3922 23.6413 39.1988 23.9198 39.0237 24.172C38.9811 24.2333 38.9396 24.2931 38.9004 24.351C38.8613 24.4087 38.7864 24.4211 38.7333 24.3787C38.6801 24.3363 38.6687 24.2551 38.7078 24.1975C38.7508 24.1339 38.795 24.0703 38.8393 24.0064C39.0132 23.7556 39.1892 23.5019 39.308 23.244C39.308 23.244 39.308 23.244 39.3081 23.244C39.3081 23.2439 39.3087 23.2426 39.3096 23.2398C39.3107 23.2367 39.3119 23.2328 39.3132 23.2277C39.3159 23.2175 39.3187 23.205 39.3214 23.1908C39.3266 23.1633 39.3306 23.1347 39.334 23.1105C39.3342 23.1094 39.3343 23.1084 39.3345 23.1074L39.3345 23.107C39.3361 23.0961 39.3379 23.0832 39.3397 23.0736C39.3397 23.0735 39.3397 23.0734 39.3397 23.0732C39.3402 23.0705 39.3426 23.0569 39.3479 23.0431C39.3495 23.0388 39.3535 23.0288 39.3608 23.0175L39.3608 23.0174C39.3651 23.0107 39.3869 22.9769 39.4312 22.9654C39.4916 22.9497 39.5342 22.9868 39.5507 23.008C39.565 23.0264 39.5709 23.0445 39.5725 23.0498C39.5788 23.0694 39.5796 23.089 39.5797 23.0899L39.5797 23.0899C39.5801 23.0965 39.5803 23.1038 39.5805 23.1109C39.5808 23.1256 39.581 23.146 39.581 23.1724C39.581 23.204 39.5705 23.2331 39.5531 23.2556ZM39.5741 23.1243C39.5744 23.1224 39.5744 23.1229 39.574 23.1249ZM39.3413 23.1093C39.3409 23.1062 39.341 23.1054 39.3412 23.1083Z" fill="black"/>
<path fill-rule="evenodd" clip-rule="evenodd" d="M33.4869 33.1336C33.4973 33.063 33.5586 33.0148 33.6238 33.0261C33.6832 33.0364 33.7884 33.0617 33.8949 33.0873C33.9396 33.0981 33.9845 33.1089 34.0263 33.1186C34.0997 33.1358 34.1643 33.1499 34.2084 33.1573C34.2153 33.1584 34.2213 33.1593 34.2266 33.16C34.2816 33.1413 34.3425 33.1681 34.3692 33.2258C34.3798 33.2489 34.3915 33.2925 34.3715 33.3405C34.3535 33.3837 34.3212 33.4021 34.307 33.4088C34.2807 33.421 34.2551 33.4212 34.2473 33.4212L34.2469 33.4212C34.2242 33.4213 34.197 33.4176 34.1724 33.4136C34.1202 33.4049 34.0493 33.3892 33.976 33.3721C33.9281 33.3609 33.8792 33.3492 33.8323 33.3379C33.7304 33.3134 33.6381 33.2912 33.586 33.2821C33.5208 33.2708 33.4764 33.2043 33.4869 33.1336Z" fill="black"/>
<path fill-rule="evenodd" clip-rule="evenodd" d="M33.6647 33.9319C33.6647 33.8603 33.7182 33.8023 33.7842 33.8023H34.5013C34.5673 33.8023 34.6208 33.8603 34.6208 33.9319C34.6208 34.0035 34.5673 34.0616 34.5013 34.0616H33.7842C33.7182 34.0616 33.6647 34.0035 33.6647 33.9319Z" fill="black"/>
<path fill-rule="evenodd" clip-rule="evenodd" d="M33.6661 34.56C33.6763 34.4893 33.7375 34.4409 33.8027 34.452C34.0559 34.4951 34.2987 34.5153 34.5544 34.5153H34.6389L34.6392 34.7745H34.5544C34.2865 34.7745 34.0313 34.7534 33.7657 34.7082C33.7004 34.6971 33.6559 34.6307 33.6661 34.56Z" fill="black"/>
<path fill-rule="evenodd" clip-rule="evenodd" d="M28.0122 38.4423C28.0589 38.4929 28.0589 38.575 28.0122 38.6256C27.9079 38.7387 27.8196 38.8644 27.7241 39.0011C27.6843 39.0582 27.6093 39.0694 27.5567 39.0262C27.5041 38.9829 27.4938 38.9016 27.5336 38.8446C27.6277 38.7098 27.7255 38.5699 27.8432 38.4423C27.8898 38.3916 27.9655 38.3916 28.0122 38.4423Z" fill="black"/>
<path fill-rule="evenodd" clip-rule="evenodd" d="M28.3708 39.0256C28.4174 39.0762 28.4174 39.1583 28.3708 39.2089C28.2218 39.3705 28.09 39.5325 27.9632 39.7141C27.9233 39.7712 27.8484 39.7824 27.7958 39.7391C27.7431 39.6959 27.7328 39.6146 27.7727 39.5575C27.9066 39.3657 28.0457 39.1948 28.2017 39.0256C28.2484 38.975 28.3241 38.975 28.3708 39.0256Z" fill="black"/>
<path fill-rule="evenodd" clip-rule="evenodd" d="M28.8531 39.4452C28.9171 39.4626 28.956 39.533 28.94 39.6024C28.8971 39.7885 28.8241 39.9629 28.7461 40.1268C28.7111 40.2003 28.6744 40.2731 28.6387 40.3439C28.6346 40.3521 28.6304 40.3603 28.6263 40.3684C28.5865 40.4476 28.548 40.5245 28.5127 40.6012C28.4831 40.6652 28.4113 40.6912 28.3523 40.6592C28.2933 40.6272 28.2693 40.5493 28.2989 40.4853C28.3364 40.4039 28.3767 40.3232 28.4166 40.2441C28.4207 40.236 28.4248 40.2278 28.4289 40.2197C28.4648 40.1484 28.5001 40.0785 28.5337 40.0079C28.6086 39.8505 28.6719 39.6968 28.7081 39.5395C28.7241 39.4701 28.789 39.4279 28.8531 39.4452Z" fill="black"/>
<path fill-rule="evenodd" clip-rule="evenodd" d="M32.5551 40.5274C32.5962 40.4714 32.6714 40.462 32.7231 40.5065C32.911 40.6684 33.0221 40.8434 33.1158 41.0141C33.139 41.0562 33.1607 41.0972 33.1819 41.1373C33.2483 41.2628 33.3104 41.38 33.399 41.4987C33.4192 41.5258 33.4342 41.5597 33.445 41.587C33.4568 41.6171 33.4682 41.6514 33.4789 41.6863C33.5002 41.7562 33.521 41.8368 33.5387 41.9055L33.5401 41.9111C33.549 41.9456 33.5567 41.9758 33.5634 42.0006C33.5888 42.0244 33.6049 42.0596 33.6049 42.0988C33.6049 42.111 33.6046 42.1277 33.602 42.144C33.6009 42.1508 33.5979 42.1686 33.5885 42.1879C33.5804 42.2045 33.5472 42.2609 33.4775 42.2588C33.4235 42.2572 33.3931 42.219 33.3879 42.2124L33.3877 42.2121C33.3782 42.2002 33.3723 42.1886 33.3695 42.1829C33.3634 42.1704 33.3587 42.1571 33.3555 42.1474C33.3434 42.1114 33.3279 42.0509 33.3122 41.9899C33.3109 41.9849 33.3097 41.98 33.3084 41.9751C33.2905 41.9055 33.2712 41.8308 33.2519 41.7678C33.2423 41.7362 33.2333 41.7096 33.2252 41.6891C33.2187 41.6724 33.2145 41.6645 33.2133 41.6622C33.2128 41.6613 33.2128 41.6613 33.2132 41.6619C33.1114 41.5255 33.0367 41.3842 32.9686 41.2553C32.9488 41.218 32.9296 41.1816 32.9105 41.1468C32.8235 40.9884 32.73 40.8436 32.5744 40.7096C32.5227 40.6651 32.5141 40.5835 32.5551 40.5274Z" fill="black"/>
<path fill-rule="evenodd" clip-rule="evenodd" d="M14.8999 37.7561C14.9659 37.7561 15.0194 37.8141 15.0194 37.8857C15.0194 37.9088 15.0195 37.9324 15.0197 37.9566C15.021 38.2277 15.0226 38.5667 14.8698 38.8451C14.8423 38.8953 14.8153 38.9527 14.7854 39.0161C14.7705 39.0477 14.755 39.0808 14.7383 39.1152C14.6924 39.2099 14.6384 39.3136 14.5756 39.3921C14.5737 39.3956 14.571 39.4011 14.5673 39.4089C14.5594 39.4258 14.5493 39.4489 14.5374 39.4769C14.5206 39.5167 14.5016 39.563 14.482 39.6109C14.4739 39.6306 14.4657 39.6506 14.4575 39.6705C14.4301 39.737 14.4024 39.8033 14.3811 39.8483C14.372 39.8675 14.3589 39.8944 14.3446 39.9138C14.3407 39.919 14.3325 39.9297 14.3203 39.9398C14.3135 39.9455 14.2757 39.9769 14.2216 39.9652C14.1567 39.9513 14.1346 39.8932 14.1294 39.8757C14.1233 39.8552 14.123 39.8374 14.123 39.8302C14.123 39.7885 14.1413 39.7513 14.1696 39.7276C14.1873 39.6897 14.212 39.6309 14.2392 39.5648C14.247 39.546 14.2549 39.5267 14.2628 39.5073C14.2827 39.4587 14.3027 39.41 14.3202 39.3687C14.3325 39.3397 14.3442 39.3129 14.3543 39.2913C14.3593 39.2805 14.3645 39.2699 14.3697 39.2604C14.3736 39.253 14.3815 39.2387 14.3923 39.2256C14.4358 39.1725 14.4797 39.0915 14.5267 38.9946C14.54 38.967 14.5538 38.9377 14.5678 38.908C14.5998 38.8402 14.6329 38.77 14.6644 38.7125C14.7815 38.4991 14.781 38.2321 14.7805 37.9448C14.7804 37.9252 14.7804 37.9055 14.7804 37.8857C14.7804 37.8141 14.8339 37.7561 14.8999 37.7561ZM14.3621 39.8283C14.3621 39.829 14.3621 39.8296 14.3621 39.8302L14.3621 39.8301C14.3621 39.8297 14.3621 39.8291 14.3621 39.8283ZM14.5775 39.3887C14.5775 39.3887 14.5773 39.389 14.577 39.3894Z" fill="black"/>
<path fill-rule="evenodd" clip-rule="evenodd" d="M20.9002 36.9648C20.9401 36.9078 21.015 36.8966 21.0677 36.9398C21.0743 36.9453 21.081 36.9507 21.0875 36.9561C21.251 37.0901 21.3901 37.2041 21.4674 37.4558C21.4883 37.5238 21.4545 37.5972 21.3918 37.6198C21.3292 37.6425 21.2615 37.6058 21.2407 37.5378C21.187 37.3631 21.1019 37.2932 20.9272 37.1496C20.9259 37.1486 20.9246 37.1475 20.9233 37.1465C20.8707 37.1032 20.8604 37.0219 20.9002 36.9648Z" fill="black"/>
<path fill-rule="evenodd" clip-rule="evenodd" d="M20.3954 37.2565C20.4518 37.2192 20.5253 37.2386 20.5597 37.2997C20.5894 37.3526 20.6235 37.4033 20.6612 37.4593C20.6796 37.4866 20.6988 37.5152 20.7188 37.5459C20.7758 37.6335 20.8359 37.7344 20.8698 37.8447C20.8907 37.9127 20.8568 37.9861 20.7942 38.0087C20.7316 38.0314 20.6639 37.9946 20.643 37.9267C20.6209 37.8547 20.5785 37.7798 20.5235 37.6954C20.5086 37.6724 20.4922 37.648 20.4752 37.6228C20.4345 37.5622 20.3906 37.4969 20.3556 37.4347C20.3212 37.3736 20.339 37.2938 20.3954 37.2565Z" fill="black"/>
<path fill-rule="evenodd" clip-rule="evenodd" d="M19.755 37.7009C19.8161 37.6738 19.8859 37.7056 19.9109 37.7718C19.9238 37.8061 19.9385 37.8535 19.9534 37.9017C19.9582 37.9174 19.9631 37.9332 19.9679 37.9487C19.989 38.0157 20.012 38.0846 20.038 38.1452C20.0649 38.208 20.0902 38.2497 20.1113 38.2712C20.1166 38.2766 20.1204 38.2794 20.1225 38.2808C20.1847 38.2592 20.2515 38.2959 20.2722 38.3633C20.2931 38.4312 20.2593 38.5046 20.1966 38.5273C20.0939 38.5644 20.0066 38.5204 19.9475 38.4601C19.8927 38.4041 19.852 38.3261 19.8213 38.2546C19.7896 38.1808 19.7632 38.1009 19.7417 38.0323C19.7353 38.012 19.7295 37.9931 19.7241 37.9757C19.7102 37.9309 19.6994 37.8958 19.6897 37.87C19.6647 37.8037 19.6939 37.728 19.755 37.7009Z" fill="black"/>
<path fill-rule="evenodd" clip-rule="evenodd" d="M15.7641 30.4139C15.8062 30.3588 15.8816 30.3512 15.9324 30.3969C15.9531 30.4155 15.9766 30.4359 16.0015 30.4576C16.0547 30.5039 16.1145 30.5559 16.168 30.6084C16.2481 30.687 16.3301 30.7813 16.3813 30.8924C16.4108 30.9564 16.3869 31.0343 16.3279 31.0663C16.2688 31.0983 16.197 31.0724 16.1675 31.0083C16.1362 30.9405 16.0803 30.872 16.0076 30.8006C15.9591 30.753 15.9099 30.7103 15.8601 30.667C15.8335 30.6439 15.8068 30.6207 15.7798 30.5964C15.729 30.5507 15.722 30.469 15.7641 30.4139Z" fill="black"/>
<path fill-rule="evenodd" clip-rule="evenodd" d="M15.2234 31.1307C15.2636 31.0739 15.3387 31.0632 15.391 31.1068C15.6129 31.2915 15.8073 31.3794 16.0732 31.4755C16.1358 31.4982 16.1696 31.5716 16.1488 31.6395C16.1279 31.7074 16.0602 31.7441 15.9976 31.7215C15.7203 31.6213 15.4976 31.5223 15.2455 31.3125C15.1931 31.2689 15.1833 31.1875 15.2234 31.1307Z" fill="black"/>
<path fill-rule="evenodd" clip-rule="evenodd" d="M14.7324 31.9313C14.761 31.8667 14.8325 31.8396 14.8919 31.8706C14.9117 31.8809 14.9422 31.8988 14.9762 31.9188C14.9951 31.9299 15.0151 31.9417 15.0348 31.9531C15.0943 31.9873 15.1614 32.0243 15.2263 32.0537C15.2934 32.0841 15.3486 32.1021 15.3863 32.1056C15.3923 32.1062 15.3969 32.1064 15.4004 32.1063C15.434 32.0554 15.4977 32.037 15.551 32.0659C15.61 32.0979 15.6339 32.1758 15.6044 32.2398C15.5502 32.3575 15.4381 32.3707 15.3657 32.3639C15.2901 32.3568 15.2071 32.326 15.1341 32.2929C15.059 32.2588 14.9842 32.2175 14.9227 32.182C14.8958 32.1665 14.8726 32.1529 14.853 32.1413C14.8246 32.1246 14.8034 32.1121 14.7884 32.1043C14.7289 32.0732 14.7038 31.9958 14.7324 31.9313ZM15.4094 32.1054C15.4095 32.1055 15.4088 32.1057 15.4072 32.1059C15.4085 32.1054 15.4093 32.1053 15.4094 32.1054Z" fill="black"/>
<path fill-rule="evenodd" clip-rule="evenodd" d="M14.1004 17.799C14.1631 17.8212 14.1974 17.8944 14.1769 17.9624C14.1685 17.9903 14.1594 18.0474 14.1488 18.132C14.145 18.1617 14.1411 18.1947 14.137 18.2292C14.1304 18.2849 14.1234 18.3445 14.1158 18.4008C14.1034 18.4929 14.0883 18.5882 14.0677 18.6661C14.0574 18.7049 14.0446 18.7444 14.0275 18.7789C14.012 18.8104 13.9846 18.8552 13.9374 18.8808C13.8784 18.9128 13.8066 18.8868 13.7771 18.8228C13.7501 18.7643 13.7677 18.6943 13.8159 18.6582C13.8162 18.6577 13.8165 18.6572 13.8168 18.6566C13.8225 18.6449 13.8299 18.6249 13.8379 18.5946C13.8538 18.5345 13.8671 18.4537 13.8793 18.3634C13.8867 18.3082 13.8931 18.2539 13.8994 18.2006C13.9035 18.1656 13.9076 18.1311 13.9119 18.097C13.9218 18.0178 13.9333 17.9362 13.9497 17.882C13.9701 17.8139 14.0376 17.7768 14.1004 17.799ZM13.8129 18.6634C13.8129 18.6633 13.8132 18.663 13.8136 18.6623C13.8132 18.6631 13.813 18.6634 13.8129 18.6634Z" fill="black"/>
<path fill-rule="evenodd" clip-rule="evenodd" d="M13.2238 17.9222C13.2898 17.9205 13.3446 17.9772 13.3461 18.0488C13.3484 18.1525 13.363 18.365 13.3773 18.5264C13.3808 18.5661 13.3842 18.6013 13.3872 18.6304C13.3991 18.6505 13.4059 18.6744 13.4059 18.7C13.4059 18.7145 13.4057 18.7278 13.4051 18.7389C13.4048 18.7442 13.4043 18.7514 13.4032 18.759C13.4026 18.7628 13.4017 18.7687 13.4 18.7756C13.3987 18.7806 13.3949 18.7956 13.3854 18.812C13.3786 18.8239 13.3452 18.8764 13.2784 18.8734C13.2206 18.8708 13.1911 18.827 13.1865 18.8201L13.1864 18.82C13.1729 18.8 13.1675 18.7794 13.1668 18.7766C13.1668 18.7765 13.1667 18.7764 13.1667 18.7763C13.1634 18.7643 13.1613 18.7513 13.1599 18.7424C13.1538 18.7035 13.1465 18.6316 13.1393 18.5511C13.1249 18.3884 13.1096 18.1683 13.1072 18.0549C13.1056 17.9834 13.1578 17.924 13.2238 17.9222Z" fill="black"/>
<path fill-rule="evenodd" clip-rule="evenodd" d="M12.2938 17.7987C12.3567 17.7769 12.4239 17.8145 12.4441 17.8827L12.4448 17.8851C12.5128 18.1155 12.5909 18.3802 12.6188 18.6468C12.6703 18.6722 12.6994 18.7346 12.6852 18.7963C12.6798 18.8199 12.675 18.8424 12.6702 18.8643C12.6677 18.8764 12.6651 18.8882 12.6625 18.9001L12.6624 18.9005C12.6567 18.9265 12.6482 18.965 12.6375 18.9908C12.635 18.9969 12.6273 19.0149 12.6125 19.0322C12.6049 19.0412 12.5888 19.0576 12.5632 19.0674C12.5334 19.0789 12.4994 19.0777 12.4691 19.0615C12.4429 19.0476 12.4281 19.0272 12.4212 19.0161C12.4138 19.0041 12.4095 18.9931 12.4071 18.9863C12.4023 18.9727 12.4 18.96 12.3986 18.9519C12.3936 18.9211 12.3914 18.873 12.39 18.8111C12.3841 18.5354 12.3001 18.2454 12.2164 17.9617C12.1963 17.8935 12.2309 17.8206 12.2938 17.7987Z" fill="black"/>
<path fill-rule="evenodd" clip-rule="evenodd" d="M7.69828 20.9357C8.19142 20.9544 8.73101 21.0719 8.96733 21.1719C9.02882 21.1979 9.05922 21.2731 9.03522 21.3398C9.01122 21.4065 8.94192 21.4395 8.88043 21.4134C8.67621 21.327 8.16489 21.2129 7.68992 21.1948C7.45273 21.1858 7.23539 21.2014 7.07487 21.2505C6.90903 21.3013 6.84356 21.3739 6.82994 21.4477C6.817 21.5179 6.75403 21.5635 6.6893 21.5494C6.62458 21.5354 6.5826 21.4671 6.59554 21.3969C6.63658 21.1743 6.81976 21.0592 7.00992 21.001C7.2054 20.9411 7.45142 20.9264 7.69828 20.9357Z" fill="black"/>
<path fill-rule="evenodd" clip-rule="evenodd" d="M12.5821 26.051C12.6346 26.0944 12.6446 26.1758 12.6045 26.2327C12.6 26.2389 12.5909 26.253 12.5785 26.272C12.5435 26.3257 12.4826 26.419 12.4292 26.4896C12.3912 26.5397 12.3464 26.5936 12.3017 26.63C12.2801 26.6476 12.2488 26.6693 12.2111 26.6785C12.1671 26.6892 12.1107 26.6825 12.0664 26.6345C12.0198 26.5839 12.0198 26.5018 12.0664 26.4512C12.094 26.4213 12.1317 26.409 12.1675 26.4144C12.1875 26.3959 12.2138 26.3655 12.2444 26.3251C12.2932 26.2606 12.3344 26.1971 12.3678 26.1457C12.3856 26.1182 12.4012 26.0941 12.4146 26.0752C12.4547 26.0183 12.5297 26.0075 12.5821 26.051Z" fill="black"/>
<path fill-rule="evenodd" clip-rule="evenodd" d="M11.8906 25.7071C11.9531 25.7301 11.9866 25.8038 11.9653 25.8716C11.9559 25.9014 11.9475 25.9367 11.9372 25.98C11.9344 25.992 11.9313 26.0046 11.9281 26.0179C11.9142 26.0754 11.8971 26.1419 11.8734 26.2044C11.828 26.3239 11.7379 26.478 11.5533 26.478C11.4873 26.478 11.4338 26.42 11.4338 26.3484C11.4338 26.2768 11.4873 26.2187 11.5533 26.2187C11.5843 26.2187 11.616 26.2015 11.6524 26.1057C11.6695 26.0605 11.6833 26.0084 11.6969 25.9521C11.6994 25.9419 11.7019 25.9313 11.7045 25.9206C11.715 25.876 11.7264 25.8281 11.739 25.7881C11.7602 25.7203 11.8281 25.6841 11.8906 25.7071Z" fill="black"/>
<path fill-rule="evenodd" clip-rule="evenodd" d="M11.4586 25.4789C11.5053 25.5295 11.5053 25.6116 11.4586 25.6622L11.4526 25.6688C11.2501 25.8884 11.0456 26.1102 10.769 26.2639C10.7521 26.3132 10.7083 26.3484 10.657 26.3484C10.6373 26.3484 10.6221 26.3489 10.6094 26.3493C10.6064 26.3494 10.6036 26.3495 10.6008 26.3496L10.6004 26.3496C10.5949 26.3498 10.585 26.3501 10.576 26.3495C10.5759 26.3495 10.5758 26.3495 10.5757 26.3495C10.5724 26.3493 10.5587 26.3485 10.5431 26.3431C10.536 26.3407 10.5141 26.3327 10.4939 26.3106C10.4668 26.2812 10.4518 26.236 10.462 26.1889C10.4695 26.154 10.488 26.1329 10.4939 26.1265C10.5017 26.1179 10.509 26.1122 10.5127 26.1095C10.5203 26.1039 10.5273 26.1001 10.5304 26.0984C10.5374 26.0946 10.5458 26.0906 10.5523 26.0875C10.5545 26.0865 10.5568 26.0854 10.5592 26.0842C10.573 26.0777 10.5905 26.0694 10.6131 26.058C10.8768 25.9249 11.0678 25.7194 11.2896 25.4789C11.3362 25.4283 11.4119 25.4283 11.4586 25.4789Z" fill="black"/>
<path fill-rule="evenodd" clip-rule="evenodd" d="M24.8995 11.1182C24.9647 11.13 25.0086 11.1968 24.9978 11.2674C24.9572 11.5318 24.8312 11.6719 24.6901 11.8291C24.6824 11.8376 24.6746 11.8462 24.6669 11.8549C24.6209 11.9063 24.5452 11.9075 24.4979 11.8576C24.4505 11.8078 24.4494 11.7257 24.4953 11.6743C24.499 11.6702 24.5027 11.6661 24.5063 11.6621C24.6564 11.4945 24.7339 11.4079 24.762 11.2248C24.7729 11.1541 24.8344 11.1064 24.8995 11.1182Z" fill="black"/>
<path fill-rule="evenodd" clip-rule="evenodd" d="M24.5542 10.2788C24.6176 10.2985 24.6544 10.3702 24.6363 10.4391C24.5517 10.7601 24.3724 11.0135 24.1981 11.2598L24.1978 11.2602C24.1576 11.317 24.0826 11.3277 24.0303 11.2841C23.9779 11.2405 23.968 11.1591 24.0082 11.1023C24.1867 10.8501 24.3363 10.6342 24.4064 10.3679C24.4246 10.299 24.4907 10.2592 24.5542 10.2788Z" fill="black"/>
<path fill-rule="evenodd" clip-rule="evenodd" d="M17.2231 14.9819C17.161 14.9941 17.098 15.0045 17.0536 15.0054C16.9876 15.0068 16.9331 14.9499 16.9318 14.8784C16.9305 14.8068 16.983 14.7476 17.049 14.7462C17.072 14.7457 17.1177 14.7391 17.1805 14.7268C17.2408 14.7149 17.3097 14.6992 17.3753 14.6834C17.4408 14.6676 17.5021 14.6518 17.547 14.64C17.5695 14.6341 17.5877 14.6293 17.6002 14.6259L17.6143 14.622L17.6153 14.6217C17.626 14.6184 17.6372 14.6165 17.6489 14.6165C17.6671 14.6181 17.7571 14.6911 17.7596 14.795C17.7404 14.8296 17.7055 14.8604 17.6985 14.8642C17.6955 14.8656 17.6908 14.8676 17.6892 14.8682L17.6856 14.8695L17.6811 14.871L17.6783 14.8719L17.6736 14.8732L17.6582 14.8774C17.6451 14.8809 17.6263 14.886 17.6033 14.892C17.5574 14.9041 17.4945 14.9202 17.4273 14.9365C17.3601 14.9527 17.2878 14.9692 17.2231 14.9819Z" fill="black"/>
<path fill-rule="evenodd" clip-rule="evenodd" d="M17.4692 13.828C17.4747 13.8993 17.4258 13.962 17.36 13.9679C17.1792 13.9843 17.0065 14.0017 16.8308 14.0316C16.7656 14.0427 16.7044 13.9944 16.6942 13.9237C16.6839 13.8529 16.7285 13.7866 16.7937 13.7755C16.9786 13.744 17.1585 13.726 17.3402 13.7096C17.4059 13.7036 17.4637 13.7566 17.4692 13.828Z" fill="black"/>
<path fill-rule="evenodd" clip-rule="evenodd" d="M17.7461 12.9208C17.7845 12.979 17.7721 13.06 17.7184 13.1016C17.3629 13.377 17.0443 13.3286 16.6709 13.2532C16.606 13.2401 16.5631 13.1724 16.5752 13.1021C16.5873 13.0317 16.6497 12.9852 16.7146 12.9983C17.0834 13.0727 17.3113 13.0984 17.5794 12.8906C17.6331 12.849 17.7078 12.8625 17.7461 12.9208Z" fill="black"/>
</svg>
