<svg width="50" height="50" viewBox="0 0 50 50" fill="none" xmlns="http://www.w3.org/2000/svg">
<path fill-rule="evenodd" clip-rule="evenodd" d="M24.9978 19.7472C25.1738 19.7472 25.3165 19.8921 25.3165 20.0709C25.3165 21.0308 25.4711 22.0254 25.6311 23.0341C25.6344 23.0549 25.6377 23.0757 25.641 23.0965C25.7962 24.0741 25.9539 25.0677 25.9539 26.0059C25.9539 26.1847 25.8112 26.3296 25.6352 26.3296C25.4592 26.3296 25.3165 26.1847 25.3165 26.0059C25.3165 25.1201 25.1658 24.1706 25.0074 23.1724L25.0018 23.1371C24.8432 22.137 24.6791 21.0913 24.6791 20.0709C24.6791 19.8921 24.8218 19.7472 24.9978 19.7472Z" fill="black"/>
<path fill-rule="evenodd" clip-rule="evenodd" d="M24.0143 24.179C23.1774 24.3611 22.3525 24.4747 21.7628 24.3836C21.5888 24.3567 21.4692 24.1916 21.4957 24.0148C21.5222 23.8381 21.6847 23.7166 21.8587 23.7435C22.3229 23.8152 23.0469 23.7274 23.8807 23.5459C24.7023 23.3671 25.5881 23.1076 26.3558 22.8658C26.7571 22.7395 27.1364 22.6145 27.4527 22.5103C27.7282 22.4195 27.9559 22.3445 28.1087 22.2981C28.1922 22.2727 28.2681 22.2511 28.3249 22.2392C28.3454 22.235 28.396 22.2245 28.4496 22.2272C28.4657 22.228 28.4924 22.2304 28.5239 22.2391C28.5526 22.2471 28.609 22.2669 28.6622 22.318C28.7247 22.3781 28.7626 22.4628 28.763 22.5543C28.7634 22.6326 28.7364 22.6904 28.7208 22.7184C28.6912 22.7719 28.6531 22.8053 28.6419 22.8151C28.6246 22.8303 28.6075 22.8428 28.5941 22.8521C28.5671 22.8708 28.5352 22.8901 28.5023 22.909C28.4353 22.9474 28.3414 22.997 28.2211 23.0582C28.117 23.111 27.9982 23.1006 27.9068 23.0414C27.8287 23.067 27.7446 23.0947 27.6549 23.1243C27.3461 23.2262 26.9705 23.3501 26.5445 23.4843C25.7704 23.728 24.8635 23.9942 24.0143 24.179ZM28.4613 22.872C28.4612 22.872 28.4599 22.8723 28.4575 22.8726C28.4602 22.8721 28.4613 22.8719 28.4613 22.872Z" fill="black"/>
<path fill-rule="evenodd" clip-rule="evenodd" d="M25.7777 16.5441C25.9351 16.6241 25.9989 16.8185 25.9202 16.9784C25.913 16.9931 25.9035 17.013 25.8919 17.0372C25.8286 17.1693 25.7041 17.4292 25.5653 17.6536C25.4846 17.7841 25.3844 17.9275 25.2725 18.0306C25.1839 18.1122 24.9488 18.2914 24.6837 18.1418C24.5681 18.0766 24.4569 18.0209 24.3442 17.9658C24.324 17.9559 24.3036 17.9459 24.283 17.9359C24.1911 17.8912 24.0961 17.8449 24.0032 17.7958C23.7691 17.6721 23.5328 17.5226 23.2886 17.2818C23.1622 17.1572 23.1592 16.9523 23.2818 16.824C23.4044 16.6957 23.6062 16.6926 23.7325 16.8172C23.9191 17.0012 24.0991 17.1166 24.2974 17.2214C24.3802 17.2652 24.4637 17.3059 24.5549 17.3503C24.5764 17.3608 24.5983 17.3715 24.6208 17.3825C24.7028 17.4225 24.7894 17.4656 24.8801 17.5138C24.9207 17.4674 24.9704 17.3985 25.0256 17.3092C25.1434 17.1187 25.2482 16.9006 25.314 16.7636C25.3278 16.7348 25.34 16.7095 25.3501 16.6889C25.4288 16.529 25.6203 16.4641 25.7777 16.5441ZM24.8196 17.571C24.8197 17.5707 24.8222 17.5687 24.8269 17.566C24.8218 17.57 24.8195 17.5713 24.8196 17.571Z" fill="black"/>
<path fill-rule="evenodd" clip-rule="evenodd" d="M31.7311 21.1691C31.8381 21.3112 31.8114 21.5143 31.6716 21.6229C31.5773 21.6962 31.4716 21.7705 31.3742 21.8389C31.33 21.87 31.2875 21.8998 31.2486 21.9278C31.114 22.0247 31.0061 22.11 30.9273 22.1949C30.8497 22.2786 30.8177 22.3436 30.8079 22.3967C30.7992 22.4442 30.8009 22.5204 30.867 22.6444C30.884 22.6763 30.9295 22.7556 30.9905 22.8619C31.0614 22.9856 31.1533 23.1459 31.2456 23.3103C31.3283 23.4578 31.4097 23.6057 31.4686 23.7207C31.4975 23.7771 31.5243 23.8319 31.5433 23.8772C31.552 23.8981 31.564 23.9282 31.5726 23.9604C31.5764 23.975 31.584 24.0058 31.5855 24.044C31.5855 24.0443 31.5855 24.0447 31.5855 24.0451C31.5864 24.0656 31.5916 24.1901 31.4909 24.2924C31.3664 24.4188 31.1646 24.4188 31.0402 24.2924C30.9917 24.2432 30.9621 24.1821 30.9514 24.1184C30.9414 24.096 30.9254 24.0631 30.9031 24.0196C30.8502 23.9162 30.7739 23.7771 30.6918 23.631C30.611 23.4868 30.5223 23.3319 30.4496 23.2051C30.3805 23.0843 30.3259 22.989 30.3066 22.9528C30.1862 22.727 30.1403 22.5002 30.1815 22.2773C30.2216 22.0599 30.3371 21.8871 30.4633 21.751C30.5882 21.6163 30.7402 21.5002 30.8802 21.3994C30.932 21.3621 30.9812 21.3276 31.0286 21.2943C31.1185 21.2312 31.2019 21.1727 31.2844 21.1086C31.4242 21 31.6242 21.0271 31.7311 21.1691ZM31.0402 23.8346C31.0288 23.8461 31.0186 23.8582 31.0093 23.8709C31.0182 23.8587 31.0285 23.8465 31.0402 23.8346Z" fill="black"/>
<path fill-rule="evenodd" clip-rule="evenodd" d="M26.4448 29.4912C26.3636 29.5833 26.2869 29.6874 26.2604 29.725C26.1465 29.887 26.0495 30.0429 25.9484 30.2054C25.8993 30.2844 25.8491 30.365 25.7956 30.4486C25.6372 30.6961 25.4604 30.9505 25.2264 31.1952C25.1037 31.3235 24.902 31.3264 24.7757 31.2018C24.6495 31.0773 24.6465 30.8723 24.7692 30.7441C24.9611 30.5434 25.1117 30.3292 25.2613 30.0956C25.3055 30.0265 25.3509 29.9536 25.3977 29.8784C25.5038 29.7079 25.6174 29.5256 25.7418 29.3487C25.7766 29.2991 25.8691 29.1734 25.972 29.057C26.0228 28.9995 26.0834 28.936 26.1459 28.8842C26.1771 28.8584 26.2159 28.8295 26.26 28.8057C26.2995 28.7843 26.3713 28.7515 26.4614 28.7515C26.5609 28.7515 26.6342 28.7964 26.6559 28.8098C26.689 28.8301 26.7178 28.8536 26.7399 28.873C26.785 28.9126 26.833 28.9626 26.8788 29.0133C26.972 29.1165 27.0823 29.2516 27.1887 29.3853C27.2592 29.4739 27.331 29.5658 27.3969 29.6501C27.4304 29.6929 27.4624 29.7338 27.4918 29.7713C27.5867 29.892 27.6455 29.9641 27.6665 29.9854C27.7909 30.1118 27.7909 30.3168 27.6665 30.4432C27.542 30.5696 27.3402 30.5696 27.2158 30.4432C27.1632 30.3898 27.0777 30.2822 26.9937 30.1753C26.9621 30.1351 26.9291 30.0929 26.895 30.0493C26.8303 29.9665 26.7619 29.8789 26.6929 29.7922C26.6029 29.6791 26.517 29.5738 26.4448 29.4912Z" fill="black"/>
<path fill-rule="evenodd" clip-rule="evenodd" d="M17.7348 22.5699C17.8429 22.4288 18.0431 22.4033 18.1821 22.5131C18.2747 22.5863 18.7056 22.9364 19.1007 23.2853C19.2974 23.459 19.4917 23.6381 19.6318 23.7849C19.7 23.8564 19.7662 23.9314 19.8131 24.0005C19.835 24.0327 19.8663 24.0831 19.8856 24.1437C19.9006 24.1909 19.942 24.3553 19.8162 24.4965C19.4318 24.9281 19.069 25.3613 18.7057 25.8146C18.6529 25.8805 18.5856 25.9513 18.503 25.9947C18.4644 26.015 18.3825 26.0507 18.2791 26.0346C18.1466 26.014 18.0481 25.9194 18.0106 25.8036C17.9807 25.7112 17.996 25.6299 18.0084 25.5865C18.0225 25.5368 18.0449 25.4939 18.0685 25.4591C18.1163 25.3885 18.1849 25.3273 18.2688 25.2847C18.2879 25.275 18.3074 25.2674 18.3272 25.2619C18.6073 24.9157 18.8892 24.5792 19.1826 24.2444C19.1798 24.2415 19.177 24.2385 19.1741 24.2355C19.0537 24.1092 18.876 23.9448 18.6825 23.774C18.2975 23.434 17.8758 23.0914 17.7907 23.0242C17.6518 22.9144 17.6268 22.711 17.7348 22.5699ZM19.2923 24.3742C19.2923 24.3742 19.2919 24.3735 19.2912 24.3723C19.292 24.3736 19.2923 24.3742 19.2923 24.3742Z" fill="black"/>
<path fill-rule="evenodd" clip-rule="evenodd" d="M22.3656 15.5838C22.471 15.6935 22.5544 15.8445 22.5544 16.0243C22.5544 16.1478 22.5486 16.3122 22.4566 16.4384C22.35 16.5847 22.1819 16.6178 22.0233 16.6178C21.8665 16.6178 21.7269 16.5898 21.6103 16.5211C21.49 16.4502 21.4133 16.3473 21.3662 16.2337C21.3287 16.1434 21.3096 16.046 21.2988 15.9514C21.2004 15.9067 21.1495 15.7925 21.1843 15.6863C21.2073 15.6162 21.2408 15.5562 21.282 15.506C21.2973 15.4045 21.3824 15.3255 21.487 15.323C21.5103 15.3224 21.5328 15.3257 21.5539 15.3322C21.697 15.2926 21.8497 15.3075 21.983 15.3497C22.1232 15.3941 22.2604 15.4743 22.3656 15.5838ZM21.7098 15.7414C21.7505 15.7386 21.8008 15.7441 21.8566 15.7618C21.9368 15.7872 22.0107 15.8323 22.0615 15.8852C22.112 15.9379 22.1295 15.9863 22.1295 16.0243C22.1295 16.0848 22.1268 16.1256 22.1217 16.1543C22.1199 16.1648 22.118 16.1719 22.1166 16.1765C22.1047 16.1804 22.0776 16.1862 22.0233 16.1862C21.9135 16.1862 21.8548 16.1662 21.8235 16.1477C21.796 16.1315 21.7753 16.1084 21.7577 16.066C21.7381 16.0187 21.7245 15.9519 21.7165 15.8572C21.7135 15.8203 21.7114 15.7819 21.7098 15.7414ZM22.1244 16.1729C22.1245 16.173 22.1237 16.1736 22.1217 16.1745C22.1233 16.1733 22.1243 16.1728 22.1244 16.1729Z" fill="black"/>
<path fill-rule="evenodd" clip-rule="evenodd" d="M26.3256 14.8981C26.2203 14.8704 26.1098 14.9285 26.0725 15.0345L26.0724 15.0347C26.0163 15.1942 25.9272 15.4478 25.9388 15.6701C25.9451 15.789 25.9809 15.9238 26.0873 16.0294C26.1933 16.1345 26.3385 16.1799 26.5008 16.186C26.6301 16.1909 26.7478 16.1798 26.8606 16.124C26.9688 16.0705 27.0506 15.9862 27.1278 15.8979C27.2461 15.7627 27.3056 15.6023 27.265 15.4349C27.228 15.2821 27.1191 15.1748 27.0206 15.1053C26.9184 15.033 26.7988 14.9808 26.6902 14.9465C26.583 14.9127 26.4705 14.8913 26.3788 14.8913C26.3604 14.8913 26.3426 14.8937 26.3256 14.8981ZM26.4234 15.3263C26.3848 15.4493 26.3586 15.5608 26.3632 15.6471C26.3659 15.6992 26.3789 15.7153 26.3842 15.7205C26.3898 15.7261 26.4189 15.751 26.5165 15.7547C26.6141 15.7584 26.6516 15.7473 26.6747 15.7359C26.7024 15.7222 26.7374 15.6943 26.8102 15.6112C26.8387 15.5786 26.8481 15.5572 26.851 15.5477C26.8533 15.5406 26.8526 15.5385 26.8524 15.5381C26.8524 15.538 26.8524 15.538 26.8524 15.538C26.851 15.5322 26.8385 15.5024 26.7779 15.4596C26.7211 15.4194 26.6442 15.384 26.5641 15.3587C26.5092 15.3414 26.4603 15.3312 26.4234 15.3263Z" fill="black"/>
<path fill-rule="evenodd" clip-rule="evenodd" d="M33.3807 20.9587C33.3914 21.062 33.3929 21.1636 33.39 21.2419C33.3816 21.4742 33.2882 21.6619 33.1246 21.7657C32.9664 21.8661 32.7764 21.8651 32.6221 21.7926C32.4648 21.7187 32.3387 21.5689 32.3019 21.3667C32.2654 21.1662 32.3206 20.9407 32.4682 20.709C32.4912 20.6729 32.5231 20.646 32.5591 20.6296C32.5693 20.6064 32.5838 20.5848 32.6025 20.5658C32.7082 20.4585 32.8481 20.3588 33.0115 20.3822C33.1847 20.4069 33.2699 20.5506 33.308 20.6416C33.3499 20.7417 33.3703 20.8583 33.3807 20.9587ZM32.8402 20.9151C32.8359 20.9248 32.8308 20.9343 32.8249 20.9435C32.7176 21.112 32.7085 21.2263 32.7198 21.2883C32.7308 21.3486 32.7645 21.384 32.8004 21.4008C32.8394 21.4191 32.8761 21.4144 32.8996 21.3996C32.9177 21.3881 32.9609 21.3491 32.9654 21.2259C32.9676 21.165 32.9664 21.084 32.9581 21.0038C32.9515 20.9408 32.9415 20.8867 32.9293 20.8457C32.9215 20.8528 32.9127 20.8611 32.903 20.871C32.8843 20.89 32.863 20.9047 32.8402 20.9151ZM32.9038 20.7854C32.9039 20.7853 32.9046 20.7861 32.9059 20.7882C32.9045 20.7866 32.9038 20.7856 32.9038 20.7854Z" fill="black"/>
<path fill-rule="evenodd" clip-rule="evenodd" d="M32.296 24.9209C32.292 24.9144 32.2876 24.908 32.2828 24.9018C32.2106 24.8079 32.077 24.7912 31.9846 24.8646C31.8713 24.9545 31.6772 25.1169 31.577 25.3086C31.5245 25.4091 31.4851 25.5417 31.5222 25.6857C31.5598 25.8318 31.664 25.9428 31.8018 26.0244C32.0867 26.1932 32.4629 26.2726 32.805 26.0887C33.006 25.9806 33.1377 25.8206 33.1742 25.6294C33.21 25.4414 33.1459 25.2625 33.0344 25.1324C32.8661 24.9363 32.5864 24.8396 32.296 24.9209ZM32.0037 25.4341C31.983 25.4601 31.9655 25.4859 31.9524 25.511C31.9285 25.5566 31.9328 25.5746 31.9333 25.5765C31.9337 25.5781 31.9356 25.5848 31.9458 25.5969C31.9568 25.6098 31.9777 25.629 32.0159 25.6516C32.2219 25.7736 32.4365 25.7985 32.6062 25.7072C32.7222 25.6448 32.7505 25.5812 32.757 25.5473C32.7641 25.5103 32.754 25.4626 32.714 25.416C32.6389 25.3284 32.459 25.2585 32.2429 25.4231C32.1709 25.478 32.0758 25.4794 32.0037 25.4341Z" fill="black"/>
<path fill-rule="evenodd" clip-rule="evenodd" d="M29.0721 31.3824C29.2463 31.6004 29.2764 31.9195 29.2397 32.2358C29.2138 32.4595 29.0888 32.6215 28.9237 32.7037C28.7663 32.782 28.5795 32.7847 28.423 32.7156C28.2598 32.6435 28.1273 32.4914 28.1032 32.2746C28.0808 32.0725 28.1562 31.8488 28.3195 31.6151C28.2165 31.6295 28.1161 31.5651 28.0867 31.4605C28.0545 31.3459 28.1198 31.2265 28.2326 31.1937C28.5735 31.0948 28.8789 31.1406 29.0721 31.3824ZM28.6786 31.6027C28.7074 31.6173 28.7275 31.636 28.7421 31.6543C28.8064 31.7349 28.8501 31.9061 28.8177 32.1854C28.8088 32.262 28.7734 32.2978 28.7366 32.3161C28.6922 32.3382 28.6358 32.3389 28.5923 32.3197C28.5554 32.3034 28.5309 32.2756 28.5255 32.2263C28.5189 32.1673 28.5372 32.0448 28.6753 31.8519C28.7297 31.7759 28.7282 31.6759 28.6786 31.6027Z" fill="black"/>
<path fill-rule="evenodd" clip-rule="evenodd" d="M24.645 32.5099C24.7976 32.7892 24.7552 33.1486 24.5295 33.4502C24.4383 33.5721 24.2818 33.6425 24.1486 33.6689C24.0185 33.6946 23.8231 33.6946 23.6833 33.5605C23.5101 33.3943 23.3961 33.2156 23.4134 32.9946C23.4279 32.8084 23.5376 32.6365 23.6448 32.4797C23.6337 32.46 23.6255 32.4382 23.6209 32.4148C23.5979 32.2979 23.6725 32.1842 23.7875 32.1608C24.1628 32.0846 24.4888 32.2239 24.645 32.5099ZM24.0412 32.5744C24.1626 32.5886 24.2366 32.652 24.2734 32.7193C24.3286 32.8204 24.3359 32.9957 24.1912 33.1891C24.1912 33.189 24.1912 33.1891 24.1912 33.1891C24.1904 33.19 24.1807 33.2006 24.1557 33.2141C24.1309 33.2274 24.0998 33.2388 24.0673 33.2452C24.0344 33.2517 24.0071 33.2518 23.9885 33.2487C23.9796 33.2472 23.9748 33.2454 23.9729 33.2446C23.8375 33.1141 23.8349 33.0557 23.837 33.0287C23.8413 32.9727 23.8805 32.891 24.0035 32.7117C24.0322 32.6699 24.0443 32.6215 24.0412 32.5744Z" fill="black"/>
<path fill-rule="evenodd" clip-rule="evenodd" d="M16.8034 26.6148C16.9922 26.8131 17.0585 27.1273 17.0228 27.4174C16.9986 27.6138 16.8573 27.761 16.7332 27.8489C16.6058 27.9392 16.4393 28.0082 16.2867 28.0082C16.1196 28.0082 15.9817 27.9467 15.8798 27.8394C15.7843 27.7386 15.7331 27.6111 15.7036 27.4956C15.6545 27.3031 15.6519 27.0805 15.6503 26.9387C15.65 26.9147 15.6498 26.8931 15.6494 26.8743C15.6466 26.7551 15.7394 26.6562 15.8567 26.6534C15.8677 26.6531 15.8786 26.6537 15.8892 26.6551C15.9051 26.6265 15.9276 26.6011 15.9564 26.5816C16.1062 26.4802 16.2618 26.4262 16.4158 26.4335C16.5729 26.441 16.7049 26.5113 16.8034 26.6148ZM16.0761 26.977C16.116 26.9767 16.1563 26.965 16.1921 26.9408C16.2886 26.8754 16.3559 26.8628 16.3959 26.8647C16.4329 26.8664 16.466 26.8813 16.498 26.9149C16.5702 26.9907 16.6265 27.1581 16.6011 27.3639C16.5989 27.382 16.5739 27.4355 16.4902 27.4949C16.4097 27.5519 16.3268 27.5765 16.2867 27.5765C16.2304 27.5765 16.2044 27.5594 16.1858 27.5398C16.1609 27.5136 16.135 27.4657 16.115 27.3872C16.0826 27.2604 16.0782 27.1137 16.0761 26.977Z" fill="black"/>
<path fill-rule="evenodd" clip-rule="evenodd" d="M16.3858 21.1115C16.5927 21.2735 16.6778 21.57 16.5972 21.8567C16.5431 22.049 16.4626 22.2109 16.3602 22.3279C16.2597 22.4428 16.1185 22.5341 15.9521 22.5246C15.779 22.5148 15.6497 22.4005 15.5701 22.2568C15.4915 22.115 15.4479 21.9257 15.4371 21.7C15.4324 21.6023 15.4924 21.5166 15.5789 21.4858C15.5235 21.4019 15.5323 21.2873 15.6053 21.2132C15.7225 21.0941 15.8576 21.0196 16.0012 21.0025C16.1461 20.9852 16.2804 21.029 16.3858 21.1115ZM15.8259 21.5695C15.8551 21.5591 15.8824 21.5421 15.9058 21.5184C15.971 21.4521 16.0218 21.4346 16.0507 21.4311C16.0783 21.4279 16.103 21.435 16.1264 21.4533C16.177 21.493 16.2281 21.5976 16.1886 21.7381C16.1468 21.887 16.0914 21.9854 16.0425 22.0412C16.0082 22.0804 15.9855 22.0903 15.9774 22.0928C15.9708 22.0884 15.9576 22.0762 15.9404 22.0451C15.9058 21.9826 15.8705 21.8665 15.8615 21.679C15.8595 21.6384 15.8467 21.601 15.8259 21.5695ZM15.9819 22.095C15.9819 22.0951 15.9811 22.095 15.9795 22.0941C15.9812 22.0945 15.982 22.0949 15.9819 22.095Z" fill="black"/>
<path fill-rule="evenodd" clip-rule="evenodd" d="M22.7047 20.6737C22.7876 20.7579 22.7876 20.8946 22.7047 20.9789C22.4344 21.2534 22.2681 21.5132 22.1123 21.8825C22.0661 21.992 21.9412 22.0428 21.8333 21.9958C21.7255 21.9489 21.6755 21.822 21.7217 21.7124C21.8965 21.2983 22.0917 20.9911 22.4042 20.6737C22.4872 20.5894 22.6217 20.5894 22.7047 20.6737Z" fill="black"/>
<path fill-rule="evenodd" clip-rule="evenodd" d="M22.4561 26.7029C22.4878 26.5881 22.6051 26.5212 22.7181 26.5534C22.9969 26.633 23.274 26.7026 23.5566 26.7664C23.6712 26.7922 23.7434 26.9075 23.7179 27.0239C23.6925 27.1402 23.579 27.2136 23.4644 27.1877C23.1753 27.1224 22.8906 27.0509 22.6032 26.969C22.4903 26.9368 22.4244 26.8177 22.4561 26.7029Z" fill="black"/>
<path fill-rule="evenodd" clip-rule="evenodd" d="M28.5706 24.722C28.682 24.7597 28.7421 24.882 28.705 24.995L28.4926 25.6425C28.4555 25.7555 28.3351 25.8167 28.2238 25.779C28.1125 25.7413 28.0523 25.6191 28.0894 25.506L28.3019 24.8585C28.339 24.7455 28.4593 24.6843 28.5706 24.722Z" fill="black"/>
<path fill-rule="evenodd" clip-rule="evenodd" d="M27.7158 19.4867C27.7988 19.4024 27.9333 19.4024 28.0163 19.4867L28.5475 20.0262C28.6304 20.1105 28.6304 20.2471 28.5475 20.3314C28.4645 20.4157 28.33 20.4157 28.247 20.3314L27.7158 19.7919C27.6329 19.7076 27.6329 19.571 27.7158 19.4867Z" fill="black"/>
<path fill-rule="evenodd" clip-rule="evenodd" d="M28.4284 6.42601C26.5108 4.8406 24.3059 5.08021 21.9459 5.84087C20.893 6.18023 19.5948 6.80801 18.5068 7.65396C17.4148 8.50303 16.5635 9.54884 16.348 10.7167C16.0144 12.524 16.4778 14.4519 17.5702 15.8863C17.6162 15.9467 17.6624 16.0074 17.7087 16.0683C18.5834 17.2182 19.5193 18.4484 20.5686 19.368C20.6574 19.4458 20.6673 19.5821 20.5906 19.6723C20.514 19.7626 20.3798 19.7726 20.291 19.6948C19.208 18.7457 18.2479 17.4833 17.3804 16.3427C17.3313 16.2782 17.2826 16.2141 17.2341 16.1504C16.0675 14.6186 15.5743 12.5657 15.9303 10.6371C16.1739 9.31726 17.1207 8.18812 18.2485 7.31121C19.3803 6.43118 20.7238 5.78193 21.8174 5.42945C24.2102 4.65822 26.6041 4.36115 28.6966 6.09125C29.9356 7.11562 30.536 8.46896 30.8081 9.90909C31.0793 11.3441 31.027 12.8788 30.9524 14.2795C30.9104 15.0687 30.8614 15.9787 30.593 16.7719C30.5289 16.9612 30.4367 17.1389 30.3535 17.2992C30.3365 17.3319 30.32 17.3638 30.3041 17.395C30.2063 17.5868 30.1276 17.7612 30.0935 17.9513C30.0777 18.0398 30.0338 18.1111 29.9898 18.1607C29.9491 18.2066 29.888 18.2564 29.814 18.2773C29.78 18.2869 29.7019 18.3019 29.6225 18.2548C29.5276 18.1984 29.5061 18.1015 29.5067 18.0423C29.5072 17.9877 29.524 17.9399 29.5385 17.9065C29.5543 17.8699 29.5759 17.832 29.6015 17.793C29.6294 17.7504 29.6697 17.7212 29.7143 17.7069C29.768 17.5186 29.8485 17.35 29.9267 17.1965C29.9456 17.1595 29.9642 17.1236 29.9823 17.0885C30.0649 16.9291 30.1387 16.7865 30.1911 16.6316C30.4369 15.9053 30.4855 15.0575 30.5281 14.2562C30.6027 12.854 30.651 11.3676 30.3908 9.99045C30.1315 8.61845 29.5685 7.36864 28.4284 6.42601ZM29.6704 17.8753C29.6704 17.8752 29.671 17.8745 29.6725 17.8735C29.6712 17.8748 29.6704 17.8753 29.6704 17.8753Z" fill="black"/>
<path fill-rule="evenodd" clip-rule="evenodd" d="M29.1492 1.93387C26.6987 -0.0913566 23.8825 0.219453 20.8908 1.18331C19.5526 1.61445 17.9033 2.41161 16.5202 3.48651C15.1332 4.56453 14.043 5.89882 13.7664 7.39657C13.3412 9.69938 13.9317 12.1553 15.3243 13.9831C15.3829 14.0601 15.4417 14.1373 15.5008 14.2149C16.607 15.6685 17.7948 17.2293 19.1275 18.3967C19.2164 18.4746 19.2263 18.6109 19.1497 18.7011C19.073 18.7914 18.9389 18.8015 18.85 18.7236C17.4836 17.5267 16.2715 15.9337 15.1725 14.4894C15.1108 14.4082 15.0494 14.3275 14.9883 14.2473C13.5215 12.3221 12.9011 9.7411 13.3488 7.317C13.6534 5.66716 14.8392 4.24954 16.262 3.14371C17.6889 2.03475 19.3834 1.21612 20.7623 0.771879C23.7868 -0.202533 26.7919 -0.570772 29.4174 1.59905C30.9726 2.88432 31.7276 4.58294 32.0704 6.39609C32.4122 8.20406 32.3465 10.1395 32.2522 11.912C32.1989 12.9122 32.137 14.0553 31.8001 15.0501C31.7206 15.285 31.6063 15.5052 31.501 15.708C31.4794 15.7497 31.4582 15.7906 31.4377 15.8308C31.3136 16.0742 31.2105 16.3013 31.1658 16.5508C31.1481 16.6498 31.0986 16.7307 31.0481 16.7876C31.0008 16.8408 30.9322 16.8958 30.8523 16.9183C30.8154 16.9288 30.7348 16.9437 30.6536 16.8955C30.5569 16.8382 30.5344 16.7391 30.535 16.6766C30.5356 16.6188 30.5534 16.5665 30.5704 16.5274C30.5888 16.485 30.6143 16.44 30.6455 16.3924C30.6793 16.3409 30.7311 16.309 30.7868 16.2994C30.8528 16.0543 30.9572 15.8347 31.0604 15.6322C31.0839 15.5862 31.1071 15.5414 31.1299 15.4973C31.2346 15.2953 31.3304 15.1103 31.3983 14.9098C31.7125 13.9819 31.7739 12.901 31.8278 11.8887C31.9223 10.1147 31.984 8.22764 31.6531 6.47749C31.3232 4.73251 30.6055 3.13741 29.1492 1.93387ZM30.9563 16.7092C30.9563 16.7092 30.9564 16.7088 30.9567 16.7079C30.9564 16.7087 30.9563 16.7092 30.9563 16.7092Z" fill="black"/>
<path fill-rule="evenodd" clip-rule="evenodd" d="M40.9824 28.7337C42.8892 27.1348 43.0905 24.8917 42.8193 22.3918C42.6983 21.2765 42.347 19.8603 41.7439 18.6106C41.1385 17.3563 40.296 16.3032 39.211 15.8594C37.5318 15.1725 35.5798 15.2557 33.9807 16.0623C33.9134 16.0963 33.8457 16.1304 33.7778 16.1646C32.4962 16.8102 31.125 17.5009 30.0314 18.3656C29.9388 18.4388 29.8053 18.4219 29.7332 18.3279C29.6612 18.2338 29.6778 18.0982 29.7704 18.025C30.8991 17.1326 32.3061 16.424 33.5773 15.7838C33.6493 15.7476 33.7207 15.7116 33.7917 15.6758C35.4993 14.8144 37.5779 14.726 39.3697 15.459C40.596 15.9606 41.5002 17.1252 42.1254 18.4206C42.7529 19.7206 43.116 21.1861 43.2417 22.3445C43.5166 24.8791 43.3337 27.3218 41.253 29.0665C40.021 30.0996 38.5967 30.432 37.1531 30.4205C35.7147 30.409 34.2435 30.0558 32.9059 29.7067C32.1523 29.51 31.2835 29.2826 30.5704 28.8596C30.4003 28.7586 30.2468 28.6319 30.1084 28.5176C30.0802 28.4943 30.0526 28.4715 30.0257 28.4496C29.8597 28.3146 29.7067 28.2019 29.5299 28.1307C29.4476 28.0976 29.3874 28.0398 29.3482 27.9863C29.3119 27.9367 29.2757 27.8662 29.2701 27.7883C29.2675 27.7526 29.2684 27.6718 29.3294 27.602C29.4024 27.5185 29.5002 27.5162 29.5573 27.5284C29.6098 27.5396 29.6527 27.5657 29.6821 27.5866C29.7143 27.6096 29.7467 27.6386 29.7793 27.6717C29.8149 27.7079 29.8352 27.7538 29.8403 27.801C30.0115 27.8914 30.1585 28.0046 30.2913 28.1127C30.3233 28.1387 30.3543 28.1643 30.3846 28.1893C30.5223 28.3028 30.6455 28.4043 30.7847 28.4869C31.4377 28.8742 32.2465 29.0889 33.0117 29.2886C34.3506 29.6381 35.776 29.9779 37.1565 29.9889C38.5318 29.9999 39.8488 29.6843 40.9824 28.7337ZM29.6864 27.7242C29.6864 27.7242 29.6869 27.725 29.6877 27.7266C29.6866 27.725 29.6863 27.7242 29.6864 27.7242Z" fill="black"/>
<path fill-rule="evenodd" clip-rule="evenodd" d="M45.0152 30.2559C47.4459 28.2177 47.6977 25.3589 47.3547 22.1975C47.2013 20.7835 46.7562 18.9887 45.9914 17.404C45.2243 15.8147 44.1523 14.4703 42.7636 13.9022C40.6283 13.0287 38.1468 13.1346 36.1133 14.1603C36.0277 14.2035 35.9417 14.2468 35.8554 14.2903C34.2384 15.1048 32.5022 15.9793 31.1167 17.0749C31.0241 17.1481 30.8906 17.1312 30.8185 17.0371C30.7465 16.9431 30.7631 16.8075 30.8557 16.7343C32.2764 15.6109 34.0484 14.7185 35.655 13.9094C35.7453 13.8639 35.8351 13.8187 35.9243 13.7737C38.0663 12.6932 40.6744 12.5823 42.9223 13.5018C44.4523 14.1277 45.586 15.5836 46.3729 17.214C47.162 18.849 47.619 20.6931 47.7771 22.1503C48.1238 25.3464 47.8904 28.4047 45.2858 30.5888C43.743 31.8824 41.9586 32.3 40.1446 32.2855C38.3358 32.2711 36.484 31.8268 34.7948 31.3859C33.8416 31.1371 32.7524 30.8517 31.8598 30.3222C31.4466 30.0771 31.1289 29.7458 30.802 29.405C30.7374 29.3377 30.6724 29.27 30.6063 29.2025C30.5883 29.1914 30.5727 29.18 30.5608 29.1709C30.5354 29.1514 30.5085 29.1282 30.4816 29.1036C30.4276 29.0542 30.3646 28.9908 30.2983 28.9209C30.1651 28.7808 30.0099 28.6057 29.8705 28.4432C29.7312 28.2809 29.605 28.1281 29.5299 28.0321C29.5111 28.0081 29.4946 27.9864 29.4815 27.9683C29.4726 27.956 29.4535 27.9298 29.4409 27.9039C29.4384 27.8988 29.4268 27.8753 29.4211 27.8436C29.4186 27.8291 29.4125 27.7888 29.4272 27.7403C29.4463 27.6778 29.4953 27.6198 29.569 27.5971C29.6258 27.5796 29.6726 27.5913 29.689 27.5959C29.7096 27.6018 29.7249 27.6096 29.7326 27.6137C29.7484 27.6223 29.7603 27.6312 29.7654 27.6352C29.7851 27.6504 29.8061 27.6713 29.8223 27.6877C29.8488 27.7146 29.8668 27.7469 29.8764 27.7811C29.9474 27.871 30.0622 28.0098 30.1908 28.1596C30.3278 28.3192 30.4778 28.4883 30.604 28.6212C30.6674 28.6878 30.7227 28.7432 30.7662 28.783C30.788 28.803 30.8047 28.8171 30.8165 28.8262C30.819 28.8281 30.821 28.8296 30.8226 28.8307L30.8535 28.8431L30.8846 28.8747C30.9676 28.959 31.0458 29.0403 31.1211 29.1187C31.4453 29.4558 31.7152 29.7365 32.0741 29.9495C32.9065 30.4433 33.9358 30.716 34.9005 30.9678C36.5911 31.4091 38.3971 31.8399 40.1479 31.8539C41.8936 31.8679 43.5708 31.4671 45.0152 30.2559Z" fill="black"/>
<path fill-rule="evenodd" clip-rule="evenodd" d="M19.8724 39.8475C21.3635 41.8508 23.5612 42.151 26.0317 41.9826C27.1338 41.9074 28.5418 41.6114 29.7967 41.0527C31.0562 40.4919 32.128 39.6819 32.6109 38.5997C33.3583 36.9249 33.3598 34.9404 32.6347 33.2832C32.6042 33.2134 32.5735 33.1432 32.5428 33.0729C31.9625 31.7446 31.3417 30.3236 30.538 29.1768C30.4699 29.0797 30.4922 28.945 30.5878 28.8758C30.6834 28.8067 30.8161 28.8294 30.8841 28.9265C31.7137 30.1101 32.3505 31.5682 32.9259 32.8857C32.9585 32.9602 32.9908 33.0343 33.023 33.1079C33.7973 34.8776 33.7954 36.9908 32.9979 38.7779C32.4521 40.001 31.2681 40.8689 29.9673 41.448C28.6618 42.0293 27.2049 42.3352 26.0601 42.4132C23.5554 42.584 21.1607 42.294 19.5335 40.1078C18.57 38.8134 18.3039 37.3539 18.3769 35.8893C18.4496 34.43 18.8599 32.952 19.2604 31.6096C19.4861 30.8532 19.7468 29.9812 20.1934 29.2756C20.2999 29.1072 20.4311 28.9569 20.5495 28.8213C20.5736 28.7937 20.5972 28.7667 20.6199 28.7402C20.7598 28.5776 20.8771 28.4271 20.9547 28.2507C20.9908 28.1686 21.0502 28.11 21.1045 28.0724C21.1548 28.0377 21.2258 28.0041 21.3026 28.0017C21.3378 28.0005 21.4173 28.0049 21.4833 28.0699C21.5623 28.1475 21.5604 28.2468 21.546 28.3042C21.5327 28.3571 21.5052 28.3995 21.4834 28.4284C21.4593 28.4601 21.4295 28.4918 21.3956 28.5234C21.3584 28.558 21.3124 28.5767 21.2658 28.5798C21.1696 28.7497 21.0519 28.894 20.9399 29.0242C20.9129 29.0556 20.8865 29.0859 20.8606 29.1156C20.7431 29.2505 20.638 29.3712 20.5508 29.509C20.1419 30.155 19.8962 30.9667 19.6671 31.7347C19.2662 33.0786 18.8711 34.5106 18.8013 35.9111C18.7317 37.3064 18.9859 38.6564 19.8724 39.8475ZM21.3479 28.4269C21.3479 28.4269 21.3471 28.4274 21.3455 28.4281C21.347 28.4271 21.3479 28.4268 21.3479 28.4269Z" fill="black"/>
<path fill-rule="evenodd" clip-rule="evenodd" d="M18.2779 44.2807C20.1788 46.8344 22.9799 47.2122 26.104 46.9991C27.5013 46.9039 29.2857 46.5288 30.877 45.8203C32.473 45.1098 33.8411 44.0793 34.4592 42.6942C35.4095 40.5646 35.4115 38.0416 34.4894 35.9341C34.4506 35.8455 34.4117 35.7564 34.3726 35.6669C33.6406 33.9911 32.8545 32.1918 31.8362 30.7389C31.7681 30.6418 31.7904 30.507 31.886 30.4379C31.9816 30.3688 32.1143 30.3915 32.1823 30.4886C33.2265 31.9783 34.0286 33.8147 34.7558 35.4798C34.7966 35.5734 34.8373 35.6664 34.8777 35.7588C35.849 37.9789 35.8467 40.6304 34.8462 42.8724C34.1653 44.3984 32.6848 45.4867 31.0476 46.2156C29.4058 46.9466 27.5724 47.3316 26.1324 47.4298C22.974 47.6452 19.9759 47.2776 17.939 44.541C16.7325 42.92 16.398 41.0913 16.4897 39.251C16.5812 37.416 17.0973 35.5557 17.6031 33.8602C17.8885 32.9036 18.2158 31.8103 18.7747 30.9271C18.9067 30.7186 19.0689 30.5327 19.2183 30.3615C19.249 30.3263 19.2792 30.2918 19.3084 30.2578C19.4856 30.0517 19.6386 29.8565 19.7402 29.6255C19.7805 29.5337 19.8474 29.4671 19.9097 29.4241C19.968 29.3839 20.0474 29.3471 20.1303 29.3445C20.1685 29.3433 20.2503 29.3483 20.3178 29.4147C20.3983 29.4938 20.3969 29.5954 20.3817 29.6559C20.3677 29.7119 20.3381 29.7583 20.3125 29.7921C20.2847 29.8288 20.2495 29.8663 20.2081 29.9049C20.1633 29.9467 20.1056 29.9652 20.0494 29.9612C19.9282 30.1828 19.7757 30.3705 19.6284 30.5417C19.5949 30.5807 19.5619 30.6186 19.5295 30.6558C19.3809 30.8264 19.2448 30.9826 19.1322 31.1606C18.6109 31.9842 18.2986 33.0171 18.0098 33.9854C17.5035 35.6823 17.0026 37.4966 16.9141 39.2729C16.8258 41.0439 17.1483 42.763 18.2779 44.2807ZM20.1623 29.7735C20.1623 29.7735 20.1621 29.7735 20.1617 29.7737C20.1621 29.7735 20.1623 29.7735 20.1623 29.7735Z" fill="black"/>
<path fill-rule="evenodd" clip-rule="evenodd" d="M9.02223 19.0131C7.15738 20.6621 7.01392 22.9099 7.34948 25.4017C7.49918 26.5134 7.88684 27.9198 8.52199 29.153C9.15947 30.3907 10.0289 31.421 11.125 31.8359C12.8213 32.4779 14.7705 32.3427 16.3482 31.4939C16.4146 31.4581 16.4814 31.4222 16.5484 31.3862C17.813 30.7068 19.1659 29.9798 20.2368 29.0863C20.3274 29.0107 20.4613 29.024 20.5358 29.1161C20.6103 29.2082 20.5972 29.3442 20.5065 29.4199C19.4012 30.3421 18.0129 31.0878 16.7586 31.7616C16.6876 31.7997 16.6171 31.8376 16.5471 31.8753C14.8623 32.7818 12.7867 32.9254 10.9766 32.2403C9.73779 31.7715 8.80386 30.6314 8.14547 29.3531C7.48474 28.0702 7.08396 26.6148 6.92847 25.4602C6.58825 22.9337 6.70819 20.487 8.74323 18.6875C9.94814 17.6221 11.3633 17.2519 12.8067 17.225C14.245 17.1982 15.7248 17.5122 17.0709 17.8256C17.8293 18.0022 18.7037 18.2064 19.4274 18.6103C19.6001 18.7067 19.7568 18.8293 19.8981 18.9399C19.9269 18.9624 19.955 18.9845 19.9826 19.0057C20.152 19.1362 20.3078 19.2448 20.4864 19.3113C20.5695 19.3422 20.6312 19.3983 20.6718 19.4508C20.7093 19.4994 20.7473 19.569 20.755 19.6467C20.7585 19.6823 20.7596 19.7631 20.7004 19.8345C20.6296 19.9198 20.5319 19.9248 20.4746 19.9141C20.4217 19.9043 20.3782 19.8794 20.3483 19.8592C20.3155 19.8371 20.2823 19.809 20.2489 19.7768C20.2124 19.7415 20.1909 19.6962 20.1846 19.6491C20.0111 19.5634 19.8613 19.454 19.7257 19.3495C19.693 19.3243 19.6614 19.2996 19.6305 19.2755C19.4899 19.1657 19.3641 19.0675 19.2228 18.9886C18.5601 18.6188 17.746 18.4257 16.9759 18.2464C15.6285 17.9326 14.1948 17.6309 12.8145 17.6566C11.4394 17.6822 10.131 18.0327 9.02223 19.0131ZM20.3405 19.7218C20.3404 19.7218 20.3399 19.721 20.3391 19.7194C20.3402 19.721 20.3405 19.7218 20.3405 19.7218Z" fill="black"/>
<path fill-rule="evenodd" clip-rule="evenodd" d="M4.58446 17.8945C2.20721 19.9965 2.02915 22.8611 2.45349 26.0123C2.64329 27.4217 3.13455 29.2041 3.93996 30.7679C4.7477 32.3362 5.85401 33.6517 7.25689 34.1826C9.41393 34.999 11.8919 34.8272 13.8983 33.7477C13.9827 33.7023 14.0675 33.6568 14.1527 33.611C15.7481 32.7538 17.4612 31.8333 18.818 30.7013C18.9087 30.6256 19.0426 30.639 19.117 30.7311C19.1915 30.8232 19.1784 30.9592 19.0877 31.0348C17.6965 32.1956 15.9481 33.1348 14.3629 33.9864C14.2738 34.0342 14.1852 34.0818 14.0972 34.1292C11.9837 35.2663 9.37935 35.4466 7.10853 34.5871C5.56295 34.0021 4.39209 32.5769 3.56344 30.968C2.73245 29.3545 2.22807 27.5232 2.03248 26.0708C1.60348 22.885 1.75802 19.8215 4.30546 17.5689C5.81437 16.2346 7.58739 15.7697 9.40111 15.736C11.2097 15.7023 13.0723 16.0972 14.7723 16.493C15.7315 16.7163 16.8277 16.9727 17.7337 17.4783C17.9476 17.5977 18.1413 17.7493 18.3198 17.8889C18.3564 17.9176 18.3924 17.9457 18.4278 17.973C18.6424 18.1384 18.8447 18.28 19.0786 18.367C19.1715 18.4016 19.2415 18.4648 19.288 18.525C19.3315 18.5813 19.3731 18.6591 19.3814 18.743C19.3852 18.7816 19.3859 18.8649 19.3254 18.9379C19.2532 19.0248 19.1534 19.0305 19.0929 19.0192C19.0369 19.0089 18.9893 18.9821 18.9543 18.9584C18.9164 18.9328 18.8771 18.8997 18.8363 18.8604C18.7922 18.8179 18.77 18.7607 18.7701 18.7035C18.5442 18.5959 18.3493 18.4544 18.171 18.3169C18.1304 18.2856 18.0909 18.2548 18.0522 18.2245C17.8744 18.0856 17.7116 17.9585 17.529 17.8566C16.6842 17.3851 15.6483 17.1398 14.6773 16.9137C12.976 16.5176 11.1595 16.1349 9.4089 16.1675C7.66346 16.2 5.99723 16.6452 4.58446 17.8945ZM18.9623 18.805C18.9623 18.805 18.9622 18.8048 18.962 18.8044C18.9622 18.8048 18.9623 18.805 18.9623 18.805Z" fill="black"/>
<path fill-rule="evenodd" clip-rule="evenodd" d="M23.8168 9.1729C23.8751 9.16594 23.9279 9.20827 23.9347 9.26746C24.0489 10.2536 24.2061 11.231 24.3636 12.2112C24.4729 12.8911 24.5825 13.5723 24.678 14.2587C24.7535 14.8012 24.8077 15.3449 24.8615 15.886C24.8681 15.952 24.8747 16.0179 24.8813 16.0838C24.9421 16.691 25.0059 17.2948 25.1026 17.8953C25.1121 17.9541 25.0728 18.0096 25.0149 18.0192C24.957 18.0289 24.9024 17.989 24.8929 17.9302C24.795 17.3225 24.7307 16.7129 24.6699 16.1057C24.6633 16.0397 24.6567 15.9737 24.6502 15.9078C24.5962 15.3662 24.5425 14.8269 24.4676 14.2889C24.3736 13.6133 24.2646 12.9352 24.1555 12.2557C23.997 11.2695 23.8381 10.2805 23.7237 9.29268C23.7168 9.23349 23.7585 9.17986 23.8168 9.1729Z" fill="black"/>
<path fill-rule="evenodd" clip-rule="evenodd" d="M37.4142 22.6599C35.9537 22.4801 34.6303 22.4477 33.1695 22.6656C32.9344 22.7006 32.7069 22.7448 32.4812 22.79C32.4483 22.7966 32.4155 22.8032 32.3827 22.8098C32.1908 22.8484 31.9994 22.8869 31.8078 22.9195C31.3581 22.9961 30.9003 23.0416 30.4035 22.9837C30.3452 22.9769 30.3034 22.9234 30.3101 22.8642C30.3168 22.805 30.3695 22.7625 30.4278 22.7693C30.8967 22.824 31.3325 22.7816 31.7727 22.7066C31.961 22.6746 32.1489 22.6368 32.3409 22.5982C32.3738 22.5915 32.4069 22.5849 32.4401 22.5782C32.6662 22.533 32.8981 22.4879 33.1387 22.452C34.6227 22.2307 35.9658 22.2642 37.4398 22.4457C37.498 22.4528 37.5395 22.5066 37.5325 22.5658C37.5254 22.6249 37.4725 22.6671 37.4142 22.6599Z" fill="black"/>
<path fill-rule="evenodd" clip-rule="evenodd" d="M26.485 29.6747C26.5437 29.6747 26.5913 29.7231 26.5913 29.7827C26.5913 30.3521 26.5951 30.9184 26.5989 31.4826C26.6165 34.0914 26.6338 36.6563 26.2716 39.2935C26.2634 39.3525 26.2098 39.3937 26.1517 39.3855C26.0935 39.3772 26.053 39.3227 26.0611 39.2637C26.4211 36.6435 26.4039 34.0974 26.3864 31.4893C26.3826 30.9238 26.3788 30.3554 26.3788 29.7827C26.3788 29.7231 26.4264 29.6747 26.485 29.6747Z" fill="black"/>
<path fill-rule="evenodd" clip-rule="evenodd" d="M17.2542 24.197C18.0727 24.0531 18.71 24.1146 19.4954 24.2816C19.5529 24.2938 19.5897 24.351 19.5776 24.4094C19.5656 24.4677 19.5093 24.5051 19.4519 24.4929C18.6827 24.3293 18.0741 24.2719 17.2904 24.4096C15.3666 24.7479 13.4426 25.0961 11.5259 25.4645C11.4683 25.4755 11.4127 25.437 11.4018 25.3785C11.3909 25.3199 11.4288 25.2635 11.4865 25.2524C13.4045 24.8838 15.3297 24.5353 17.2542 24.197Z" fill="black"/>
<path fill-rule="evenodd" clip-rule="evenodd" d="M31.7165 22.9137C31.755 22.8687 31.8221 22.8639 31.8664 22.903C32.1469 23.1505 32.4256 23.399 32.7042 23.6473C33.2365 24.1218 33.768 24.5955 34.3087 25.0602C34.3534 25.0987 34.359 25.1668 34.3211 25.2123C34.2832 25.2578 34.2162 25.2635 34.1714 25.225C33.6294 24.7591 33.0953 24.283 32.5619 23.8076C32.2838 23.5597 32.0058 23.312 31.727 23.0659C31.6827 23.0268 31.678 22.9586 31.7165 22.9137Z" fill="black"/>
<path fill-rule="evenodd" clip-rule="evenodd" d="M33.0842 22.6095C33.112 22.5571 33.1764 22.5374 33.2281 22.5657C34.3159 23.1607 34.8199 23.9998 35.2935 25.0993C35.317 25.1539 35.2925 25.2176 35.2387 25.2414C35.185 25.2653 35.1223 25.2404 35.0988 25.1858C34.6327 24.1036 34.1535 23.317 33.1273 22.7557C33.0757 22.7274 33.0564 22.662 33.0842 22.6095Z" fill="black"/>
<path fill-rule="evenodd" clip-rule="evenodd" d="M35.0862 22.4077C35.1357 22.3758 35.2013 22.3907 35.2328 22.4411C35.5858 23.0069 35.9097 23.5704 36.195 24.179C36.2203 24.2328 36.1978 24.2972 36.1448 24.3228C36.0918 24.3484 36.0284 24.3256 36.0032 24.2718C35.7229 23.6738 35.4037 23.1182 35.0533 22.5566C35.0219 22.5063 35.0366 22.4396 35.0862 22.4077Z" fill="black"/>
<path fill-rule="evenodd" clip-rule="evenodd" d="M35.8592 22.5364C35.8975 22.4912 35.9646 22.4861 36.0091 22.525C36.2927 22.7729 36.5393 23.07 36.7715 23.3723C36.8524 23.4776 36.931 23.5828 37.0089 23.6869C37.1571 23.8852 37.3025 24.0797 37.4552 24.2638C37.493 24.3094 37.4872 24.3774 37.4423 24.4158C37.3975 24.4542 37.3304 24.4484 37.2926 24.4028C37.1368 24.2148 36.9854 24.0124 36.835 23.8112C36.7579 23.7081 36.6811 23.6054 36.604 23.5051C36.3741 23.2058 36.1378 22.9222 35.8705 22.6885C35.826 22.6497 35.821 22.5815 35.8592 22.5364Z" fill="black"/>
<path fill-rule="evenodd" clip-rule="evenodd" d="M35.2668 20.422C35.3106 20.4616 35.3145 20.5298 35.2754 20.5743C35.2055 20.654 35.1356 20.7335 35.0657 20.813C34.5581 21.3903 34.0536 21.9641 33.5794 22.5662C33.5427 22.6128 33.4759 22.6203 33.43 22.5831C33.3842 22.5459 33.3768 22.478 33.4135 22.4314C33.8916 21.8244 34.4001 21.246 34.9074 20.6691C34.9773 20.5896 35.0471 20.5102 35.1168 20.4307C35.1559 20.3862 35.223 20.3823 35.2668 20.422Z" fill="black"/>
<path fill-rule="evenodd" clip-rule="evenodd" d="M36.9756 20.4312C37.0144 20.4759 37.0101 20.5441 36.9661 20.5835C36.9112 20.6327 36.8563 20.6816 36.8017 20.7304C36.2215 21.248 35.6587 21.7502 35.172 22.3516C35.1347 22.3976 35.0677 22.4042 35.0224 22.3664C34.9771 22.3285 34.9706 22.2605 35.0078 22.2145C35.5061 21.5989 36.0818 21.0853 36.6599 20.5696C36.7151 20.5203 36.7704 20.471 36.8256 20.4216C36.8697 20.3822 36.9368 20.3865 36.9756 20.4312Z" fill="black"/>
<path fill-rule="evenodd" clip-rule="evenodd" d="M38.0426 20.5989C38.0782 20.6463 38.0693 20.714 38.0226 20.7502C37.8845 20.8573 37.745 20.9625 37.6057 21.0676C37.0363 21.497 36.471 21.9233 36.0207 22.4609C35.9826 22.5063 35.9156 22.5117 35.8709 22.4731C35.8262 22.4345 35.8208 22.3664 35.8589 22.321C36.3265 21.7628 36.9166 21.318 37.4877 20.8876C37.6248 20.7842 37.7608 20.6817 37.8937 20.5786C37.9404 20.5425 38.007 20.5516 38.0426 20.5989Z" fill="black"/>
<path fill-rule="evenodd" clip-rule="evenodd" d="M38.8951 21.25C38.9287 21.2988 38.917 21.3661 38.869 21.4002C38.333 21.7814 37.8599 22.1637 37.3954 22.6296C37.3537 22.6714 37.2864 22.671 37.2452 22.6286C37.204 22.5862 37.2044 22.5179 37.2461 22.476C37.7212 21.9995 38.2041 21.6096 38.7471 21.2234C38.7952 21.1893 38.8614 21.2011 38.8951 21.25Z" fill="black"/>
<path fill-rule="evenodd" clip-rule="evenodd" d="M37.2311 22.495C37.2625 22.4447 37.3282 22.4298 37.3777 22.4617C37.8996 22.798 38.3436 23.1693 38.7769 23.6095C38.8184 23.6517 38.8184 23.72 38.7769 23.7621C38.7354 23.8043 38.6682 23.8043 38.6267 23.7621C38.2031 23.3318 37.7712 22.9708 37.2639 22.6439C37.2143 22.612 37.1997 22.5453 37.2311 22.495Z" fill="black"/>
<path fill-rule="evenodd" clip-rule="evenodd" d="M26.4224 31.0331C26.4759 31.0575 26.4998 31.1214 26.4757 31.1758C26.1167 31.9862 25.813 32.8072 25.523 33.649C25.5036 33.7053 25.443 33.7349 25.3876 33.7152C25.3322 33.6956 25.303 33.634 25.3224 33.5777C25.6134 32.7332 25.9194 31.9056 26.2819 31.0872C26.306 31.0329 26.3689 31.0086 26.4224 31.0331Z" fill="black"/>
<path fill-rule="evenodd" clip-rule="evenodd" d="M26.4382 32.9844C26.4869 33.0178 26.4997 33.0848 26.4669 33.1342C26.0619 33.7437 25.768 34.4607 25.4799 35.1636C25.405 35.3462 25.3306 35.5279 25.2547 35.7064C25.2314 35.7612 25.1689 35.7864 25.115 35.7627C25.0612 35.7391 25.0363 35.6756 25.0596 35.6209C25.1329 35.4485 25.2056 35.271 25.2793 35.0911C25.5681 34.386 25.8726 33.6427 26.2908 33.0135C26.3236 32.9641 26.3896 32.9511 26.4382 32.9844Z" fill="black"/>
<path fill-rule="evenodd" clip-rule="evenodd" d="M26.4319 34.707C26.4828 34.7368 26.5001 34.8028 26.4708 34.8544C26.19 35.348 25.9544 35.8781 25.7276 36.4178C25.6674 36.5612 25.6076 36.7056 25.5479 36.85C25.3836 37.2472 25.2188 37.6454 25.0408 38.0297C25.0158 38.0836 24.9525 38.1067 24.8994 38.0814C24.8463 38.056 24.8236 37.9917 24.8485 37.9378C25.0245 37.558 25.1867 37.166 25.3504 36.7702C25.4106 36.6249 25.4709 36.479 25.5322 36.3331C25.7597 35.7917 25.9994 35.2518 26.2868 34.7464C26.3162 34.6948 26.3811 34.6772 26.4319 34.707Z" fill="black"/>
<path fill-rule="evenodd" clip-rule="evenodd" d="M26.4689 34.8265C26.5133 34.7877 26.5804 34.7928 26.6187 34.8379C27.0102 35.2999 27.3532 35.8096 27.6917 36.3126C27.8489 36.5461 28.0051 36.7782 28.1647 37.0034C28.199 37.0518 28.1882 37.1192 28.1406 37.1541C28.093 37.1889 28.0266 37.1779 27.9923 37.1295C27.8261 36.895 27.6665 36.6579 27.5077 36.4219C27.1729 35.9243 26.8414 35.4316 26.4577 34.9787C26.4194 34.9336 26.4244 34.8654 26.4689 34.8265Z" fill="black"/>
<path fill-rule="evenodd" clip-rule="evenodd" d="M26.5801 33.3117C26.6268 33.2756 26.6935 33.2849 26.729 33.3323C27.1631 33.9128 27.6071 34.4877 28.0553 35.0567C28.0919 35.1032 28.0845 35.1712 28.0387 35.2084C27.9928 35.2456 27.926 35.2381 27.8893 35.1915C27.4404 34.6215 26.9952 34.0451 26.5598 33.4629C26.5243 33.4154 26.5334 33.3477 26.5801 33.3117Z" fill="black"/>
<path fill-rule="evenodd" clip-rule="evenodd" d="M26.5171 31.5399C26.5591 31.4983 26.6264 31.4991 26.6673 31.5418C27.0427 31.933 27.3355 32.3539 27.6328 32.7814C27.6859 32.8578 27.7392 32.9345 27.7931 33.0112C27.8272 33.0597 27.8162 33.1271 27.7684 33.1617C27.7207 33.1963 27.6544 33.1851 27.6203 33.1366C27.5651 33.0582 27.511 32.9804 27.4574 32.9034C27.1599 32.4757 26.8778 32.0704 26.5152 31.6924C26.4742 31.6498 26.4751 31.5814 26.5171 31.5399Z" fill="black"/>
<path fill-rule="evenodd" clip-rule="evenodd" d="M17.4055 24.4037C17.4552 24.4354 17.4702 24.502 17.439 24.5525C17.0616 25.1637 16.8277 25.8314 16.5999 26.5256C16.5814 26.5821 16.5212 26.6127 16.4656 26.5938C16.4099 26.575 16.3798 26.5139 16.3984 26.4573C16.6261 25.7632 16.8667 25.0733 17.259 24.4378C17.2902 24.3873 17.3557 24.3721 17.4055 24.4037Z" fill="black"/>
<path fill-rule="evenodd" clip-rule="evenodd" d="M16.1198 24.5056C16.1728 24.5311 16.1954 24.5955 16.1702 24.6493C16.0291 24.9514 15.9086 25.2637 15.7907 25.5806C15.7661 25.6465 15.7417 25.7127 15.7172 25.779C15.6244 26.0304 15.5309 26.2838 15.4287 26.533C15.4061 26.588 15.3439 26.614 15.2897 26.5911C15.2356 26.5681 15.21 26.505 15.2325 26.45C15.3331 26.2047 15.4249 25.956 15.5176 25.7051C15.5422 25.6383 15.567 25.5714 15.5919 25.5043C15.7102 25.1865 15.8332 24.8673 15.9783 24.5568C16.0034 24.5029 16.0668 24.48 16.1198 24.5056Z" fill="black"/>
<path fill-rule="evenodd" clip-rule="evenodd" d="M14.9521 24.7218C15.0049 24.7479 15.0268 24.8125 15.0012 24.8661C14.6989 25.4972 14.4115 26.1341 14.1236 26.7722C13.9398 27.1794 13.7559 27.5871 13.5677 27.9941C13.5427 28.048 13.4794 28.0712 13.4263 28.0459C13.3732 28.0205 13.3504 27.9563 13.3754 27.9023C13.5616 27.4995 13.745 27.0932 13.9286 26.6864C14.2176 26.046 14.5072 25.4041 14.8101 24.7717C14.8358 24.7181 14.8994 24.6958 14.9521 24.7218Z" fill="black"/>
<path fill-rule="evenodd" clip-rule="evenodd" d="M15.0814 23.3045C15.1127 23.2541 15.1784 23.239 15.228 23.2709C15.9193 23.7144 16.5548 23.9604 17.3624 24.0644C17.4206 24.0719 17.4618 24.1259 17.4544 24.185C17.447 24.2441 17.3938 24.286 17.3356 24.2785C16.4946 24.1702 15.8299 23.9123 15.1145 23.4533C15.0649 23.4215 15.0501 23.3549 15.0814 23.3045Z" fill="black"/>
<path fill-rule="evenodd" clip-rule="evenodd" d="M13.1861 22.6902C13.2288 22.6492 13.296 22.6512 13.3363 22.6945C13.7008 23.0866 14.1021 23.3729 14.5281 23.6316C14.7314 23.755 14.9394 23.8717 15.152 23.9909C15.1625 23.9968 15.173 24.0027 15.1836 24.0086C15.4066 24.1338 15.6345 24.2621 15.8636 24.4028C15.9138 24.4336 15.9299 24.5 15.8995 24.551C15.8692 24.602 15.8039 24.6183 15.7537 24.5875C15.5286 24.4493 15.3041 24.3228 15.0808 24.1976C15.07 24.1915 15.0592 24.1854 15.0483 24.1793C14.8365 24.0605 14.6256 23.9422 14.4191 23.8168C13.9842 23.5527 13.5649 23.2547 13.1818 22.8427C13.1415 22.7994 13.1435 22.7311 13.1861 22.6902Z" fill="black"/>
<path fill-rule="evenodd" clip-rule="evenodd" d="M10.0244 22.9503C10.043 22.8938 10.1031 22.8632 10.1588 22.8821C11.7016 23.4045 13.1581 23.9707 14.5855 24.7786C14.6368 24.8076 14.6552 24.8733 14.6266 24.9253C14.5981 24.9774 14.5334 24.9961 14.4821 24.9671C13.0715 24.1688 11.6293 23.6074 10.0916 23.0868C10.0359 23.068 10.0058 23.0068 10.0244 22.9503Z" fill="black"/>
<path fill-rule="evenodd" clip-rule="evenodd" d="M26.6546 13.1861C26.7017 13.2216 26.7115 13.2892 26.6765 13.337C26.607 13.4321 26.5363 13.5277 26.4652 13.6238C25.8614 14.4402 25.2279 15.2967 24.9947 16.2658C24.9808 16.3237 24.9233 16.3591 24.8663 16.345C24.8093 16.3308 24.7744 16.2724 24.7883 16.2145C25.0327 15.1993 25.6945 14.3055 26.2947 13.4948C26.3663 13.3981 26.437 13.3027 26.506 13.2083C26.541 13.1605 26.6075 13.1505 26.6546 13.1861Z" fill="black"/>
<path fill-rule="evenodd" clip-rule="evenodd" d="M26.3168 12.2034C26.3702 12.2282 26.3936 12.2923 26.3691 12.3465C26.0484 13.0574 25.6273 13.7046 25.2091 14.3474C25.0786 14.5479 24.9485 14.748 24.8217 14.9494C24.7901 14.9996 24.7244 15.0143 24.675 14.9822C24.6255 14.9501 24.6111 14.8834 24.6427 14.8332C24.7734 14.6255 24.9061 14.4214 25.0381 14.2186C25.4542 13.5788 25.8627 12.9508 26.176 12.2565C26.2004 12.2024 26.2635 12.1786 26.3168 12.2034Z" fill="black"/>
<path fill-rule="evenodd" clip-rule="evenodd" d="M25.8475 11.2368C25.8984 11.2666 25.9159 11.3325 25.8866 11.3842C25.7708 11.5884 25.6529 11.7908 25.5353 11.9926C25.1884 12.5881 24.8439 13.1794 24.5632 13.8031C24.5388 13.8573 24.4758 13.8812 24.4224 13.8564C24.3691 13.8316 24.3456 13.7676 24.37 13.7134C24.6558 13.0783 25.0085 12.473 25.357 11.8749C25.4735 11.6749 25.5895 11.4757 25.7025 11.2765C25.7317 11.2248 25.7967 11.2071 25.8475 11.2368Z" fill="black"/>
<path fill-rule="evenodd" clip-rule="evenodd" d="M22.0251 14.4934C22.0361 14.4349 22.0917 14.3965 22.1494 14.4076C22.3509 14.4466 22.5557 14.4812 22.7619 14.5161C23.4201 14.6273 24.0928 14.741 24.7201 15.0076C24.7742 15.0306 24.7997 15.0938 24.7771 15.1488C24.7544 15.2037 24.6922 15.2297 24.6381 15.2067C24.0357 14.9507 23.3971 14.8426 22.7445 14.7322C22.5341 14.6966 22.3222 14.6608 22.1096 14.6196C22.052 14.6085 22.0142 14.552 22.0251 14.4934Z" fill="black"/>
<path fill-rule="evenodd" clip-rule="evenodd" d="M22.0292 13.1291C22.0486 13.0729 22.1092 13.0432 22.1646 13.0629C22.4601 13.168 22.7575 13.271 23.0554 13.3742C23.5745 13.554 24.0951 13.7343 24.6096 13.9268C24.6646 13.9474 24.6928 14.0094 24.6725 14.0653C24.6522 14.1213 24.5912 14.1499 24.5361 14.1293C24.0236 13.9375 23.508 13.7589 22.9909 13.5798C22.6924 13.4765 22.3934 13.3729 22.0944 13.2666C22.039 13.2469 22.0098 13.1854 22.0292 13.1291Z" fill="black"/>
<path fill-rule="evenodd" clip-rule="evenodd" d="M20.5523 10.5175C20.5835 10.4671 20.6491 10.4519 20.6988 10.4836C21.5474 11.0254 22.416 11.4948 23.3185 11.9469C23.4044 11.99 23.4978 12.0287 23.5966 12.0696C23.6092 12.0748 23.622 12.0801 23.6349 12.0855C23.746 12.1317 23.8625 12.1813 23.9711 12.2409C24.1889 12.3606 24.3897 12.5288 24.4631 12.8137C24.478 12.8714 24.444 12.9303 24.3873 12.9454C24.3305 12.9605 24.2725 12.926 24.2576 12.8684C24.2056 12.6665 24.0642 12.5374 23.87 12.4308C23.7726 12.3773 23.6657 12.3315 23.5544 12.2852C23.5418 12.28 23.5291 12.2747 23.5163 12.2694C23.4185 12.2289 23.3177 12.1872 23.2245 12.1405C22.3184 11.6865 21.4427 11.2135 20.5857 10.6663C20.536 10.6346 20.5211 10.568 20.5523 10.5175Z" fill="black"/>
<path fill-rule="evenodd" clip-rule="evenodd" d="M21.8278 41.7619C21.8857 41.7714 21.925 41.8268 21.9157 41.8857C21.7676 42.8157 21.5433 43.7255 21.3197 44.6327C21.3053 44.6912 21.2908 44.7497 21.2765 44.8081C21.2622 44.8659 21.2046 44.9011 21.1476 44.8866C21.0907 44.8722 21.0561 44.8136 21.0703 44.7558C21.0846 44.698 21.0988 44.6402 21.113 44.5825C21.3371 43.6732 21.5593 42.7718 21.7059 41.8512C21.7153 41.7924 21.7698 41.7524 21.8278 41.7619Z" fill="black"/>
<path fill-rule="evenodd" clip-rule="evenodd" d="M23.4043 42.1921C23.463 42.1921 23.5105 42.2405 23.5105 42.3V44.8898C23.5105 44.9494 23.463 44.9978 23.4043 44.9978C23.3456 44.9978 23.298 44.9494 23.298 44.8898V42.3C23.298 42.2405 23.3456 42.1921 23.4043 42.1921Z" fill="black"/>
<path fill-rule="evenodd" clip-rule="evenodd" d="M25.6148 42.302C25.6724 42.2906 25.7282 42.3287 25.7394 42.3872C25.7621 42.505 25.7851 42.623 25.808 42.7413C25.9384 43.412 26.0701 44.0902 26.1653 44.7666C26.1736 44.8256 26.1332 44.8803 26.0751 44.8887C26.017 44.8972 25.9632 44.8562 25.9549 44.7972C25.8607 44.1269 25.7301 43.4551 25.5998 42.7842C25.5768 42.6657 25.5537 42.5471 25.5309 42.4286C25.5197 42.3701 25.5572 42.3135 25.6148 42.302Z" fill="black"/>
<path fill-rule="evenodd" clip-rule="evenodd" d="M28.0498 42.0882C28.1063 42.0721 28.1649 42.1055 28.1808 42.1629C28.4206 43.0291 28.6636 43.8915 28.9237 44.7502C28.941 44.8071 28.9095 44.8675 28.8534 44.885C28.7973 44.9026 28.7379 44.8706 28.7206 44.8136C28.4598 43.9524 28.2162 43.088 27.9763 42.2213C27.9604 42.1639 27.9933 42.1044 28.0498 42.0882Z" fill="black"/>
<path fill-rule="evenodd" clip-rule="evenodd" d="M29.8454 41.4443C29.8999 41.4224 29.9616 41.4495 29.9833 41.5049C30.3019 42.3217 30.6418 43.0946 31.0409 43.8686C31.0681 43.9213 31.0481 43.9866 30.9961 44.0142C30.9441 44.0419 30.8799 44.0215 30.8527 43.9687C30.4495 43.1868 30.1066 42.4069 29.7857 41.5844C29.7641 41.529 29.7908 41.4663 29.8454 41.4443Z" fill="black"/>
<path fill-rule="evenodd" clip-rule="evenodd" d="M42.5345 27.151C42.5573 27.0961 42.6196 27.0703 42.6737 27.0934C43.4213 27.4132 44.1653 27.4112 44.9789 27.409C45.0461 27.4089 45.1138 27.4087 45.182 27.4087C45.2407 27.4087 45.2883 27.457 45.2883 27.5166C45.2883 27.5762 45.2407 27.6245 45.182 27.6245C45.1122 27.6245 45.0425 27.6247 44.973 27.6249C44.1668 27.6274 43.3805 27.6299 42.5912 27.2923C42.5371 27.2692 42.5118 27.2059 42.5345 27.151Z" fill="black"/>
<path fill-rule="evenodd" clip-rule="evenodd" d="M45.3913 25.2243C45.4055 25.2822 45.3709 25.3407 45.314 25.3552C44.6754 25.5174 44.0512 25.6601 43.3795 25.6821C43.3208 25.684 43.2718 25.6373 43.2699 25.5777C43.268 25.5182 43.314 25.4683 43.3726 25.4664C44.02 25.4452 44.6253 25.3076 45.2625 25.1458C45.3194 25.1314 45.3771 25.1665 45.3913 25.2243Z" fill="black"/>
<path fill-rule="evenodd" clip-rule="evenodd" d="M46.0247 23.1613C46.0459 23.2169 46.0187 23.2794 45.964 23.3009C45.8701 23.3378 45.7763 23.3748 45.6824 23.4119C44.8985 23.7212 44.1127 24.0313 43.2999 24.2749C43.2436 24.2918 43.1846 24.2591 43.1679 24.202C43.1513 24.1448 43.1835 24.0848 43.2398 24.0679C44.0435 23.827 44.8207 23.5204 45.6057 23.2106C45.6994 23.1736 45.7933 23.1366 45.8873 23.0996C45.942 23.0781 46.0035 23.1057 46.0247 23.1613Z" fill="black"/>
<path fill-rule="evenodd" clip-rule="evenodd" d="M45.4968 21.6604C45.5126 21.7178 45.4796 21.7774 45.4231 21.7935C45.1936 21.8587 44.9633 21.9198 44.7335 21.9808C44.2142 22.1185 43.6978 22.2555 43.1997 22.4385C43.1446 22.4587 43.0836 22.4297 43.0637 22.3737C43.0437 22.3177 43.0723 22.2558 43.1275 22.2355C43.635 22.049 44.167 21.9079 44.6908 21.7689C44.9182 21.7086 45.1441 21.6487 45.3658 21.5856C45.4223 21.5696 45.481 21.6031 45.4968 21.6604Z" fill="black"/>
<path fill-rule="evenodd" clip-rule="evenodd" d="M45.7077 18.9577C45.7263 19.0142 45.6962 19.0753 45.6405 19.0942C44.6639 19.4249 43.7198 19.8369 42.7671 20.2528C42.6655 20.2971 42.5637 20.3415 42.4618 20.3859C42.4079 20.4094 42.3454 20.384 42.3223 20.3292C42.2992 20.2744 42.3242 20.211 42.3781 20.1875C42.4801 20.1432 42.582 20.0987 42.6839 20.0542C43.6353 19.6389 44.5877 19.2232 45.5734 18.8894C45.629 18.8706 45.6892 18.9012 45.7077 18.9577Z" fill="black"/>
<path fill-rule="evenodd" clip-rule="evenodd" d="M44.2173 17.007C44.2404 17.0617 44.2155 17.1252 44.1615 17.1486C43.341 17.5059 42.5958 17.8599 41.8378 18.3286C41.7877 18.3596 41.7223 18.3435 41.6918 18.2926C41.6613 18.2417 41.6772 18.1753 41.7273 18.1443C42.4979 17.6679 43.2535 17.3091 44.0778 16.9503C44.1318 16.9268 44.1942 16.9522 44.2173 17.007Z" fill="black"/>
<path fill-rule="evenodd" clip-rule="evenodd" d="M42.8271 15.5868C42.8596 15.6364 42.8464 15.7034 42.7976 15.7364C42.1438 16.1792 41.5214 16.6526 40.8904 17.1356C40.8436 17.1715 40.7769 17.162 40.7416 17.1144C40.7063 17.0668 40.7157 16.9991 40.7625 16.9633C41.3932 16.4805 42.0202 16.0035 42.6797 15.5569C42.7286 15.5238 42.7945 15.5372 42.8271 15.5868Z" fill="black"/>
<path fill-rule="evenodd" clip-rule="evenodd" d="M29.0903 3.25321C29.1403 3.28444 29.1558 3.35091 29.1251 3.40166C28.6408 4.201 28.1456 4.99469 27.636 5.77856C27.6037 5.82829 27.5378 5.84198 27.4888 5.80914C27.4399 5.7763 27.4264 5.70936 27.4587 5.65963C27.9669 4.878 28.4609 4.08628 28.9442 3.28855C28.9749 3.2378 29.0403 3.22197 29.0903 3.25321Z" fill="black"/>
<path fill-rule="evenodd" clip-rule="evenodd" d="M25.8519 2.69775C25.9105 2.70013 25.9561 2.75034 25.9538 2.80989C25.9416 3.11879 25.9249 3.42552 25.9082 3.73135C25.8817 4.21525 25.8554 4.69688 25.8476 5.18133C25.8467 5.24091 25.7983 5.28843 25.7397 5.28745C25.681 5.28647 25.6342 5.23738 25.6352 5.17779C25.643 4.69064 25.6698 4.19988 25.6964 3.71177C25.713 3.40672 25.7296 3.10271 25.7415 2.80126C25.7438 2.74171 25.7933 2.69537 25.8519 2.69775Z" fill="black"/>
<path fill-rule="evenodd" clip-rule="evenodd" d="M23.2791 2.59148C23.3368 2.58082 23.3921 2.61971 23.4026 2.67835C23.5555 3.53273 23.6168 4.30985 23.6168 5.17954C23.6168 5.23914 23.5692 5.28745 23.5105 5.28745C23.4518 5.28745 23.4043 5.23914 23.4043 5.17954C23.4043 4.32137 23.3439 3.55727 23.1935 2.71695C23.183 2.65832 23.2213 2.60214 23.2791 2.59148Z" fill="black"/>
<path fill-rule="evenodd" clip-rule="evenodd" d="M19.5354 2.27595C19.5887 2.25097 19.6518 2.27459 19.6764 2.32871C19.8393 2.68728 20.0126 3.04661 20.1869 3.40803C20.5799 4.22274 20.9779 5.04803 21.2736 5.89899C21.2931 5.95519 21.2641 6.01682 21.2088 6.03666C21.1534 6.05649 21.0928 6.02701 21.0732 5.97082C20.7818 5.13198 20.3928 4.32563 20.0025 3.51657C19.8268 3.15238 19.6509 2.78764 19.4835 2.41915C19.4589 2.36503 19.4821 2.30092 19.5354 2.27595Z" fill="black"/>
<path fill-rule="evenodd" clip-rule="evenodd" d="M18.3719 4.00027C18.4264 3.97814 18.4882 4.00505 18.51 4.06038C18.5789 4.23538 18.6446 4.4094 18.7097 4.58182C18.9993 5.34863 19.2769 6.0838 19.7702 6.73219C19.8061 6.77935 19.7975 6.84712 19.7511 6.88356C19.7047 6.92 19.6379 6.91131 19.6021 6.86415C19.0879 6.18827 18.7971 5.41718 18.5071 4.64855C18.4431 4.47874 18.3791 4.30905 18.3127 4.14054C18.2909 4.0852 18.3174 4.0224 18.3719 4.00027Z" fill="black"/>
<path fill-rule="evenodd" clip-rule="evenodd" d="M15.7781 5.32885C15.8142 5.28192 15.881 5.27365 15.9272 5.31038C16.317 5.62022 16.696 5.94275 17.0733 6.26379C17.0816 6.2709 17.09 6.27801 17.0983 6.28512C17.4844 6.6136 17.8688 6.94025 18.2641 7.25253C18.3104 7.28912 18.3187 7.35692 18.2827 7.40396C18.2467 7.451 18.18 7.45948 18.1336 7.42289C17.7349 7.10784 17.3475 6.77872 16.9619 6.45055L16.9379 6.43018C16.5599 6.10845 16.1832 5.78794 15.7963 5.48034C15.7501 5.44361 15.7419 5.37579 15.7781 5.32885Z" fill="black"/>
<path fill-rule="evenodd" clip-rule="evenodd" d="M5.13886 19.386C5.15924 19.3301 5.22036 19.3016 5.27538 19.3223C5.28431 19.3256 5.29324 19.329 5.30218 19.3324C6.08657 19.6274 6.86446 19.9201 7.62239 20.2978C7.67506 20.324 7.69682 20.3887 7.67098 20.4422C7.64514 20.4957 7.58149 20.5178 7.52881 20.4915C6.78062 20.1187 6.01137 19.8293 5.22383 19.533C5.21641 19.5302 5.209 19.5274 5.20158 19.5246C5.14656 19.504 5.11848 19.4419 5.13886 19.386Z" fill="black"/>
<path fill-rule="evenodd" clip-rule="evenodd" d="M4.49573 21.7835C4.50332 21.7244 4.55663 21.6827 4.61481 21.6904C5.43095 21.7986 6.2287 21.8946 7.04581 21.9054C7.10447 21.9061 7.15141 21.9551 7.15065 22.0147C7.14989 22.0742 7.10171 22.1219 7.04305 22.1211C6.2124 22.1102 5.40386 22.0126 4.58733 21.9044C4.52915 21.8967 4.48814 21.8426 4.49573 21.7835Z" fill="black"/>
<path fill-rule="evenodd" clip-rule="evenodd" d="M7.04134 23.8219C7.05538 23.8797 7.02059 23.9382 6.96363 23.9525C6.81083 23.9908 6.65809 24.0289 6.50542 24.067C5.80729 24.2414 5.11051 24.4154 4.41542 24.5996C4.35865 24.6146 4.30062 24.5801 4.28581 24.5224C4.271 24.4647 4.30502 24.4058 4.36179 24.3907C5.05847 24.2061 5.757 24.0317 6.4552 23.8573C6.60774 23.8192 6.76027 23.7811 6.91276 23.7429C6.96973 23.7287 7.02729 23.764 7.04134 23.8219Z" fill="black"/>
<path fill-rule="evenodd" clip-rule="evenodd" d="M7.35217 26.3898C7.37813 26.4432 7.35652 26.5079 7.3039 26.5343C6.73178 26.821 6.15437 27.0942 5.57761 27.3671C5.47951 27.4136 5.38143 27.46 5.2834 27.5065C5.23023 27.5317 5.16702 27.5083 5.14221 27.4543C5.1174 27.4003 5.14038 27.3361 5.19355 27.3109C5.29183 27.2643 5.39006 27.2178 5.48825 27.1713C6.06509 26.8984 6.64009 26.6263 7.2099 26.3407C7.26252 26.3144 7.32621 26.3363 7.35217 26.3898Z" fill="black"/>
<path fill-rule="evenodd" clip-rule="evenodd" d="M7.98484 28.5392C8.01552 28.59 7.99986 28.6565 7.94985 28.6876C7.34131 29.0669 6.74236 29.4568 6.1424 29.8474C5.68496 30.1451 5.22693 30.4433 4.76361 30.7374C4.71386 30.769 4.64832 30.7536 4.61722 30.7031C4.58613 30.6526 4.60125 30.586 4.651 30.5544C5.10898 30.2637 5.56611 29.9661 6.02383 29.6682C6.62668 29.2758 7.23055 28.8828 7.83873 28.5037C7.88874 28.4725 7.95415 28.4884 7.98484 28.5392Z" fill="black"/>
<path fill-rule="evenodd" clip-rule="evenodd" d="M9.01328 30.2309C9.06291 30.2627 9.07778 30.3294 9.04649 30.3798C8.67447 30.9792 8.23945 31.5229 7.8055 32.0653C7.79176 32.0824 7.77802 32.0996 7.76428 32.1168C7.72728 32.1631 7.66037 32.1701 7.61484 32.1325C7.5693 32.0949 7.56238 32.027 7.59938 31.9807C7.61213 31.9648 7.62487 31.9488 7.6376 31.9329C8.07379 31.3877 8.50167 30.8529 8.86676 30.2647C8.89805 30.2143 8.96365 30.1992 9.01328 30.2309Z" fill="black"/>
<path fill-rule="evenodd" clip-rule="evenodd" d="M38.1455 8.67079C38.1834 8.71626 38.1779 8.78435 38.1331 8.82287C37.8956 9.02723 37.6592 9.22865 37.4245 9.42865C35.6766 10.9179 34.0214 12.3281 32.7167 14.2805C32.4764 14.6402 32.2596 15.0148 32.041 15.3928C32.0245 15.4212 32.008 15.4497 31.9915 15.4782C31.7566 15.8839 31.5176 16.292 31.2459 16.6804C31.2119 16.7289 31.1456 16.7403 31.0978 16.7058C31.0499 16.6713 31.0387 16.6039 31.0727 16.5553C31.3384 16.1755 31.5733 15.7748 31.8084 15.3688C31.8251 15.34 31.8418 15.3111 31.8585 15.2822C32.0764 14.9055 32.2965 14.525 32.5409 14.1593C33.8634 12.1803 35.5424 10.7501 37.2885 9.26272C37.5233 9.06274 37.7593 8.86173 37.9957 8.65821C38.0405 8.61968 38.1075 8.62532 38.1455 8.67079Z" fill="black"/>
<path fill-rule="evenodd" clip-rule="evenodd" d="M30.69 28.6055C30.7434 28.5806 30.8064 28.6044 30.8309 28.6586C31.1156 29.2885 31.7317 30.0937 32.406 30.8736C33.0561 31.6255 33.752 32.3444 34.2377 32.8461C34.2541 32.8631 34.2703 32.8798 34.2863 32.8963C34.6661 33.2888 35.0533 33.6759 35.4412 34.0636C36.1824 34.8047 36.9258 35.5479 37.624 36.3348C38.974 37.8564 40.2084 39.4685 41.4417 41.0792C41.6539 41.3563 41.866 41.6333 42.0787 41.9099C42.1149 41.9568 42.1067 42.0247 42.0604 42.0613C42.0142 42.098 41.9474 42.0897 41.9113 42.0427C41.6981 41.7655 41.4856 41.488 41.2732 41.2106C40.0396 39.5997 38.8106 37.9946 37.4661 36.4793C36.7719 35.6968 36.0368 34.962 35.2987 34.2241C34.9097 33.8353 34.5199 33.4456 34.1348 33.0476C34.1186 33.0309 34.1021 33.0138 34.0854 32.9965C33.6001 32.4952 32.9005 31.7725 32.2464 31.016C31.572 30.2361 30.9367 29.4101 30.6378 28.7486C30.6133 28.6944 30.6367 28.6304 30.69 28.6055Z" fill="black"/>
<path fill-rule="evenodd" clip-rule="evenodd" d="M19.123 30.7846C19.1649 30.8263 19.1657 30.8946 19.1247 30.9372C15.8637 34.3253 12.7605 37.8596 9.782 41.5057C9.74453 41.5515 9.67756 41.5579 9.63241 41.5198C9.58726 41.4818 9.58103 41.4137 9.61849 41.3679C12.6002 37.7179 15.7073 34.1791 18.9728 30.7863C19.0138 30.7437 19.081 30.7429 19.123 30.7846Z" fill="black"/>
<path fill-rule="evenodd" clip-rule="evenodd" d="M6.42462 10.5155C6.45695 10.4658 6.52285 10.4521 6.57181 10.4849C7.02541 10.7893 7.47925 11.0925 7.93288 11.3955C9.77531 12.6263 11.6144 13.8548 13.4207 15.1509C14.1167 15.6503 14.8179 16.1361 15.5401 16.5921C15.5878 16.6222 15.635 16.6522 15.6819 16.682C16.2352 17.0333 16.7434 17.3559 17.3698 17.4832C17.4274 17.4949 17.4647 17.5517 17.4532 17.6102C17.4417 17.6686 17.3857 17.7065 17.3282 17.6948C16.6619 17.5595 16.1214 17.216 15.574 16.8681C15.5254 16.8372 15.4768 16.8062 15.4279 16.7754C14.7008 16.3163 13.9959 15.8278 13.2981 15.3271C11.495 14.0334 9.65962 12.8073 7.81748 11.5767C7.36351 11.2734 6.90912 10.9699 6.45471 10.665C6.40575 10.6322 6.39228 10.5652 6.42462 10.5155Z" fill="black"/>
<path fill-rule="evenodd" clip-rule="evenodd" d="M39.8038 6.7529C39.9621 6.76224 40.0963 6.84633 40.1997 6.98642C40.2224 7.01713 40.2425 7.04251 40.2646 7.07031C40.2801 7.08987 40.2966 7.11062 40.3156 7.13526C40.3562 7.18801 40.401 7.24989 40.4372 7.31993C40.516 7.47242 40.5471 7.65162 40.4718 7.86593C40.3889 8.10163 40.2038 8.29395 39.9908 8.40455C39.7771 8.51551 39.5086 8.55719 39.26 8.44668C39.1318 8.38974 39.0351 8.3046 38.9694 8.19769C38.9052 8.09335 38.8775 7.97962 38.8675 7.87351C38.859 7.78337 38.863 7.68957 38.8722 7.60023C38.8629 7.59095 38.8542 7.58067 38.8465 7.5694C38.7792 7.47175 38.8025 7.33718 38.8987 7.26883C38.9113 7.25987 38.924 7.25038 38.9371 7.24037C38.9646 7.185 39.0144 7.14454 39.0728 7.12894C39.0751 7.12696 39.0775 7.12496 39.0798 7.12296C39.0966 7.10879 39.1139 7.09409 39.132 7.07889C39.2182 7.00648 39.3189 6.92449 39.4239 6.86234C39.5268 6.80139 39.6584 6.74433 39.8038 6.7529ZM39.3178 7.48343C39.2965 7.61257 39.2807 7.72901 39.2905 7.83241C39.2963 7.89373 39.3104 7.93749 39.3298 7.96904C39.3476 7.99802 39.3761 8.02716 39.4303 8.05123C39.5343 8.09746 39.667 8.08795 39.7974 8.02023C39.9285 7.95215 40.0303 7.83829 40.0716 7.72075C40.1027 7.63227 40.0908 7.57829 40.061 7.52053C40.0428 7.48545 40.0169 7.44794 39.9809 7.40119C39.9701 7.38711 39.9566 7.37016 39.9421 7.35178C39.9155 7.31819 39.8852 7.27981 39.8598 7.24541C39.8161 7.18625 39.7892 7.1844 39.7791 7.18381C39.7561 7.18245 39.7118 7.19144 39.6379 7.23522C39.566 7.27779 39.4889 7.3392 39.4029 7.41151C39.3883 7.4237 39.3734 7.43635 39.3582 7.44927C39.3449 7.4605 39.3314 7.47193 39.3178 7.48343Z" fill="black"/>
<path fill-rule="evenodd" clip-rule="evenodd" d="M43.242 42.7362C43.5164 42.8535 43.6948 43.13 43.6948 43.487C43.6948 43.7503 43.546 43.9444 43.3717 44.0612C43.2004 44.176 42.9856 44.2314 42.7926 44.2204C42.6067 44.2098 42.3769 44.1289 42.2841 43.8973C42.2036 43.6967 42.2617 43.4664 42.4038 43.2318C42.3878 43.2204 42.3731 43.2065 42.3603 43.1902C42.287 43.0971 42.3018 42.9613 42.3935 42.8868C42.653 42.6759 42.9736 42.6214 43.242 42.7362ZM42.8006 43.1392C42.8559 43.2118 42.8611 43.3153 42.8067 43.3946C42.6503 43.6226 42.6715 43.7192 42.6776 43.7345C42.6809 43.7428 42.7057 43.7831 42.8165 43.7895C42.9202 43.7954 43.0443 43.7635 43.1377 43.7009C43.2281 43.6403 43.2698 43.567 43.2698 43.487C43.2698 43.2844 43.1773 43.1768 43.0772 43.134C43.0037 43.1026 42.9055 43.0975 42.8006 43.1392Z" fill="black"/>
<path fill-rule="evenodd" clip-rule="evenodd" d="M8.45334 42.0695C8.57453 42.1068 8.69385 42.1858 8.81646 42.2912C8.93843 42.396 9.05953 42.5289 9.10959 42.6956C9.16505 42.8802 9.12212 43.0647 8.99612 43.2337C8.8714 43.4009 8.74863 43.54 8.56117 43.5525C8.48692 43.5574 8.41553 43.5402 8.36807 43.5287C8.36604 43.5282 8.36405 43.5277 8.3621 43.5273C8.35932 43.5266 8.35654 43.5259 8.35376 43.5253C8.30178 43.5127 8.24922 43.5001 8.18072 43.4914C8.04716 43.4744 7.92677 43.4564 7.83187 43.4242C7.72985 43.3895 7.62621 43.328 7.56805 43.2052C7.51773 43.099 7.51919 42.9798 7.52702 42.8793C7.53367 42.7939 7.54866 42.689 7.56571 42.5698C7.56963 42.5424 7.57366 42.5142 7.57772 42.4853C7.59431 42.3673 7.70193 42.2854 7.81809 42.3022C7.82586 42.3033 7.83346 42.3049 7.84089 42.3068C7.90613 42.2291 7.98465 42.1495 8.0825 42.0991C8.19676 42.0403 8.32183 42.029 8.45334 42.0695ZM7.95516 42.8649C7.95334 42.882 7.95182 42.898 7.95063 42.9133C7.94649 42.9665 7.94805 42.9949 7.94963 43.0084C7.95374 43.0101 7.95927 43.0123 7.96657 43.0148C8.0154 43.0314 8.09479 43.0455 8.23343 43.0631C8.32548 43.0747 8.39776 43.0922 8.44993 43.1048C8.45341 43.1057 8.45681 43.1065 8.46012 43.1073C8.48765 43.1139 8.50467 43.1178 8.51841 43.12C8.52228 43.1207 8.52531 43.1211 8.52761 43.1213C8.54094 43.1116 8.57948 43.0775 8.65741 42.973C8.71668 42.8936 8.71185 42.8505 8.70316 42.8216C8.68908 42.7747 8.64378 42.7082 8.54198 42.6207C8.43769 42.531 8.37052 42.495 8.33003 42.4825C8.29985 42.4732 8.28803 42.4772 8.27459 42.4842C8.25022 42.4967 8.21347 42.527 8.15586 42.5969C8.11418 42.6475 8.07188 42.7055 8.02084 42.7754C8.00133 42.8022 7.98054 42.8307 7.95802 42.8612C7.95708 42.8624 7.95612 42.8637 7.95516 42.8649ZM8.52202 43.1248C8.52204 43.1247 8.52274 43.1243 8.52403 43.1238C8.52263 43.1247 8.52199 43.1249 8.52202 43.1248ZM7.93932 43.0031C7.93935 43.0031 7.93968 43.0033 7.94023 43.0037C7.93957 43.0033 7.9393 43.0031 7.93932 43.0031Z" fill="black"/>
<path fill-rule="evenodd" clip-rule="evenodd" d="M5.65469 9.16542C5.70686 9.26483 5.72576 9.37994 5.72233 9.50204C5.70863 9.98907 5.41063 10.3776 5.04812 10.4574C4.85807 10.4992 4.6559 10.4509 4.50566 10.2879C4.36565 10.1361 4.29277 9.90909 4.28302 9.62888C4.2529 9.64403 4.22511 9.65821 4.20017 9.67095C4.18768 9.67732 4.17591 9.68332 4.16492 9.68891C4.05997 9.74221 3.93235 9.699 3.87987 9.59239C3.82739 9.48578 3.86993 9.35615 3.97489 9.30284C3.98601 9.29719 3.99847 9.29081 4.01217 9.28379C4.18188 9.19688 4.5406 9.01317 4.86742 8.93549C5.03832 8.89488 5.2478 8.87073 5.42362 8.94906C5.51876 8.99144 5.60068 9.06253 5.65469 9.16542ZM4.65231 9.45889C4.68534 9.4959 4.70594 9.54466 4.70724 9.59852C4.71277 9.82873 4.77003 9.94322 4.81581 9.99288C4.85464 10.035 4.90038 10.0482 4.95811 10.0355C5.09116 10.0062 5.28825 9.82121 5.29757 9.48971C5.29958 9.41818 5.28737 9.38308 5.27972 9.3685C5.2739 9.3574 5.26726 9.35072 5.25294 9.34434C5.20985 9.32515 5.11682 9.31951 4.96423 9.35578C4.86277 9.37989 4.75575 9.41708 4.65231 9.45889Z" fill="black"/>
</svg>
