<svg width="50" height="50" viewBox="0 0 50 50" fill="none" xmlns="http://www.w3.org/2000/svg">
<path fill-rule="evenodd" clip-rule="evenodd" d="M25.3359 23.3945C25.4042 23.3238 25.4992 23.2799 25.6042 23.2799C26.6123 23.2799 27.3812 24.0943 27.758 24.8176C28.0635 25.4041 27.9896 26.1464 27.7549 26.7565C27.5191 27.3696 27.0788 27.9619 26.506 28.2264C26.0735 28.4262 25.5577 28.4417 25.0937 28.3662C24.6265 28.2902 24.1629 28.1142 23.8171 27.8763C23.2117 27.4599 22.6466 26.8278 22.6024 25.9375C22.5634 25.1507 22.9843 24.4033 23.5028 23.9401C23.7526 23.717 23.9972 23.5648 24.273 23.4702C24.5441 23.3771 24.8244 23.3471 25.1314 23.3392C25.2061 23.3372 25.2764 23.3577 25.3359 23.3945ZM25.4092 23.9938C25.3431 24.0622 25.252 24.1056 25.1504 24.1082C24.8762 24.1153 24.6815 24.1416 24.5131 24.1994C24.3492 24.2557 24.1894 24.349 23.999 24.5191C23.6048 24.8712 23.3306 25.4065 23.355 25.8986C23.382 26.4441 23.727 26.8867 24.2381 27.2383C24.4792 27.4041 24.8356 27.5451 25.2123 27.6064C25.5924 27.6683 25.9447 27.6413 26.1954 27.5255C26.5319 27.3701 26.8625 26.9719 27.0535 26.4753C27.2456 25.9758 27.2544 25.4893 27.0927 25.1789C26.771 24.5614 26.2028 24.0492 25.6042 24.0492C25.5328 24.0492 25.4661 24.029 25.4092 23.9938Z" fill="black"/>
<path fill-rule="evenodd" clip-rule="evenodd" d="M30.4176 21.4161C30.5464 21.583 30.5183 21.8248 30.3548 21.9563C29.7042 22.4797 29.0908 23.0309 28.4594 23.5985C28.3033 23.7389 28.0652 23.7235 27.9277 23.564C27.7902 23.4046 27.8053 23.1615 27.9615 23.0211C28.5904 22.4556 29.219 21.8905 29.8885 21.352C30.0519 21.2205 30.2888 21.2492 30.4176 21.4161Z" fill="black"/>
<path fill-rule="evenodd" clip-rule="evenodd" d="M30.3015 27.2998C29.8648 27.1402 29.448 27.0059 29.0317 26.9438C28.8258 26.9131 28.6833 26.7178 28.7134 26.5076C28.7435 26.2973 28.9348 26.1518 29.1407 26.1825C29.6338 26.2561 30.1082 26.412 30.5555 26.5755C30.6883 26.624 30.8174 26.6727 30.9442 26.7205C31.2556 26.8378 31.553 26.9499 31.8567 27.042C32.0562 27.1025 32.1698 27.3166 32.1106 27.5202C32.0514 27.7239 31.8416 27.84 31.6422 27.7795C31.3135 27.6798 30.9804 27.5543 30.6602 27.4336C30.5384 27.3878 30.4186 27.3426 30.3015 27.2998Z" fill="black"/>
<path fill-rule="evenodd" clip-rule="evenodd" d="M26.7999 29.008C26.9919 28.9261 27.2125 29.0186 27.2928 29.2146C27.5933 29.9491 27.9175 30.6657 28.2667 31.3787C28.3597 31.5687 28.2843 31.7998 28.0982 31.8948C27.9121 31.9898 27.6857 31.9128 27.5927 31.7228C27.2366 30.9956 26.9052 30.2631 26.5975 29.5112C26.5172 29.3152 26.6079 29.0899 26.7999 29.008Z" fill="black"/>
<path fill-rule="evenodd" clip-rule="evenodd" d="M24.2317 29.0215C24.3847 29.1655 24.3945 29.4088 24.2535 29.5651C23.907 29.9491 23.6313 30.4214 23.3677 30.9401C23.2752 31.122 23.1817 31.3152 23.0867 31.5117C22.9213 31.8535 22.7512 32.205 22.5736 32.5238C22.4707 32.7085 22.2406 32.773 22.0598 32.668C21.8789 32.5629 21.8157 32.328 21.9186 32.1434C22.0879 31.8396 22.2377 31.5294 22.3941 31.2056C22.4911 31.0048 22.5906 30.7987 22.6988 30.5857C22.9713 30.0495 23.2838 29.5043 23.6993 29.0438C23.8403 28.8876 24.0786 28.8776 24.2317 29.0215Z" fill="black"/>
<path fill-rule="evenodd" clip-rule="evenodd" d="M21.8603 26.4102C21.8887 26.6207 21.7447 26.8148 21.5385 26.8438C20.3454 27.0118 19.1703 27.2549 17.9846 27.5244C17.7814 27.5706 17.5801 27.4399 17.5349 27.2326C17.4897 27.0252 17.6177 26.8197 17.8208 26.7735C19.0145 26.5022 20.2126 26.2539 21.4356 26.0817C21.6417 26.0527 21.8319 26.1998 21.8603 26.4102Z" fill="black"/>
<path fill-rule="evenodd" clip-rule="evenodd" d="M19.238 19.9721C19.374 19.8113 19.6119 19.7934 19.7694 19.9322C20.6867 20.7404 21.5738 21.5724 22.4585 22.4081C22.6112 22.5524 22.6205 22.7958 22.4792 22.9517C22.3379 23.1076 22.0995 23.1171 21.9467 22.9728C21.0624 22.1375 20.1836 21.3134 19.2771 20.5147C19.1196 20.3759 19.1021 20.133 19.238 19.9721Z" fill="black"/>
<path fill-rule="evenodd" clip-rule="evenodd" d="M24.8784 19.1021C25.085 19.0763 25.2729 19.2264 25.2981 19.4373C25.3856 20.1678 25.4727 20.8996 25.5541 21.6328C25.5775 21.8439 25.4289 22.0345 25.2221 22.0584C25.0154 22.0823 24.8288 21.9306 24.8053 21.7195C24.7243 20.99 24.6376 20.2612 24.5502 19.5306C24.5249 19.3197 24.6719 19.1279 24.8784 19.1021Z" fill="black"/>
<path fill-rule="evenodd" clip-rule="evenodd" d="M18.4065 17.991C18.4029 18.0107 18.3982 18.0347 18.3924 18.0625C18.34 18.3138 18.3183 18.5865 18.3526 18.8037C18.3855 19.0123 18.3656 19.2695 18.1645 19.447C17.986 19.6045 17.7637 19.605 17.6362 19.5925C17.3943 19.569 17.1252 19.4554 17.0106 19.407C16.9993 19.4022 16.9895 19.3981 16.9814 19.3947C16.7885 19.3151 16.6953 19.0909 16.7733 18.8939C16.8513 18.697 17.071 18.6019 17.2639 18.6815C17.2755 18.6863 17.2874 18.6913 17.2998 18.6964C17.355 18.7195 17.4179 18.7457 17.4884 18.7705C17.5257 18.7836 17.5609 18.7948 17.5932 18.8036C17.5724 18.5873 17.5838 18.3639 17.6115 18.1578C17.5913 18.078 17.596 17.991 17.6304 17.9094C17.6304 17.9095 17.6305 17.9091 17.6308 17.9083L17.6321 17.905C17.6333 17.9021 17.6347 17.8983 17.6364 17.8936C17.6398 17.8841 17.6437 17.8728 17.6482 17.8599C17.65 17.8545 17.6522 17.848 17.6546 17.841C17.6614 17.821 17.6696 17.7967 17.6757 17.7798C17.6758 17.7795 17.6759 17.7792 17.6761 17.7788C17.6786 17.7718 17.6898 17.7407 17.7056 17.7109C17.7098 17.703 17.7237 17.6769 17.7468 17.6481C17.7579 17.6343 17.7832 17.6044 17.8232 17.576C17.8594 17.5503 17.9523 17.4941 18.0821 17.5094C18.2277 17.5265 18.3154 17.6195 18.3554 17.6824C18.3913 17.739 18.4036 17.7911 18.408 17.8121C18.4173 17.8568 18.4165 17.8932 18.4163 17.9028L18.4163 17.9031C18.4155 17.9411 18.4088 17.9782 18.4068 17.9893C18.4066 17.99 18.4065 17.9905 18.4065 17.991ZM18.384 18.0428C18.384 18.0429 18.3834 18.0443 18.3825 18.0466C18.3835 18.0439 18.384 18.0427 18.384 18.0428ZM17.6658 17.8495C17.6661 17.8469 17.6664 17.8454 17.6664 17.8453C17.6664 17.8452 17.6663 17.8465 17.6658 17.8495ZM17.6125 18.9662C17.6124 18.9662 17.6124 18.9657 17.6125 18.9647C17.6125 18.9657 17.6125 18.9662 17.6125 18.9662ZM17.7389 18.828C17.7419 18.8274 17.7436 18.8273 17.7437 18.8274C17.7438 18.8275 17.7423 18.8278 17.7389 18.828Z" fill="black"/>
<path fill-rule="evenodd" clip-rule="evenodd" d="M25.0268 18.3531C25.0266 18.3534 25.0266 18.3535 25.0266 18.3535C24.9339 18.5047 24.7569 18.6955 24.4824 18.6686C24.2597 18.6468 24.1149 18.4849 24.0506 18.4059C23.9721 18.3093 23.9041 18.1941 23.8546 18.1086C23.8454 18.0927 23.8368 18.0778 23.8288 18.064C23.7861 17.9901 23.7598 17.9445 23.7375 17.9141C23.6131 17.7438 23.6473 17.5028 23.8141 17.3757C23.9808 17.2486 24.2169 17.2836 24.3414 17.4538C24.3908 17.5215 24.4429 17.6121 24.4835 17.6828C24.4904 17.6948 24.497 17.7063 24.5032 17.717C24.5117 17.7317 24.5199 17.7458 24.5279 17.7592C24.5311 17.7553 24.5343 17.7514 24.5375 17.7476C24.5984 17.6739 24.6727 17.5884 24.7444 17.5113C24.8107 17.4401 24.8925 17.3566 24.9641 17.302C24.9832 17.2874 25.011 17.2675 25.0444 17.2498L25.0444 17.2497C25.0654 17.2386 25.1442 17.1967 25.25 17.1999C25.3128 17.2019 25.3975 17.2205 25.476 17.2827C25.5547 17.345 25.5935 17.4246 25.6109 17.4871C25.6403 17.5923 25.6192 17.682 25.6132 17.7073C25.5792 17.8508 25.4705 17.9559 25.3395 17.9899C25.325 18.0048 25.3087 18.0218 25.2908 18.0411C25.2305 18.1059 25.166 18.1801 25.113 18.2442C25.0567 18.3122 25.0297 18.3492 25.0268 18.3531ZM25.4152 17.9182C25.4159 17.9177 25.4158 17.9178 25.4149 17.9184C25.415 17.9183 25.4151 17.9183 25.4152 17.9182ZM24.8781 17.5389C24.8793 17.5326 24.8803 17.5285 24.8807 17.5271C24.8807 17.5268 24.8808 17.5267 24.8808 17.5266C24.8798 17.5307 24.8789 17.5348 24.8781 17.5389Z" fill="black"/>
<path fill-rule="evenodd" clip-rule="evenodd" d="M31.529 19.5795C31.7236 19.6546 31.8218 19.8766 31.7483 20.0753C31.736 20.1084 31.7206 20.1458 31.7035 20.1874C31.667 20.2761 31.6226 20.3841 31.5835 20.5115C31.5779 20.5297 31.573 20.5466 31.5687 20.5624C31.6207 20.5736 31.6824 20.5828 31.7574 20.5915C31.7764 20.5937 31.7969 20.5959 31.8188 20.5982C31.9622 20.6136 32.1622 20.635 32.3389 20.7027C32.5338 20.7773 32.6325 20.999 32.5594 21.1979C32.4864 21.3968 32.2692 21.4976 32.0743 21.423C31.9944 21.3924 31.9021 21.382 31.7493 21.3647C31.7252 21.362 31.6995 21.3591 31.6722 21.3559C31.4997 21.3359 31.2576 21.3032 31.0351 21.1734C30.7823 21.0259 30.7856 20.74 30.7903 20.651C30.7971 20.5228 30.8315 20.3887 30.8644 20.2814C30.917 20.1102 31.0009 19.9067 31.0318 19.8317C31.038 19.8167 31.0421 19.8068 31.0434 19.8034C31.1169 19.6047 31.3343 19.5044 31.529 19.5795ZM31.5426 20.6988C31.5426 20.6988 31.5426 20.6982 31.5426 20.697C31.5427 20.6982 31.5427 20.6988 31.5426 20.6988Z" fill="black"/>
<path fill-rule="evenodd" clip-rule="evenodd" d="M34.393 27.6492C34.379 27.8612 34.1993 28.0214 33.9916 28.007C33.9531 28.0044 33.9094 28 33.869 27.996C33.8666 27.9958 33.8641 27.9955 33.8617 27.9953C33.8333 27.9925 33.8051 27.9897 33.7768 27.9872C33.8536 28.0384 33.9125 28.1181 33.9364 28.2162C33.9868 28.4223 33.864 28.6311 33.6621 28.6825C33.528 28.7167 33.3899 28.7027 33.2667 28.6352C33.1546 28.5737 33.0833 28.4833 33.0397 28.4146C32.9743 28.3116 32.9247 28.1744 32.899 28.1032C32.8943 28.09 32.8903 28.0791 32.8872 28.0711C32.8174 27.8891 32.791 27.641 32.9626 27.4377C33.1026 27.2719 33.3031 27.2319 33.4144 27.2181C33.543 27.2022 33.6777 27.208 33.7832 27.2159C33.8378 27.22 33.8901 27.2252 33.9343 27.2296L33.9352 27.2296C33.9813 27.2342 34.0153 27.2376 34.0426 27.2394C34.2502 27.2538 34.4071 27.4373 34.393 27.6492ZM33.6735 27.9984C33.6735 27.9984 33.6732 27.998 33.6726 27.997C33.6732 27.9979 33.6736 27.9984 33.6735 27.9984ZM33.585 27.779C33.5848 27.7785 33.5848 27.7783 33.5848 27.7783C33.5848 27.7783 33.5849 27.7785 33.585 27.779Z" fill="black"/>
<path fill-rule="evenodd" clip-rule="evenodd" d="M29.1088 34.3634C29.1101 34.3715 29.1113 34.3795 29.1126 34.3873C29.1454 34.5971 29.0055 34.7944 28.8001 34.8279C28.5946 34.8615 28.4014 34.7187 28.3685 34.5089C28.3672 34.5004 28.3656 34.4905 28.3638 34.4795C28.3446 34.3608 28.3032 34.1052 28.3212 33.8745C28.3308 33.7507 28.3607 33.5753 28.468 33.4266C28.5969 33.2479 28.797 33.1622 29.0196 33.1811C29.0341 33.1823 29.053 33.1826 29.0876 33.183C29.1035 33.1831 29.1228 33.1834 29.1464 33.1837C29.2085 33.1847 29.2924 33.187 29.3761 33.1983C29.4527 33.2085 29.5702 33.231 29.6779 33.2965C29.8056 33.3744 29.9281 33.5226 29.9281 33.7385C29.9281 33.951 29.7594 34.1232 29.5514 34.1232C29.4228 34.1232 29.3093 34.0575 29.2413 33.9572C29.2107 33.9548 29.1753 33.9536 29.1348 33.953C29.1263 33.9528 29.1125 33.9527 29.098 33.9525C29.089 33.9524 29.0797 33.9523 29.0712 33.9522C29.0642 34.0808 29.089 34.2376 29.1088 34.3634Z" fill="black"/>
<path fill-rule="evenodd" clip-rule="evenodd" d="M21.6874 33.7558C21.6874 33.7558 21.687 33.7562 21.6863 33.7571C21.687 33.7562 21.6874 33.7557 21.6874 33.7558ZM21.2121 34.145C21.1734 34.1647 21.1372 34.1818 21.1048 34.1971C21.074 34.2117 21.0468 34.2246 21.0242 34.2365C20.8394 34.334 20.6121 34.26 20.5166 34.0713C20.421 33.8825 20.4935 33.6505 20.6783 33.553C20.7269 33.5273 20.7751 33.504 20.8154 33.4844C20.8235 33.4805 20.8313 33.4767 20.8387 33.4731C20.8861 33.45 20.9215 33.4321 20.9526 33.4139C21.0089 33.381 21.0437 33.3512 21.0746 33.3078C21.0942 33.2802 21.1226 33.2431 21.1592 33.209L21.1592 33.209C21.1814 33.1883 21.2776 33.0988 21.429 33.0962C21.6382 33.0927 21.7482 33.2435 21.7848 33.3176C21.8176 33.3838 21.826 33.446 21.8288 33.4678C21.8344 33.5113 21.8353 33.5633 21.8356 33.5857C21.8357 33.5887 21.8357 33.5912 21.8357 33.5931C21.8361 33.609 21.8366 33.6174 21.8367 33.6206C21.8457 33.663 21.8692 33.7535 21.8992 33.8286C21.9868 33.8693 22.0591 33.9442 22.0956 34.0435C22.1687 34.2424 22.0699 34.4641 21.8751 34.5387C21.6232 34.6351 21.4351 34.4786 21.3654 34.4008C21.2919 34.3189 21.2439 34.2199 21.2144 34.1505C21.2136 34.1487 21.2129 34.1468 21.2121 34.145Z" fill="black"/>
<path fill-rule="evenodd" clip-rule="evenodd" d="M15.4734 26.5461C15.61 26.3858 15.8479 26.3688 16.005 26.5082C16.0692 26.5652 16.1254 26.6114 16.1843 26.6597C16.223 26.6915 16.2629 26.7242 16.3069 26.7616C16.3988 26.8396 16.516 26.9437 16.5965 27.0668C16.6879 27.2066 16.7579 27.415 16.6623 27.6458C16.5837 27.8354 16.4197 27.9655 16.2625 28.0618C16.2633 28.0613 16.2638 28.0611 16.2638 28.0611C16.2638 28.0611 16.2582 28.0649 16.2439 28.0756C16.2296 28.0863 16.2133 28.0989 16.1927 28.1148C16.1896 28.1172 16.1864 28.1196 16.1832 28.1221C16.1357 28.1587 16.0719 28.2077 16.0053 28.2531C15.9941 28.2607 15.9823 28.2686 15.9699 28.2767C15.873 28.4257 15.6909 28.484 15.5317 28.427C15.4615 28.4239 15.3835 28.405 15.3068 28.3552C15.2957 28.348 15.2786 28.3364 15.2602 28.321L15.2596 28.3205C15.2482 28.311 15.2023 28.2726 15.1664 28.208C15.1469 28.173 15.1136 28.1003 15.1171 28.0024C15.1212 27.8888 15.1729 27.7922 15.2438 27.7278C15.3043 27.6729 15.3664 27.6517 15.3972 27.6432C15.4312 27.6338 15.4598 27.631 15.4766 27.63C15.5075 27.6282 15.5359 27.6305 15.5566 27.6332C15.5658 27.6274 15.576 27.6207 15.5872 27.613C15.6332 27.5817 15.6809 27.5454 15.729 27.5082C15.732 27.5059 15.735 27.5036 15.7381 27.5013C15.7581 27.4858 15.7792 27.4695 15.798 27.4554C15.8179 27.4405 15.8461 27.4198 15.8746 27.4023C15.876 27.4015 15.8773 27.4006 15.8786 27.3998C15.8632 27.3859 15.8455 27.3704 15.8251 27.3531C15.7995 27.3315 15.7674 27.305 15.7319 27.2757C15.6633 27.2192 15.582 27.1522 15.5106 27.0888C15.3535 26.9494 15.3369 26.7064 15.4734 26.5461ZM15.9705 27.4952C15.9705 27.4952 15.9704 27.495 15.9702 27.4947C15.9704 27.495 15.9705 27.4952 15.9705 27.4952ZM15.4982 27.6657C15.4969 27.6662 15.497 27.6661 15.4985 27.6656C15.4984 27.6657 15.4983 27.6657 15.4982 27.6657Z" fill="black"/>
<path fill-rule="evenodd" clip-rule="evenodd" d="M38.7921 13.2777C38.6654 13.3165 38.5392 13.3545 38.421 13.382C37.5388 13.5867 36.7794 13.9578 36.0085 14.4559C32.4201 16.7747 28.7709 19.9532 26.5499 23.6598C26.5137 23.7202 26.4364 23.7393 26.3772 23.7023C26.318 23.6653 26.2994 23.5864 26.3356 23.526C28.5842 19.7734 32.268 16.5694 35.8742 14.2392C36.6612 13.7306 37.4473 13.3449 38.3653 13.1319C38.474 13.1067 38.5925 13.0711 38.7199 13.0321C38.733 13.0281 38.7463 13.024 38.7596 13.0199C38.874 12.9847 38.9946 12.9477 39.1158 12.9156C39.3841 12.8446 39.6742 12.7922 39.9407 12.8417C40.1996 12.8898 40.385 13.0193 40.5069 13.2015C40.6262 13.3797 40.6787 13.599 40.6936 13.8204C40.7232 14.2618 40.606 14.7541 40.5005 15.072C40.3169 15.6255 39.9538 16.1818 39.5519 16.6971C39.229 17.1112 38.8753 17.506 38.5615 17.8562C38.4843 17.9424 38.4095 18.0259 38.3382 18.1063C37.2024 19.3866 35.7698 20.5657 34.4062 21.5733C33.3195 22.3764 32.1731 23.0562 31.0208 23.7128C30.7843 23.8476 30.5476 23.9814 30.3111 24.115C29.3939 24.6334 28.4801 25.1498 27.5908 25.7173C27.532 25.7548 27.4545 25.7366 27.4177 25.6765C27.381 25.6165 27.3989 25.5374 27.4577 25.4998C28.3532 24.9284 29.2745 24.4077 30.1923 23.889C30.4281 23.7558 30.6636 23.6227 30.8984 23.4889C32.0491 22.8331 33.1848 22.1594 34.2589 21.3656C35.6167 20.3622 37.0333 19.1953 38.152 17.9341C38.225 17.8519 38.3009 17.7672 38.3788 17.6801C38.6922 17.3303 39.0385 16.9439 39.3554 16.5374C39.7516 16.0293 40.093 15.5008 40.2626 14.9897C40.3637 14.685 40.4693 14.2302 40.443 13.838C40.4299 13.6426 40.3846 13.4733 40.2995 13.3462C40.2171 13.223 40.0914 13.1303 39.8958 13.094C39.6859 13.055 39.4404 13.0946 39.1788 13.1639C39.0626 13.1946 38.9468 13.2302 38.8318 13.2655C38.8186 13.2696 38.8053 13.2736 38.7921 13.2777Z" fill="black"/>
<path fill-rule="evenodd" clip-rule="evenodd" d="M41.3984 11.3891C41.2455 11.4354 41.09 11.4818 40.9433 11.5154C39.8908 11.7569 38.9833 12.1949 38.0578 12.7862C33.727 15.5535 29.3299 19.3427 26.6563 23.7547C26.5834 23.8752 26.4286 23.9124 26.3106 23.8379C26.1926 23.7634 26.1562 23.6053 26.2291 23.4849C28.9584 18.9809 33.4254 15.1412 37.7913 12.3515C38.7491 11.7395 39.7097 11.2728 40.8332 11.015C40.961 10.9857 41.1011 10.9442 41.2554 10.8974C41.2713 10.8926 41.2873 10.8877 41.3034 10.8828C41.4415 10.8409 41.5891 10.796 41.7375 10.7572C42.0645 10.6716 42.4324 10.6042 42.7763 10.6673C43.1135 10.7292 43.3613 10.8982 43.5247 11.1396C43.6829 11.3734 43.7494 11.6559 43.7681 11.9315C43.8054 12.4795 43.6588 13.0833 43.5295 13.4687C43.3017 14.1476 42.8539 14.8238 42.3659 15.4427C41.9732 15.9407 41.5426 16.4158 41.1631 16.8346C41.0701 16.9373 40.9801 17.0366 40.8946 17.1319C39.5148 18.67 37.7766 20.0841 36.1261 21.2902C34.8075 22.2537 33.4175 23.0686 32.0241 23.8538C31.7375 24.0153 31.4509 24.1755 31.1647 24.3354C30.0564 24.9548 28.9546 25.5705 27.8821 26.2473C27.7641 26.3217 27.6093 26.2844 27.5364 26.1639C27.4635 26.0435 27.5 25.8854 27.618 25.811C28.7029 25.1264 29.8195 24.5024 30.9292 23.8823C31.214 23.7232 31.4982 23.5643 31.7814 23.4048C33.1717 22.6213 34.5403 21.8183 35.8337 20.8731C37.4728 19.6754 39.1787 18.2853 40.5241 16.7855C40.6129 16.6865 40.7052 16.5847 40.7997 16.4804C41.1784 16.0624 41.5938 15.6038 41.9746 15.121C42.4513 14.5165 42.8551 13.8961 43.0542 13.3025C43.1746 12.9437 43.2975 12.4154 43.267 11.967C43.2519 11.7443 43.2003 11.5625 43.1114 11.4312C43.0278 11.3077 42.8996 11.211 42.6874 11.1721C42.4554 11.1295 42.1759 11.1719 41.8623 11.254C41.7237 11.2903 41.5856 11.3322 41.4464 11.3745C41.4304 11.3794 41.4144 11.3842 41.3984 11.3891Z" fill="black"/>
<path fill-rule="evenodd" clip-rule="evenodd" d="M43.5605 29.2503C43.4526 29.1721 43.3457 29.0939 43.2518 29.0155C42.5513 28.431 41.7978 28.0477 40.939 27.7332C36.9416 26.2693 32.2427 25.2851 28.014 25.7755C27.9451 25.7835 27.8828 25.7329 27.875 25.6625C27.8672 25.5922 27.9167 25.5286 27.9856 25.5207C32.2669 25.0242 37.0067 26.0207 41.0238 27.4919C41.9006 27.8129 42.6818 28.2088 43.4108 28.817C43.4971 28.889 43.5974 28.9626 43.7058 29.0411C43.7171 29.0492 43.7284 29.0574 43.7397 29.0656C43.8372 29.1361 43.9399 29.2104 44.0392 29.2883C44.2591 29.4607 44.4779 29.6622 44.6035 29.9071C44.7255 30.1452 44.7394 30.3741 44.6736 30.5843C44.6093 30.7899 44.4722 30.9669 44.3103 31.1151C43.9875 31.4103 43.5352 31.6185 43.2248 31.7291C42.6843 31.9215 42.0314 31.9711 41.3862 31.9644C40.8678 31.959 40.3454 31.9168 39.8819 31.8795C39.7679 31.8703 39.6574 31.8614 39.5514 31.8534C37.8641 31.726 36.0725 31.2973 34.4558 30.8188C33.1673 30.4375 31.9374 29.9323 30.7218 29.4082C30.4722 29.3005 30.2233 29.1922 29.9747 29.0839C29.0104 28.6641 28.0497 28.2458 27.0646 27.8786C26.9994 27.8543 26.9659 27.7807 26.9897 27.7142C27.0135 27.6476 27.0856 27.6134 27.1507 27.6377C28.1427 28.0075 29.1113 28.4292 30.0763 28.8493C30.3241 28.9573 30.5718 29.0651 30.8195 29.1719C32.0335 29.6953 33.2522 30.1956 34.5258 30.5725C36.1356 31.0489 37.908 31.4722 39.57 31.5976C39.6783 31.6058 39.7905 31.6149 39.9056 31.6241C40.3685 31.6614 40.8799 31.7026 41.3887 31.7079C42.0248 31.7146 42.643 31.6646 43.1421 31.4869C43.4396 31.381 43.8559 31.1864 44.1427 30.9241C44.2856 30.7934 44.3885 30.6529 44.4344 30.5062C44.4789 30.3641 44.4732 30.2059 44.381 30.0261C44.282 29.8331 44.1006 29.6598 43.8862 29.4917C43.791 29.417 43.6924 29.3457 43.5944 29.2748C43.5831 29.2666 43.5718 29.2584 43.5605 29.2503Z" fill="black"/>
<path fill-rule="evenodd" clip-rule="evenodd" d="M47.0153 30.4021C46.8862 30.3086 46.7554 30.2129 46.6399 30.1165C45.8118 29.4256 44.9199 28.9712 43.898 28.597C39.1155 26.8455 32.8992 25.5704 27.8525 26.1557C27.7147 26.1717 27.5903 26.0706 27.5746 25.9298C27.559 25.7891 27.658 25.6621 27.7958 25.6461C32.9475 25.0487 39.2457 26.3483 44.0676 28.1142C45.1255 28.5016 46.0728 28.981 46.9578 29.7194C47.0582 29.8032 47.1757 29.8894 47.306 29.9837C47.3194 29.9934 47.3329 30.0032 47.3465 30.0131C47.4631 30.0975 47.5879 30.1877 47.7085 30.2823C47.9742 30.4906 48.2514 30.7433 48.4126 31.0577C48.5708 31.3663 48.5907 31.669 48.5034 31.9481C48.4189 32.2182 48.241 32.445 48.0393 32.6295C47.6381 32.9965 47.0815 33.2515 46.7044 33.3858C46.04 33.6224 45.2436 33.6816 44.4668 33.6735C43.8418 33.667 43.2113 33.6162 42.6557 33.5714C42.5195 33.5604 42.3877 33.5498 42.2617 33.5403C40.2294 33.3868 38.0747 32.8708 36.1346 32.2966C34.567 31.8327 32.9725 30.9423 31.4169 30.0438C31.283 29.9665 31.1495 29.8892 31.0163 29.812C29.5897 28.9856 28.199 28.18 26.8589 27.6804C26.7286 27.6319 26.6616 27.4846 26.7091 27.3516C26.7567 27.2186 26.9009 27.1501 27.0312 27.1987C28.413 27.7137 29.8406 28.5409 31.2581 29.3623C31.3936 29.4408 31.529 29.5193 31.6642 29.5974C33.226 30.4995 34.7717 31.3593 36.2744 31.804C38.201 32.3742 40.3172 32.8792 42.2987 33.0288C42.4296 33.0386 42.5646 33.0495 42.7031 33.0607C43.2575 33.1053 43.866 33.1543 44.4719 33.1607C45.2306 33.1686 45.9574 33.1086 46.5389 32.9015C46.8903 32.7764 47.3748 32.5487 47.704 32.2475C47.8676 32.0979 47.9773 31.9442 48.0249 31.7921C48.0696 31.649 48.0661 31.4878 47.9676 31.2956C47.8597 31.0852 47.6572 30.8887 47.4026 30.6891C47.2901 30.6009 47.1735 30.5165 47.0558 30.4314C47.0423 30.4216 47.0288 30.4119 47.0153 30.4021Z" fill="black"/>
<path fill-rule="evenodd" clip-rule="evenodd" d="M33.239 42.7152C33.2397 42.5802 33.2409 42.4459 33.2498 42.3224C33.3157 41.4012 33.1899 40.5513 32.9485 39.6531C31.8246 35.4718 29.9131 30.9802 27.0897 27.7288C27.0437 27.6758 27.0484 27.5947 27.1003 27.5478C27.1522 27.5008 27.2316 27.5057 27.2776 27.5587C30.1361 30.8504 32.0612 35.3834 33.1907 39.5852C33.4372 40.5023 33.5689 41.3825 33.5003 42.3411C33.4921 42.4546 33.4908 42.5806 33.4902 42.7164C33.4901 42.7305 33.4901 42.7446 33.49 42.7588C33.4895 42.8808 33.489 43.0093 33.4837 43.1371C33.4718 43.4198 33.4361 43.7184 33.3119 43.9641C33.1913 44.2029 33.0157 44.3461 32.8095 44.4119C32.6077 44.4763 32.387 44.4635 32.1752 44.4134C31.753 44.3134 31.3262 44.0551 31.0592 43.8593C30.5943 43.5183 30.1793 43.0012 29.8139 42.4583C29.5204 42.0221 29.2539 41.5614 29.0175 41.1527C28.9593 41.0521 28.903 40.9547 28.8485 40.8616C27.9809 39.3786 27.2949 37.6353 26.7493 36.0095C26.3145 34.7138 26.0126 33.3958 25.7341 32.0789C25.6769 31.8086 25.6207 31.5383 25.5646 31.2684C25.3469 30.2214 25.1301 29.1783 24.8583 28.1442C24.8403 28.0758 24.8801 28.0055 24.947 27.9871C25.014 27.9688 25.0829 28.0093 25.1009 28.0777C25.3746 29.119 25.5932 30.1707 25.811 31.2184C25.8669 31.4876 25.9228 31.7564 25.9796 32.0248C26.2577 33.3399 26.5571 34.6457 26.9869 35.9264C27.5302 37.5453 28.2095 39.2693 29.0641 40.7301C29.1198 40.8253 29.177 40.9242 29.2358 41.0257C29.4719 41.4339 29.7328 41.8849 30.021 42.3131C30.3812 42.8484 30.7765 43.3361 31.2058 43.651C31.4616 43.8387 31.8569 44.0747 32.232 44.1636C32.4188 44.2078 32.5906 44.2131 32.7345 44.1671C32.874 44.1226 32.9975 44.027 33.0887 43.8466C33.1865 43.653 33.2212 43.4018 33.2327 43.1261C33.2378 43.0036 33.2383 42.8802 33.2389 42.7576C33.2389 42.7435 33.239 42.7293 33.239 42.7152Z" fill="black"/>
<path fill-rule="evenodd" clip-rule="evenodd" d="M34.6037 46.454C34.6045 46.2924 34.606 46.1281 34.6169 45.9762C34.6948 44.8872 34.5464 43.8809 34.2591 42.812C32.9159 37.8148 30.1292 31.7493 26.7572 27.8661C26.6652 27.7602 26.6747 27.5981 26.7785 27.5041C26.8823 27.4102 27.0411 27.4199 27.1331 27.5259C30.5701 31.484 33.3864 37.6273 34.7436 42.6763C35.041 43.7828 35.2012 44.8498 35.1179 46.0135C35.1084 46.1457 35.1068 46.2933 35.1061 46.4564C35.106 46.4732 35.1059 46.4901 35.1059 46.5072C35.1053 46.6531 35.1046 46.8092 35.0982 46.9643C35.0838 47.3061 35.0406 47.6829 34.8812 47.9982C34.7248 48.3078 34.4936 48.4984 34.2197 48.5858C33.9547 48.6704 33.6706 48.6521 33.4068 48.5896C32.882 48.4653 32.3578 48.1469 32.0334 47.9089C31.462 47.4898 30.9568 46.8585 30.5168 46.2047C30.1629 45.6788 29.8413 45.1228 29.5579 44.6328C29.4884 44.5127 29.4212 44.3965 29.3564 44.2857C28.3114 42.4996 27.4867 40.4027 26.832 38.4517C26.3057 36.8834 26.0064 35.0719 25.7368 33.2784C25.7046 33.0636 25.6727 32.8491 25.6409 32.6352C25.4061 31.0542 25.1767 29.5093 24.8187 28.1471C24.7827 28.0103 24.8622 27.8697 24.9962 27.833C25.1302 27.7963 25.2679 27.8774 25.3039 28.0142C25.6698 29.4062 25.9037 30.9822 26.1377 32.559C26.1695 32.773 26.2013 32.987 26.2334 33.2006C26.5034 34.9974 26.7973 36.7661 27.3072 38.2854C27.9574 40.2228 28.7688 42.2812 29.7877 44.0227C29.8549 44.1377 29.9238 44.2568 29.9945 44.3789C30.2773 44.8678 30.5877 45.4044 30.9309 45.9143C31.3605 46.5527 31.8264 47.1255 32.3265 47.4924C32.6287 47.7141 33.0896 47.988 33.5203 48.09C33.7342 48.1407 33.9204 48.144 34.0698 48.0963C34.2102 48.0515 34.3373 47.956 34.4348 47.7631C34.5415 47.552 34.5825 47.27 34.5963 46.9425C34.6023 46.7978 34.6029 46.6519 34.6035 46.5047C34.6036 46.4878 34.6037 46.4709 34.6037 46.454Z" fill="black"/>
<path fill-rule="evenodd" clip-rule="evenodd" d="M16.9194 42.4377C17.0255 42.357 17.1314 42.2773 17.2333 42.2102C17.994 41.7102 18.5836 41.0966 19.1414 40.3597C21.7384 36.929 24.1049 32.6691 24.9523 28.4109C24.9662 28.3415 25.0325 28.2967 25.1004 28.3108C25.1684 28.3249 25.2123 28.3926 25.1985 28.462C24.3405 32.7731 21.95 37.0689 19.3402 40.5165C18.7706 41.2689 18.1608 41.9055 17.3693 42.4259C17.2755 42.4875 17.1761 42.5622 17.0695 42.6433C17.0584 42.6517 17.0473 42.6601 17.0362 42.6686C16.9404 42.7416 16.8395 42.8184 16.7363 42.8908C16.5079 43.0512 16.2527 43.2015 15.9857 43.248C15.7263 43.2931 15.5087 43.2359 15.3332 43.1072C15.1615 42.9813 15.0388 42.7936 14.9507 42.5906C14.7752 42.1861 14.7207 41.6826 14.7135 41.347C14.7009 40.7627 14.8561 40.1133 15.0614 39.4888C15.2263 38.987 15.4267 38.4927 15.6045 38.0541C15.6482 37.9462 15.6906 37.8416 15.7307 37.7412C16.3699 36.1417 17.3219 34.534 18.2664 33.1115C19.0192 31.9778 19.8692 30.9391 20.7325 29.9202C20.9098 29.711 21.0875 29.5027 21.265 29.2946C21.9536 28.4877 22.6397 27.6836 23.2857 26.8402C23.3284 26.7844 23.4074 26.7745 23.462 26.8181C23.5167 26.8618 23.5263 26.9424 23.4836 26.9981C22.8331 27.8475 22.1414 28.6581 21.4523 29.4656C21.2753 29.6731 21.0984 29.8803 20.9225 30.088C20.0603 31.1055 19.2184 32.1348 18.4743 33.2554C17.5338 34.6719 16.5928 36.2627 15.9633 37.838C15.9222 37.9408 15.8792 38.0469 15.8351 38.1559C15.6575 38.5939 15.4614 39.0778 15.2995 39.5704C15.0971 40.1861 14.953 40.8018 14.9646 41.3414C14.9715 41.663 15.0244 42.1273 15.1804 42.4868C15.2581 42.6658 15.3572 42.8091 15.4797 42.8989C15.5984 42.986 15.7475 43.0292 15.9435 42.9952C16.1539 42.9586 16.3713 42.8358 16.594 42.6795C16.693 42.6101 16.7899 42.5363 16.8861 42.463C16.8972 42.4545 16.9083 42.4461 16.9194 42.4377Z" fill="black"/>
<path fill-rule="evenodd" clip-rule="evenodd" d="M28.4522 42.698C28.5909 42.698 28.7034 42.8128 28.7034 42.9545V45.006C28.7034 45.1477 28.5909 45.2625 28.4522 45.2625C28.3135 45.2625 28.201 45.1477 28.201 45.006V42.9545C28.201 42.8128 28.3135 42.698 28.4522 42.698Z" fill="black"/>
<path fill-rule="evenodd" clip-rule="evenodd" d="M19.6627 41.4491C19.7834 41.3793 19.9366 41.4226 20.005 41.5458C20.2657 42.0155 20.5145 42.4889 20.7617 42.962C20.8269 43.087 20.7806 43.2423 20.6582 43.309C20.5358 43.3756 20.3837 43.3284 20.3184 43.2034C20.0714 42.7304 19.8252 42.2622 19.568 41.7987C19.4996 41.6755 19.542 41.519 19.6627 41.4491Z" fill="black"/>
<path fill-rule="evenodd" clip-rule="evenodd" d="M18.8267 43.0963C18.9581 43.0508 19.1007 43.1226 19.1453 43.2568C19.4706 44.2358 19.7823 45.2136 20.0302 46.2261C20.0639 46.3635 19.982 46.5027 19.8474 46.5371C19.7129 46.5714 19.5765 46.4879 19.5428 46.3505C19.3002 45.3594 18.994 44.398 18.6695 43.4216C18.625 43.2874 18.6953 43.1418 18.8267 43.0963Z" fill="black"/>
<path fill-rule="evenodd" clip-rule="evenodd" d="M15.1363 38.1681C15.1591 38.3078 15.0667 38.4399 14.9299 38.4632C13.5525 38.6976 12.6854 39.5135 11.6424 40.4948C11.568 40.5649 11.4927 40.6357 11.4162 40.7073C11.3139 40.803 11.1551 40.7959 11.0613 40.6915C10.9676 40.5871 10.9745 40.4249 11.0768 40.3292C11.1583 40.2529 11.2391 40.1767 11.3197 40.1007C12.3431 39.1357 13.3165 38.2178 14.8473 37.9573C14.9841 37.934 15.1135 38.0284 15.1363 38.1681Z" fill="black"/>
<path fill-rule="evenodd" clip-rule="evenodd" d="M13.3757 40.9764C13.4053 41.1147 13.3195 41.2514 13.184 41.2817C12.022 41.5412 11.2063 42.2893 10.2851 43.1442C10.1825 43.2395 10.0236 43.2318 9.93033 43.127C9.83701 43.0222 9.84458 42.86 9.94722 42.7647L9.96155 42.7514C10.8635 41.9142 11.7706 41.0723 13.0766 40.7806C13.2122 40.7504 13.3461 40.838 13.3757 40.9764Z" fill="black"/>
<path fill-rule="evenodd" clip-rule="evenodd" d="M15.087 46.0394C15.2139 45.9428 15.3434 45.8453 15.4689 45.7628C16.3681 45.1718 17.0665 44.4457 17.7304 43.5687C20.8374 39.4642 23.6637 34.3736 24.6751 29.2919C24.7027 29.1531 24.8353 29.0634 24.9713 29.0916C25.1072 29.1198 25.195 29.2552 25.1674 29.394C24.135 34.5815 21.2605 39.744 18.1279 43.8823C17.4406 44.7903 16.7018 45.5624 15.7409 46.1941C15.6318 46.2658 15.5152 46.3533 15.3872 46.4507C15.374 46.4607 15.3607 46.4708 15.3473 46.481C15.2327 46.5683 15.1102 46.6616 14.9848 46.7496C14.7087 46.9433 14.3878 47.1346 14.0452 47.1942C13.7089 47.2526 13.4207 47.1786 13.1876 47.0077C12.962 46.8423 12.8056 46.5995 12.6959 46.3467C12.4777 45.8439 12.4118 45.2247 12.403 44.817C12.3875 44.0989 12.5779 43.3071 12.8251 42.5552C13.024 41.9502 13.2658 41.3536 13.4789 40.8278C13.5312 40.6989 13.5817 40.5742 13.6295 40.4547C14.3993 38.5284 15.5447 36.5949 16.6781 34.8878C17.5837 33.5239 18.6056 32.2754 19.6406 31.0538C19.8536 30.8025 20.0669 30.5525 20.2799 30.3028C21.1049 29.336 21.9249 28.3751 22.6972 27.3667C22.7826 27.2551 22.9405 27.2354 23.0498 27.3226C23.1591 27.4098 23.1784 27.571 23.0929 27.6826C22.3116 28.7028 21.4804 29.6769 20.6543 30.6448C20.4424 30.8932 20.2309 31.1411 20.0206 31.3893C18.9878 32.6082 17.9821 33.8379 17.0939 35.1756C15.9685 36.8707 14.8452 38.7702 14.0946 40.6485C14.045 40.7725 13.9932 40.9003 13.9402 41.0313C13.7275 41.556 13.4942 42.1318 13.3014 42.7184C13.06 43.4527 12.8917 44.1771 12.9052 44.8057C12.9134 45.1855 12.9761 45.7263 13.1552 46.139C13.2441 46.344 13.3535 46.4979 13.4806 46.5911C13.6001 46.6787 13.7513 46.725 13.9608 46.6886C14.1902 46.6487 14.4356 46.5126 14.7002 46.3269C14.8171 46.2449 14.9316 46.1577 15.0472 46.0697C15.0605 46.0596 15.0738 46.0495 15.087 46.0394Z" fill="black"/>
<path fill-rule="evenodd" clip-rule="evenodd" d="M3.60363 29.8019C3.75555 29.8471 3.90982 29.8938 4.04993 29.9463C5.05388 30.3225 6.04235 30.4538 7.12789 30.466C12.1944 30.5228 18.6035 29.196 23.1946 26.9518C23.3197 26.8907 23.4697 26.9447 23.5296 27.0724C23.5895 27.2001 23.5366 27.3533 23.4115 27.4144C18.745 29.6955 12.2589 31.0365 7.12237 30.9788C5.99851 30.9662 4.94973 30.8298 3.87684 30.4278C3.75504 30.3821 3.61641 30.3399 3.46309 30.2943C3.44731 30.2896 3.43137 30.2849 3.4153 30.2801C3.27808 30.2394 3.1313 30.1958 2.98696 30.1467C2.66911 30.0386 2.32621 29.8925 2.07311 29.6493C1.82469 29.4106 1.70884 29.1312 1.70189 28.8382C1.69517 28.5548 1.79061 28.281 1.92205 28.0393C2.18351 27.5584 2.62765 27.1315 2.941 26.8786C3.49293 26.4331 4.22646 26.111 4.96312 25.8591C5.55581 25.6564 6.16785 25.4938 6.70722 25.3504C6.83946 25.3153 6.96734 25.2813 7.08949 25.2482C9.05901 24.7141 11.2605 24.4817 13.2779 24.376C14.8896 24.2916 16.4814 24.3715 18.0599 24.4783C18.3847 24.5003 18.7087 24.5234 19.0321 24.5464C20.285 24.6357 21.5303 24.7244 22.784 24.7457C22.9227 24.7481 23.0332 24.8648 23.0309 25.0064C23.0286 25.148 22.9143 25.2609 22.7756 25.2586C21.5073 25.237 20.245 25.147 18.9906 25.0576C18.6688 25.0347 18.3475 25.0118 18.0267 24.9901C16.4516 24.8835 14.8844 24.8054 13.3036 24.8882C11.3004 24.9932 9.13881 25.2231 7.21845 25.7439C7.09167 25.7783 6.96055 25.8131 6.82618 25.8488C6.28792 25.9919 5.69729 26.1489 5.12267 26.3454C4.40324 26.5914 3.73566 26.891 3.25255 27.2809C2.96066 27.5165 2.57584 27.8936 2.36127 28.2882C2.25468 28.4843 2.20032 28.6661 2.2041 28.8258C2.20766 28.976 2.26262 29.127 2.4174 29.2758C2.58682 29.4386 2.84108 29.5565 3.14571 29.6601C3.28028 29.7059 3.4175 29.7466 3.55595 29.7877C3.57183 29.7925 3.58772 29.7972 3.60363 29.8019Z" fill="black"/>
<path fill-rule="evenodd" clip-rule="evenodd" d="M7.26333 28.9017C7.39033 28.9395 7.51645 28.9777 7.6303 29.0204C8.47958 29.3387 9.3145 29.4491 10.2267 29.4593C14.4733 29.5069 19.2289 28.8669 23.0676 26.9905C23.1302 26.96 23.2052 26.987 23.2351 27.0508C23.2651 27.1147 23.2386 27.1913 23.1761 27.2218C19.2897 29.1215 14.4914 29.7636 10.224 29.7157C9.29258 29.7053 8.42751 29.5923 7.54375 29.2611C7.43906 29.2219 7.32076 29.1859 7.19306 29.148C7.17986 29.144 7.16657 29.1401 7.1532 29.1361C7.03849 29.1021 6.91761 29.0662 6.79879 29.0258C6.53577 28.9363 6.26446 28.8191 6.06725 28.6296C5.87562 28.4454 5.78913 28.2337 5.7839 28.0132C5.77878 27.7974 5.85155 27.5843 5.95707 27.3902C6.16742 27.0033 6.52811 26.6554 6.78599 26.4473C7.23505 26.0848 7.83611 25.8198 8.44794 25.6106C8.93949 25.4425 9.44662 25.3077 9.89654 25.1882C10.0072 25.1588 10.1145 25.1303 10.2172 25.1024C11.8524 24.659 13.6828 24.4655 15.3638 24.3774C16.7036 24.3072 18.0278 24.3736 19.3444 24.4627C19.6148 24.481 19.8847 24.5002 20.1543 24.5194C21.2001 24.5939 22.242 24.6682 23.2906 24.686C23.3599 24.6872 23.4152 24.7456 23.414 24.8164C23.4129 24.8872 23.3557 24.9436 23.2864 24.9424C22.2305 24.9245 21.18 24.8496 20.1335 24.775C19.8647 24.7559 19.5961 24.7367 19.3278 24.7186C18.0129 24.6296 16.701 24.5641 15.3767 24.6335C13.7028 24.7212 11.8923 24.9135 10.2817 25.3503C10.1767 25.3788 10.0678 25.4077 9.956 25.4374C9.50665 25.5568 9.01022 25.6888 8.52771 25.8538C7.9245 26.06 7.35641 26.3138 6.94177 26.6485C6.69461 26.848 6.36358 27.1709 6.17668 27.5147C6.08359 27.6859 6.03135 27.853 6.03501 28.007C6.03854 28.1561 6.09459 28.3037 6.2394 28.4428C6.39476 28.5921 6.62176 28.6953 6.87817 28.7825C6.99209 28.8212 7.10819 28.8557 7.2235 28.8899C7.23679 28.8939 7.25007 28.8978 7.26333 28.9017Z" fill="black"/>
<path fill-rule="evenodd" clip-rule="evenodd" d="M11.1594 13.4764C11.213 13.5999 11.2657 13.723 11.3071 13.8393C11.6165 14.7073 12.0721 15.4301 12.6527 16.1486C15.3551 19.4932 18.9006 22.7918 22.7805 24.5777C22.8437 24.6068 22.8719 24.6827 22.8434 24.7473C22.8149 24.8118 22.7405 24.8406 22.6773 24.8115C18.7492 23.0034 15.1747 19.6729 12.4589 16.3117C11.8662 15.5782 11.393 14.8302 11.0711 13.927C11.033 13.82 10.9836 13.7045 10.9297 13.5803C10.9242 13.5675 10.9185 13.5546 10.9129 13.5416C10.8644 13.4301 10.8133 13.3126 10.767 13.1939C10.6644 12.9309 10.5772 12.6436 10.5919 12.3675C10.6062 12.0992 10.7089 11.8953 10.8707 11.749C11.029 11.6058 11.2354 11.5252 11.4488 11.4824C11.874 11.3971 12.367 11.4543 12.6892 11.5213C13.25 11.6381 13.836 11.9363 14.3872 12.2788C14.8299 12.5541 15.2578 12.8629 15.6374 13.1369C15.7308 13.2044 15.8213 13.2697 15.9084 13.3319C17.2948 14.3221 18.6198 15.6257 19.7696 16.8808C20.6861 17.8811 21.4901 18.9573 22.2724 20.0422C22.433 20.265 22.5926 20.488 22.7521 20.7108C23.3706 21.575 23.9869 22.436 24.6496 23.2658C24.6934 23.3206 24.6854 23.4014 24.6316 23.4462C24.5779 23.4909 24.4988 23.4827 24.4549 23.4278C23.7876 22.5922 23.1663 21.7242 22.5474 20.8594C22.3884 20.6373 22.2295 20.4153 22.0701 20.1942C21.2889 19.1107 20.492 18.0447 19.5862 17.056C18.4412 15.8062 17.1299 14.5173 15.7644 13.542C15.6754 13.4784 15.5835 13.4121 15.4892 13.344C15.11 13.0704 14.6912 12.768 14.2565 12.4979C13.7132 12.1601 13.1569 11.8804 12.639 11.7726C12.3303 11.7084 11.875 11.6583 11.4972 11.7341C11.309 11.7718 11.1502 11.8388 11.0373 11.9409C10.9279 12.0399 10.8535 12.1787 10.8427 12.3815C10.8311 12.599 10.9003 12.8426 11.0003 13.0989C11.0448 13.2128 11.0938 13.3256 11.1425 13.4377C11.1482 13.4506 11.1538 13.4635 11.1594 13.4764Z" fill="black"/>
<path fill-rule="evenodd" clip-rule="evenodd" d="M8.33644 11.3734C8.40056 11.5211 8.46508 11.6716 8.51611 11.8148C8.88177 12.8409 9.42082 13.6969 10.1116 14.5519C13.3449 18.5535 17.5821 22.4937 22.2124 24.625C22.3389 24.6832 22.3952 24.835 22.3382 24.9642C22.2812 25.0933 22.1324 25.1508 22.006 25.0925C17.2793 22.917 12.984 18.9129 9.72412 14.8783C9.00891 13.9931 8.43481 13.0867 8.04403 11.9902C7.99967 11.8657 7.94188 11.7303 7.87717 11.5813C7.87051 11.5659 7.86378 11.5504 7.857 11.5348C7.79901 11.4015 7.737 11.2588 7.68067 11.1145C7.55665 10.7968 7.44498 10.435 7.46387 10.0806C7.48241 9.73284 7.61689 9.46227 7.83173 9.26797C8.03956 9.08 8.30609 8.97793 8.57181 8.92464C9.10043 8.81862 9.70641 8.88996 10.0978 8.97142C10.7872 9.1149 11.5013 9.47964 12.1649 9.89211C12.6988 10.224 13.2152 10.5967 13.6703 10.9252C13.7819 11.0058 13.8897 11.0837 13.9933 11.1576C15.6631 12.3503 17.2565 13.9184 18.6364 15.4246C19.7389 16.628 20.7053 17.9218 21.6432 19.2225C21.8362 19.4901 22.0278 19.7578 22.2191 20.0251C22.9601 21.0604 23.6966 22.0895 24.489 23.0815C24.5766 23.1913 24.5605 23.3528 24.453 23.4423C24.3455 23.5319 24.1873 23.5154 24.0996 23.4057C23.298 22.402 22.5515 21.3589 21.8096 20.3223C21.6192 20.0564 21.4292 19.7909 21.2387 19.5266C20.3028 18.2287 19.3508 16.9552 18.2695 15.775C16.8993 14.2794 15.3334 12.7408 13.7053 11.5779C13.5978 11.5011 13.4872 11.4213 13.3738 11.3394C12.9197 11.0116 12.4213 10.6519 11.9037 10.3302C11.2556 9.92738 10.6009 9.59957 9.99746 9.47397C9.63287 9.39809 9.10247 9.3409 8.66865 9.42791C8.45316 9.47113 8.28195 9.54596 8.16483 9.65189C8.05472 9.75148 7.97704 9.89179 7.96549 10.1085C7.95284 10.3456 8.02848 10.6201 8.14734 10.9247C8.19984 11.0592 8.25781 11.1925 8.3163 11.3271C8.32301 11.3425 8.32973 11.358 8.33644 11.3734Z" fill="black"/>
<path fill-rule="evenodd" clip-rule="evenodd" d="M22.2918 7.49587C22.259 7.6267 22.2257 7.75665 22.1877 7.87422C21.904 8.75128 21.8233 9.60687 21.8432 10.5381C21.9358 14.8729 22.7183 19.7046 24.681 23.5602C24.713 23.623 24.689 23.7004 24.6275 23.7331C24.5659 23.7657 24.4901 23.7413 24.4581 23.6784C22.471 19.775 21.6851 14.8998 21.5921 10.5437C21.5717 9.5929 21.654 8.70646 21.9492 7.7938C21.9842 7.68568 22.0155 7.56379 22.0485 7.43224C22.0519 7.41864 22.0553 7.40495 22.0588 7.39117C22.0884 7.27301 22.1195 7.14848 22.1552 7.02592C22.2341 6.75459 22.34 6.4739 22.5191 6.26645C22.693 6.06487 22.8974 5.96967 23.1132 5.9571C23.3243 5.9448 23.5353 6.01207 23.7287 6.11338C24.1143 6.31533 24.4667 6.67198 24.6789 6.92831C25.0485 7.37464 25.3276 7.97929 25.5525 8.59676C25.7332 9.09283 25.8817 9.6059 26.0135 10.0611C26.0459 10.1731 26.0774 10.2816 26.108 10.3855C26.5957 12.0396 26.8451 13.9009 26.9865 15.6134C27.0996 16.9837 26.9829 18.3178 26.8449 19.6399C26.8297 19.7851 26.8143 19.9301 26.7989 20.075C26.6738 21.2529 26.5494 22.4231 26.5683 23.6172C26.5694 23.688 26.5141 23.7463 26.4448 23.7475C26.3754 23.7486 26.3183 23.6922 26.3172 23.6214C26.298 22.4102 26.4242 21.2235 26.5492 20.0476C26.5646 19.9025 26.58 19.7575 26.5951 19.6128C26.7331 18.2912 26.8471 16.9785 26.7362 15.635C26.5954 13.9297 26.3479 12.0886 25.8675 10.4594C25.8362 10.3532 25.8043 10.243 25.7715 10.1299C25.6399 9.67531 25.4944 9.17308 25.3171 8.68613C25.0954 8.07736 24.8283 7.50599 24.4871 7.09386C24.2837 6.8482 23.9567 6.521 23.6141 6.34156C23.4434 6.25217 23.2781 6.20435 23.1275 6.21313C22.9816 6.22163 22.839 6.28365 22.7075 6.43599C22.5665 6.59942 22.4729 6.83443 22.396 7.09893C22.3618 7.21645 22.3319 7.33605 22.3021 7.45484C22.2987 7.46853 22.2953 7.48221 22.2918 7.49587Z" fill="black"/>
<path fill-rule="evenodd" clip-rule="evenodd" d="M21.683 4.27354C21.6437 4.43004 21.603 4.589 21.5562 4.73369C21.2209 5.77046 21.1247 6.78343 21.1484 7.89153C21.2592 13.0777 22.1956 18.8506 24.5379 23.4519C24.6019 23.5775 24.554 23.7324 24.4309 23.7977C24.3078 23.863 24.1561 23.8141 24.0922 23.6884C21.7011 18.9914 20.7579 13.1316 20.6462 7.90271C20.6217 6.75549 20.7208 5.68083 21.0792 4.57284C21.1199 4.44707 21.1567 4.30422 21.1963 4.14628C21.2004 4.13002 21.2045 4.11362 21.2086 4.09707C21.244 3.9557 21.2819 3.80449 21.3252 3.65559C21.4206 3.3277 21.5524 2.97301 21.7822 2.70676C22.0077 2.44545 22.2775 2.31807 22.564 2.30138C22.8412 2.28523 23.1124 2.37363 23.3533 2.49983C23.8327 2.75086 24.2651 3.19007 24.523 3.50152C24.9772 4.05012 25.3166 4.78806 25.5873 5.5315C25.8052 6.12966 25.9845 6.74886 26.1424 7.29454C26.1812 7.42833 26.2186 7.5577 26.2551 7.68126C26.8425 9.67348 27.1421 11.9123 27.3118 13.9674C27.4482 15.6201 27.3073 17.2276 27.1419 18.8122C27.1237 18.9864 27.1052 19.1602 27.0868 19.3337C26.9368 20.746 26.7885 22.1418 26.811 23.566C26.8132 23.7076 26.7026 23.8243 26.5639 23.8265C26.4252 23.8288 26.3109 23.7159 26.3087 23.5743C26.2856 22.1161 26.4375 20.6873 26.5873 19.2788C26.6058 19.1049 26.6243 18.9312 26.6424 18.7579C26.8077 17.1743 26.9432 15.6099 26.8112 14.0104C26.6427 11.9698 26.3468 9.7716 25.774 7.8291C25.7362 7.70086 25.6978 7.56822 25.6584 7.43227C25.5007 6.88771 25.3277 6.29017 25.1165 5.71025C24.8521 4.9842 24.5369 4.31282 24.1393 3.83263C23.8991 3.5425 23.5174 3.1622 23.124 2.95618C22.9286 2.85384 22.7488 2.80433 22.5926 2.81343C22.4457 2.82199 22.2996 2.88302 22.1591 3.04584C22.0053 3.22405 21.8982 3.48738 21.8067 3.80162C21.7664 3.94043 21.731 4.08178 21.6953 4.22441C21.6912 4.24077 21.6871 4.25715 21.683 4.27354Z" fill="black"/>
<path fill-rule="evenodd" clip-rule="evenodd" d="M28.5334 25.0221C28.5579 24.9971 28.5977 24.9971 28.6222 25.0221C28.6371 25.0373 28.6596 25.0637 28.6847 25.0929C28.6903 25.0995 28.6961 25.1062 28.7019 25.113C28.7349 25.1514 28.7726 25.1947 28.8101 25.2335C28.8483 25.273 28.883 25.3046 28.9101 25.3222C28.9169 25.3266 28.9221 25.3293 28.9258 25.331C28.9494 25.3186 28.9791 25.3225 28.999 25.3427C29.0235 25.3677 29.0235 25.4083 28.999 25.4334C28.9722 25.4607 28.9381 25.4647 28.9108 25.4599C28.8858 25.4554 28.8623 25.4431 28.8428 25.4304C28.8031 25.4047 28.7601 25.3643 28.7207 25.3235C28.6805 25.2818 28.6407 25.2362 28.6075 25.1976C28.6008 25.1898 28.5945 25.1824 28.5885 25.1755C28.5636 25.1464 28.545 25.1246 28.5334 25.1128C28.5089 25.0878 28.5089 25.0472 28.5334 25.0221Z" fill="black"/>
<path fill-rule="evenodd" clip-rule="evenodd" d="M29.173 24.4998C29.2026 24.4814 29.2413 24.491 29.2593 24.5212C29.2668 24.5337 29.2786 24.5566 29.2921 24.583C29.2996 24.5975 29.3076 24.6131 29.3157 24.6286C29.3401 24.6752 29.3687 24.727 29.398 24.7707C29.425 24.811 29.4474 24.8363 29.4629 24.8478C29.4631 24.8474 29.4633 24.8469 29.4635 24.8465C29.479 24.8148 29.5167 24.8019 29.5478 24.8178C29.5788 24.8336 29.5914 24.8721 29.5758 24.9038C29.5614 24.9333 29.5392 24.9619 29.5048 24.9748C29.4691 24.9881 29.4355 24.9789 29.4109 24.9655C29.3657 24.9411 29.3256 24.8897 29.2944 24.8431C29.2612 24.7935 29.23 24.7368 29.205 24.6892C29.1942 24.6686 29.185 24.6506 29.1772 24.6354C29.1659 24.6133 29.1576 24.5972 29.1521 24.5879C29.134 24.5577 29.1434 24.5183 29.173 24.4998Z" fill="black"/>
<path fill-rule="evenodd" clip-rule="evenodd" d="M29.8736 24.1743C29.9059 24.1614 29.9423 24.1777 29.9549 24.2107C29.9678 24.2444 29.979 24.2827 29.9896 24.3192L29.9897 24.3197C30.0007 24.3573 30.0114 24.3939 30.0238 24.4282C30.05 24.5 30.0784 24.5437 30.1129 24.5613C30.1439 24.5772 30.1565 24.6157 30.141 24.6474C30.1255 24.679 30.0878 24.6919 30.0567 24.676C29.9757 24.6347 29.9335 24.5478 29.9062 24.4729C29.8922 24.4346 29.8805 24.3945 29.87 24.3583L29.8694 24.3562C29.8583 24.3183 29.8486 24.2852 29.8379 24.2573C29.8253 24.2243 29.8413 24.1872 29.8736 24.1743Z" fill="black"/>
<path fill-rule="evenodd" clip-rule="evenodd" d="M30.3698 23.7925C30.4005 23.7761 30.4385 23.7883 30.4545 23.8197C30.4589 23.8283 30.4654 23.8421 30.4737 23.8593C30.5007 23.9162 30.5457 24.0106 30.5894 24.0805C30.59 24.0815 30.5906 24.0824 30.5911 24.0833C30.6001 24.059 30.623 24.0417 30.65 24.0417C30.6846 24.0417 30.7128 24.0704 30.7128 24.1058C30.7128 24.1452 30.7095 24.1811 30.6987 24.2084C30.6931 24.2226 30.6831 24.2406 30.6646 24.2534C30.644 24.2676 30.6209 24.2697 30.6013 24.2651C30.5837 24.261 30.5697 24.252 30.5599 24.2443C30.5497 24.2363 30.5403 24.2267 30.532 24.2172C30.5154 24.1981 30.499 24.1742 30.4835 24.1494C30.4349 24.0717 30.3827 23.9619 30.357 23.9077C30.3505 23.8942 30.3458 23.8842 30.3431 23.879C30.3271 23.8476 30.339 23.8088 30.3698 23.7925ZM30.6373 24.1432C30.6373 24.1432 30.6372 24.1432 30.637 24.143Z" fill="black"/>
<path fill-rule="evenodd" clip-rule="evenodd" d="M30.9935 23.6026C31.0229 23.5839 31.0616 23.593 31.08 23.623C31.0877 23.6356 31.099 23.6572 31.1114 23.6809C31.1169 23.6913 31.1226 23.7021 31.1283 23.7127C31.1482 23.7501 31.1708 23.7906 31.1936 23.8243C31.2085 23.8465 31.2211 23.8618 31.2305 23.8714C31.2488 23.8498 31.2798 23.8427 31.306 23.8561C31.337 23.872 31.3496 23.9105 31.3341 23.9421C31.322 23.9668 31.3027 23.9926 31.2714 24.0045C31.2388 24.017 31.2083 24.0086 31.1868 23.9971C31.148 23.9764 31.1149 23.9336 31.0902 23.8971C31.0635 23.8576 31.0383 23.8122 31.018 23.7741C31.0102 23.7595 31.0034 23.7465 30.9974 23.7351C30.9868 23.7148 30.979 23.6999 30.9735 23.691C30.9551 23.661 30.9641 23.6214 30.9935 23.6026ZM31.219 23.8897C31.2188 23.8899 31.2188 23.89 31.2188 23.89C31.2188 23.8899 31.2188 23.8899 31.219 23.8897Z" fill="black"/>
<path fill-rule="evenodd" clip-rule="evenodd" d="M31.8052 23.093C31.8328 23.0716 31.8722 23.0772 31.8932 23.1054C31.912 23.1307 31.9332 23.1658 31.9541 23.2005C31.9562 23.2038 31.9582 23.2072 31.9602 23.2105C31.9841 23.25 32.0089 23.2903 32.0345 23.3254C32.0607 23.3614 32.0842 23.3867 32.1039 23.3999C32.1212 23.4115 32.1266 23.4086 32.1287 23.4075C32.1288 23.4074 32.1289 23.4074 32.129 23.4073C32.16 23.3915 32.1978 23.4043 32.2133 23.436C32.2288 23.4677 32.2162 23.5062 32.1852 23.522C32.1292 23.5506 32.0752 23.5341 32.0349 23.5071C31.9964 23.4812 31.9623 23.4412 31.9337 23.402C31.9045 23.3619 31.8771 23.3171 31.8534 23.278C31.8517 23.2752 31.85 23.2724 31.8484 23.2697C31.826 23.2328 31.808 23.203 31.7931 23.1828C31.7721 23.1546 31.7776 23.1144 31.8052 23.093Z" fill="black"/>
<path fill-rule="evenodd" clip-rule="evenodd" d="M32.3068 22.8372C32.3341 22.8154 32.3736 22.8203 32.3949 22.8482C32.4099 22.8678 32.425 22.8889 32.4393 22.9089C32.4466 22.9191 32.4537 22.929 32.4604 22.9383C32.4815 22.9671 32.5013 22.9926 32.5222 23.0142C32.5628 23.0561 32.604 23.08 32.6594 23.08C32.6941 23.08 32.7222 23.1087 32.7222 23.1441C32.7222 23.1795 32.6941 23.2082 32.6594 23.2082C32.5599 23.2082 32.4884 23.1617 32.4329 23.1043C32.4057 23.0763 32.3816 23.0449 32.3597 23.0148C32.3514 23.0034 32.3436 22.9925 32.336 22.9819C32.3226 22.9631 32.3098 22.9452 32.296 22.9272C32.2746 22.8993 32.2795 22.859 32.3068 22.8372Z" fill="black"/>
<path fill-rule="evenodd" clip-rule="evenodd" d="M32.9498 22.3154C32.982 22.3021 33.0186 22.3179 33.0316 22.3507C33.0396 22.371 33.1171 22.5502 33.1919 22.6889C33.2101 22.7224 33.2276 22.7528 33.2436 22.7776C33.2549 22.7664 33.2703 22.7595 33.2873 22.7595C33.322 22.7595 33.3501 22.7882 33.3501 22.8236C33.3501 22.8433 33.3489 22.8619 33.3454 22.8783C33.3422 22.8931 33.3354 22.9153 33.3176 22.9324C33.295 22.9541 33.2663 22.9574 33.2428 22.9507C33.2236 22.9451 33.2086 22.9334 33.1989 22.9245C33.1786 22.906 33.1586 22.8787 33.1403 22.8506C33.1213 22.8214 33.1015 22.787 33.082 22.7508C33.0043 22.6069 32.9247 22.423 32.9152 22.3989C32.9021 22.366 32.9177 22.3287 32.9498 22.3154ZM33.2222 22.853C33.2222 22.8529 33.2222 22.8526 33.2224 22.8521C33.2223 22.8527 33.2222 22.853 33.2222 22.853ZM33.2844 22.8305C33.2847 22.8306 33.2848 22.8307 33.2848 22.8307Z" fill="black"/>
<path fill-rule="evenodd" clip-rule="evenodd" d="M33.3757 22.1308C33.4036 22.1098 33.4429 22.1159 33.4635 22.1444C33.4892 22.18 33.5159 22.2221 33.5425 22.2641C33.55 22.276 33.5575 22.2878 33.565 22.2995C33.5999 22.3541 33.6354 22.4074 33.6733 22.4529C33.7513 22.5469 33.8225 22.5888 33.9001 22.569C33.9337 22.5605 33.9678 22.5813 33.9762 22.6157C33.9846 22.65 33.9642 22.6849 33.9305 22.6934C33.7785 22.7322 33.6617 22.6372 33.5775 22.5359C33.5342 22.4838 33.4951 22.4248 33.4598 22.3696C33.4515 22.3566 33.4434 22.3439 33.4356 22.3315C33.4094 22.2902 33.3856 22.2526 33.3624 22.2205C33.3418 22.192 33.3478 22.1519 33.3757 22.1308Z" fill="black"/>
<path fill-rule="evenodd" clip-rule="evenodd" d="M34.2553 30.646C34.2895 30.6518 34.3126 30.6848 34.3069 30.7198C34.2873 30.8398 34.2636 30.9842 34.2173 31.1071C34.2173 31.1071 34.2173 31.1071 34.2172 31.1072C34.2171 31.1076 34.2165 31.1096 34.2155 31.1135C34.2145 31.1178 34.2133 31.1232 34.2122 31.1292C34.2121 31.1294 34.2121 31.1297 34.212 31.1299C34.2318 31.1511 34.2353 31.1842 34.2188 31.2096C34.2133 31.218 34.204 31.2311 34.1905 31.2405C34.1834 31.2455 34.1696 31.2534 34.1509 31.2533C34.1293 31.2532 34.1121 31.2428 34.1013 31.2305C34.092 31.2199 34.088 31.2087 34.0861 31.2025C34.0841 31.1956 34.0831 31.1892 34.0826 31.1844C34.0816 31.1747 34.0818 31.1649 34.0822 31.1566C34.0832 31.1397 34.0859 31.121 34.0888 31.1052C34.0916 31.0904 34.0955 31.0732 34.1 31.0611C34.141 30.9525 34.163 30.8213 34.1831 30.6987C34.1888 30.6638 34.2211 30.6402 34.2553 30.646ZM34.1123 31.1413C34.1123 31.1413 34.1124 31.1411 34.1126 31.1408C34.1124 31.1412 34.1123 31.1413 34.1123 31.1413Z" fill="black"/>
<path fill-rule="evenodd" clip-rule="evenodd" d="M34.6868 30.744C34.7201 30.7541 34.739 30.7898 34.729 30.8238C34.6808 30.9884 34.6405 31.1412 34.6375 31.3035C34.6372 31.3197 34.6328 31.3626 34.6287 31.3889C34.6276 31.3956 34.6263 31.4031 34.6248 31.4096C34.6241 31.4123 34.6227 31.4179 34.6201 31.4239C34.6191 31.4263 34.616 31.4335 34.6098 31.4409C34.6055 31.4461 34.5838 31.4701 34.5484 31.4625C34.5186 31.456 34.5067 31.4319 34.5048 31.4282L34.5048 31.428C34.5013 31.421 34.4998 31.4147 34.4992 31.4121C34.4979 31.4062 34.4973 31.4005 34.497 31.3969C34.4964 31.389 34.4962 31.3787 34.4962 31.3664C34.4962 31.3513 34.5013 31.3374 34.5098 31.3264C34.511 31.3146 34.5118 31.3047 34.5119 31.301C34.5153 31.1196 34.5604 30.9519 34.6087 30.787C34.6186 30.7531 34.6536 30.7338 34.6868 30.744ZM34.5029 31.3786C34.5028 31.3789 34.5028 31.3788 34.5029 31.3784Z" fill="black"/>
<path fill-rule="evenodd" clip-rule="evenodd" d="M35.1248 30.9359C35.1583 30.9451 35.1781 30.9804 35.169 31.0145C35.1354 31.1411 35.1191 31.2719 35.1024 31.4063C35.0988 31.4354 35.0951 31.4647 35.0913 31.4942C35.0907 31.4987 35.0902 31.5033 35.0899 31.5077C35.0917 31.5137 35.0927 31.5201 35.0927 31.5267C35.0927 31.5404 35.0925 31.5558 35.0904 31.5663C35.09 31.5682 35.0891 31.5723 35.0874 31.5771C35.0865 31.5795 35.0848 31.5836 35.082 31.5882C35.0796 31.5923 35.0738 31.6011 35.063 31.6084C35.0502 31.617 35.0318 31.6223 35.0119 31.6168C34.9949 31.6122 34.9848 31.6017 34.9804 31.5965C34.9724 31.587 34.9692 31.5773 34.9685 31.5752C34.9685 31.5752 34.9685 31.5751 34.9685 31.5751C34.9655 31.5661 34.9647 31.5569 34.9645 31.5544C34.9645 31.5543 34.9645 31.5542 34.9644 31.5541C34.963 31.5377 34.9629 31.5071 34.9668 31.4772C34.9704 31.4496 34.9739 31.4215 34.9774 31.3931C34.9941 31.2584 35.0117 31.1169 35.0478 30.981C35.0569 30.9468 35.0913 30.9266 35.1248 30.9359ZM35.0897 31.544C35.0897 31.544 35.0896 31.5436 35.0896 31.5428C35.0897 31.5435 35.0897 31.5439 35.0897 31.544Z" fill="black"/>
<path fill-rule="evenodd" clip-rule="evenodd" d="M35.5575 31.0626C35.5918 31.0679 35.6153 31.1006 35.6101 31.1356C35.5969 31.2241 35.5809 31.3899 35.5667 31.5372C35.5642 31.5634 35.5617 31.589 35.5593 31.6135C35.5516 31.6931 35.5446 31.7618 35.5394 31.7971C35.5382 31.8056 35.5367 31.8147 35.5349 31.822C35.5349 31.822 35.5348 31.8221 35.5348 31.8222C35.5343 31.8243 35.5319 31.8342 35.5261 31.8438C35.5242 31.8469 35.5203 31.8528 35.5138 31.8586C35.5074 31.8644 35.4945 31.8734 35.4758 31.8746C35.435 31.877 35.4176 31.843 35.416 31.84L35.416 31.8399C35.412 31.8321 35.4104 31.8251 35.4098 31.8227C35.4091 31.8194 35.4087 31.8163 35.4084 31.8142C35.4078 31.8098 35.4075 31.8052 35.4073 31.8009C35.4069 31.7923 35.4067 31.7809 35.4067 31.7671C35.4067 31.7512 35.4123 31.7368 35.4216 31.7256C35.4253 31.6923 35.4296 31.6494 35.4343 31.6008C35.4367 31.5768 35.4391 31.5516 35.4416 31.5257C35.4557 31.3789 35.4721 31.2086 35.4859 31.1163C35.4912 31.0813 35.5232 31.0572 35.5575 31.0626Z" fill="black"/>
<path fill-rule="evenodd" clip-rule="evenodd" d="M36.2138 31.2385C36.2483 31.2422 36.2734 31.2738 36.2697 31.309C36.2613 31.3905 36.2569 31.4722 36.2523 31.5557C36.2514 31.5727 36.2505 31.5897 36.2495 31.6068C36.2438 31.7074 36.2369 31.8103 36.2214 31.9131C36.2204 31.9192 36.2192 31.9264 36.2179 31.9342C36.2234 31.9473 36.2247 31.9623 36.2206 31.977C36.2165 31.9915 36.2131 32.0028 36.2104 32.0113C36.209 32.0154 36.2076 32.0196 36.206 32.0234C36.206 32.0235 36.206 32.0235 36.2059 32.0236C36.205 32.0259 36.2018 32.0339 36.1962 32.0416C36.1944 32.044 36.1911 32.0483 36.186 32.0526C36.1814 32.0565 36.1711 32.0643 36.1557 32.0669C36.1372 32.07 36.1192 32.0646 36.1058 32.0536C36.0946 32.0444 36.0894 32.0337 36.0873 32.0287C36.0831 32.0188 36.0824 32.0102 36.0822 32.0079L36.0822 32.0078C36.0818 32.0042 36.0818 32.0011 36.0819 31.9991C36.082 31.9921 36.083 31.9839 36.0837 31.978C36.0858 31.9619 36.0904 31.9344 36.0938 31.9146C36.0954 31.9051 36.0967 31.8974 36.0972 31.8936C36.1118 31.7973 36.1185 31.6996 36.1241 31.5995C36.1251 31.5829 36.126 31.5662 36.1269 31.5495C36.1314 31.4659 36.1361 31.3805 36.1448 31.2956C36.1485 31.2604 36.1794 31.2348 36.2138 31.2385Z" fill="black"/>
<path fill-rule="evenodd" clip-rule="evenodd" d="M36.808 31.3857C36.8409 31.3969 36.8587 31.4332 36.8478 31.4668C36.8217 31.5467 36.8208 31.6298 36.8232 31.7234C36.8234 31.7327 36.8237 31.7422 36.824 31.7517C36.8265 31.8352 36.8292 31.9277 36.8104 32.0197C36.8077 32.0328 36.8016 32.0592 36.7963 32.0811C36.7936 32.0921 36.791 32.1026 36.7891 32.1102C36.7881 32.1138 36.7871 32.1175 36.7863 32.1204L36.7862 32.1205C36.786 32.1214 36.7849 32.1249 36.7834 32.1286C36.783 32.1297 36.7818 32.1325 36.7799 32.1358C36.779 32.1374 36.7771 32.1405 36.7743 32.1441C36.7724 32.1465 36.7655 32.1551 36.7534 32.1613C36.7465 32.1647 36.7362 32.1684 36.7233 32.1679C36.7097 32.1675 36.6976 32.1626 36.6881 32.1554C36.6717 32.143 36.6666 32.1267 36.6655 32.1229C36.6625 32.1132 36.6626 32.105 36.6626 32.1038C36.6626 32.1037 36.6626 32.1037 36.6626 32.1037C36.6626 32.0954 36.6641 32.0875 36.6669 32.0803C36.6671 32.0795 36.6674 32.0785 36.6677 32.0773C36.6694 32.0708 36.6718 32.0611 36.6744 32.0504C36.6797 32.0285 36.6853 32.0042 36.6875 31.9935C36.703 31.9172 36.7009 31.8402 36.6984 31.7546C36.6982 31.7454 36.6979 31.7362 36.6977 31.7268C36.6952 31.633 36.6949 31.5296 36.7286 31.4262C36.7396 31.3926 36.7751 31.3745 36.808 31.3857ZM36.788 32.0993C36.7881 32.1007 36.7882 32.1022 36.7882 32.1037C36.7882 32.1036 36.7882 32.1036 36.7882 32.1036C36.7882 32.1031 36.7882 32.1016 36.788 32.0993Z" fill="black"/>
<path fill-rule="evenodd" clip-rule="evenodd" d="M37.402 31.4305C37.4366 31.4314 37.4641 31.4608 37.4632 31.4962C37.4605 31.6077 37.4458 31.7169 37.4316 31.822C37.4308 31.8279 37.43 31.8337 37.4292 31.8396C37.4141 31.9514 37.4004 32.0589 37.4004 32.1678C37.4004 32.1826 37.3969 32.2039 37.3942 32.2194L37.394 32.2206C37.3936 32.2233 37.3931 32.226 37.3927 32.2287C37.3899 32.245 37.3872 32.2612 37.3853 32.2763C37.3849 32.2794 37.3845 32.2823 37.3842 32.2851C37.388 32.2893 37.3912 32.2941 37.3938 32.2994C37.4093 32.3311 37.3967 32.3696 37.3657 32.3854C37.3497 32.3936 37.317 32.4025 37.2874 32.3785C37.2653 32.3606 37.2606 32.3353 37.2592 32.3265C37.2557 32.3046 37.2583 32.2785 37.2607 32.2597C37.263 32.2418 37.2663 32.2225 37.269 32.2065C37.2694 32.2039 37.2699 32.2014 37.2703 32.1989C37.2718 32.1899 37.273 32.1823 37.2739 32.1762C37.2746 32.1712 37.2748 32.1687 37.2748 32.1679C37.2748 32.1676 37.2748 32.1676 37.2748 32.1678C37.2748 32.0489 37.2898 31.9333 37.3048 31.8221C37.3055 31.8169 37.3062 31.8117 37.3069 31.8066C37.3213 31.6997 37.3352 31.5971 37.3377 31.4931C37.3385 31.4577 37.3673 31.4297 37.402 31.4305Z" fill="black"/>
<path fill-rule="evenodd" clip-rule="evenodd" d="M37.8677 31.592C37.9018 31.5988 37.924 31.6324 37.9173 31.6672C37.9174 31.6669 37.9174 31.667 37.9173 31.6677C37.9171 31.6688 37.9168 31.6715 37.9162 31.6764C37.9155 31.6832 37.9145 31.6924 37.9134 31.7039C37.9112 31.7267 37.9083 31.7574 37.9051 31.7936C37.9028 31.8183 37.9003 31.8456 37.8977 31.8744C37.8928 31.9296 37.8873 31.9906 37.8817 32.0509C37.8732 32.1429 37.8644 32.2342 37.8569 32.3027C37.8531 32.3368 37.8496 32.366 37.8464 32.3869C37.8449 32.3972 37.8433 32.4069 37.8415 32.4147C37.8407 32.4181 37.8393 32.4238 37.8371 32.4296C37.8361 32.4321 37.8336 32.4383 37.829 32.445L37.8289 32.4451C37.8265 32.4484 37.8099 32.4723 37.7772 32.4723C37.7425 32.4723 37.7144 32.4436 37.7144 32.4082C37.7144 32.3988 37.7164 32.3899 37.7199 32.3818C37.7205 32.3786 37.7213 32.3739 37.7223 32.3676C37.725 32.3492 37.7283 32.3221 37.7321 32.2883C37.7395 32.2211 37.7482 32.1308 37.7567 32.0389C37.7622 31.9786 37.7677 31.918 37.7727 31.863C37.7753 31.834 37.7777 31.8067 37.78 31.7817C37.7833 31.7456 37.7862 31.7144 37.7885 31.6911C37.7905 31.67 37.7925 31.6508 37.7941 31.6426C37.8007 31.6078 37.8337 31.5852 37.8677 31.592Z" fill="black"/>
<path fill-rule="evenodd" clip-rule="evenodd" d="M33.0766 39.2426C33.0506 39.2612 33.025 39.2795 33.0051 39.2914C32.9752 39.3092 32.9367 39.299 32.9192 39.2684C32.9017 39.2379 32.9117 39.1986 32.9417 39.1807C32.9567 39.1717 32.9765 39.1576 33.0016 39.1397C33.009 39.1344 33.0168 39.1288 33.0251 39.123C33.0599 39.0983 33.1008 39.0702 33.1418 39.0476C33.1813 39.0259 33.2281 39.0052 33.2737 39.0024C33.2975 39.001 33.3238 39.0043 33.3487 39.0176C33.3742 39.0312 33.3934 39.0527 33.4063 39.0791C33.4218 39.1108 33.4093 39.1493 33.3782 39.1651C33.3472 39.181 33.3095 39.1681 33.294 39.1365C33.2925 39.1335 33.2914 39.1321 33.2909 39.1316L33.2906 39.1313L33.2905 39.1312L33.2902 39.1311C33.2899 39.131 33.2894 39.1309 33.2887 39.1307C33.2872 39.1305 33.2848 39.1302 33.2811 39.1304C33.2639 39.1315 33.2371 39.1408 33.2014 39.1605C33.1671 39.1794 33.1311 39.204 33.0967 39.2283C33.09 39.233 33.0833 39.2378 33.0766 39.2426Z" fill="black"/>
<path fill-rule="evenodd" clip-rule="evenodd" d="M33.5352 39.6595C33.5663 39.6754 33.5788 39.7139 33.5633 39.7455C33.5429 39.7873 33.5023 39.7993 33.4827 39.8039C33.472 39.8065 33.4612 39.8081 33.4533 39.8093C33.4528 39.8094 33.4524 39.8095 33.4519 39.8095C33.4426 39.811 33.4375 39.8119 33.4337 39.8128C33.3429 39.8364 33.2768 39.888 33.1907 39.9551C33.1886 39.9568 33.1864 39.9585 33.1842 39.9602C33.1566 39.9816 33.1172 39.9762 33.0962 39.9481C33.0751 39.9199 33.0804 39.8797 33.108 39.8582C33.1122 39.8549 33.1165 39.8516 33.1207 39.8483C33.2018 39.785 33.2865 39.7188 33.4027 39.6886C33.4133 39.6858 33.4245 39.6841 33.4325 39.6829L33.4332 39.6828C33.4425 39.6813 33.4488 39.6803 33.4544 39.679C33.4553 39.6788 33.4562 39.6786 33.4569 39.6784C33.4748 39.654 33.5077 39.6454 33.5352 39.6595Z" fill="black"/>
<path fill-rule="evenodd" clip-rule="evenodd" d="M33.6263 40.1362C33.6213 40.1377 33.6163 40.1393 33.6109 40.1409C33.5612 40.1555 33.5145 40.1783 33.4619 40.204L33.4606 40.2047C33.409 40.2299 33.3517 40.2577 33.2883 40.2756C33.2549 40.285 33.2203 40.2649 33.2111 40.2308C33.2019 40.1966 33.2215 40.1613 33.255 40.1519C33.306 40.1376 33.3537 40.1147 33.4064 40.089C33.4081 40.0882 33.4098 40.0873 33.4115 40.0865C33.4613 40.0622 33.5162 40.0353 33.576 40.0177C33.5791 40.0168 33.5831 40.0156 33.5875 40.0142C33.5968 40.0114 33.6082 40.0079 33.6183 40.0051C33.6333 40.001 33.653 39.9961 33.6711 39.9949C33.6797 39.9944 33.6937 39.9942 33.7083 39.999C33.7247 40.0043 33.748 40.0186 33.7565 40.0489C33.7636 40.0741 33.7557 40.0959 33.7508 40.1067C33.7452 40.1192 33.7372 40.1309 33.7288 40.1416C33.7072 40.1692 33.6677 40.1737 33.6406 40.1516C33.635 40.1471 33.6305 40.1418 33.6269 40.1361C33.6267 40.1361 33.6265 40.1362 33.6263 40.1362ZM33.6797 40.1229C33.6797 40.1229 33.6795 40.1229 33.6792 40.1229C33.6796 40.1228 33.6798 40.1228 33.6797 40.1229Z" fill="black"/>
<path fill-rule="evenodd" clip-rule="evenodd" d="M33.588 40.6172C33.5333 40.6503 33.4694 40.6889 33.3977 40.7084C33.3642 40.7176 33.3298 40.6972 33.3209 40.663C33.3119 40.6288 33.3318 40.5937 33.3654 40.5845C33.4188 40.57 33.4651 40.5422 33.5195 40.5095C33.5314 40.5023 33.5437 40.4949 33.5566 40.4873C33.6247 40.4474 33.7051 40.4061 33.8054 40.4061C33.8401 40.4061 33.8682 40.4348 33.8682 40.4702C33.8682 40.5056 33.8401 40.5343 33.8054 40.5343C33.7399 40.5343 33.6839 40.5606 33.6192 40.5985C33.6092 40.6044 33.5987 40.6107 33.588 40.6172Z" fill="black"/>
<path fill-rule="evenodd" clip-rule="evenodd" d="M24.3246 23.6594C24.358 23.6689 24.3775 23.7043 24.3682 23.7384C24.1348 24.5922 24.0909 25.4619 24.1818 26.343C24.1854 26.3782 24.1604 26.4098 24.1259 26.4135C24.0914 26.4172 24.0605 26.3916 24.0569 26.3564C23.9647 25.4621 24.0089 24.5759 24.2472 23.7039C24.2565 23.6698 24.2912 23.6499 24.3246 23.6594Z" fill="black"/>
<path fill-rule="evenodd" clip-rule="evenodd" d="M24.8729 23.7852C24.9076 23.7852 24.9357 23.814 24.9357 23.8494C24.9357 24.5417 24.9859 25.2048 25.0609 25.8938C25.0648 25.929 25.0399 25.9607 25.0054 25.9646C24.971 25.9685 24.9399 25.9432 24.9361 25.908C24.8608 25.2163 24.8101 24.5481 24.8101 23.8494C24.8101 23.814 24.8382 23.7852 24.8729 23.7852Z" fill="black"/>
<path fill-rule="evenodd" clip-rule="evenodd" d="M25.3125 23.657C25.3472 23.657 25.3753 23.6857 25.3753 23.7211C25.3753 24.3527 25.4236 24.9698 25.4726 25.597C25.4821 25.7176 25.4915 25.8386 25.5007 25.9601C25.5033 25.9954 25.4775 26.0262 25.4429 26.0289C25.4083 26.0317 25.3781 26.0052 25.3755 25.9699C25.3664 25.8492 25.3569 25.7288 25.3475 25.6085C25.2984 24.9813 25.2497 24.3583 25.2497 23.7211C25.2497 23.6857 25.2778 23.657 25.3125 23.657Z" fill="black"/>
<path fill-rule="evenodd" clip-rule="evenodd" d="M25.7512 23.9135C25.7859 23.913 25.8144 23.9413 25.8148 23.9767C25.8245 24.7193 25.8967 25.4237 26.0643 26.1425C26.0723 26.1769 26.0515 26.2115 26.0178 26.2197C25.984 26.2279 25.9502 26.2066 25.9421 26.1722C25.772 25.4427 25.699 24.7287 25.6892 23.9784C25.6888 23.943 25.7165 23.9139 25.7512 23.9135Z" fill="black"/>
<path fill-rule="evenodd" clip-rule="evenodd" d="M26.2527 24.0417C26.2874 24.0408 26.3162 24.0687 26.3172 24.1041C26.3331 24.7216 26.4218 25.3321 26.5112 25.9465C26.5302 26.0777 26.5493 26.209 26.5677 26.3406C26.5726 26.3757 26.5488 26.4081 26.5144 26.4132C26.4801 26.4182 26.4483 26.3938 26.4434 26.3588C26.4252 26.2287 26.4063 26.0984 26.3873 25.9679C26.2979 25.3532 26.2077 24.7335 26.1916 24.1075C26.1907 24.0721 26.2181 24.0426 26.2527 24.0417Z" fill="black"/>
<path fill-rule="evenodd" clip-rule="evenodd" d="M24.6281 23.8497C24.6626 23.8533 24.6877 23.8848 24.6842 23.92C24.598 24.7775 24.6071 25.6421 24.6161 26.5087C24.6189 26.7761 24.6217 27.0437 24.6217 27.3114C24.6217 27.3468 24.5936 27.3755 24.5589 27.3755C24.5242 27.3755 24.4961 27.3468 24.4961 27.3114C24.4961 27.0468 24.4933 26.7813 24.4905 26.515C24.4815 25.647 24.4723 24.7723 24.5592 23.9069C24.5628 23.8717 24.5936 23.8461 24.6281 23.8497Z" fill="black"/>
<path fill-rule="evenodd" clip-rule="evenodd" d="M22.1485 7.31363C22.1805 7.29998 22.2173 7.3154 22.2306 7.34807C22.3633 7.6724 22.5118 7.99086 22.6628 8.30958C22.6859 8.35829 22.709 8.40701 22.7322 8.45576C22.8604 8.72557 22.989 8.99623 23.1091 9.26989C23.1233 9.3022 23.1092 9.34014 23.0775 9.35462C23.0459 9.3691 23.0087 9.35465 22.9945 9.32234C22.8752 9.0506 22.7476 8.78193 22.6194 8.51209C22.5962 8.46325 22.573 8.41437 22.5498 8.36542C22.3986 8.04653 22.2489 7.72533 22.1148 7.39749C22.1014 7.36482 22.1165 7.32727 22.1485 7.31363Z" fill="black"/>
<path fill-rule="evenodd" clip-rule="evenodd" d="M22.398 6.60914C22.4296 6.59454 22.4668 6.60886 22.4811 6.64111C22.7599 7.26997 23.0412 7.88928 23.3584 8.4966C23.3747 8.52785 23.3632 8.56668 23.3326 8.58334C23.302 8.60001 23.2639 8.58819 23.2476 8.55694C22.9283 7.94574 22.6456 7.32324 22.3667 6.69399C22.3524 6.66173 22.3664 6.62374 22.398 6.60914Z" fill="black"/>
<path fill-rule="evenodd" clip-rule="evenodd" d="M22.7791 6.22269C22.8117 6.21054 22.8477 6.22766 22.8596 6.26092C23.0317 6.74221 23.237 7.20722 23.4433 7.67462C23.5642 7.94832 23.6853 8.22283 23.8004 8.50192C23.8139 8.53455 23.7989 8.57215 23.7669 8.58589C23.735 8.59963 23.6982 8.58431 23.6847 8.55168C23.5723 8.27904 23.4523 8.00718 23.3319 7.73444C23.124 7.26336 22.915 6.78968 22.7417 6.3049C22.7298 6.27164 22.7465 6.23483 22.7791 6.22269Z" fill="black"/>
<path fill-rule="evenodd" clip-rule="evenodd" d="M23.3533 6.22008C23.3872 6.21302 23.4204 6.23541 23.4273 6.27011C23.5406 6.83766 23.8072 7.3486 24.0771 7.86579C24.1309 7.96902 24.1849 8.0725 24.2379 8.17673C24.2538 8.20816 24.2418 8.24686 24.211 8.26315C24.1802 8.27945 24.1423 8.26718 24.1264 8.23575C24.0749 8.13436 24.0218 8.0328 23.9685 7.93073C23.6984 7.41353 23.4215 6.88323 23.3043 6.2957C23.2973 6.26101 23.3193 6.22715 23.3533 6.22008Z" fill="black"/>
<path fill-rule="evenodd" clip-rule="evenodd" d="M23.9119 6.54236C23.945 6.53165 23.9803 6.55032 23.9908 6.58407C24.1026 6.9435 24.2497 7.29346 24.4053 7.64294C24.448 7.73889 24.4914 7.83492 24.5349 7.93111C24.6493 8.18421 24.7642 8.43837 24.8681 8.69462C24.8814 8.72734 24.8661 8.76484 24.8341 8.77837C24.802 8.79191 24.7653 8.77636 24.752 8.74365C24.6492 8.48994 24.5359 8.23935 24.4219 7.98709C24.3782 7.8904 24.3343 7.79346 24.291 7.69601C24.1349 7.34541 23.9852 6.98982 23.8711 6.62286C23.8606 6.58912 23.8789 6.55307 23.9119 6.54236Z" fill="black"/>
<path fill-rule="evenodd" clip-rule="evenodd" d="M39.102 12.9631C39.1298 12.9843 39.1356 13.0244 39.1148 13.0528C38.6385 13.7059 38.099 14.2832 37.539 14.855C37.5145 14.88 37.4747 14.88 37.4502 14.855C37.4257 14.83 37.4257 14.7894 37.4502 14.7643C38.0093 14.1935 38.5435 13.6215 39.0141 12.9763C39.0348 12.9479 39.0742 12.942 39.102 12.9631Z" fill="black"/>
<path fill-rule="evenodd" clip-rule="evenodd" d="M39.6138 13.1002C39.6368 13.1267 39.6345 13.1672 39.6086 13.1907C39.3737 13.4038 39.1742 13.654 38.9848 13.9177C38.899 14.0371 38.8156 14.1588 38.7319 14.2809C38.7232 14.2936 38.7145 14.3063 38.7058 14.3191C38.6134 14.4537 38.5204 14.5887 38.424 14.7199C38.4032 14.7482 38.3638 14.754 38.3361 14.7327C38.3083 14.7115 38.3027 14.6713 38.3235 14.643C38.4186 14.5136 38.5105 14.3802 38.6029 14.2455C38.6116 14.2328 38.6203 14.2201 38.6291 14.2073C38.7126 14.0854 38.7968 13.9625 38.8835 13.8419C39.075 13.5753 39.2806 13.3168 39.5251 13.0949C39.551 13.0713 39.5907 13.0737 39.6138 13.1002Z" fill="black"/>
<path fill-rule="evenodd" clip-rule="evenodd" d="M40.1673 13.1539C40.196 13.1739 40.2034 13.2138 40.1838 13.243C39.7982 13.8204 39.46 14.4244 39.119 15.0338C39.1018 15.0646 39.0634 15.0753 39.0333 15.0577C39.0032 15.0401 38.9927 15.001 39.0099 14.9702C39.3506 14.3615 39.6912 13.7531 40.0801 13.1708C40.0996 13.1415 40.1387 13.134 40.1673 13.1539Z" fill="black"/>
<path fill-rule="evenodd" clip-rule="evenodd" d="M40.4215 13.6049C40.449 13.6266 40.454 13.6668 40.4328 13.6948C39.9232 14.3687 39.4902 15.0752 39.0553 15.8047C39.0373 15.8349 38.9986 15.8445 38.969 15.8261C38.9394 15.8077 38.93 15.7682 38.948 15.738C39.3831 15.0082 39.8192 14.2964 40.3334 13.6165C40.3546 13.5885 40.3941 13.5833 40.4215 13.6049Z" fill="black"/>
<path fill-rule="evenodd" clip-rule="evenodd" d="M41.0118 31.2767C41.0169 31.2417 41.0489 31.2176 41.0832 31.2228C41.9214 31.3512 42.8633 31.4201 43.7016 31.287C43.7358 31.2815 43.7679 31.3055 43.7733 31.3405C43.7786 31.3755 43.7551 31.4082 43.7209 31.4137C42.8643 31.5497 41.9079 31.4788 41.0646 31.3496C41.0303 31.3444 41.0066 31.3117 41.0118 31.2767Z" fill="black"/>
<path fill-rule="evenodd" clip-rule="evenodd" d="M42.0721 30.5814C42.8658 30.4961 43.6679 30.4221 44.4721 30.5173C44.5065 30.5214 44.5312 30.5532 44.5272 30.5884C44.5232 30.6236 44.4921 30.6488 44.4576 30.6447C43.6688 30.5513 42.8794 30.6235 42.0852 30.7089C42.0507 30.7126 42.0198 30.687 42.0162 30.6518C42.0126 30.6166 42.0376 30.5851 42.0721 30.5814Z" fill="black"/>
<path fill-rule="evenodd" clip-rule="evenodd" d="M42.3163 29.9414C43.0607 29.7751 43.6452 29.713 44.4099 29.8122C44.4443 29.8167 44.4687 29.8488 44.4643 29.8839C44.4599 29.919 44.4285 29.9439 44.3941 29.9394C43.6476 29.8425 43.078 29.9025 42.3432 30.0666C42.3093 30.0742 42.2758 30.0523 42.2684 30.0177C42.261 29.9831 42.2825 29.9489 42.3163 29.9414Z" fill="black"/>
<path fill-rule="evenodd" clip-rule="evenodd" d="M42.2692 29.2338C42.7108 29.1723 43.1375 29.1129 43.5935 29.1711C43.6279 29.1755 43.6523 29.2075 43.648 29.2426C43.6437 29.2778 43.6123 29.3027 43.5779 29.2983C43.1383 29.2422 42.7255 29.2997 42.279 29.3618L42.2755 29.3623C42.2411 29.3671 42.2095 29.3425 42.2048 29.3075C42.2001 29.2724 42.2242 29.2401 42.2585 29.2353C42.2621 29.2348 42.2657 29.2343 42.2692 29.2338Z" fill="black"/>
<path fill-rule="evenodd" clip-rule="evenodd" d="M41.3144 28.7869C41.8745 28.6883 42.3863 28.6044 42.9634 28.658C42.9979 28.6612 43.0234 28.6924 43.0202 28.7276C43.0171 28.7629 42.9866 28.7889 42.952 28.7857C42.3933 28.7338 41.8964 28.8145 41.3357 28.9132C41.3015 28.9192 41.2691 28.8958 41.2632 28.8609C41.2573 28.826 41.2802 28.7929 41.3144 28.7869Z" fill="black"/>
<path fill-rule="evenodd" clip-rule="evenodd" d="M30.5542 42.0024C30.5837 41.9838 30.6224 41.9931 30.6406 42.0232C30.6981 42.1182 30.7567 42.2129 30.8153 42.3076C31.1604 42.8653 31.5079 43.4269 31.6532 44.0946C31.6607 44.1291 31.6394 44.1634 31.6055 44.1711C31.5717 44.1787 31.5381 44.157 31.5306 44.1224C31.3904 43.4783 31.0563 42.9378 30.711 42.3793C30.6519 42.2838 30.5926 42.1878 30.5338 42.0906C30.5156 42.0605 30.5247 42.021 30.5542 42.0024Z" fill="black"/>
<path fill-rule="evenodd" clip-rule="evenodd" d="M30.9295 41.5546C30.9585 41.5351 30.9974 41.5434 31.0165 41.573C31.5693 42.4331 31.9324 43.2547 32.2788 44.2145C32.2908 44.2478 32.2741 44.2846 32.2416 44.2969C32.209 44.3091 32.1729 44.2921 32.1609 44.2589C31.8166 43.3046 31.4574 42.4926 30.9115 41.6433C30.8924 41.6137 30.9005 41.574 30.9295 41.5546Z" fill="black"/>
<path fill-rule="evenodd" clip-rule="evenodd" d="M31.5021 41.1656C31.5335 41.1504 31.5709 41.164 31.5858 41.196C32.048 42.1893 32.4235 43.1604 32.7198 44.2191C32.7293 44.2531 32.71 44.2886 32.6766 44.2984C32.6433 44.3081 32.6085 44.2884 32.599 44.2543C32.305 43.2035 31.9321 42.2392 31.4724 41.251C31.4575 41.219 31.4708 41.1808 31.5021 41.1656Z" fill="black"/>
<path fill-rule="evenodd" clip-rule="evenodd" d="M31.9438 40.203C31.9756 40.1889 32.0125 40.2039 32.0263 40.2364C32.5156 41.3933 32.926 42.544 33.2227 43.7726C33.231 43.807 33.2105 43.8417 33.1768 43.8502C33.1431 43.8587 33.1091 43.8377 33.1008 43.8033C32.8062 42.5834 32.3984 41.4396 31.911 40.2872C31.8973 40.2547 31.9119 40.217 31.9438 40.203Z" fill="black"/>
<path fill-rule="evenodd" clip-rule="evenodd" d="M14.8487 44.3694C14.881 44.3824 14.8969 44.4196 14.8842 44.4525C14.8483 44.5454 14.8124 44.6381 14.7765 44.7308C14.4761 45.5065 14.1769 46.2792 13.944 47.0759C13.9341 47.1099 13.8991 47.1291 13.8658 47.119C13.8326 47.1089 13.8137 47.0732 13.8236 47.0392C14.0582 46.2368 14.3595 45.4588 14.6597 44.6838C14.6956 44.591 14.7315 44.4983 14.7673 44.4055C14.78 44.3726 14.8165 44.3564 14.8487 44.3694Z" fill="black"/>
<path fill-rule="evenodd" clip-rule="evenodd" d="M14.3489 44.114C14.3806 44.1284 14.3949 44.1663 14.3808 44.1986C13.9897 45.097 13.588 46.08 13.5699 47.0588C13.5692 47.0942 13.5406 47.1224 13.5059 47.1217C13.4712 47.121 13.4436 47.0918 13.4443 47.0564C13.4629 46.048 13.8761 45.0424 14.266 44.1465C14.2801 44.1142 14.3172 44.0996 14.3489 44.114Z" fill="black"/>
<path fill-rule="evenodd" clip-rule="evenodd" d="M13.8386 43.8546C13.8719 43.8645 13.891 43.9 13.8814 43.934C13.8354 44.0957 13.7875 44.2574 13.7395 44.4194C13.5192 45.1634 13.2974 45.9123 13.2558 46.6765C13.2539 46.7118 13.2243 46.7389 13.1896 46.7369C13.155 46.735 13.1285 46.7047 13.1304 46.6694C13.1729 45.8883 13.4002 45.1215 13.6208 44.3771C13.6684 44.2164 13.7157 44.0568 13.7608 43.8983C13.7704 43.8643 13.8053 43.8447 13.8386 43.8546Z" fill="black"/>
<path fill-rule="evenodd" clip-rule="evenodd" d="M13.3287 43.2759C13.363 43.2815 13.3862 43.3144 13.3807 43.3494C13.3462 43.5668 13.3091 43.7834 13.2721 43.9994C13.145 44.7404 13.0188 45.4761 13.0047 46.2254C13.0041 46.2608 12.9754 46.2889 12.9407 46.2882C12.9061 46.2876 12.8785 46.2583 12.8792 46.2229C12.8935 45.4627 13.0219 44.714 13.1493 43.9713C13.1861 43.7567 13.2229 43.5426 13.2567 43.3289C13.2623 43.294 13.2945 43.2702 13.3287 43.2759Z" fill="black"/>
<path fill-rule="evenodd" clip-rule="evenodd" d="M8.6036 28.1827C8.61779 28.215 8.60363 28.2529 8.57199 28.2674C8.03164 28.5147 7.5795 28.7828 7.0718 29.0972C7.04214 29.1155 7.00352 29.1059 6.98554 29.0756C6.96755 29.0453 6.97701 29.0059 7.00666 28.9875C7.51545 28.6725 7.97296 28.401 8.52061 28.1504C8.55226 28.1359 8.58941 28.1504 8.6036 28.1827Z" fill="black"/>
<path fill-rule="evenodd" clip-rule="evenodd" d="M7.97454 28.052C7.99005 28.0837 7.97748 28.1222 7.94646 28.138C7.48339 28.3744 7.1007 28.6226 6.70283 28.9633C6.67626 28.986 6.63666 28.9825 6.61437 28.9553C6.59208 28.9282 6.59556 28.8878 6.62213 28.865C7.02838 28.5171 7.41952 28.2637 7.89029 28.0234C7.92131 28.0075 7.95903 28.0204 7.97454 28.052Z" fill="black"/>
<path fill-rule="evenodd" clip-rule="evenodd" d="M7.72276 27.602C7.73891 27.6334 7.72713 27.6721 7.69644 27.6886C7.20744 27.9514 6.7538 28.2266 6.32512 28.5794C6.29812 28.6016 6.25858 28.5973 6.23682 28.5697C6.21506 28.5421 6.21931 28.5018 6.24631 28.4795C6.6839 28.1195 7.14546 27.8398 7.63795 27.5752C7.66864 27.5587 7.70661 27.5707 7.72276 27.602Z" fill="black"/>
<path fill-rule="evenodd" clip-rule="evenodd" d="M7.47073 27.0235C7.48773 27.0543 7.47701 27.0934 7.44678 27.1108C6.95631 27.3925 6.48222 27.6972 6.0054 28.0066C5.97613 28.0256 5.93732 28.0167 5.91872 27.9868C5.90012 27.957 5.90877 27.9173 5.93805 27.8984C6.41481 27.5891 6.89147 27.2826 7.38521 26.999C7.41544 26.9817 7.45373 26.9926 7.47073 27.0235Z" fill="black"/>
<path fill-rule="evenodd" clip-rule="evenodd" d="M3.8288 28.883C3.84565 28.9139 3.83472 28.953 3.80441 28.9702C3.67329 29.0445 3.54126 29.1153 3.4099 29.1857C3.09267 29.3557 2.77932 29.5236 2.49199 29.7354C2.46388 29.7562 2.42462 29.7497 2.40432 29.721C2.38401 29.6923 2.39034 29.6522 2.41846 29.6315C2.71344 29.414 3.03935 29.2393 3.35985 29.0676C3.48939 28.9981 3.61804 28.9292 3.74342 28.8581C3.77373 28.8409 3.81196 28.852 3.8288 28.883Z" fill="black"/>
<path fill-rule="evenodd" clip-rule="evenodd" d="M3.8296 28.1152C3.84562 28.1466 3.83367 28.1853 3.80291 28.2016C3.68685 28.2634 3.5713 28.324 3.45634 28.3843C2.95363 28.648 2.46212 28.9059 1.98733 29.2242C1.95834 29.2436 1.9194 29.2353 1.90037 29.2057C1.88134 29.1761 1.88941 29.1364 1.9184 29.117C2.39932 28.7946 2.89807 28.533 3.40118 28.269C3.51558 28.209 3.63021 28.1489 3.7449 28.0879C3.77566 28.0716 3.81358 28.0838 3.8296 28.1152Z" fill="black"/>
<path fill-rule="evenodd" clip-rule="evenodd" d="M3.95455 27.3447C3.97121 27.3757 3.96006 27.4147 3.92964 27.4317C3.83446 27.4849 3.73933 27.5383 3.6442 27.5916C3.19757 27.8422 2.75059 28.0929 2.29537 28.3301C2.26448 28.3462 2.22665 28.3337 2.21089 28.3022C2.19512 28.2706 2.20738 28.232 2.23827 28.2159C2.69163 27.9797 3.1366 27.7301 3.58317 27.4796C3.67845 27.4261 3.7738 27.3726 3.86932 27.3192C3.89973 27.3022 3.9379 27.3136 3.95455 27.3447Z" fill="black"/>
<path fill-rule="evenodd" clip-rule="evenodd" d="M22.0848 0.734092C21.9857 0.885762 21.9277 1.08813 21.9214 1.26322C21.9146 1.45012 21.9877 1.63504 22.1208 1.82922C22.2419 2.00588 22.3959 2.16744 22.5513 2.33033C22.5689 2.34884 22.5866 2.36736 22.6042 2.38592C22.7008 2.4876 22.6983 2.64995 22.5987 2.74855C22.4992 2.84714 22.3401 2.84465 22.2436 2.74297C22.2265 2.72499 22.2088 2.70652 22.1907 2.68756C22.039 2.5287 21.8553 2.33637 21.7092 2.12326C21.544 1.88218 21.4069 1.58707 21.4193 1.24424C21.4288 0.983782 21.5114 0.687508 21.667 0.449423C21.8239 0.209272 22.0771 0 22.4239 0C22.8297 0 23.106 0.263552 23.2725 0.546C23.4386 0.827673 23.5233 1.16845 23.5463 1.43809C23.5531 1.51825 23.548 1.65559 23.5378 1.79347C23.5272 1.93738 23.5095 2.10355 23.4857 2.24965C23.4738 2.32251 23.4598 2.39403 23.4434 2.45698C23.4286 2.5137 23.4063 2.58628 23.37 2.6461C23.3532 2.67395 23.3158 2.7289 23.2486 2.76482C23.1611 2.81158 23.0593 2.80687 22.977 2.75626C22.9134 2.71716 22.8782 2.66127 22.8609 2.63006C22.841 2.59396 22.8258 2.55475 22.8135 2.51732C22.7697 2.38296 22.8408 2.23773 22.9724 2.19294C22.977 2.19138 22.9816 2.18995 22.9862 2.18867C22.9875 2.18105 22.9888 2.17328 22.9901 2.16536C23.0109 2.03818 23.0271 1.88788 23.0369 1.75507C23.0471 1.61623 23.0487 1.51661 23.0458 1.48253C23.0279 1.27182 22.9601 1.01066 22.8421 0.810491C22.7245 0.611094 22.5852 0.512889 22.4239 0.512889C22.2982 0.512889 22.1826 0.584487 22.0848 0.734092Z" fill="black"/>
<path fill-rule="evenodd" clip-rule="evenodd" d="M43.3667 11.4099C43.3722 11.4339 43.3812 11.4588 43.3946 11.4839C43.4587 11.6042 43.5783 11.6338 43.6113 11.6418C43.6608 11.6538 43.7154 11.6585 43.7577 11.6615C43.7878 11.6637 43.8068 11.6648 43.8253 11.6659C43.8461 11.6671 43.8665 11.6683 43.9014 11.6709C44.0012 11.6783 44.1011 11.6908 44.1945 11.7207C44.5666 11.8394 45.1328 11.7686 45.3567 11.2606C45.4228 11.1106 45.4265 10.9327 45.4076 10.7767C45.388 10.6142 45.3399 10.4425 45.2718 10.2852C45.2042 10.129 45.1115 9.97447 44.9948 9.85483C44.8797 9.73688 44.7187 9.63092 44.5206 9.63092C44.1024 9.63092 43.7627 9.86505 43.5335 10.153C43.3055 10.4397 43.1624 10.808 43.1464 11.1428C43.14 11.278 43.2372 11.3938 43.3667 11.4099ZM43.9234 10.4764C43.833 10.59 43.7628 10.7201 43.7158 10.8498C43.7234 10.8433 43.7311 10.8368 43.7389 10.8301C43.8454 10.7394 44.0038 10.7541 44.0926 10.8629C44.1676 10.9548 44.169 11.0843 44.1036 11.1769C44.1794 11.188 44.2613 11.2046 44.3444 11.2311C44.586 11.3082 44.8209 11.2264 44.8986 11.0501C44.9104 11.0234 44.9229 10.9544 44.9091 10.8395C44.8959 10.7312 44.8623 10.608 44.8123 10.4925C44.7618 10.3758 44.7002 10.2796 44.6388 10.2167C44.5758 10.1522 44.5352 10.1438 44.5206 10.1438C44.2979 10.1438 44.0891 10.2682 43.9234 10.4764Z" fill="black"/>
<path fill-rule="evenodd" clip-rule="evenodd" d="M49.2212 30.5939C49.4709 30.6526 49.6597 30.8632 49.8037 31.1573C50.1139 31.7907 50.0434 32.4927 49.6844 32.885C49.4983 33.0883 49.2355 33.202 48.9375 33.1557C48.6487 33.1108 48.3649 32.9221 48.1033 32.6056C48.0139 32.4974 48.0273 32.3356 48.1333 32.2443C48.2393 32.1529 48.3978 32.1666 48.4873 32.2749C48.7021 32.5349 48.8857 32.6288 49.013 32.6486C49.131 32.6669 49.2328 32.6272 49.3173 32.5348C49.4996 32.3356 49.5946 31.877 49.3544 31.3867C49.2373 31.1476 49.1428 31.1018 49.1085 31.0938C49.0776 31.0865 49.0149 31.0916 48.9101 31.1813C48.6965 31.3639 48.4943 31.7441 48.408 32.0085C48.3641 32.1428 48.2219 32.2154 48.0903 32.1707C47.9587 32.1259 47.8875 31.9806 47.9314 31.8463C48.0324 31.537 48.2738 31.0563 48.5875 30.7881C48.7463 30.6523 48.9682 30.5345 49.2212 30.5939Z" fill="black"/>
<path fill-rule="evenodd" clip-rule="evenodd" d="M35.7447 48.5874C35.7379 48.8064 35.6568 49.0615 35.5145 49.3521C35.4089 49.5676 35.2478 49.7944 35.0231 49.915C34.9062 49.9777 34.7715 50.0116 34.6254 49.9964C34.4803 49.9813 34.3413 49.9197 34.2111 49.8201C34.0872 49.7252 33.9941 49.6146 33.9418 49.4829C33.889 49.3501 33.8871 49.2195 33.9066 49.102C33.9255 48.9887 33.9656 48.8799 34.0041 48.7853C34.0217 48.742 34.0379 48.7039 34.0535 48.6672C34.0764 48.6135 34.0981 48.5627 34.1209 48.503C34.136 48.4636 34.1596 48.4301 34.1887 48.4039C34.1518 48.3707 34.124 48.3262 34.1112 48.2738C34.0776 48.1364 34.1594 47.9972 34.294 47.9628C34.5202 47.9051 34.742 47.8676 34.9402 47.8669C35.1332 47.8662 35.338 47.9001 35.498 48.0205C35.6743 48.153 35.752 48.3556 35.7447 48.5874ZM34.5459 48.4297C34.6969 48.3973 34.8304 48.3802 34.942 48.3798C35.0898 48.3793 35.1665 48.4081 35.2001 48.4334C35.2175 48.4465 35.2457 48.4725 35.2426 48.5711C35.2392 48.6826 35.1938 48.86 35.0652 49.1227C34.9805 49.2955 34.88 49.4124 34.7894 49.461C34.7487 49.4828 34.7123 49.4899 34.6763 49.4862C34.6392 49.4823 34.5848 49.4651 34.5126 49.4098C34.4415 49.3554 34.4169 49.3144 34.4073 49.2901C34.3981 49.2669 34.3937 49.2371 34.4019 49.1878C34.4108 49.1342 34.4324 49.0695 34.468 48.982C34.479 48.9549 34.4926 48.9228 34.5074 48.8881C34.5339 48.8256 34.564 48.7546 34.5889 48.6895C34.6237 48.5984 34.604 48.4993 34.5459 48.4297Z" fill="black"/>
<path fill-rule="evenodd" clip-rule="evenodd" d="M12.9115 46.5468C12.9547 46.469 13.0365 46.4165 13.1303 46.4165C13.5368 46.4165 13.9107 46.5986 14.0774 46.9377C14.2519 47.2924 14.1507 47.7127 13.815 48.0745C13.7056 48.1924 13.5578 48.2291 13.4424 48.2393C13.3223 48.2499 13.1956 48.2357 13.0822 48.2139C12.856 48.1704 12.6317 48.0859 12.5174 48.0287C12.3355 47.9376 12.1821 47.8208 12.1079 47.657C12.0251 47.474 12.0689 47.2993 12.1424 47.1688C12.2114 47.0461 12.318 46.9392 12.416 46.852C12.4929 46.7835 12.5794 46.7147 12.6577 46.6524C12.6805 46.6342 12.7027 46.6166 12.7237 46.5997C12.779 46.5552 12.8468 46.5383 12.9115 46.5468ZM13.0979 46.9272C13.0823 46.9555 13.0611 46.9812 13.0346 47.0026C13.0088 47.0233 12.9836 47.0434 12.9588 47.0631C12.8828 47.1236 12.8116 47.1803 12.746 47.2387C12.6578 47.3172 12.6038 47.3784 12.5779 47.4244C12.5719 47.4349 12.5688 47.4425 12.5671 47.4472C12.5776 47.4623 12.6167 47.5072 12.7385 47.5682C12.8134 47.6056 12.9948 47.6752 13.1753 47.7099C13.2653 47.7272 13.3422 47.7333 13.3991 47.7283C13.4342 47.7252 13.4501 47.719 13.4549 47.7169C13.6905 47.4603 13.6787 47.2698 13.6285 47.1678C13.5703 47.0495 13.405 46.9294 13.1303 46.9294C13.1193 46.9294 13.1085 46.9286 13.0979 46.9272Z" fill="black"/>
<path fill-rule="evenodd" clip-rule="evenodd" d="M0.588436 27.4291C0.697542 27.3591 0.843268 27.3077 1.00569 27.3467C1.39809 27.4409 1.67189 27.6191 1.86128 27.8888C1.98322 28.0625 2.06249 28.2641 2.12262 28.4792C2.17293 28.4616 2.22911 28.46 2.28348 28.4785C2.39003 28.5148 2.49591 28.5776 2.56387 28.6855C2.63519 28.7987 2.64038 28.9225 2.61622 29.0269C2.57292 29.2138 2.42865 29.3791 2.29297 29.499C2.14756 29.6275 1.96645 29.7436 1.78581 29.8218C1.61439 29.8961 1.40189 29.9545 1.21001 29.913C0.893311 29.8444 0.56444 29.6209 0.334121 29.3431C0.105405 29.0673 -0.0701761 28.6818 0.0276944 28.2821C0.0680036 28.1174 0.176908 27.8807 0.318844 27.6912C0.39055 27.5955 0.480892 27.498 0.588436 27.4291ZM1.97019 29.1059C1.96823 29.1077 1.96625 29.1094 1.96424 29.1112C1.85794 29.2051 1.72142 29.2926 1.58954 29.3497C1.44846 29.4109 1.35358 29.4198 1.31425 29.4112C1.12889 29.3711 0.892181 29.2224 0.717535 29.0117C0.541286 28.7992 0.472518 28.5802 0.515052 28.4065C0.537205 28.316 0.613565 28.142 0.717842 28.0028C0.769243 27.9342 0.817244 27.888 0.855549 27.8634C0.876618 27.8499 0.888114 27.8469 0.892337 27.8463C1.18808 27.9177 1.3471 28.0369 1.453 28.1877C1.56809 28.3516 1.63882 28.5776 1.70727 28.9038C1.73381 29.0302 1.8474 29.1147 1.97019 29.1059ZM0.894235 27.8463C0.894218 27.8464 0.893674 27.8464 0.892657 27.8463C0.893744 27.8462 0.894252 27.8462 0.894235 27.8463Z" fill="black"/>
<path fill-rule="evenodd" clip-rule="evenodd" d="M7.10784 8.1052C7.34799 8.07866 7.59535 8.10505 7.78826 8.15807C7.95341 8.20347 8.09093 8.27679 8.19889 8.38201C8.3072 8.48757 8.37262 8.61245 8.4123 8.7401C8.47523 8.94252 8.47873 9.18174 8.4817 9.38479C8.48219 9.41842 8.48267 9.45105 8.4834 9.48236L8.48565 9.57865L8.42525 9.65264C7.94158 10.2452 7.17392 10.2503 6.67342 9.98304C6.42055 9.84802 6.19962 9.62536 6.12661 9.33029C6.05025 9.02169 6.1513 8.69968 6.41775 8.41405C6.60543 8.21285 6.87222 8.13124 7.10784 8.1052ZM7.1619 8.61511C6.98304 8.63487 6.85297 8.69117 6.78152 8.76777C6.60387 8.95821 6.58928 9.10612 6.61366 9.20467C6.6414 9.31677 6.7376 9.43851 6.90623 9.52855C7.22654 9.69957 7.67826 9.69122 7.97907 9.39095C7.979 9.38727 7.97893 9.38361 7.97887 9.37997C7.97498 9.17047 7.97218 9.01971 7.93349 8.89527C7.9138 8.83193 7.88729 8.78739 7.852 8.75299C7.81635 8.71825 7.75859 8.68107 7.65766 8.65332C7.52095 8.61575 7.33622 8.59584 7.1619 8.61511Z" fill="black"/>
<path fill-rule="evenodd" clip-rule="evenodd" d="M27.4995 3.40888C27.5976 3.50903 27.5976 3.6714 27.4995 3.77155L25.6157 5.69488C25.5176 5.79503 25.3585 5.79503 25.2605 5.69488C25.1624 5.59474 25.1624 5.43236 25.2605 5.33222L27.1443 3.40888C27.2424 3.30873 27.4014 3.30873 27.4995 3.40888Z" fill="black"/>
<path fill-rule="evenodd" clip-rule="evenodd" d="M28.3786 4.81934C28.4767 4.91949 28.4767 5.08186 28.3786 5.18201C28.2537 5.30953 28.1288 5.43887 28.0032 5.56892C27.4421 6.14983 26.8673 6.74498 26.2194 7.25528C26.1095 7.34179 25.9518 7.32101 25.8671 7.20887C25.7824 7.09673 25.8027 6.93569 25.9125 6.84919C26.5309 6.36218 27.0766 5.79743 27.6364 5.21806C27.7643 5.08567 27.8929 4.95251 28.0234 4.81934C28.1215 4.7192 28.2805 4.7192 28.3786 4.81934Z" fill="black"/>
<path fill-rule="evenodd" clip-rule="evenodd" d="M17.6564 5.59149C17.6836 5.45261 17.8159 5.36254 17.9519 5.39031C17.9856 5.39719 18.0192 5.40405 18.0529 5.41092C19.0371 5.61171 20.0309 5.81445 21.0016 6.16971C21.1322 6.21751 21.2001 6.36433 21.1533 6.49765C21.1064 6.63098 20.9626 6.70031 20.832 6.65251C19.8969 6.31025 18.9354 6.11403 17.9412 5.91116C17.9119 5.90519 17.8827 5.89922 17.8534 5.89324C17.7174 5.86547 17.6292 5.73037 17.6564 5.59149Z" fill="black"/>
<path fill-rule="evenodd" clip-rule="evenodd" d="M18.2759 7.30229C19.176 7.28519 20.1407 7.26686 21.0292 7.72041C21.1533 7.78375 21.2035 7.93779 21.1415 8.06447C21.0795 8.19114 20.9286 8.24249 20.8045 8.17915C20.0362 7.78696 19.2157 7.80063 18.3155 7.81563C18.1392 7.81857 17.9598 7.82156 17.7771 7.82156C17.6384 7.82156 17.5259 7.70674 17.5259 7.56511C17.5259 7.42348 17.6384 7.30867 17.7771 7.30867C17.9405 7.30867 18.1071 7.3055 18.2759 7.30229Z" fill="black"/>
<path fill-rule="evenodd" clip-rule="evenodd" d="M36.5816 10.2601C36.719 10.241 36.8456 10.3392 36.8644 10.4796C37.0034 11.5203 36.9852 12.3283 36.8649 13.3653C36.8486 13.5059 36.7237 13.6064 36.586 13.5898C36.4482 13.5731 36.3497 13.4456 36.3661 13.305C36.4825 12.3012 36.4987 11.5378 36.3666 10.5489C36.3479 10.4085 36.4441 10.2793 36.5816 10.2601Z" fill="black"/>
<path fill-rule="evenodd" clip-rule="evenodd" d="M38.0617 9.23965C38.1962 9.2053 38.3326 9.28884 38.3663 9.42624C38.6371 10.5323 38.5504 11.3968 38.3702 12.4805C38.347 12.6201 38.2173 12.7141 38.0805 12.6904C37.9438 12.6667 37.8517 12.5343 37.8749 12.3946C38.0514 11.3337 38.1244 10.5531 37.8789 9.55064C37.8453 9.41323 37.9271 9.274 38.0617 9.23965Z" fill="black"/>
<path fill-rule="evenodd" clip-rule="evenodd" d="M45.5598 26.0823C45.6698 26.1687 45.6904 26.3297 45.6058 26.4419C45.0955 27.1192 44.5911 27.7968 44.1033 28.4871C44.0222 28.602 43.8652 28.628 43.7527 28.5451C43.6402 28.4623 43.6148 28.302 43.6959 28.1871C44.1883 27.4902 44.6965 26.8076 45.2076 26.1292C45.2922 26.017 45.4499 25.996 45.5598 26.0823Z" fill="black"/>
<path fill-rule="evenodd" clip-rule="evenodd" d="M47.2048 26.8619C47.3092 26.9552 47.3198 27.1172 47.2284 27.2238C46.7876 27.7382 46.359 28.2634 45.9279 28.7916C45.9022 28.8231 45.8766 28.8545 45.8509 28.886C45.7621 28.9948 45.6037 29.0095 45.4971 28.9188C45.3906 28.8281 45.3762 28.6664 45.465 28.5576C45.491 28.5258 45.5169 28.4939 45.543 28.4621C45.9731 27.9349 46.4054 27.4053 46.8504 26.886C46.9417 26.7795 47.1004 26.7687 47.2048 26.8619Z" fill="black"/>
<path fill-rule="evenodd" clip-rule="evenodd" d="M34.3549 41.6669C34.3578 41.5253 34.4726 41.4129 34.6113 41.4159C35.3608 41.4318 36.0671 41.5388 36.7874 41.6766C36.9237 41.7027 37.0135 41.8367 36.988 41.976C36.9624 42.1152 36.8311 42.2068 36.6948 42.1807C35.9858 42.045 35.3103 41.9437 34.6008 41.9286C34.4621 41.9257 34.3521 41.8085 34.3549 41.6669Z" fill="black"/>
<path fill-rule="evenodd" clip-rule="evenodd" d="M34.6061 43.9773C34.6077 43.8357 34.7214 43.7222 34.8601 43.7238C35.5908 43.7324 36.2983 43.7921 37.0131 43.8529C37.1514 43.8647 37.2541 43.9886 37.2426 44.1298C37.2311 44.2709 37.1097 44.3758 36.9714 44.364C36.2543 44.303 35.5643 44.245 34.8544 44.2367C34.7157 44.2351 34.6045 44.1189 34.6061 43.9773Z" fill="black"/>
<path fill-rule="evenodd" clip-rule="evenodd" d="M29.7248 44.2373C29.8632 44.2467 29.9679 44.3689 29.9587 44.5102C29.8752 45.789 29.8337 47.0587 29.8337 48.3398C29.8337 48.4814 29.7212 48.5963 29.5825 48.5963C29.4438 48.5963 29.3313 48.4814 29.3313 48.3398C29.3313 47.0472 29.3732 45.7662 29.4575 44.4761C29.4667 44.3348 29.5864 44.2279 29.7248 44.2373Z" fill="black"/>
<path fill-rule="evenodd" clip-rule="evenodd" d="M10.1105 30.9327C10.2324 31.0003 10.2775 31.156 10.2113 31.2805C9.91813 31.8311 9.72005 32.4314 9.516 33.0497C9.46126 33.2156 9.40608 33.3828 9.34852 33.5507C9.3027 33.6844 9.1594 33.7548 9.02847 33.7081C8.89753 33.6613 8.82854 33.515 8.87437 33.3813C8.92736 33.2267 8.97951 33.0685 9.03236 32.9081C9.23785 32.2846 9.45381 31.6293 9.76988 31.0356C9.83612 30.9111 9.98863 30.8651 10.1105 30.9327Z" fill="black"/>
<path fill-rule="evenodd" clip-rule="evenodd" d="M8.35798 30.936C8.4781 31.0068 8.51921 31.1637 8.44981 31.2863C8.17635 31.7695 7.97058 32.2858 7.78068 32.8222C7.71046 33.0205 7.64138 33.2248 7.57159 33.4312C7.456 33.773 7.33846 34.1207 7.21053 34.4565C7.16025 34.5885 7.01469 34.6539 6.8854 34.6026C6.75611 34.5512 6.69206 34.4026 6.74234 34.2706C6.86783 33.9412 6.97856 33.6134 7.09104 33.2804C7.16141 33.0721 7.23247 32.8618 7.30824 32.6478C7.50176 32.1012 7.71935 31.5519 8.01484 31.0297C8.08424 30.9071 8.23787 30.8651 8.35798 30.936Z" fill="black"/>
<path fill-rule="evenodd" clip-rule="evenodd" d="M4.97759 23.2628C5.01745 23.1271 5.15748 23.0501 5.29035 23.0908C6.44627 23.4449 7.4698 24.0113 8.2947 24.9615C8.38671 25.0675 8.37715 25.2295 8.27334 25.3235C8.16953 25.4174 8.01078 25.4077 7.91876 25.3017C7.17037 24.4396 6.23613 23.916 5.146 23.5821C5.01313 23.5414 4.93773 23.3984 4.97759 23.2628Z" fill="black"/>
<path fill-rule="evenodd" clip-rule="evenodd" d="M7.68235 22.2532C7.78281 22.1555 7.9418 22.1595 8.03747 22.2621C8.86176 23.1457 9.46761 23.8138 9.85323 25.054C9.89521 25.189 9.82205 25.3331 9.68983 25.376C9.55761 25.4189 9.4164 25.3442 9.37442 25.2092C9.02647 24.0901 8.49395 23.4951 7.67369 22.6158C7.57802 22.5132 7.5819 22.3509 7.68235 22.2532Z" fill="black"/>
<path fill-rule="evenodd" clip-rule="evenodd" d="M11.1208 16.151C11.1235 16.2926 11.0133 16.4096 10.8746 16.4124C10.2261 16.4254 9.69935 16.5682 9.06528 16.784C8.93368 16.8288 8.79143 16.7561 8.74756 16.6218C8.70369 16.4874 8.77482 16.3422 8.90642 16.2974C9.55814 16.0756 10.1412 15.9141 10.8648 15.8996C11.0035 15.8968 11.1181 16.0094 11.1208 16.151Z" fill="black"/>
<path fill-rule="evenodd" clip-rule="evenodd" d="M9.73909 14.4765C9.7459 14.618 9.63911 14.7383 9.50055 14.7453C8.68975 14.786 8.10312 15.0754 7.34513 15.4851C7.22253 15.5514 7.07053 15.5036 7.00562 15.3784C6.94071 15.2533 6.98748 15.0981 7.11008 15.0318C7.87257 14.6197 8.5449 14.2797 9.47588 14.233C9.61443 14.226 9.73227 14.3351 9.73909 14.4765Z" fill="black"/>
<path fill-rule="evenodd" clip-rule="evenodd" d="M15.4703 8.09117C15.6019 8.13596 15.6731 8.28119 15.6292 8.41555C15.4516 8.95941 15.2577 9.49573 15.0643 10.0277C15.0516 10.0627 15.0389 10.0976 15.0262 10.1325C14.8451 10.6302 14.6654 11.1242 14.4983 11.623C14.4534 11.757 14.3106 11.8285 14.1793 11.7827C14.048 11.7368 13.978 11.591 14.0229 11.457C14.1923 10.9516 14.3742 10.4516 14.5547 9.95532C14.5676 9.91992 14.5805 9.88454 14.5934 9.84918C14.787 9.3168 14.9781 8.78798 15.1526 8.25336C15.1965 8.119 15.3387 8.04638 15.4703 8.09117Z" fill="black"/>
<path fill-rule="evenodd" clip-rule="evenodd" d="M14.2144 7.06538C14.346 7.11017 14.4172 7.2554 14.3733 7.38976C14.3426 7.48373 14.312 7.57764 14.2814 7.67149C13.9178 8.78709 13.5569 9.89444 13.1113 10.9967C13.0584 11.1276 12.9115 11.19 12.7833 11.1359C12.6551 11.0819 12.594 10.932 12.6469 10.8011C13.0854 9.71622 13.441 8.62547 13.8057 7.5067C13.8359 7.41385 13.8663 7.32082 13.8967 7.22757C13.9406 7.09321 14.0828 7.0206 14.2144 7.06538Z" fill="black"/>
</svg>
