<svg width="50" height="50" viewBox="0 0 50 50" fill="none" xmlns="http://www.w3.org/2000/svg">
<path fill-rule="evenodd" clip-rule="evenodd" d="M25.7218 21.1473C26.6 21.3904 27.3648 21.9653 28.0426 22.7899C29.0474 24.012 29.3499 25.2862 28.8541 26.4366C28.3887 27.5162 27.3093 28.258 26.0799 28.7035C23.8708 29.5042 21.2109 28.2326 20.7106 25.7297C20.5049 24.7004 20.6665 23.8345 21.121 23.1035C21.5556 22.4047 22.2209 21.8903 22.9065 21.4625L22.9535 21.4331L23.0044 21.4114C23.9262 21.0184 24.8375 20.9025 25.7218 21.1473ZM23.608 22.7499C23.0086 23.1289 22.5852 23.4922 22.3352 23.8941C22.0987 24.2746 21.9828 24.7453 22.1206 25.4346C22.4255 26.9601 24.116 27.8529 25.5994 27.3153C26.664 26.9295 27.3036 26.3845 27.5373 25.8422C27.7405 25.3707 27.7222 24.6878 26.9414 23.738C26.3911 23.0687 25.861 22.7115 25.346 22.569C24.8494 22.4315 24.2849 22.4707 23.608 22.7499Z" fill="black"/>
<path fill-rule="evenodd" clip-rule="evenodd" d="M35.9262 17.3615C36.0942 17.7301 35.9385 18.1683 35.5784 18.3402C34.2472 18.9759 33.0992 19.8573 31.928 20.8226C31.7303 20.9855 31.5312 21.1515 31.3303 21.319C30.3589 22.1289 29.3439 22.9752 28.2211 23.6966C27.8846 23.9129 27.4404 23.809 27.2291 23.4646C27.0177 23.1202 27.1193 22.6656 27.4558 22.4494C28.4965 21.7807 29.4303 21.0027 30.3999 20.1948C30.6063 20.0228 30.8143 19.8495 31.0253 19.6755C32.2103 18.699 33.4714 17.7212 34.9698 17.0057C35.3299 16.8337 35.7581 16.993 35.9262 17.3615Z" fill="black"/>
<path fill-rule="evenodd" clip-rule="evenodd" d="M37.2072 24.1156C37.2429 24.5207 36.9509 24.8787 36.5551 24.9152C35.2853 25.0324 34.0189 25.2015 32.7391 25.3779C32.5972 25.3974 32.4551 25.4171 32.3128 25.4367C31.1763 25.5939 30.0277 25.7527 28.874 25.8782C28.4788 25.9212 28.1244 25.6282 28.0823 25.2238C28.0403 24.8194 28.3266 24.4567 28.7218 24.4137C29.8538 24.2905 30.9813 24.1347 32.1203 23.9772C32.2624 23.9576 32.4046 23.9379 32.5471 23.9183C33.8272 23.7419 35.1214 23.5688 36.4258 23.4484C36.8216 23.4119 37.1715 23.7106 37.2072 24.1156Z" fill="black"/>
<path fill-rule="evenodd" clip-rule="evenodd" d="M20.8948 15.7471C21.2719 15.6185 21.6794 15.827 21.805 16.2128C22.4166 18.0902 23.013 19.8138 23.9121 21.4916C24.1032 21.8482 23.9756 22.2958 23.6271 22.4914C23.2787 22.6869 22.8413 22.5564 22.6502 22.1998C21.6832 20.3954 21.0528 18.5606 20.4397 16.6785C20.3141 16.2927 20.5178 15.8757 20.8948 15.7471Z" fill="black"/>
<path fill-rule="evenodd" clip-rule="evenodd" d="M22.0818 24.0443C22.0874 24.451 21.7699 24.7853 21.3725 24.7911C17.9752 24.8408 14.995 25.5333 11.77 26.712C11.3958 26.8487 10.984 26.6491 10.8504 26.2662C10.7167 25.8832 10.9117 25.4618 11.286 25.325C14.6177 24.1074 17.7574 23.3711 21.352 23.3185C21.7493 23.3127 22.0761 23.6377 22.0818 24.0443Z" fill="black"/>
<path fill-rule="evenodd" clip-rule="evenodd" d="M22.1962 27.3211C22.4204 27.6569 22.3363 28.1151 22.0082 28.3446C19.5077 30.0937 17.287 31.9666 15.155 34.1484C14.874 34.4359 14.4184 34.4359 14.1374 34.1484C13.8564 33.8608 13.8564 33.3945 14.1374 33.107C16.3347 30.8584 18.6247 28.9275 21.1961 27.1288C21.5241 26.8993 21.9719 26.9854 22.1962 27.3211Z" fill="black"/>
<path fill-rule="evenodd" clip-rule="evenodd" d="M24.9314 27.7373C25.3285 27.721 25.6633 28.0373 25.6792 28.4436C25.7907 31.2969 26.6785 33.38 27.8198 36.058C27.8853 36.2116 27.9516 36.3672 28.0187 36.525C28.1771 36.898 28.0101 37.3318 27.6457 37.4939C27.2812 37.6561 26.8573 37.4852 26.6988 37.1122C26.625 36.9385 26.5516 36.7663 26.4787 36.5955C25.3534 33.9588 24.3638 31.64 24.2412 28.5025C24.2253 28.0961 24.5343 27.7535 24.9314 27.7373Z" fill="black"/>
<path fill-rule="evenodd" clip-rule="evenodd" d="M27.0294 27.3274C27.3828 27.1413 27.8167 27.2836 27.9986 27.6452C28.8437 29.3256 29.8223 30.6917 31.0297 32.1744C31.2841 32.4869 31.2429 32.9512 30.9376 33.2115C30.6323 33.4719 30.1785 33.4297 29.9241 33.1173C28.6807 31.5903 27.6305 30.1316 26.7189 28.3192C26.5371 27.9576 26.6761 27.5135 27.0294 27.3274Z" fill="black"/>
<path fill-rule="evenodd" clip-rule="evenodd" d="M27.6921 25.41C27.8881 25.0562 28.3272 24.9319 28.673 25.1324C30.466 26.1721 32.4321 26.4899 34.5765 26.8365C34.9237 26.8926 35.2756 26.9495 35.6323 27.0103C36.0243 27.0772 36.2891 27.4566 36.2238 27.8578C36.1584 28.2589 35.7877 28.5299 35.3957 28.463C35.0634 28.4064 34.7266 28.3524 34.3866 28.298C32.256 27.9569 30.0025 27.5961 27.9634 26.4137C27.6177 26.2132 27.4962 25.7638 27.6921 25.41Z" fill="black"/>
<path fill-rule="evenodd" clip-rule="evenodd" d="M21.0418 12.3965C21.3725 12.6221 21.4619 13.0793 21.2414 13.4177C20.7883 14.1133 20.1252 14.3957 19.6202 14.6108C19.5737 14.6306 19.5285 14.6499 19.485 14.6688C19.1192 14.8279 18.6967 14.6534 18.5413 14.2791C18.3858 13.9048 18.5563 13.4724 18.9221 13.3134C18.9364 13.3071 18.9506 13.301 18.9646 13.2949C19.5683 13.0324 19.8396 12.9145 20.044 12.6008C20.2644 12.2624 20.7112 12.171 21.0418 12.3965Z" fill="black"/>
<path fill-rule="evenodd" clip-rule="evenodd" d="M10.1591 26.6402C10.3535 26.9949 10.23 27.4437 9.88338 27.6426C9.17092 28.0514 8.46986 28.4933 7.78469 28.9496C7.45161 29.1714 7.00586 29.0749 6.78909 28.7341C6.57232 28.3932 6.66661 27.9371 6.9997 27.7152C7.7044 27.2459 8.43311 26.7863 9.17957 26.358C9.52622 26.1591 9.96479 26.2855 10.1591 26.6402Z" fill="black"/>
<path fill-rule="evenodd" clip-rule="evenodd" d="M11.1853 34.6984C11.5347 34.5047 11.9715 34.6375 12.1607 34.9951C12.3954 35.4384 12.5495 35.7117 12.7319 35.9191C12.8922 36.1013 13.0896 36.2478 13.4346 36.3655C13.8116 36.4941 14.0154 36.9111 13.8897 37.2969C13.764 37.6827 13.3565 37.8913 12.9795 37.7626C12.4136 37.5696 11.9996 37.2879 11.6622 36.9043C11.3469 36.5457 11.1169 36.1153 10.8953 35.6966C10.706 35.339 10.8359 34.8921 11.1853 34.6984Z" fill="black"/>
<path fill-rule="evenodd" clip-rule="evenodd" d="M29.7383 38.2166C30.0436 38.4769 30.0848 38.9413 29.8304 39.2537C29.5056 39.6526 29.1933 40.047 28.8918 40.4542C28.6518 40.7784 28.2004 40.8421 27.8837 40.5965C27.5669 40.3509 27.5046 39.8891 27.7446 39.5649C28.0646 39.1327 28.3923 38.7193 28.7248 38.3109C28.9792 37.9984 29.433 37.9562 29.7383 38.2166Z" fill="black"/>
<path fill-rule="evenodd" clip-rule="evenodd" d="M34.9583 33.0529C35.136 33.4167 34.9919 33.859 34.6365 34.0409C34.2337 34.2469 33.9003 34.445 33.5386 34.7141C33.2172 34.9533 32.7672 34.8806 32.5334 34.5517C32.2997 34.2228 32.3707 33.7623 32.6921 33.5231C33.132 33.1957 33.5366 32.957 33.9928 32.7236C34.3483 32.5417 34.7805 32.6892 34.9583 33.0529Z" fill="black"/>
<path fill-rule="evenodd" clip-rule="evenodd" d="M36.5829 16.0597C36.9237 15.8504 37.3657 15.9635 37.5701 16.3122L38.2897 17.5395C38.4942 17.8883 38.3837 18.3406 38.0429 18.5498C37.7021 18.7591 37.2601 18.646 37.0556 18.2972L36.3361 17.07C36.1316 16.7212 36.2421 16.2689 36.5829 16.0597Z" fill="black"/>
<path fill-rule="evenodd" clip-rule="evenodd" d="M39.867 25.1843C39.4698 25.1696 39.1595 24.8283 39.1738 24.4219C39.2 23.677 39.2442 22.9366 39.2879 22.2049L39.2916 22.1436C39.3158 21.7377 39.657 21.4287 40.0537 21.4535C40.4504 21.4783 40.7523 21.8275 40.728 22.2334L40.7248 22.2875C40.6808 23.0245 40.6375 23.7488 40.612 24.4749C40.5977 24.8813 40.2641 25.1989 39.867 25.1843Z" fill="black"/>
<path fill-rule="evenodd" clip-rule="evenodd" d="M23.9425 12.2802C24.0711 12.2473 24.2013 12.3273 24.2334 12.4588C24.9635 15.4472 24.9619 18.4055 24.9603 21.4223C24.9602 21.5633 24.9601 21.7044 24.9601 21.8457C24.9601 21.9813 24.8528 22.0912 24.7203 22.0912C24.5878 22.0912 24.4804 21.9813 24.4804 21.8457C24.4804 21.7104 24.4805 21.5753 24.4806 21.4405C24.482 18.4088 24.4833 15.5059 23.768 12.5779C23.7359 12.4464 23.814 12.3131 23.9425 12.2802Z" fill="black"/>
<path fill-rule="evenodd" clip-rule="evenodd" d="M32.5431 14.2883C32.6476 14.3715 32.6665 14.5257 32.5851 14.6327C32.4918 14.7555 32.3987 14.8779 32.3058 14.9999C30.3669 17.5478 28.541 19.9471 27.3406 22.9213C27.29 23.0466 27.1498 23.1062 27.0273 23.0544C26.9049 23.0027 26.8466 22.8591 26.8972 22.7339C28.1232 19.6964 29.9862 17.2487 31.9158 14.7134C32.0125 14.5863 32.1094 14.459 32.2065 14.3313C32.2878 14.2243 32.4385 14.205 32.5431 14.2883Z" fill="black"/>
<path fill-rule="evenodd" clip-rule="evenodd" d="M35.514 22.8276C32.7052 22.8276 30.7749 23.6064 28.1745 24.7706C28.0531 24.825 27.9117 24.7683 27.8586 24.6441C27.8055 24.5199 27.8608 24.3752 27.9822 24.3209C30.5918 23.1525 32.5997 22.3366 35.514 22.3366C35.6464 22.3366 35.7538 22.4465 35.7538 22.5821C35.7538 22.7177 35.6464 22.8276 35.514 22.8276Z" fill="black"/>
<path fill-rule="evenodd" clip-rule="evenodd" d="M27.9269 26.0736C28.0296 25.988 28.1807 26.0039 28.2644 26.109C29.2616 27.3628 30.1927 28.152 31.2519 28.7124C32.3157 29.2753 33.5215 29.6145 35.0837 29.9511C35.2133 29.979 35.2963 30.1092 35.269 30.2418C35.2417 30.3745 35.1145 30.4594 34.9848 30.4315C33.4138 30.093 32.1554 29.7431 31.0315 29.1485C29.9029 28.5513 28.9226 27.7143 27.8923 26.4189C27.8087 26.3138 27.8242 26.1592 27.9269 26.0736Z" fill="black"/>
<path fill-rule="evenodd" clip-rule="evenodd" d="M25.2938 28.5238C25.3989 28.4413 25.5495 28.4615 25.6302 28.5691C26.9761 30.3639 28.2634 32.4758 29.2523 34.4997C29.3115 34.621 29.2635 34.7684 29.145 34.829C29.0266 34.8897 28.8825 34.8405 28.8232 34.7193C27.8478 32.7229 26.5767 30.6375 25.2496 28.868C25.1689 28.7604 25.1888 28.6063 25.2938 28.5238Z" fill="black"/>
<path fill-rule="evenodd" clip-rule="evenodd" d="M23.7003 28.0645C23.7883 28.1659 23.7794 28.321 23.6804 28.4111C22.4611 29.5201 21.5424 31.1036 20.7635 32.8148C20.2885 33.8585 19.8749 34.9259 19.4763 35.955C19.217 36.6243 18.964 37.2774 18.7044 37.8971C18.6522 38.0217 18.5112 38.0795 18.3895 38.026C18.2677 37.9726 18.2113 37.8284 18.2635 37.7037C18.5115 37.1115 18.761 36.4682 19.0193 35.8018C19.4242 34.7578 19.8509 33.6571 20.3286 32.6075C21.1164 30.8769 22.0685 29.2204 23.3616 28.0442C23.4607 27.9541 23.6123 27.9632 23.7003 28.0645Z" fill="black"/>
<path fill-rule="evenodd" clip-rule="evenodd" d="M21.5995 25.7366C21.6191 25.8707 21.5289 25.9957 21.3978 26.0158C19.7342 26.2712 18.1849 26.8781 16.6254 27.5505C16.3588 27.6654 16.0916 27.7824 15.8235 27.8998C14.531 28.4657 13.2166 29.0412 11.8338 29.4455C11.7064 29.4827 11.5737 29.4072 11.5373 29.2769C11.5009 29.1465 11.5746 29.0107 11.702 28.9734C13.053 28.5784 14.3343 28.0176 15.6261 27.4521C15.8964 27.3338 16.1672 27.2153 16.4392 27.098C18.0033 26.4237 19.5996 25.7954 21.3267 25.5303C21.4577 25.5102 21.5798 25.6026 21.5995 25.7366Z" fill="black"/>
<path fill-rule="evenodd" clip-rule="evenodd" d="M11.7738 13.937C11.803 13.8048 11.9314 13.7218 12.0606 13.7517C14.2236 14.2515 15.8603 15.8805 17.3404 17.7169C17.8069 18.2957 18.2649 18.9046 18.72 19.5096C18.986 19.8631 19.2509 20.2153 19.516 20.5594C20.2397 21.4989 20.9731 22.3902 21.7648 23.1381C21.8621 23.23 21.8682 23.3853 21.7784 23.4849C21.6885 23.5846 21.5368 23.5908 21.4394 23.4988C20.6192 22.724 19.867 21.8081 19.1393 20.8633C18.8666 20.5094 18.5986 20.153 18.3315 19.798C17.8808 19.1987 17.4328 18.6031 16.9703 18.0293C15.4988 16.2036 13.9503 14.6916 11.9549 14.2305C11.8257 14.2007 11.7446 14.0693 11.7738 13.937Z" fill="black"/>
<path fill-rule="evenodd" clip-rule="evenodd" d="M19.7406 1.15787C18.6157 0.861075 17.3407 0.948063 16.0202 1.3553C13.0228 2.27971 11.4087 5.22701 10.5052 8.34754C10.0488 9.92384 9.97925 11.2892 10.2399 12.5787C10.5014 13.8724 11.1021 15.1232 12.0346 16.4592C13.0888 17.9694 14.6032 19.4451 16.3193 20.5566C18.0377 21.6695 19.9279 22.3979 21.7341 22.4585C21.9989 22.4674 22.2065 22.6943 22.1978 22.9652C22.1891 23.2362 21.9674 23.4487 21.7026 23.4398C19.6766 23.3718 17.6212 22.5616 15.8062 21.3862C13.9891 20.2093 12.3826 18.647 11.2539 17.0299C10.2712 15.622 9.59714 14.2456 9.30038 12.7776C9.00275 11.3053 9.09135 9.77441 9.58525 8.06862C10.5102 4.8742 12.2571 1.49039 15.7434 0.415236C17.1839 -0.029018 18.6427 -0.145737 19.9801 0.207131C21.3272 0.562562 22.5211 1.38728 23.423 2.76688C25.2644 5.58376 27.2755 9.22055 27.711 12.7419C28.0791 15.7174 27.5136 18.3682 26.8481 21.1303C26.8326 21.1945 26.8239 21.2938 26.8194 21.4319C26.8185 21.4611 26.8178 21.4948 26.817 21.5308C26.8148 21.6313 26.8122 21.7497 26.8038 21.8384C26.7983 21.8965 26.7864 21.9983 26.7467 22.0972C26.7108 22.1865 26.569 22.4547 26.2401 22.445C26.1141 22.4412 26.0181 22.3924 25.9625 22.3569C25.9046 22.3199 25.8589 22.2771 25.8255 22.2421C25.759 22.1725 25.6962 22.0855 25.6367 21.9942C25.4897 21.7686 25.5493 21.4638 25.7697 21.3134C25.8007 21.2923 25.8332 21.2753 25.8667 21.2624C25.8737 21.1467 25.8872 21.0168 25.9165 20.8952C26.5814 18.136 27.1028 15.6429 26.7592 12.8652C26.3538 9.58762 24.457 6.1144 22.6255 3.3128C21.8526 2.13042 20.8557 1.4521 19.7406 1.15787ZM25.8459 21.7667C25.8459 21.7667 25.846 21.7662 25.8462 21.7652C25.8461 21.7662 25.846 21.7667 25.8459 21.7667Z" fill="black"/>
<path fill-rule="evenodd" clip-rule="evenodd" d="M48.7422 19.9541C49.0456 18.8066 48.9758 17.5009 48.5936 16.1449C47.726 13.0667 44.8654 11.3799 41.827 10.4182C40.2922 9.93239 38.9589 9.845 37.6959 10.0964C36.4286 10.3486 35.1993 10.9483 33.8827 11.8866C32.3945 12.9473 30.9345 14.4793 29.828 16.2222C28.7201 17.9672 27.9858 19.8927 27.9051 21.7402C27.8932 22.0111 27.6691 22.2208 27.4044 22.2087C27.1397 22.1966 26.9348 21.9672 26.9466 21.6964C27.0372 19.624 27.8533 17.5304 29.0235 15.6872C30.1951 13.8419 31.7408 12.2166 33.3344 11.0809C34.7218 10.0921 36.0747 9.41877 37.5127 9.13259C38.9548 8.84559 40.4496 8.95449 42.1105 9.4802C45.2209 10.4647 48.5064 12.2926 49.5155 15.8728C49.9324 17.3521 50.0291 18.8462 49.6683 20.2106C49.305 21.5848 48.4849 22.7966 47.1261 23.703C44.3517 25.5537 40.7742 27.5683 37.3282 27.972C34.4164 28.3132 31.8329 27.7029 29.142 26.989C29.0794 26.9724 28.9825 26.9623 28.8476 26.9561C28.8191 26.9548 28.7862 26.9537 28.751 26.9524C28.6528 26.949 28.5372 26.9449 28.4506 26.9353C28.3938 26.9289 28.2946 26.9155 28.1984 26.8737C28.1115 26.836 27.8511 26.6877 27.8646 26.3512C27.8698 26.2223 27.9186 26.1247 27.954 26.0682C27.9908 26.0095 28.0332 25.9632 28.0678 25.9294C28.1366 25.8622 28.2223 25.7989 28.3123 25.7392C28.5345 25.5915 28.8316 25.656 28.9759 25.8834C28.9962 25.9154 29.0124 25.9489 29.0246 25.9832C29.1375 25.9918 29.2643 26.0072 29.3827 26.0386C32.0709 26.7518 34.5008 27.315 37.219 26.9966C40.4265 26.6208 43.8428 24.7212 46.6022 22.8805C47.7667 22.1037 48.4414 21.0917 48.7422 19.9541ZM28.532 25.956C28.532 25.956 28.5325 25.9561 28.5335 25.9563C28.5325 25.9561 28.532 25.956 28.532 25.956Z" fill="black"/>
<path fill-rule="evenodd" clip-rule="evenodd" d="M31.8582 48.369C32.9979 48.5992 34.2659 48.4375 35.5614 47.9533C38.502 46.8544 39.9481 43.8171 40.6751 40.6486C41.0423 39.0481 41.0351 37.6809 40.7025 36.4089C40.3689 35.1327 39.6991 33.9193 38.6931 32.6402C37.556 31.1944 35.9613 29.8101 34.1856 28.8013C32.4077 27.7912 30.4798 27.175 28.6731 27.2206C28.4083 27.2273 28.1883 27.013 28.1817 26.7419C28.1752 26.4709 28.3846 26.2457 28.6495 26.2391C30.676 26.1879 32.7735 26.876 34.6513 27.9429C36.5315 29.0111 38.223 30.4765 39.4405 32.0246C40.5006 33.3725 41.2508 34.707 41.6294 36.1552C42.0091 37.6075 42.0065 39.1411 41.6091 40.8731C40.8649 44.1166 39.3106 47.5974 35.8905 48.8756C34.4773 49.4037 33.0274 49.606 31.6724 49.3322C30.3076 49.0565 29.0694 48.3033 28.0916 46.9789C26.0952 44.2749 23.8835 40.7622 23.2511 37.2722C22.7167 34.3233 23.1326 31.6436 23.6421 28.847C23.6539 28.782 23.6571 28.6824 23.6537 28.5442C23.653 28.515 23.6519 28.4813 23.6506 28.4454C23.6472 28.3449 23.6431 28.2266 23.6466 28.1375C23.6488 28.0791 23.655 27.9768 23.6891 27.8758C23.7199 27.7845 23.8464 27.5084 24.1753 27.4988C24.3013 27.4951 24.3999 27.5382 24.4574 27.5705C24.5172 27.604 24.5653 27.644 24.6006 27.677C24.6709 27.7426 24.7385 27.8257 24.803 27.9134C24.9624 28.13 24.92 28.4378 24.7084 28.6009C24.6786 28.6238 24.6471 28.6426 24.6145 28.6575C24.6139 28.7734 24.6077 28.9039 24.5853 29.027C24.0763 31.8207 23.6956 34.3404 24.1944 37.0932C24.783 40.3416 26.8716 43.6977 28.8571 46.3871C29.6951 47.5221 30.7284 48.1408 31.8582 48.369ZM24.6069 28.1527C24.6069 28.1527 24.6068 28.1533 24.6067 28.1543C24.6068 28.1532 24.6068 28.1527 24.6069 28.1527Z" fill="black"/>
<path fill-rule="evenodd" clip-rule="evenodd" d="M1.46287 31.8565C1.13779 32.9978 1.18287 34.3047 1.53932 35.668C2.34843 38.7628 5.17661 40.506 8.19621 41.5278C9.72152 42.0439 11.0529 42.1577 12.3205 41.9314C13.5923 41.7044 14.8327 41.1292 16.1668 40.2171C17.6655 39.1926 19.5769 37.203 21.1466 34.972C22.7258 32.7276 23.888 30.339 24.0017 28.5253C24.0187 28.2547 24.2467 28.0495 24.5111 28.0668C24.7755 28.0842 24.9761 28.3176 24.9592 28.5882C24.8274 30.6902 23.5275 33.2685 21.9252 35.5457C20.3134 37.8364 18.3239 39.9232 16.6998 41.0336C15.2939 41.9947 13.9285 42.641 12.4854 42.8987C11.0381 43.157 9.54562 43.0185 7.895 42.46C4.8039 41.414 1.55354 39.5213 0.612479 35.9218C0.223634 34.4345 0.155272 32.9387 0.541763 31.5818C0.931061 30.215 1.77392 29.0197 3.14962 28.1404C5.95851 26.345 9.57353 24.4018 13.0266 24.0664C13.9481 23.9769 14.8112 23.7862 15.6888 23.5922C16.1307 23.4945 16.5762 23.396 17.0348 23.3093C18.3707 23.0565 19.7495 22.9231 21.1926 23.3367C21.3758 23.3891 21.5066 23.5077 21.5932 23.6158C21.681 23.7257 21.7459 23.8523 21.7941 23.975C21.8907 24.2207 21.9456 24.5147 21.9598 24.8038C21.974 25.0936 21.9488 25.4093 21.8619 25.697C21.7766 25.9791 21.6148 26.2878 21.3167 26.4776C21.0918 26.6209 20.7959 26.5504 20.656 26.3202C20.516 26.0901 20.5848 25.7873 20.8097 25.6441C20.8384 25.6258 20.8974 25.5654 20.9452 25.407C20.9914 25.2541 21.0116 25.0576 21.0015 24.853C20.9915 24.6478 20.9526 24.4652 20.904 24.3414C20.8901 24.3061 20.8774 24.2807 20.8676 24.2635C19.6581 23.9326 18.4719 24.0358 17.2092 24.2747C16.8087 24.3505 16.3927 24.4422 15.9652 24.5365C15.0555 24.737 14.0935 24.9491 13.1172 25.0439C9.90323 25.356 6.45154 27.1875 3.65788 28.9731C2.47885 29.7267 1.78514 30.7251 1.46287 31.8565Z" fill="black"/>
<path fill-rule="evenodd" clip-rule="evenodd" d="M9.80048 8.47879C9.86104 8.45136 9.93188 8.47937 9.95868 8.54135C10.3042 9.34007 10.66 9.9837 11.253 10.5906C11.2999 10.6386 11.2999 10.7163 11.253 10.7642C11.2062 10.8121 11.1303 10.8121 11.0834 10.7642C10.4611 10.1273 10.0908 9.45325 9.73935 8.6407C9.71254 8.57871 9.73991 8.50623 9.80048 8.47879Z" fill="black"/>
<path fill-rule="evenodd" clip-rule="evenodd" d="M10.1529 7.25519C10.2115 7.22357 10.284 7.24655 10.3149 7.30651C10.6877 8.03012 11.1502 8.65571 11.6306 9.30555C11.708 9.41022 11.7858 9.51552 11.8638 9.62196C11.9036 9.67618 11.8928 9.75311 11.8398 9.79378C11.7869 9.83445 11.7117 9.82346 11.6719 9.76923C11.595 9.66427 11.5178 9.55989 11.4408 9.45567C10.9609 8.80669 10.4854 8.16369 10.1027 7.42099C10.0718 7.36104 10.0943 7.2868 10.1529 7.25519Z" fill="black"/>
<path fill-rule="evenodd" clip-rule="evenodd" d="M10.5106 5.90629C10.5686 5.87351 10.6415 5.89502 10.6736 5.95435C11.1102 6.76298 11.4717 7.37795 12.0925 8.01332C12.1394 8.06125 12.1394 8.13895 12.0925 8.18688C12.0457 8.23481 11.9698 8.23481 11.9229 8.18688C11.2772 7.52611 10.9026 6.88598 10.4636 6.07307C10.4316 6.01375 10.4526 5.93908 10.5106 5.90629Z" fill="black"/>
<path fill-rule="evenodd" clip-rule="evenodd" d="M11.2232 4.68329C11.2789 4.64656 11.3531 4.66297 11.389 4.71994C11.4352 4.79336 11.5021 4.93608 11.5787 5.09971C11.5906 5.12517 11.6028 5.15113 11.6151 5.17742C11.7097 5.37867 11.8212 5.61133 11.9411 5.82335C12.0623 6.03777 12.1863 6.22023 12.3032 6.32836C12.3615 6.38225 12.41 6.41005 12.4478 6.41973C12.4804 6.42808 12.5089 6.42437 12.5409 6.40253C12.596 6.36493 12.6705 6.38017 12.7072 6.43656C12.7439 6.49296 12.7291 6.56916 12.6739 6.60676C12.5841 6.66802 12.486 6.68251 12.3896 6.65786C12.2985 6.63455 12.2156 6.57818 12.1424 6.51045C11.9963 6.37534 11.857 6.16478 11.7335 5.9463C11.6086 5.72542 11.4936 5.4853 11.3989 5.28379C11.3864 5.25714 11.3743 5.23135 11.3627 5.20649C11.2836 5.03782 11.2247 4.91219 11.1874 4.85294C11.1515 4.79598 11.1675 4.72002 11.2232 4.68329Z" fill="black"/>
<path fill-rule="evenodd" clip-rule="evenodd" d="M11.8391 3.81517C11.8996 3.78765 11.9705 3.81554 11.9974 3.87748C12.0726 4.05057 12.367 4.5983 12.6735 5.05581C12.8273 5.2854 12.9785 5.4836 13.1022 5.6003C13.1638 5.65844 13.2071 5.68521 13.2319 5.69342C13.27 5.64261 13.3407 5.63009 13.3935 5.66614C13.4486 5.70374 13.4635 5.77993 13.4268 5.83633C13.3992 5.87865 13.3603 5.91336 13.3092 5.93034C13.2593 5.94689 13.2102 5.94252 13.168 5.93005C13.0881 5.90647 13.0099 5.84712 12.9395 5.78073C12.795 5.64431 12.6313 5.42688 12.4757 5.1946C12.1634 4.72839 11.8609 4.16744 11.7782 3.97717C11.7513 3.91523 11.7786 3.8427 11.8391 3.81517Z" fill="black"/>
<path fill-rule="evenodd" clip-rule="evenodd" d="M12.5571 2.95679C12.6173 2.92839 12.6885 2.95525 12.7163 3.01679C12.7789 3.15567 13.0155 3.67856 13.252 4.13342C13.3708 4.36195 13.4868 4.56795 13.5791 4.69938C13.6092 4.74209 13.6334 4.77216 13.6517 4.79179C13.6801 4.7829 13.7117 4.78472 13.7404 4.79938C13.7996 4.82969 13.8237 4.90341 13.794 4.96404C13.7732 5.00664 13.7309 5.05222 13.6634 5.0571C13.6086 5.06106 13.5646 5.03492 13.5395 5.01681C13.4868 4.97862 13.4337 4.9128 13.3844 4.84268C13.282 4.69689 13.1596 4.47839 13.0402 4.2487C12.8003 3.78712 12.5612 3.25864 12.4985 3.11965C12.4707 3.05811 12.497 2.98519 12.5571 2.95679ZM13.6814 4.81858C13.6814 4.81862 13.6809 4.81836 13.6798 4.81764C13.6809 4.81817 13.6814 4.81853 13.6814 4.81858Z" fill="black"/>
<path fill-rule="evenodd" clip-rule="evenodd" d="M13.2614 2.59732C13.3168 2.56023 13.3911 2.57615 13.4274 2.63288C13.6918 3.04676 13.9332 3.46788 14.1755 3.89055L14.1767 3.8925C14.2306 3.98655 14.2669 4.04946 14.2933 4.09145C14.3135 4.07918 14.3383 4.06663 14.3684 4.05636C14.4313 4.03492 14.4992 4.06967 14.5201 4.13398C14.5411 4.19828 14.5071 4.26778 14.4443 4.28922C14.4214 4.29703 14.4076 4.30721 14.3908 4.32053C14.3902 4.32101 14.3894 4.32159 14.3886 4.32225C14.3811 4.32823 14.3649 4.34124 14.3479 4.35054C14.3242 4.3635 14.2855 4.37729 14.2391 4.36524C14.1987 4.35478 14.1712 4.32928 14.1551 4.31193C14.1379 4.29337 14.1215 4.27045 14.1056 4.24617C14.0736 4.1973 14.0305 4.12262 13.9698 4.01671C13.7266 3.59255 13.4878 3.17592 13.2266 2.76721C13.1904 2.71048 13.2059 2.63442 13.2614 2.59732ZM14.33 4.14385C14.33 4.14387 14.3297 4.14362 14.3291 4.14303C14.3297 4.14353 14.33 4.14383 14.33 4.14385Z" fill="black"/>
<path fill-rule="evenodd" clip-rule="evenodd" d="M13.9888 2.10161C14.0468 2.06894 14.1197 2.09061 14.1516 2.15C14.2461 2.32582 14.33 2.52634 14.4124 2.72317C14.4504 2.81422 14.4882 2.90447 14.5265 2.99114C14.6513 3.2732 14.7862 3.52888 14.9709 3.71784C15.0177 3.76577 15.0177 3.84347 14.9709 3.8914C14.924 3.93933 14.8481 3.93933 14.8013 3.8914C14.5843 3.66943 14.4349 3.37932 14.308 3.09234C14.2649 2.99494 14.2248 2.89893 14.1856 2.80512C14.106 2.6148 14.0303 2.43357 13.9415 2.26829C13.9095 2.2089 13.9307 2.13427 13.9888 2.10161Z" fill="black"/>
<path fill-rule="evenodd" clip-rule="evenodd" d="M14.8599 1.47573C14.9245 1.46094 14.9886 1.50257 15.0031 1.56871C15.1926 2.43547 15.3785 3.12753 15.8273 3.8623C15.8624 3.91978 15.8453 3.9955 15.7891 4.03142C15.733 4.06735 15.659 4.04987 15.6239 3.99239C15.1527 3.22091 14.9598 2.49504 14.769 1.62229C14.7546 1.55615 14.7952 1.49053 14.8599 1.47573Z" fill="black"/>
<path fill-rule="evenodd" clip-rule="evenodd" d="M15.7976 1.36026C15.8583 1.33318 15.929 1.36159 15.9554 1.42373C16.2922 2.21427 16.655 2.97795 17.0321 3.74972C17.0618 3.81035 17.0377 3.88407 16.9785 3.91438C16.9193 3.94469 16.8472 3.92012 16.8176 3.8595C16.4399 3.0864 16.0748 2.31824 15.7356 1.52181C15.7091 1.45967 15.7369 1.38735 15.7976 1.36026Z" fill="black"/>
<path fill-rule="evenodd" clip-rule="evenodd" d="M16.8741 0.993396C16.9341 0.964684 17.0054 0.991182 17.0335 1.05258C17.4061 1.86795 17.764 2.68591 18.1142 3.51021C18.1406 3.57237 18.1128 3.64467 18.052 3.67169C17.9913 3.69872 17.9207 3.67024 17.8942 3.60808C17.5447 2.78539 17.1877 1.96952 16.8162 1.15656C16.7882 1.09516 16.8141 1.02211 16.8741 0.993396Z" fill="black"/>
<path fill-rule="evenodd" clip-rule="evenodd" d="M18.0868 0.619767C18.1497 0.598635 18.2175 0.633713 18.2381 0.698116C18.5392 1.63726 18.8104 2.57852 19.0788 3.52492C19.0973 3.59001 19.0607 3.6581 18.9971 3.677C18.9335 3.6959 18.867 3.65845 18.8485 3.59336C18.5801 2.64722 18.31 1.70945 18.0102 0.774642C17.9896 0.710239 18.0238 0.640899 18.0868 0.619767Z" fill="black"/>
<path fill-rule="evenodd" clip-rule="evenodd" d="M19.1615 0.74417C19.2236 0.720424 19.2927 0.752638 19.3159 0.816124C19.5997 1.59256 19.879 2.3702 20.1557 3.14902C20.1784 3.21272 20.1463 3.28314 20.084 3.3063C20.0218 3.32947 19.953 3.29661 19.9303 3.23291C19.6538 2.45461 19.3747 1.6777 19.0912 0.902117C19.068 0.838632 19.0995 0.767917 19.1615 0.74417Z" fill="black"/>
<path fill-rule="evenodd" clip-rule="evenodd" d="M41.1309 9.87361C41.1673 9.93025 41.152 10.0063 41.0966 10.0436C40.0572 10.743 39.2948 11.514 38.483 12.4758C38.4397 12.5271 38.364 12.5328 38.3139 12.4885C38.2638 12.4442 38.2582 12.3667 38.3015 12.3154C39.1213 11.3439 39.9002 10.5549 40.9648 9.83849C41.0202 9.80125 41.0945 9.81698 41.1309 9.87361Z" fill="black"/>
<path fill-rule="evenodd" clip-rule="evenodd" d="M42.1949 10.2224C42.2417 10.2704 42.2417 10.3481 42.1949 10.396C41.2439 11.3692 40.4072 12.3772 39.5653 13.4541C39.5239 13.507 39.4484 13.5156 39.3967 13.4733C39.345 13.4309 39.3366 13.3537 39.378 13.3008C40.2226 12.2204 41.0655 11.2046 42.0253 10.2224C42.0721 10.1745 42.1481 10.1745 42.1949 10.2224Z" fill="black"/>
<path fill-rule="evenodd" clip-rule="evenodd" d="M43.2731 10.7122C43.3206 10.7594 43.3216 10.8371 43.2754 10.8857C42.3224 11.888 41.4816 12.9544 40.6461 14.0659C40.6057 14.1196 40.5304 14.1297 40.4779 14.0883C40.4254 14.047 40.4156 13.97 40.456 13.9162C41.2932 12.8024 42.1408 11.7271 43.1035 10.7145C43.1497 10.666 43.2256 10.6649 43.2731 10.7122Z" fill="black"/>
<path fill-rule="evenodd" clip-rule="evenodd" d="M44.3451 11.0736C44.3962 11.1168 44.4035 11.1941 44.3614 11.2464C43.5392 12.2668 42.7388 13.3029 41.9369 14.3411C41.7862 14.5361 41.6355 14.7313 41.4845 14.9264C41.4434 14.9795 41.368 14.9885 41.3161 14.9464C41.2641 14.9043 41.2554 14.8272 41.2965 14.774C41.4472 14.5792 41.5978 14.3843 41.7484 14.1893C42.5503 13.1512 43.3524 12.1127 44.1763 11.0902C44.2184 11.038 44.294 11.0305 44.3451 11.0736Z" fill="black"/>
<path fill-rule="evenodd" clip-rule="evenodd" d="M45.6719 11.817C45.7193 11.8644 45.7201 11.9421 45.6738 11.9905C44.8184 12.8853 43.9971 13.8126 43.1742 14.7418C43.0092 14.9282 42.844 15.1147 42.6786 15.3009C42.634 15.3511 42.5581 15.3548 42.5091 15.3092C42.4601 15.2636 42.4565 15.186 42.5011 15.1358C42.666 14.9502 42.8308 14.7641 42.9956 14.578C43.8186 13.6488 44.6434 12.7174 45.5023 11.8189C45.5486 11.7704 45.6246 11.7696 45.6719 11.817Z" fill="black"/>
<path fill-rule="evenodd" clip-rule="evenodd" d="M32.0985 45.3019C32.1566 45.2694 32.2295 45.2913 32.2612 45.3508C32.8753 46.5029 33.5454 47.5818 34.2923 48.652C34.3308 48.7071 34.3183 48.7838 34.2644 48.8232C34.2105 48.8626 34.1356 48.8498 34.0971 48.7946C33.3452 47.7173 32.6698 46.63 32.0506 45.4684C32.0189 45.4089 32.0403 45.3343 32.0985 45.3019Z" fill="black"/>
<path fill-rule="evenodd" clip-rule="evenodd" d="M34.0313 45.9089C34.0931 45.8843 34.1626 45.9156 34.1866 45.9788C34.5073 46.8228 34.8353 47.5687 35.3692 48.2804C35.4096 48.3341 35.3997 48.4112 35.3471 48.4525C35.2946 48.4937 35.2193 48.4836 35.179 48.4299C34.6239 47.6901 34.2862 46.918 33.963 46.0678C33.939 46.0046 33.9696 45.9335 34.0313 45.9089Z" fill="black"/>
<path fill-rule="evenodd" clip-rule="evenodd" d="M34.2524 44.3229C34.309 44.2877 34.3828 44.3062 34.4172 44.3641C35.0641 45.4545 35.7284 46.509 36.4511 47.5476C36.4896 47.6028 36.477 47.6794 36.423 47.7187C36.3691 47.758 36.2942 47.7451 36.2558 47.6899C35.5288 46.6453 34.8613 45.5856 34.2121 44.4915C34.1778 44.4336 34.1958 44.3581 34.2524 44.3229Z" fill="black"/>
<path fill-rule="evenodd" clip-rule="evenodd" d="M35.9272 44.4484C35.9823 44.4108 36.0567 44.426 36.0935 44.4824C36.5878 45.2413 37.0855 45.9785 37.6458 46.6821C37.6876 46.7346 37.6799 46.812 37.6285 46.8548C37.5772 46.8976 37.5016 46.8897 37.4598 46.8371C36.8921 46.1242 36.3893 45.379 35.8939 44.6186C35.8572 44.5622 35.8721 44.486 35.9272 44.4484Z" fill="black"/>
<path fill-rule="evenodd" clip-rule="evenodd" d="M37.2393 43.9627C37.2916 43.9211 37.3669 43.9307 37.4076 43.9842C37.8446 44.5592 38.2824 45.1322 38.7259 45.7013C38.7672 45.7543 38.7587 45.8315 38.7069 45.8737C38.6551 45.916 38.5797 45.9073 38.5384 45.8543C38.0939 45.2841 37.6554 44.7101 37.2182 44.1349C37.1776 44.0814 37.187 44.0043 37.2393 43.9627Z" fill="black"/>
<path fill-rule="evenodd" clip-rule="evenodd" d="M37.3625 42.1193C37.4161 42.0795 37.4911 42.0918 37.53 42.1467C38.214 43.1134 38.8586 43.9951 39.6764 44.8319C39.7232 44.8799 39.7232 44.9576 39.6764 45.0055C39.6295 45.0534 39.5536 45.0534 39.5068 45.0055C38.6744 44.1537 38.0203 43.2581 37.3357 42.2907C37.2969 42.2358 37.3089 42.159 37.3625 42.1193Z" fill="black"/>
<path fill-rule="evenodd" clip-rule="evenodd" d="M37.9524 39.9182C38.0017 39.873 38.0775 39.8772 38.1217 39.9276C38.2956 40.1258 38.4685 40.3242 38.6413 40.5224C39.2975 41.2751 39.9506 42.0242 40.637 42.7468C40.6832 42.7954 40.6821 42.8731 40.6346 42.9203C40.5871 42.9676 40.5112 42.9665 40.465 42.9179C39.7746 42.1912 39.1172 41.437 38.4605 40.6838C38.2882 40.4861 38.116 40.2885 37.9432 40.0915C37.899 40.0411 37.9031 39.9635 37.9524 39.9182Z" fill="black"/>
<path fill-rule="evenodd" clip-rule="evenodd" d="M8.84161 37.4568C8.89459 37.4975 8.90533 37.5744 8.86559 37.6286C8.61217 37.9744 8.33332 38.3193 8.05461 38.664C7.86985 38.8926 7.68516 39.121 7.50799 39.3496C7.05889 39.9289 6.64713 40.522 6.36023 41.1651C6.33272 41.2267 6.26157 41.2539 6.20132 41.2258C6.14107 41.1976 6.11452 41.1248 6.14203 41.0631C6.44107 40.3928 6.86712 39.7814 7.32007 39.197C7.50443 38.9592 7.69154 38.7279 7.87682 38.4988C8.15143 38.1593 8.42203 37.8248 8.67371 37.4813C8.71345 37.4271 8.78862 37.4161 8.84161 37.4568Z" fill="black"/>
<path fill-rule="evenodd" clip-rule="evenodd" d="M7.76 36.8415C7.8139 36.8809 7.82638 36.9575 7.78788 37.0127C6.88989 38.2992 5.97147 39.569 5.02683 40.8209C4.98635 40.8746 4.91104 40.8845 4.85861 40.8431C4.80619 40.8016 4.7965 40.7246 4.83698 40.6709C5.77963 39.4216 6.69628 38.1543 7.5927 36.87C7.6312 36.8149 7.7061 36.8021 7.76 36.8415Z" fill="black"/>
<path fill-rule="evenodd" clip-rule="evenodd" d="M6.44485 36.3537C6.49707 36.3954 6.50636 36.4725 6.46561 36.5259C6.34192 36.6881 6.21818 36.8501 6.09452 37.0119C5.41016 37.9075 4.72805 38.8002 4.06898 39.7142C4.02965 39.7688 3.95456 39.7804 3.90127 39.7401C3.84797 39.6999 3.83664 39.6231 3.87597 39.5685C4.53721 38.6514 5.22168 37.7557 5.90598 36.8601C6.02955 36.6984 6.15311 36.5367 6.27652 36.3749C6.31728 36.3215 6.39264 36.312 6.44485 36.3537Z" fill="black"/>
<path fill-rule="evenodd" clip-rule="evenodd" d="M7.0608 34.8967C7.10452 34.9476 7.09963 35.0251 7.04988 35.0699C5.67291 36.3082 4.40481 37.5491 3.22472 38.984C3.18207 39.0359 3.10641 39.0425 3.05574 38.9989C3.00506 38.9553 2.99855 38.8778 3.0412 38.826C4.23202 37.378 5.50987 36.128 6.89154 34.8855C6.94129 34.8407 7.01707 34.8458 7.0608 34.8967Z" fill="black"/>
<path fill-rule="evenodd" clip-rule="evenodd" d="M3.92849 35.8645C3.97975 35.9075 3.9873 35.9848 3.94536 36.0372C3.91426 36.0761 3.88316 36.115 3.85209 36.1539C3.39603 36.7241 2.94361 37.2898 2.50884 37.8748C2.46875 37.9287 2.3935 37.9392 2.34078 37.8981C2.28806 37.8571 2.27783 37.7801 2.31793 37.7262C2.75539 37.1375 3.21039 36.5687 3.66586 35.9992C3.69715 35.9601 3.72843 35.9209 3.75972 35.8818C3.80166 35.8293 3.87722 35.8216 3.92849 35.8645Z" fill="black"/>
<path fill-rule="evenodd" clip-rule="evenodd" d="M4.6598 33.6666C4.70499 33.7162 4.70237 33.7939 4.65395 33.8401C3.3957 35.0419 2.22903 36.2297 1.18964 37.6292C1.14957 37.6832 1.07433 37.6937 1.02159 37.6527C0.968859 37.6117 0.958599 37.5347 0.998677 37.4807C2.05058 36.0643 3.22914 34.8652 4.49029 33.6607C4.53871 33.6144 4.6146 33.6171 4.6598 33.6666Z" fill="black"/>
<path fill-rule="evenodd" clip-rule="evenodd" d="M3.94467 32.8127C3.98707 32.8648 3.98019 32.9422 3.92931 32.9856C3.05801 33.7286 2.22595 34.4954 1.41822 35.3105C1.37106 35.3581 1.29512 35.3576 1.24862 35.3093C1.20211 35.261 1.20264 35.1833 1.2498 35.1357C2.06268 34.3154 2.89974 33.5441 3.77576 32.797C3.82664 32.7536 3.90226 32.7606 3.94467 32.8127Z" fill="black"/>
<path fill-rule="evenodd" clip-rule="evenodd" d="M3.82186 31.2139C3.8661 31.2643 3.862 31.3419 3.81271 31.3872C3.66894 31.5192 3.52534 31.6514 3.38175 31.7835C2.53518 32.5627 1.68916 33.3414 0.811143 34.0901C0.76026 34.1335 0.684636 34.1265 0.642233 34.0744C0.599831 34.0224 0.606705 33.945 0.657589 33.9016C1.53183 33.156 2.37408 32.3808 3.22079 31.6015C3.36451 31.4693 3.50835 31.3369 3.6525 31.2045C3.7018 31.1592 3.77762 31.1634 3.82186 31.2139Z" fill="black"/>
<path fill-rule="evenodd" clip-rule="evenodd" d="M22.6822 22.8275C22.7484 22.8279 22.8018 22.8832 22.8014 22.951C22.7933 24.4209 22.7421 25.8837 22.6908 27.3492C22.6877 27.4389 22.6845 27.5286 22.6814 27.6183C22.679 27.6861 22.6235 27.739 22.5573 27.7366C22.4911 27.7342 22.4393 27.6773 22.4417 27.6096C22.4448 27.5201 22.448 27.4307 22.4511 27.3414C22.5024 25.875 22.5535 24.4157 22.5616 22.9496C22.5619 22.8818 22.6159 22.8272 22.6822 22.8275Z" fill="black"/>
<path fill-rule="evenodd" clip-rule="evenodd" d="M23.2846 22.9503C23.3508 22.9523 23.4029 23.0088 23.401 23.0765C23.3718 24.1217 23.3035 25.166 23.2354 26.2074C23.2099 26.5974 23.1844 26.987 23.161 27.3761C23.1569 27.4437 23.1 27.4952 23.0339 27.491C22.9678 27.4869 22.9175 27.4286 22.9216 27.361C22.9452 26.969 22.9708 26.5776 22.9963 26.1867C23.0644 25.1468 23.1322 24.1096 23.1613 23.0695C23.1632 23.0018 23.2184 22.9484 23.2846 22.9503Z" fill="black"/>
<path fill-rule="evenodd" clip-rule="evenodd" d="M23.8808 22.4594C23.947 22.4594 24.0007 22.5143 24.0007 22.5821V27.2458C24.0007 27.3136 23.947 27.3685 23.8808 27.3685C23.8145 27.3685 23.7609 27.3136 23.7609 27.2458V22.5821C23.7609 22.5143 23.8145 22.4594 23.8808 22.4594Z" fill="black"/>
<path fill-rule="evenodd" clip-rule="evenodd" d="M24.8567 22.4605C24.9224 22.4699 24.9681 22.5319 24.959 22.599C24.7115 24.4196 24.6615 26.2448 24.6111 28.0866C24.6075 28.2165 24.6039 28.3465 24.6003 28.4766C24.5984 28.5443 24.5432 28.5977 24.477 28.5957C24.4108 28.5938 24.3587 28.5373 24.3606 28.4696C24.3642 28.3386 24.3678 28.2077 24.3714 28.0767C24.4217 26.2378 24.472 24.3997 24.7214 22.5652C24.7306 22.498 24.7911 22.4512 24.8567 22.4605Z" fill="black"/>
<path fill-rule="evenodd" clip-rule="evenodd" d="M25.5693 22.5825C25.6354 22.5879 25.6846 22.647 25.6794 22.7146C25.6018 23.7101 25.5114 24.7089 25.4211 25.7066C25.3446 26.552 25.2681 27.3966 25.1996 28.2378C25.1941 28.3054 25.1361 28.3556 25.0701 28.3499C25.0041 28.3443 24.9551 28.285 24.9606 28.2174C25.0297 27.3686 25.1062 26.524 25.1826 25.68C25.2726 24.6862 25.3625 23.6933 25.4403 22.6951C25.4455 22.6275 25.5033 22.5771 25.5693 22.5825Z" fill="black"/>
<path fill-rule="evenodd" clip-rule="evenodd" d="M26.1772 22.9516C26.2427 22.9617 26.2879 23.0242 26.2781 23.0912C26.0335 24.7597 25.8964 26.4262 25.7995 28.1121C25.7956 28.1797 25.7388 28.2314 25.6727 28.2274C25.6066 28.2234 25.5561 28.1653 25.56 28.0977C25.6571 26.408 25.7948 24.7334 26.0408 23.0548C26.0507 22.9878 26.1117 22.9416 26.1772 22.9516Z" fill="black"/>
<path fill-rule="evenodd" clip-rule="evenodd" d="M27.0108 23.6872C27.0767 23.6939 27.1248 23.754 27.1183 23.8215C26.992 25.1296 26.8749 26.4382 26.7586 27.7478C26.7526 27.8153 26.6943 27.8651 26.6283 27.8589C26.5623 27.8528 26.5137 27.7931 26.5197 27.7256C26.6361 26.416 26.7532 25.1065 26.8796 23.7973C26.8861 23.7299 26.9448 23.6806 27.0108 23.6872Z" fill="black"/>
</svg>
