<svg width="50" height="50" viewBox="0 0 50 50" fill="none" xmlns="http://www.w3.org/2000/svg">
<path fill-rule="evenodd" clip-rule="evenodd" d="M26.1371 19.5856C26.9088 19.8038 27.5808 20.3198 28.1765 21.06C29.0594 22.1571 29.3253 23.3008 28.8895 24.3334C28.4806 25.3025 27.5321 25.9684 26.4517 26.3684C24.5105 27.0871 22.1731 25.9456 21.7335 23.6989C21.5527 22.775 21.6948 21.9977 22.0942 21.3415C22.476 20.7142 23.0606 20.2525 23.6632 19.8684L23.7045 19.8421L23.7491 19.8227C24.5592 19.4698 25.36 19.3658 26.1371 19.5856ZM24.2795 21.0241C23.7528 21.3643 23.3808 21.6904 23.1611 22.0512C22.9533 22.3927 22.8514 22.8153 22.9725 23.434C23.2404 24.8034 24.726 25.6048 26.0295 25.1222C26.965 24.7759 27.527 24.2867 27.7324 23.7999C27.911 23.3767 27.895 22.7637 27.2088 21.911C26.7253 21.3102 26.2594 20.9897 25.8068 20.8617C25.3704 20.7383 24.8744 20.7735 24.2795 21.0241Z" fill="black"/>
<path fill-rule="evenodd" clip-rule="evenodd" d="M35.1042 16.1873C35.2519 16.5181 35.115 16.9114 34.7986 17.0658C33.6288 17.6364 32.62 18.4276 31.5908 19.294C31.417 19.4403 31.2421 19.5893 31.0655 19.7397C30.212 20.4667 29.32 21.2263 28.3334 21.8739C28.0376 22.0681 27.6473 21.9748 27.4616 21.6656C27.2759 21.3565 27.3651 20.9485 27.6608 20.7544C28.5754 20.1541 29.3959 19.4557 30.2479 18.7305C30.4293 18.5761 30.6121 18.4205 30.7976 18.2644C31.8388 17.3878 32.9471 16.5102 34.2638 15.8678C34.5802 15.7135 34.9565 15.8565 35.1042 16.1873Z" fill="black"/>
<path fill-rule="evenodd" clip-rule="evenodd" d="M36.2299 22.2501C36.2612 22.6137 36.0047 22.935 35.6569 22.9678C34.541 23.073 33.4282 23.2248 32.3035 23.3831C32.1788 23.4006 32.054 23.4183 31.9289 23.4359C30.9302 23.577 29.9209 23.7195 28.9071 23.8322C28.5598 23.8708 28.2483 23.6078 28.2114 23.2448C28.1745 22.8818 28.4261 22.5562 28.7733 22.5176C29.7681 22.4071 30.7589 22.2672 31.7597 22.1258C31.8846 22.1082 32.0096 22.0905 32.1348 22.0729C33.2597 21.9146 34.397 21.7592 35.5433 21.6511C35.8911 21.6183 36.1985 21.8865 36.2299 22.2501Z" fill="black"/>
<path fill-rule="evenodd" clip-rule="evenodd" d="M21.8954 14.7381C22.2267 14.6226 22.5848 14.8098 22.6952 15.1561C23.2326 16.8414 23.7567 18.3886 24.5468 19.8947C24.7147 20.2147 24.6026 20.6165 24.2964 20.7921C23.9902 20.9676 23.6058 20.8504 23.4379 20.5303C22.5882 18.9106 22.0342 17.2637 21.4955 15.5742C21.385 15.2279 21.5641 14.8535 21.8954 14.7381Z" fill="black"/>
<path fill-rule="evenodd" clip-rule="evenodd" d="M22.9384 22.186C22.9434 22.5511 22.6643 22.8512 22.3152 22.8564C19.3298 22.901 16.7109 23.5226 13.877 24.5806C13.5481 24.7034 13.1862 24.5243 13.0688 24.1805C12.9513 23.8367 13.1227 23.4584 13.4516 23.3357C16.3793 22.2426 19.1384 21.5817 22.2971 21.5346C22.6463 21.5293 22.9334 21.821 22.9384 22.186Z" fill="black"/>
<path fill-rule="evenodd" clip-rule="evenodd" d="M23.0389 25.1275C23.236 25.4289 23.162 25.8402 22.8737 26.0462C20.6765 27.6162 18.725 29.2975 16.8515 31.2559C16.6046 31.514 16.2042 31.514 15.9573 31.2559C15.7103 30.9977 15.7103 30.5792 15.9573 30.3211C17.8881 28.3027 19.9004 26.5694 22.1601 24.9548C22.4484 24.7488 22.8419 24.8261 23.0389 25.1275Z" fill="black"/>
<path fill-rule="evenodd" clip-rule="evenodd" d="M25.4425 25.501C25.7915 25.4864 26.0857 25.7703 26.0996 26.1351C26.1976 28.6962 26.9778 30.5661 27.9807 32.97C28.0383 33.1079 28.0965 33.2476 28.1554 33.3893C28.2947 33.724 28.1479 34.1134 27.8277 34.259C27.5074 34.4046 27.1349 34.2512 26.9957 33.9164C26.9308 33.7604 26.8662 33.6059 26.8022 33.4525C25.8133 31.0857 24.9437 29.0043 24.836 26.1879C24.822 25.8231 25.0936 25.5156 25.4425 25.501Z" fill="black"/>
<path fill-rule="evenodd" clip-rule="evenodd" d="M27.2862 25.1331C27.5967 24.966 27.978 25.0937 28.1378 25.4183C28.8805 26.9267 29.7404 28.1531 30.8014 29.484C31.025 29.7644 30.9887 30.1812 30.7205 30.4149C30.4522 30.6487 30.0534 30.6108 29.8299 30.3303C28.7372 28.9596 27.8144 27.6502 27.0133 26.0233C26.8535 25.6987 26.9757 25.3002 27.2862 25.1331Z" fill="black"/>
<path fill-rule="evenodd" clip-rule="evenodd" d="M27.8685 23.4119C28.0407 23.0943 28.4266 22.9827 28.7304 23.1627C30.3061 24.0961 32.0338 24.3813 33.9181 24.6924C34.2233 24.7428 34.5325 24.7939 34.8459 24.8485C35.1904 24.9085 35.4231 25.249 35.3657 25.6091C35.3083 25.9692 34.9825 26.2125 34.638 26.1525C34.346 26.1016 34.05 26.0532 33.7513 26.0043C31.879 25.6982 29.8988 25.3743 28.1069 24.3129C27.8031 24.1329 27.6963 23.7295 27.8685 23.4119Z" fill="black"/>
<path fill-rule="evenodd" clip-rule="evenodd" d="M22.0246 11.7305C22.3151 11.933 22.3936 12.3434 22.1999 12.6472C21.8017 13.2716 21.2191 13.5251 20.7753 13.7181C20.7344 13.7359 20.6947 13.7532 20.6565 13.7702C20.3351 13.913 19.9638 13.7564 19.8272 13.4204C19.6906 13.0844 19.8404 12.6963 20.1618 12.5535C20.1744 12.5479 20.1869 12.5424 20.1992 12.5369C20.7297 12.3013 20.9681 12.1955 21.1477 11.9139C21.3414 11.6101 21.734 11.528 22.0246 11.7305Z" fill="black"/>
<path fill-rule="evenodd" clip-rule="evenodd" d="M12.4614 24.5162C12.6322 24.8346 12.5237 25.2375 12.219 25.416C11.593 25.783 10.9769 26.1796 10.3748 26.5892C10.0821 26.7884 9.69042 26.7018 9.49993 26.3958C9.30945 26.0898 9.3923 25.6804 9.68501 25.4812C10.3043 25.0599 10.9446 24.6474 11.6006 24.2629C11.9052 24.0844 12.2906 24.1978 12.4614 24.5162Z" fill="black"/>
<path fill-rule="evenodd" clip-rule="evenodd" d="M13.3631 31.7496C13.6702 31.5757 14.0539 31.695 14.2203 32.016C14.4264 32.4139 14.5619 32.6592 14.7222 32.8453C14.8631 33.009 15.0365 33.1404 15.3397 33.2461C15.671 33.3615 15.85 33.7358 15.7396 34.0822C15.6292 34.4285 15.2711 34.6157 14.9397 34.5002C14.4425 34.3269 14.0787 34.0741 13.7822 33.7297C13.5051 33.4079 13.303 33.0215 13.1083 32.6456C12.9419 32.3246 13.056 31.9235 13.3631 31.7496Z" fill="black"/>
<path fill-rule="evenodd" clip-rule="evenodd" d="M29.6666 34.9077C29.9349 35.1414 29.9711 35.5582 29.7475 35.8386C29.4621 36.1967 29.1876 36.5507 28.9227 36.9163C28.7118 37.2073 28.3152 37.2645 28.0368 37.044C27.7585 36.8236 27.7037 36.409 27.9146 36.118C28.1958 35.73 28.4838 35.3589 28.776 34.9923C28.9996 34.7119 29.3983 34.674 29.6666 34.9077Z" fill="black"/>
<path fill-rule="evenodd" clip-rule="evenodd" d="M34.2536 30.2725C34.4098 30.599 34.2832 30.9961 33.9708 31.1593C33.6169 31.3443 33.3239 31.5221 33.0061 31.7637C32.7237 31.9784 32.3282 31.9131 32.1228 31.6179C31.9174 31.3227 31.9798 30.9093 32.2623 30.6946C32.6488 30.4007 33.0044 30.1865 33.4053 29.9769C33.7176 29.8137 34.0975 29.946 34.2536 30.2725Z" fill="black"/>
<path fill-rule="evenodd" clip-rule="evenodd" d="M35.6813 15.0187C35.9807 14.8309 36.3691 14.9324 36.5488 15.2454L37.1811 16.3471C37.3608 16.6601 37.2637 17.0662 36.9643 17.254C36.6648 17.4418 36.2764 17.3403 36.0967 17.0273L35.4644 15.9256C35.2847 15.6126 35.3818 15.2065 35.6813 15.0187Z" fill="black"/>
<path fill-rule="evenodd" clip-rule="evenodd" d="M38.5672 23.2093C38.2182 23.1962 37.9454 22.8898 37.958 22.525C37.981 21.8563 38.0199 21.1917 38.0583 20.5349L38.0615 20.4799C38.0828 20.1155 38.3827 19.8382 38.7312 19.8604C39.0798 19.8827 39.3451 20.1962 39.3238 20.5605L39.321 20.6091C39.2823 21.2706 39.2443 21.9207 39.2219 22.5725C39.2093 22.9374 38.9162 23.2225 38.5672 23.2093Z" fill="black"/>
<path fill-rule="evenodd" clip-rule="evenodd" d="M24.5735 11.6261C24.6865 11.5966 24.8009 11.6683 24.8292 11.7864C25.4707 14.4689 25.4693 17.1244 25.4679 19.8324C25.4678 19.959 25.4678 20.0857 25.4678 20.2125C25.4678 20.3342 25.3734 20.4328 25.257 20.4328C25.1406 20.4328 25.0462 20.3342 25.0462 20.2125C25.0462 20.091 25.0463 19.9698 25.0463 19.8488C25.0476 17.1274 25.0488 14.5216 24.4202 11.8933C24.392 11.7752 24.4606 11.6556 24.5735 11.6261Z" fill="black"/>
<path fill-rule="evenodd" clip-rule="evenodd" d="M32.1313 13.4286C32.2231 13.5033 32.2397 13.6417 32.1682 13.7378C32.0862 13.848 32.0044 13.9578 31.9228 14.0674C30.219 16.3544 28.6145 18.5082 27.5596 21.1779C27.5151 21.2904 27.3919 21.3439 27.2843 21.2974C27.1767 21.251 27.1255 21.1222 27.17 21.0097C28.2473 18.2831 29.8844 16.0859 31.58 13.8102C31.6651 13.6961 31.7502 13.5818 31.8355 13.4672C31.9069 13.3712 32.0394 13.3539 32.1313 13.4286Z" fill="black"/>
<path fill-rule="evenodd" clip-rule="evenodd" d="M34.7419 21.0938C32.2738 21.0938 30.5775 21.793 28.2924 22.838C28.1857 22.8868 28.0614 22.836 28.0148 22.7245C27.9681 22.613 28.0167 22.4831 28.1234 22.4343C30.4166 21.3855 32.181 20.6532 34.7419 20.6532C34.8584 20.6532 34.9527 20.7518 34.9527 20.8735C34.9527 20.9952 34.8584 21.0938 34.7419 21.0938Z" fill="black"/>
<path fill-rule="evenodd" clip-rule="evenodd" d="M28.0748 24.0076C28.1651 23.9308 28.2979 23.945 28.3714 24.0394C29.2477 25.1649 30.0659 25.8732 30.9966 26.3763C31.9315 26.8816 32.9911 27.1861 34.3638 27.4882C34.4777 27.5133 34.5506 27.6301 34.5267 27.7492C34.5027 27.8683 34.3909 27.9445 34.277 27.9194C32.8964 27.6156 31.7906 27.3015 30.803 26.7677C29.8113 26.2317 28.9498 25.4803 28.0444 24.3176C27.9709 24.2232 27.9845 24.0844 28.0748 24.0076Z" fill="black"/>
<path fill-rule="evenodd" clip-rule="evenodd" d="M25.761 26.207C25.8534 26.1329 25.9857 26.1511 26.0565 26.2477C27.2393 27.8587 28.3705 29.7545 29.2395 31.5713C29.2916 31.6801 29.2494 31.8125 29.1453 31.8669C29.0411 31.9213 28.9145 31.8772 28.8625 31.7683C28.0053 29.9763 26.8883 28.1044 25.7221 26.516C25.6513 26.4194 25.6687 26.2811 25.761 26.207Z" fill="black"/>
<path fill-rule="evenodd" clip-rule="evenodd" d="M24.3607 25.7948C24.438 25.8857 24.4302 26.025 24.3432 26.1058C23.2717 27.1014 22.4644 28.5228 21.78 30.0588C21.3625 30.9957 20.9991 31.9539 20.6488 32.8776C20.421 33.4784 20.1986 34.0646 19.9705 34.6209C19.9247 34.7328 19.8008 34.7846 19.6938 34.7367C19.5868 34.6887 19.5372 34.5592 19.5831 34.4473C19.801 33.9157 20.0202 33.3383 20.2473 32.7401C20.603 31.8029 20.978 30.8149 21.3978 29.8728C22.09 28.3193 22.9267 26.8324 24.0631 25.7765C24.1501 25.6956 24.2833 25.7038 24.3607 25.7948Z" fill="black"/>
<path fill-rule="evenodd" clip-rule="evenodd" d="M22.5146 23.7051C22.5318 23.8255 22.4525 23.9377 22.3374 23.9557C20.8754 24.185 19.514 24.7298 18.1436 25.3333C17.9093 25.4365 17.6745 25.5415 17.4389 25.6468C16.3032 26.1548 15.1481 26.6714 13.933 27.0343C13.821 27.0678 13.7044 27 13.6724 26.883C13.6404 26.766 13.7052 26.6441 13.8172 26.6106C15.0043 26.2561 16.1303 25.7526 17.2655 25.245C17.503 25.1388 17.741 25.0324 17.9799 24.9272C19.3544 24.3219 20.7571 23.7579 22.2749 23.5199C22.39 23.5019 22.4973 23.5848 22.5146 23.7051Z" fill="black"/>
<path fill-rule="evenodd" clip-rule="evenodd" d="M13.8802 13.1133C13.9059 12.9946 14.0187 12.9201 14.1323 12.9469C16.033 13.3956 17.4712 14.8578 18.7719 16.5063C19.1819 17.0259 19.5844 17.5724 19.9843 18.1155C20.218 18.4328 20.4508 18.749 20.6837 19.0579C21.3197 19.9012 21.9641 20.7013 22.6599 21.3726C22.7454 21.4551 22.7507 21.5945 22.6718 21.6839C22.5928 21.7734 22.4595 21.7789 22.3739 21.6964C21.6531 21.0009 20.9922 20.1788 20.3527 19.3307C20.1131 19.013 19.8776 18.6931 19.6429 18.3744C19.2468 17.8364 18.8531 17.3018 18.4467 16.7867C17.1536 15.1479 15.7929 13.7907 14.0394 13.3768C13.9259 13.35 13.8546 13.232 13.8802 13.1133Z" fill="black"/>
<path fill-rule="evenodd" clip-rule="evenodd" d="M20.8811 1.6422C19.8926 1.37578 18.7722 1.45387 17.6118 1.81942C14.9778 2.64921 13.5594 5.29483 12.7654 8.09595C12.3644 9.5109 12.3033 10.7365 12.5324 11.894C12.7622 13.0553 13.29 14.178 14.1095 15.3773C15.0358 16.733 16.3666 18.0576 17.8746 19.0553C19.3846 20.0543 21.0456 20.7082 22.6329 20.7626C22.8656 20.7705 23.048 20.9742 23.0404 21.2174C23.0327 21.4607 22.8379 21.6514 22.6052 21.6434C20.8248 21.5824 19.0186 20.8551 17.4238 19.8C15.827 18.7436 14.4153 17.3412 13.4234 15.8896C12.5598 14.6258 11.9675 13.3903 11.7067 12.0725C11.4452 10.751 11.523 9.37677 11.9571 7.84558C12.7698 4.97813 14.305 1.94069 17.3685 0.975578C18.6343 0.576796 19.9163 0.472025 21.0916 0.788774C22.2753 1.10782 23.3245 1.84812 24.117 3.08651C25.7351 5.61506 27.5024 8.8796 27.8851 12.0405C28.2085 14.7114 27.7116 17.091 27.1268 19.5703C27.1132 19.6279 27.1055 19.717 27.1016 19.841C27.1008 19.8672 27.1002 19.8975 27.0995 19.9298C27.0975 20.02 27.0953 20.1263 27.0879 20.2059C27.083 20.2581 27.0726 20.3495 27.0377 20.4382C27.0061 20.5184 26.8816 20.7592 26.5925 20.7504C26.4818 20.747 26.3975 20.7032 26.3486 20.6713C26.2978 20.6381 26.2575 20.5997 26.2282 20.5683C26.1698 20.5058 26.1145 20.4277 26.0623 20.3458C25.9331 20.1433 25.9855 19.8697 26.1792 19.7347C26.2064 19.7157 26.235 19.7005 26.2644 19.6889C26.2705 19.585 26.2824 19.4684 26.3082 19.3593C26.8924 16.8825 27.3506 14.6445 27.0487 12.1512C26.6924 9.2091 25.0256 6.09139 23.4162 3.57655C22.737 2.5152 21.861 1.90631 20.8811 1.6422ZM26.2462 20.1416C26.2462 20.1416 26.2462 20.1411 26.2464 20.1402C26.2463 20.1412 26.2462 20.1416 26.2462 20.1416Z" fill="black"/>
<path fill-rule="evenodd" clip-rule="evenodd" d="M46.3663 18.5145C46.6329 17.4845 46.5716 16.3124 46.2357 15.0952C45.4734 12.3321 42.9596 10.8179 40.2896 9.95465C38.9409 9.51858 37.7692 9.44014 36.6593 9.66578C35.5457 9.89216 34.4654 10.4305 33.3085 11.2728C32.0007 12.2249 30.7178 13.6001 29.7454 15.1645C28.7719 16.731 28.1266 18.4594 28.0556 20.1178C28.0452 20.3609 27.8483 20.5492 27.6157 20.5383C27.3831 20.5275 27.203 20.3216 27.2134 20.0784C27.293 18.2182 28.0101 16.3389 29.0384 14.6844C30.068 13.0279 31.4263 11.569 32.8267 10.5495C34.0458 9.66195 35.2347 9.05754 36.4984 8.80065C37.7656 8.54303 39.0792 8.64078 40.5387 9.11268C43.2719 9.9964 46.1591 11.6372 47.0458 14.8509C47.4122 16.1788 47.4971 17.52 47.1801 18.7447C46.8608 19.9783 46.1402 21.0661 44.9462 21.8797C42.5082 23.541 39.3644 25.3493 36.3362 25.7117C33.7775 26.018 31.5072 25.4702 29.1426 24.8293C29.0876 24.8144 29.0024 24.8054 28.8839 24.7998C28.8588 24.7987 28.8299 24.7976 28.799 24.7965C28.7127 24.7934 28.6111 24.7898 28.535 24.7811C28.4851 24.7754 28.3979 24.7634 28.3134 24.7259C28.2371 24.6919 28.0082 24.5589 28.0201 24.2568C28.0246 24.1411 28.0675 24.0535 28.0986 24.0028C28.131 23.9501 28.1682 23.9085 28.1986 23.8782C28.2591 23.8179 28.3344 23.7611 28.4135 23.7074C28.6087 23.5748 28.8698 23.6328 28.9966 23.8369C29.0145 23.8656 29.0287 23.8956 29.0394 23.9265C29.1387 23.9342 29.2501 23.948 29.3541 23.9762C31.7164 24.6164 33.8517 25.122 36.2403 24.8361C39.0588 24.4988 42.061 22.7936 44.4857 21.1414C45.5091 20.4441 46.102 19.5357 46.3663 18.5145ZM28.6066 23.9021C28.6066 23.902 28.607 23.9021 28.6079 23.9023C28.607 23.9022 28.6066 23.9021 28.6066 23.9021Z" fill="black"/>
<path fill-rule="evenodd" clip-rule="evenodd" d="M31.5295 44.0209C32.5309 44.2276 33.6452 44.0824 34.7836 43.6478C37.3677 42.6613 38.6385 39.935 39.2773 37.0908C39.6 35.6541 39.5937 34.4269 39.3014 33.2851C39.0082 32.1395 38.4196 31.0502 37.5356 29.9021C36.5364 28.6043 35.1351 27.3617 33.5747 26.4561C32.0123 25.5494 30.3182 24.9963 28.7306 25.0372C28.4978 25.0432 28.3045 24.8508 28.2987 24.6075C28.293 24.3642 28.477 24.1621 28.7098 24.1561C30.4906 24.1102 32.3338 24.7279 33.9839 25.6856C35.6361 26.6444 37.1225 27.9599 38.1924 29.3495C39.124 30.5594 39.7832 31.7573 40.1159 33.0573C40.4496 34.361 40.4473 35.7376 40.0981 37.2923C39.4441 40.2038 38.0783 43.3283 35.0728 44.4757C33.831 44.9497 32.5569 45.1313 31.3662 44.8856C30.1668 44.6381 29.0788 43.962 28.2195 42.7732C26.4652 40.3459 24.5216 37.1928 23.9659 34.06C23.4964 31.4129 23.8618 29.0075 24.3095 26.4972C24.3199 26.4388 24.3227 26.3494 24.3198 26.2254C24.3191 26.1991 24.3181 26.1689 24.317 26.1366C24.314 26.0464 24.3105 25.9402 24.3135 25.8603C24.3154 25.8079 24.3209 25.716 24.3508 25.6253C24.3779 25.5434 24.489 25.2955 24.7781 25.287C24.8888 25.2837 24.9754 25.3223 25.026 25.3513C25.0785 25.3813 25.1208 25.4173 25.1518 25.4469C25.2136 25.5058 25.273 25.5804 25.3297 25.6591C25.4697 25.8535 25.4325 26.1298 25.2465 26.2762C25.2204 26.2968 25.1927 26.3137 25.164 26.3271C25.1635 26.4311 25.1581 26.5482 25.1384 26.6587C24.6911 29.1665 24.3566 31.4282 24.7949 33.8993C25.3121 36.8152 27.1474 39.8278 28.8922 42.2419C29.6286 43.2607 30.5366 43.816 31.5295 44.0209ZM25.1573 25.874C25.1573 25.874 25.1573 25.8744 25.1571 25.8754C25.1572 25.8744 25.1573 25.874 25.1573 25.874Z" fill="black"/>
<path fill-rule="evenodd" clip-rule="evenodd" d="M4.81951 29.1986C4.53385 30.2231 4.57346 31.3962 4.88669 32.62C5.5977 35.398 8.08296 36.9628 10.7364 37.8799C12.0768 38.3433 13.2468 38.4454 14.3607 38.2423C15.4782 38.0385 16.5683 37.5222 17.7406 36.7035C19.0576 35.7838 20.7372 33.9978 22.1166 31.9952C23.5043 29.9805 24.5256 27.8364 24.6255 26.2084C24.6405 25.9655 24.8409 25.7812 25.0732 25.7968C25.3056 25.8124 25.4818 26.0219 25.4669 26.2648C25.3511 28.1517 24.2088 30.4661 22.8008 32.5102C21.3844 34.5664 19.6362 36.4396 18.209 37.4363C16.9736 38.299 15.7737 38.8793 14.5056 39.1105C13.2338 39.3424 11.9222 39.2181 10.4718 38.7167C7.75545 37.7778 4.89919 36.0788 4.07223 32.8478C3.73053 31.5127 3.67046 30.17 4.01009 28.952C4.35218 27.7251 5.09285 26.6521 6.30174 25.8628C8.77006 24.2512 11.9468 22.5069 14.9811 22.2059C15.7909 22.1256 16.5494 21.9543 17.3206 21.7802C17.7089 21.6925 18.1004 21.6041 18.5033 21.5262C19.6773 21.2993 20.8889 21.1796 22.157 21.5508C22.318 21.5979 22.433 21.7043 22.509 21.8014C22.5863 21.9 22.6432 22.0137 22.6856 22.1239C22.7705 22.3444 22.8187 22.6082 22.8312 22.8678C22.8437 23.1279 22.8215 23.4113 22.7452 23.6695C22.6703 23.9228 22.5281 24.1999 22.2661 24.3703C22.0684 24.4989 21.8085 24.4356 21.6855 24.229C21.5624 24.0224 21.623 23.7506 21.8206 23.622C21.8458 23.6057 21.8976 23.5515 21.9397 23.4093C21.9803 23.272 21.998 23.0956 21.9891 22.912C21.9803 22.7278 21.9462 22.5638 21.9034 22.4527C21.8912 22.421 21.8801 22.3982 21.8714 22.3828C20.8086 22.0858 19.7662 22.1784 18.6566 22.3929C18.3047 22.4609 17.9392 22.5432 17.5635 22.6278C16.7641 22.8078 15.9187 22.9982 15.0608 23.0833C12.2365 23.3635 9.20331 25.0075 6.74838 26.6103C5.7123 27.2868 5.1027 28.183 4.81951 29.1986Z" fill="black"/>
<path fill-rule="evenodd" clip-rule="evenodd" d="M12.1462 8.21377C12.1994 8.18914 12.2617 8.21428 12.2852 8.26992C12.5888 8.98688 12.9015 9.56464 13.4226 10.1094C13.4638 10.1525 13.4638 10.2222 13.4226 10.2652C13.3815 10.3083 13.3148 10.3083 13.2736 10.2652C12.7267 9.69354 12.4013 9.08848 12.0925 8.3591C12.0689 8.30346 12.093 8.2384 12.1462 8.21377Z" fill="black"/>
<path fill-rule="evenodd" clip-rule="evenodd" d="M12.4559 7.1154C12.5073 7.08702 12.5711 7.10765 12.5982 7.16147C12.9259 7.81101 13.3323 8.37257 13.7544 8.95589C13.8224 9.04985 13.8908 9.14437 13.9594 9.23991C13.9943 9.28859 13.9849 9.35764 13.9383 9.39415C13.8917 9.43065 13.8257 9.42079 13.7907 9.37211C13.7231 9.27789 13.6553 9.1842 13.5876 9.09064C13.1659 8.5081 12.7481 7.93091 12.4118 7.26423C12.3846 7.21041 12.4044 7.14378 12.4559 7.1154Z" fill="black"/>
<path fill-rule="evenodd" clip-rule="evenodd" d="M12.7702 5.9046C12.8211 5.87517 12.8853 5.89449 12.9134 5.94774C13.2971 6.6736 13.6147 7.22562 14.1603 7.79596C14.2015 7.83898 14.2015 7.90873 14.1603 7.95175C14.1192 7.99478 14.0525 7.99478 14.0113 7.95175C13.4439 7.35862 13.1147 6.78401 12.7289 6.05431C12.7008 6.00106 12.7192 5.93403 12.7702 5.9046Z" fill="black"/>
<path fill-rule="evenodd" clip-rule="evenodd" d="M13.3964 4.80677C13.4453 4.7738 13.5106 4.78853 13.5421 4.83967C13.5827 4.90558 13.6415 5.03369 13.7088 5.18057C13.7193 5.20342 13.7299 5.22673 13.7408 5.25032C13.8239 5.43097 13.9219 5.63982 14.0272 5.83014C14.1338 6.02261 14.2427 6.1864 14.3455 6.28346C14.3967 6.33183 14.4393 6.35679 14.4725 6.36548C14.5012 6.37297 14.5262 6.36964 14.5543 6.35003C14.6028 6.31628 14.6682 6.32996 14.7005 6.38059C14.7328 6.43121 14.7197 6.49961 14.6712 6.53336C14.5923 6.58835 14.5061 6.60136 14.4214 6.57923C14.3413 6.55831 14.2685 6.5077 14.2041 6.44691C14.0758 6.32563 13.9534 6.13663 13.8448 5.94051C13.735 5.74223 13.6341 5.52669 13.5508 5.34581C13.5398 5.32189 13.5292 5.29874 13.519 5.27642C13.4495 5.12501 13.3977 5.01224 13.3649 4.95906C13.3334 4.90792 13.3475 4.83974 13.3964 4.80677Z" fill="black"/>
<path fill-rule="evenodd" clip-rule="evenodd" d="M13.9376 4.02753C13.9908 4.00282 14.0531 4.02786 14.0768 4.08346C14.1428 4.23883 14.4016 4.73049 14.6709 5.14118C14.806 5.34727 14.9389 5.52518 15.0475 5.62993C15.1017 5.68212 15.1398 5.70615 15.1616 5.71352C15.1951 5.66792 15.2571 5.65667 15.3036 5.68903C15.352 5.72278 15.3651 5.79118 15.3328 5.84181C15.3086 5.8798 15.2743 5.91095 15.2295 5.92619C15.1857 5.94105 15.1425 5.93712 15.1054 5.92593C15.0351 5.90476 14.9665 5.85149 14.9046 5.79189C14.7776 5.66944 14.6338 5.47427 14.497 5.26576C14.2226 4.84727 13.9568 4.34374 13.8841 4.17294C13.8605 4.11734 13.8845 4.05224 13.9376 4.02753Z" fill="black"/>
<path fill-rule="evenodd" clip-rule="evenodd" d="M14.5686 3.25699C14.6215 3.2315 14.6841 3.25561 14.7085 3.31085C14.7635 3.43552 14.9714 3.90488 15.1792 4.31319C15.2836 4.51833 15.3855 4.70323 15.4667 4.82121C15.4931 4.85956 15.5144 4.88654 15.5305 4.90417C15.5554 4.89619 15.5832 4.89782 15.6084 4.91098C15.6605 4.93819 15.6816 5.00436 15.6555 5.05878C15.6372 5.09702 15.6 5.13794 15.5407 5.14232C15.4925 5.14587 15.4539 5.12241 15.4319 5.10615C15.3855 5.07188 15.3389 5.01279 15.2956 4.94984C15.2056 4.81898 15.098 4.62285 14.9931 4.41666C14.7823 4.00233 14.5722 3.52795 14.5171 3.40319C14.4927 3.34794 14.5158 3.28249 14.5686 3.25699ZM15.5566 4.92821C15.5566 4.92825 15.5561 4.92802 15.5552 4.92737C15.5561 4.92784 15.5566 4.92817 15.5566 4.92821Z" fill="black"/>
<path fill-rule="evenodd" clip-rule="evenodd" d="M15.1874 2.93432C15.2362 2.90103 15.3015 2.91532 15.3333 2.96624C15.5657 3.33776 15.7779 3.71578 15.9908 4.09518L15.9918 4.09693C16.0391 4.18135 16.0711 4.23782 16.0943 4.27551C16.112 4.2645 16.1338 4.25324 16.1603 4.24402C16.2155 4.22477 16.2752 4.25597 16.2936 4.31369C16.312 4.37141 16.2822 4.4338 16.2269 4.45304C16.2068 4.46005 16.1947 4.46919 16.1799 4.48115C16.1794 4.48158 16.1787 4.4821 16.178 4.48269C16.1715 4.48806 16.1572 4.49974 16.1422 4.50808C16.1214 4.51972 16.0875 4.5321 16.0466 4.52128C16.0112 4.51189 15.9869 4.489 15.9728 4.47343C15.9577 4.45677 15.9433 4.43619 15.9293 4.4144C15.9012 4.37053 15.8633 4.3035 15.81 4.20842C15.5963 3.82768 15.3864 3.45369 15.1569 3.08682C15.1251 3.0359 15.1387 2.96762 15.1874 2.93432ZM16.1265 4.32255C16.1265 4.32257 16.1262 4.32235 16.1257 4.32181C16.1262 4.32227 16.1265 4.32253 16.1265 4.32255Z" fill="black"/>
<path fill-rule="evenodd" clip-rule="evenodd" d="M15.8266 2.48933C15.8776 2.46001 15.9417 2.47946 15.9698 2.53277C16.0528 2.6906 16.1265 2.87059 16.1989 3.04728C16.2324 3.129 16.2655 3.21002 16.2992 3.28781C16.4088 3.541 16.5274 3.77052 16.6897 3.94013C16.7308 3.98315 16.7308 4.05291 16.6897 4.09593C16.6485 4.13895 16.5818 4.13895 16.5406 4.09593C16.35 3.89667 16.2187 3.63626 16.1072 3.37866C16.0693 3.29123 16.0341 3.20504 15.9996 3.12083C15.9297 2.95 15.8631 2.78731 15.7851 2.63896C15.757 2.58564 15.7756 2.51866 15.8266 2.48933Z" fill="black"/>
<path fill-rule="evenodd" clip-rule="evenodd" d="M16.5921 1.92752C16.6489 1.91423 16.7053 1.9516 16.718 2.01098C16.8845 2.78901 17.0479 3.41024 17.4422 4.0698C17.4731 4.1214 17.4581 4.18936 17.4087 4.22161C17.3594 4.25386 17.2944 4.23817 17.2635 4.18658C16.8495 3.49406 16.6799 2.84249 16.5123 2.05907C16.4996 1.9997 16.5353 1.9408 16.5921 1.92752Z" fill="black"/>
<path fill-rule="evenodd" clip-rule="evenodd" d="M17.4162 1.82387C17.4695 1.79956 17.5316 1.82507 17.5549 1.88084C17.8508 2.59046 18.1697 3.27598 18.501 3.96876C18.5271 4.02318 18.506 4.08935 18.4539 4.11656C18.4018 4.14377 18.3385 4.12171 18.3125 4.06729C17.9806 3.37333 17.6598 2.68379 17.3617 1.96888C17.3384 1.91311 17.3628 1.84818 17.4162 1.82387Z" fill="black"/>
<path fill-rule="evenodd" clip-rule="evenodd" d="M18.3621 1.49456C18.4148 1.46879 18.4776 1.49257 18.5022 1.54769C18.8296 2.2796 19.1442 3.01383 19.4519 3.75376C19.4751 3.80955 19.4507 3.87445 19.3973 3.89871C19.3439 3.92297 19.2818 3.89741 19.2586 3.84161C18.9515 3.10313 18.6377 2.37077 18.3113 1.64102C18.2866 1.58591 18.3094 1.52033 18.3621 1.49456Z" fill="black"/>
<path fill-rule="evenodd" clip-rule="evenodd" d="M19.4278 1.15918C19.4831 1.14021 19.5426 1.17169 19.5608 1.22951C19.8254 2.07252 20.0636 2.91744 20.2996 3.76697C20.3158 3.8254 20.2836 3.88652 20.2277 3.90348C20.1718 3.92044 20.1134 3.88683 20.0971 3.8284C19.8613 2.9791 19.6239 2.13732 19.3605 1.2982C19.3424 1.24039 19.3725 1.17815 19.4278 1.15918Z" fill="black"/>
<path fill-rule="evenodd" clip-rule="evenodd" d="M20.3722 1.27084C20.4267 1.24952 20.4875 1.27844 20.5079 1.33543C20.7572 2.03239 21.0027 2.73043 21.2459 3.42953C21.2658 3.48671 21.2376 3.54992 21.1829 3.57072C21.1282 3.59151 21.0677 3.56201 21.0478 3.50483C20.8048 2.8062 20.5595 2.10881 20.3104 1.41262C20.29 1.35563 20.3177 1.29215 20.3722 1.27084Z" fill="black"/>
<path fill-rule="evenodd" clip-rule="evenodd" d="M7.36655 11.2008C6.48121 11.732 5.73171 12.6061 5.14573 13.715C3.81559 16.2322 4.5687 19.1611 5.87254 21.7451C6.53117 23.0504 7.30652 23.972 8.24395 24.6329C9.18445 25.296 10.3124 25.714 11.7003 25.9737C13.269 26.2672 15.1065 26.2432 16.8523 25.8558C18.6003 25.4679 20.2258 24.7228 21.3979 23.6027C21.5697 23.4384 21.8363 23.4509 21.9934 23.6305C22.1505 23.8102 22.1386 24.0889 21.9668 24.2531C20.6521 25.5096 18.8736 26.3082 17.0274 26.7179C15.1788 27.1281 13.2315 27.1555 11.5517 26.8412C10.0892 26.5675 8.83974 26.1161 7.7725 25.3636C6.70218 24.609 5.83954 23.5688 5.12681 22.1563C3.7921 19.511 2.86067 16.2166 4.40773 13.2889C5.04697 12.0791 5.89422 11.068 6.94683 10.4364C8.00708 9.80025 9.25249 9.56381 10.6472 9.87118C13.4948 10.4988 16.9409 11.5441 19.3272 13.5263C21.3435 15.2012 22.5782 17.2667 23.8166 19.4679C23.8454 19.519 23.8995 19.5884 23.9795 19.6799C23.9965 19.6993 24.0162 19.7214 24.0373 19.745C24.0962 19.811 24.1656 19.8887 24.2135 19.951C24.245 19.992 24.2985 20.065 24.3329 20.1539C24.3639 20.2343 24.4357 20.4976 24.223 20.7024C24.1415 20.7809 24.0519 20.8111 23.9956 20.8239C23.9371 20.8373 23.8826 20.8392 23.8406 20.8382C23.7571 20.8361 23.6653 20.8206 23.5732 20.8001C23.3454 20.7495 23.2 20.5155 23.2484 20.2774C23.2552 20.244 23.2655 20.2122 23.2788 20.1825C23.2138 20.1037 23.1444 20.0115 23.0899 19.9147C21.8527 17.7158 20.685 15.7799 18.8027 14.2163C16.5816 12.3713 13.3054 11.3577 10.4732 10.7336C9.27794 10.4701 8.24424 10.6741 7.36655 11.2008ZM23.5683 20.5197C23.5683 20.5197 23.568 20.5193 23.5676 20.5185C23.5681 20.5193 23.5683 20.5197 23.5683 20.5197Z" fill="black"/>
<path fill-rule="evenodd" clip-rule="evenodd" d="M5.50821 22.2816C5.52984 22.2252 5.59117 22.1977 5.64521 22.2203C6.34157 22.5116 6.9514 22.6967 7.68839 22.7059C7.74659 22.7066 7.79321 22.7566 7.79251 22.8174C7.79181 22.8782 7.74407 22.927 7.68587 22.9262C6.91248 22.9165 6.27532 22.7212 5.5669 22.4249C5.51286 22.4022 5.48658 22.3381 5.50821 22.2816Z" fill="black"/>
<path fill-rule="evenodd" clip-rule="evenodd" d="M4.99576 21.2696C5.01364 21.2117 5.07303 21.1799 5.12842 21.1986C5.79693 21.4241 6.46301 21.5291 7.15489 21.6382C7.26634 21.6558 7.37845 21.6735 7.49135 21.6918C7.54887 21.7011 7.58826 21.7574 7.57934 21.8175C7.57042 21.8776 7.51656 21.9188 7.45904 21.9095C7.3477 21.8915 7.23656 21.8739 7.12558 21.8565C6.43453 21.7476 5.74983 21.6397 5.06369 21.4083C5.0083 21.3896 4.97789 21.3275 4.99576 21.2696Z" fill="black"/>
<path fill-rule="evenodd" clip-rule="evenodd" d="M4.41152 20.1737C4.4283 20.1154 4.48709 20.0824 4.54282 20.1C5.30247 20.3391 5.89864 20.5022 6.67018 20.5118C6.72838 20.5126 6.77499 20.5625 6.7743 20.6233C6.7736 20.6841 6.72585 20.7329 6.66765 20.7321C5.86527 20.7221 5.24571 20.5513 4.48204 20.3109C4.42631 20.2934 4.39474 20.2319 4.41152 20.1737Z" fill="black"/>
<path fill-rule="evenodd" clip-rule="evenodd" d="M4.12592 18.9309C4.13888 18.8716 4.1954 18.8345 4.25214 18.848C4.32527 18.8655 4.4529 18.9143 4.59924 18.9702C4.622 18.9789 4.64522 18.9878 4.66875 18.9967C4.84895 19.0653 5.05862 19.1432 5.2612 19.2024C5.46607 19.2623 5.65348 19.3 5.79184 19.2944C5.8608 19.2917 5.90796 19.2784 5.93756 19.2603C5.96309 19.2447 5.97875 19.2241 5.98578 19.1895C5.99787 19.13 6.05383 19.092 6.11077 19.1047C6.1677 19.1173 6.20405 19.1758 6.19195 19.2353C6.17224 19.3323 6.11922 19.4046 6.04385 19.4506C5.97256 19.4941 5.8866 19.5111 5.79994 19.5146C5.62705 19.5215 5.41317 19.4757 5.20442 19.4146C4.99337 19.3529 4.77707 19.2724 4.59665 19.2038C4.57279 19.1947 4.54971 19.1859 4.52748 19.1774C4.37657 19.1198 4.26418 19.0769 4.20517 19.0628C4.14843 19.0493 4.11295 18.9902 4.12592 18.9309Z" fill="black"/>
<path fill-rule="evenodd" clip-rule="evenodd" d="M3.99242 17.978C4.01396 17.9215 4.07526 17.8939 4.12933 17.9165C4.28043 17.9794 4.79415 18.1422 5.26132 18.2394C5.49575 18.2882 5.7097 18.3185 5.85744 18.3141C5.93105 18.3119 5.97439 18.3012 5.9949 18.2906C5.98839 18.2335 6.02528 18.1802 6.08013 18.1694C6.13734 18.1582 6.19241 18.1976 6.20314 18.2574C6.2112 18.3022 6.20753 18.3495 6.1856 18.3932C6.1642 18.4358 6.13067 18.4646 6.09664 18.4836C6.03224 18.5198 5.94749 18.5318 5.86343 18.5343C5.69072 18.5395 5.45736 18.5048 5.22018 18.4555C4.74413 18.3565 4.21741 18.1903 4.05131 18.1211C3.99724 18.0986 3.97087 18.0345 3.99242 17.978Z" fill="black"/>
<path fill-rule="evenodd" clip-rule="evenodd" d="M3.92897 16.9659C3.94974 16.9091 4.01066 16.8806 4.06503 16.9023C4.18773 16.9514 4.65018 17.1353 5.07171 17.2758C5.2835 17.3463 5.48001 17.4042 5.61692 17.4293C5.66142 17.4375 5.69473 17.4412 5.71798 17.4421C5.7305 17.4182 5.75149 17.3991 5.7783 17.3901C5.83374 17.3715 5.89306 17.4035 5.9108 17.4614C5.92327 17.5021 5.924 17.5586 5.88448 17.605C5.85238 17.6428 5.80905 17.6542 5.78245 17.6586C5.72637 17.668 5.65349 17.6598 5.58044 17.6463C5.42858 17.6184 5.22058 17.5566 5.00771 17.4857C4.57996 17.3432 4.11259 17.1572 3.9898 17.1082C3.93543 17.0864 3.90819 17.0228 3.92897 16.9659ZM5.75274 17.4403C5.75277 17.4403 5.75228 17.4405 5.75116 17.4407C5.75214 17.4404 5.7527 17.4402 5.75274 17.4403Z" fill="black"/>
<path fill-rule="evenodd" clip-rule="evenodd" d="M4.15612 16.2832C4.16873 16.2238 4.22501 16.1863 4.28183 16.1995C4.69639 16.2956 5.10081 16.4112 5.50672 16.5271L5.50859 16.5277C5.59891 16.5535 5.65952 16.5705 5.70127 16.5806C5.70661 16.5598 5.71469 16.5358 5.72747 16.5098C5.75412 16.4558 5.81767 16.4345 5.86941 16.4624C5.92116 16.4902 5.9415 16.5566 5.91485 16.6107C5.90514 16.6304 5.90258 16.6458 5.89998 16.6652C5.89988 16.6659 5.89978 16.6667 5.89965 16.6677C5.89854 16.6763 5.89613 16.6951 5.89101 16.712C5.88387 16.7355 5.86788 16.7692 5.83141 16.7913C5.79978 16.8104 5.76716 16.8117 5.74663 16.8109C5.72467 16.81 5.70064 16.8058 5.67608 16.8004C5.62663 16.7896 5.55474 16.7693 5.45302 16.7402C5.04568 16.6238 4.64556 16.5095 4.23619 16.4146C4.17936 16.4014 4.14352 16.3426 4.15612 16.2832ZM5.75576 16.5907C5.75577 16.5907 5.75545 16.5908 5.75474 16.5907C5.75539 16.5907 5.75574 16.5907 5.75576 16.5907Z" fill="black"/>
<path fill-rule="evenodd" clip-rule="evenodd" d="M4.3161 15.498C4.333 15.4397 4.39185 15.4069 4.44754 15.4245C4.61243 15.4768 4.78546 15.5518 4.95532 15.6253C5.03388 15.6594 5.11177 15.6931 5.18785 15.7242C5.43549 15.8253 5.67371 15.9029 5.90316 15.9058C5.96136 15.9065 6.00798 15.9565 6.00728 16.0173C6.00659 16.0781 5.95884 16.1269 5.90064 16.1261C5.63109 16.1228 5.36312 16.0323 5.11117 15.9294C5.02565 15.8945 4.94282 15.8586 4.86189 15.8235C4.6977 15.7523 4.54135 15.6845 4.38636 15.6354C4.33066 15.6177 4.2992 15.5562 4.3161 15.498Z" fill="black"/>
<path fill-rule="evenodd" clip-rule="evenodd" d="M4.48841 14.537C4.52017 14.486 4.58546 14.4716 4.63423 14.5048C5.27331 14.9399 5.80539 15.2651 6.52833 15.449C6.58488 15.4634 6.61957 15.523 6.6058 15.5821C6.59203 15.6412 6.53503 15.6775 6.47848 15.6631C5.71941 15.47 5.16269 15.1275 4.51919 14.6894C4.47042 14.6562 4.45664 14.5879 4.48841 14.537Z" fill="black"/>
<path fill-rule="evenodd" clip-rule="evenodd" d="M5.00874 13.8611C5.03067 13.8047 5.09215 13.7776 5.14607 13.8005C5.83203 14.0922 6.51831 14.3498 7.21839 14.6035C7.27338 14.6235 7.3025 14.6862 7.28344 14.7437C7.26437 14.8012 7.20434 14.8317 7.14934 14.8117C6.44807 14.5576 5.75772 14.2984 5.06665 14.0046C5.01274 13.9817 4.98681 13.9174 5.00874 13.8611Z" fill="black"/>
<path fill-rule="evenodd" clip-rule="evenodd" d="M5.46553 12.9346C5.48603 12.8777 5.54681 12.8489 5.60129 12.8703C6.32469 13.1549 7.04041 13.4506 7.75509 13.7553C7.80899 13.7783 7.83486 13.8426 7.81288 13.8989C7.7909 13.9553 7.72939 13.9823 7.67549 13.9593C6.96221 13.6552 6.24831 13.3603 5.52704 13.0765C5.47257 13.0551 5.44503 12.9916 5.46553 12.9346Z" fill="black"/>
<path fill-rule="evenodd" clip-rule="evenodd" d="M6.0039 11.9164C6.03079 11.8625 6.09444 11.8415 6.14606 11.8697C6.89877 12.2796 7.63388 12.7102 8.37043 13.1458C8.42109 13.1757 8.43892 13.2429 8.41027 13.2959C8.38161 13.3489 8.31731 13.3675 8.26665 13.3375C7.5303 12.9021 6.7979 12.4731 6.04866 12.0651C5.99704 12.0369 5.977 11.9704 6.0039 11.9164Z" fill="black"/>
<path fill-rule="evenodd" clip-rule="evenodd" d="M6.7543 11.3067C6.77906 11.2516 6.84183 11.2279 6.89451 11.2538C7.53872 11.5704 8.18085 11.8906 8.82207 12.2132C8.87451 12.2396 8.89656 12.3055 8.87132 12.3603C8.84608 12.4151 8.7831 12.4382 8.73065 12.4118C8.08987 12.0894 7.44834 11.7694 6.80483 11.4532C6.75216 11.4273 6.72953 11.3617 6.7543 11.3067Z" fill="black"/>
<path fill-rule="evenodd" clip-rule="evenodd" d="M40.635 8.93892C40.3561 7.91244 39.726 6.94082 38.8384 6.07826C36.8235 4.12029 33.9228 4.17583 31.2088 4.87335C29.8379 5.2257 28.795 5.78927 27.9548 6.58025C27.1118 7.37383 26.451 8.41688 25.8743 9.76175C25.2224 11.282 24.8003 13.1515 24.7377 15.016C24.675 16.8829 24.9734 18.7118 25.7297 20.1715C25.8406 20.3855 25.7645 20.653 25.5598 20.7689C25.3551 20.8848 25.0993 20.8052 24.9884 20.5912C24.14 18.9538 23.8289 16.9568 23.8951 14.985C23.9614 13.0109 24.407 11.029 25.105 9.40125C25.7127 7.98404 26.434 6.82587 27.3905 5.92535C28.3499 5.02223 29.524 4.3988 31.0075 4.01751C33.7857 3.30347 37.069 3.1555 39.4124 5.43276C40.3807 6.37373 41.1144 7.47765 41.4461 8.69807C41.7802 9.92734 41.6984 11.2478 41.0758 12.588C39.8045 15.3246 38.0008 18.5672 35.5837 20.5082C33.5413 22.1483 31.3255 22.9011 28.9828 23.6249C28.9284 23.6417 28.8509 23.6798 28.7465 23.7389C28.7245 23.7514 28.6992 23.766 28.6722 23.7817C28.5967 23.8255 28.5078 23.8771 28.4383 23.9106C28.3927 23.9326 28.312 23.9693 28.2211 23.9826C28.139 23.9946 27.8772 24.0038 27.7386 23.7385C27.6855 23.6369 27.6791 23.5387 27.6808 23.4784C27.6825 23.4158 27.6939 23.3601 27.7051 23.3178C27.7272 23.2336 27.7638 23.1443 27.8051 23.0557C27.9071 22.837 28.1595 22.7461 28.3687 22.8528C28.3982 22.8678 28.4252 22.8859 28.4496 22.9065C28.5384 22.8597 28.6407 22.8116 28.7438 22.7797C31.0841 22.0566 33.1635 21.3404 35.0701 19.8093C37.3198 18.0027 39.053 14.9248 40.3174 12.2031C40.851 11.0544 40.9116 9.95654 40.635 8.93892ZM28.0665 23.1186C28.0665 23.1186 28.0669 23.1185 28.0678 23.1182C28.0669 23.1185 28.0665 23.1186 28.0665 23.1186Z" fill="black"/>
<path fill-rule="evenodd" clip-rule="evenodd" d="M30.799 4.37406C30.8462 4.40965 30.8568 4.47851 30.8228 4.52786C30.384 5.16372 30.0647 5.73751 29.8779 6.48282C29.8631 6.54167 29.8055 6.57688 29.7492 6.56146C29.6929 6.54604 29.6592 6.48583 29.674 6.42697C29.87 5.64487 30.2054 5.04583 30.6518 4.39895C30.6859 4.3496 30.7518 4.33846 30.799 4.37406Z" fill="black"/>
<path fill-rule="evenodd" clip-rule="evenodd" d="M31.8623 4.09903C31.9117 4.13117 31.9269 4.1991 31.8961 4.25077C31.5251 4.8743 31.2665 5.5245 30.9979 6.19989C30.9547 6.30868 30.9112 6.41812 30.8669 6.52821C30.8443 6.58429 30.7825 6.61064 30.7288 6.58705C30.6752 6.56346 30.65 6.49887 30.6726 6.44278C30.7162 6.33422 30.7594 6.22572 30.8025 6.11738C31.0706 5.44277 31.3364 4.77437 31.7172 4.1344C31.7479 4.08273 31.8129 4.0669 31.8623 4.09903Z" fill="black"/>
<path fill-rule="evenodd" clip-rule="evenodd" d="M33.0209 3.77149C33.0709 3.80261 33.0873 3.87021 33.0575 3.9225C32.6518 4.63518 32.3563 5.20044 32.1607 5.98068C32.146 6.03953 32.0884 6.07475 32.0321 6.05932C31.9758 6.0439 31.9421 5.98369 31.9568 5.92483C32.1602 5.1134 32.4686 4.52628 32.8764 3.80983C32.9062 3.75754 32.9709 3.74038 33.0209 3.77149Z" fill="black"/>
<path fill-rule="evenodd" clip-rule="evenodd" d="M34.2436 3.78238C34.2955 3.80988 34.3163 3.87617 34.2899 3.93044C34.256 4.0004 34.1799 4.11806 34.0926 4.25296C34.079 4.27394 34.0651 4.29534 34.0511 4.31705C33.9439 4.48324 33.8209 4.67706 33.7169 4.86822C33.6118 5.06153 33.5315 5.24252 33.5032 5.38421C33.4891 5.45482 33.49 5.50586 33.4996 5.54026C33.5079 5.56992 33.5233 5.59079 33.5537 5.60628C33.606 5.63295 33.6277 5.6989 33.6022 5.75359C33.5767 5.80828 33.5136 5.831 33.4613 5.80433C33.376 5.76088 33.3218 5.68962 33.2973 5.60205C33.2741 5.51921 33.2791 5.42792 33.2969 5.33917C33.3322 5.16213 33.4265 4.95629 33.5337 4.75931C33.642 4.56017 33.769 4.36024 33.8764 4.19384C33.8906 4.17183 33.9044 4.15056 33.9176 4.13006C34.0076 3.99092 34.0746 3.8873 34.1019 3.83086C34.1282 3.77658 34.1917 3.75488 34.2436 3.78238Z" fill="black"/>
<path fill-rule="evenodd" clip-rule="evenodd" d="M35.1603 3.87744C35.2075 3.91296 35.2183 3.9818 35.1843 4.0312C35.0894 4.16924 34.8139 4.65092 34.6108 5.10127C34.5088 5.32726 34.4289 5.53695 34.3973 5.68787C34.3815 5.76306 34.3809 5.80959 34.3858 5.83296C34.4404 5.84016 34.481 5.89049 34.4777 5.94873C34.4743 6.00947 34.4244 6.05581 34.3663 6.05223C34.3227 6.04954 34.2797 6.03439 34.2445 6.00157C34.2101 5.96957 34.1915 5.92861 34.182 5.88948C34.1641 5.81542 34.1734 5.72654 34.1914 5.64067C34.2284 5.46425 34.317 5.23592 34.4201 5.00728C34.6272 4.54837 34.9088 4.05431 35.0132 3.90256C35.0472 3.85317 35.113 3.84192 35.1603 3.87744Z" fill="black"/>
<path fill-rule="evenodd" clip-rule="evenodd" d="M36.1151 4.05784C36.1628 4.09266 36.1745 4.16133 36.1412 4.21123C36.0661 4.32383 35.7834 4.74839 35.5511 5.14199C35.4344 5.33974 35.3332 5.52507 35.2767 5.65786C35.2584 5.70102 35.2468 5.7339 35.2404 5.75726C35.2596 5.77575 35.2723 5.80168 35.2741 5.83104C35.2779 5.89176 35.2339 5.9442 35.1758 5.94818C35.135 5.95098 35.0825 5.93807 35.0489 5.88675C35.0217 5.84507 35.0215 5.79835 35.0238 5.7703C35.0287 5.71116 35.054 5.63922 35.0841 5.56837C35.1467 5.42108 35.2544 5.22506 35.3717 5.0263C35.6075 4.62689 35.8931 4.19783 35.9684 4.08514C36.0017 4.03525 36.0674 4.02302 36.1151 4.05784ZM35.2337 5.79297C35.2337 5.793 35.2337 5.79247 35.2337 5.79127C35.2338 5.79235 35.2338 5.79295 35.2337 5.79297Z" fill="black"/>
<path fill-rule="evenodd" clip-rule="evenodd" d="M36.6939 4.45339C36.746 4.48054 36.7672 4.54669 36.7412 4.60114C36.5517 4.99837 36.3467 5.38063 36.1408 5.7643L36.1399 5.76606C36.0941 5.85143 36.0636 5.90878 36.0441 5.9487C36.0622 5.95915 36.0825 5.97315 36.1035 5.99238C36.1472 6.03249 36.1516 6.1021 36.1132 6.14784C36.0749 6.19359 36.0083 6.19816 35.9645 6.15804C35.9486 6.14343 35.9349 6.13711 35.9176 6.12979C35.9169 6.12953 35.9162 6.12922 35.9153 6.12886C35.9076 6.12565 35.8907 6.11865 35.8763 6.10938C35.8562 6.09644 35.8288 6.07208 35.8171 6.02975C35.807 5.99304 35.8137 5.95963 35.8194 5.93901C35.8255 5.91695 35.8353 5.89359 35.8462 5.86998C35.8682 5.82245 35.9045 5.75444 35.956 5.65829C36.1626 5.27328 36.3655 4.89508 36.5526 4.50281C36.5786 4.44836 36.6419 4.42623 36.6939 4.45339ZM36.0216 6.00151C36.0215 6.00152 36.0216 6.00119 36.0218 6.00048C36.0217 6.00115 36.0216 6.0015 36.0216 6.00151Z" fill="black"/>
<path fill-rule="evenodd" clip-rule="evenodd" d="M37.3841 4.80557C37.434 4.83679 37.4503 4.90443 37.4205 4.95666C37.332 5.11126 37.2206 5.26863 37.1112 5.42312C37.0606 5.49458 37.0105 5.56542 36.9632 5.63508C36.8095 5.86181 36.6798 6.08466 36.6217 6.3167C36.6069 6.37556 36.5493 6.41077 36.493 6.39534C36.4367 6.37992 36.403 6.31971 36.4178 6.26085C36.4861 5.98827 36.6349 5.73833 36.7913 5.50766C36.8444 5.42937 36.8978 5.35404 36.9499 5.28044C37.0557 5.13112 37.1564 4.98893 37.2395 4.8436C37.2694 4.79138 37.3341 4.77435 37.3841 4.80557Z" fill="black"/>
<path fill-rule="evenodd" clip-rule="evenodd" d="M38.2344 5.21274C38.2741 5.25729 38.2716 5.327 38.229 5.36844C37.6706 5.91141 37.24 6.37246 36.8944 7.06125C36.8674 7.11513 36.8037 7.1359 36.7522 7.10764C36.7006 7.07938 36.6807 7.01279 36.7078 6.95891C37.0707 6.2357 37.5232 5.75384 38.0855 5.2071C38.1281 5.16566 38.1948 5.16819 38.2344 5.21274Z" fill="black"/>
<path fill-rule="evenodd" clip-rule="evenodd" d="M38.736 5.90399C38.783 5.93987 38.7933 6.00879 38.7589 6.05793C38.3223 6.68316 37.9172 7.31695 37.5124 7.96568C37.4806 8.01664 37.4153 8.031 37.3665 7.99776C37.3178 7.96452 37.304 7.89626 37.3358 7.8453C37.7413 7.19546 38.1488 6.55791 38.5887 5.92802C38.623 5.87888 38.689 5.86812 38.736 5.90399Z" fill="black"/>
<path fill-rule="evenodd" clip-rule="evenodd" d="M39.4854 6.59137C39.5333 6.62594 39.5453 6.69455 39.5123 6.74462C39.0731 7.40953 38.6256 8.06398 38.1699 8.71519C38.1355 8.7643 38.0696 8.77499 38.0226 8.73907C37.9756 8.70315 37.9654 8.63422 37.9998 8.58511C38.4545 7.93517 38.901 7.28239 39.3388 6.61944C39.3719 6.56937 39.4375 6.5568 39.4854 6.59137Z" fill="black"/>
<path fill-rule="evenodd" clip-rule="evenodd" d="M40.3003 7.38372C40.3439 7.42405 40.348 7.49368 40.3094 7.53923C39.7468 8.20357 39.1693 8.84506 38.5869 9.4868C38.5468 9.53093 38.4801 9.53277 38.4379 9.49089C38.3957 9.44902 38.3939 9.37929 38.434 9.33515C39.0162 8.69358 39.5916 8.05445 40.1516 7.39319C40.1901 7.34763 40.2567 7.34339 40.3003 7.38372Z" fill="black"/>
<path fill-rule="evenodd" clip-rule="evenodd" d="M40.6849 8.29231C40.73 8.33074 40.7367 8.40013 40.7 8.4473C40.2503 9.02417 39.7978 9.59804 39.3432 10.1704C39.306 10.2172 39.2396 10.2237 39.1948 10.1848C39.15 10.1459 39.1439 10.0765 39.1811 10.0297C39.6353 9.45769 40.0874 8.88435 40.5366 8.30812C40.5733 8.26095 40.6397 8.25387 40.6849 8.29231Z" fill="black"/>
<path fill-rule="evenodd" clip-rule="evenodd" d="M15.1572 42.6038C15.7079 43.5023 16.5795 44.2423 17.6676 44.8002C20.1375 46.0665 22.8994 45.1376 25.305 43.6505C26.5202 42.8993 27.363 42.0449 27.9489 41.034C28.5367 40.0198 28.8811 38.8217 29.0617 37.36C29.2659 35.7078 29.1535 33.7905 28.6984 31.9865C28.2427 30.1803 27.4517 28.5194 26.3244 27.3501C26.1591 27.1787 26.158 26.8997 26.322 26.727C26.486 26.5542 26.7529 26.5531 26.9182 26.7245C28.1827 28.036 29.0323 29.854 29.5136 31.7618C29.9955 33.6719 30.1165 35.7038 29.8979 37.4729C29.7076 39.0132 29.337 40.3398 28.67 41.4907C28.001 42.6449 27.0491 43.5962 25.7341 44.4091C23.2716 45.9314 20.1691 47.0643 17.2964 45.5914C16.1094 44.9829 15.102 44.1475 14.4473 43.0792C13.7878 42.0031 13.5013 40.7143 13.7271 39.2432C14.1882 36.2394 15.0193 32.5904 16.7972 30.0025C18.2995 27.8157 20.213 26.4261 22.2559 25.0259C22.3033 24.9934 22.367 24.9336 22.4506 24.8455C22.4682 24.8269 22.4884 24.8052 22.51 24.782C22.5701 24.7173 22.641 24.6411 22.6982 24.588C22.7358 24.5532 22.8029 24.4937 22.8863 24.4535C22.9616 24.4172 23.2096 24.3295 23.4157 24.5416C23.4946 24.6228 23.5279 24.7149 23.5429 24.7731C23.5585 24.8336 23.563 24.8903 23.564 24.9342C23.5661 25.0215 23.5557 25.1181 23.5406 25.2153C23.5034 25.4555 23.2869 25.6187 23.0571 25.5798C23.0248 25.5743 22.9939 25.5651 22.9648 25.5527C22.8927 25.6244 22.8081 25.7014 22.7182 25.763C20.6774 27.1617 18.8844 28.4752 17.482 30.5165C15.8272 32.9254 15.0182 36.3954 14.5596 39.3828C14.3661 40.6436 14.6113 41.713 15.1572 42.6038ZM23.273 25.234C23.273 25.234 23.2726 25.2343 23.2719 25.2348C23.2726 25.2343 23.273 25.234 23.273 25.234Z" fill="black"/>
<path fill-rule="evenodd" clip-rule="evenodd" d="M26.2569 43.1235C26.2019 43.1037 26.1726 43.041 26.1916 42.9834C26.4361 42.2422 26.5832 41.5965 26.5562 40.8265C26.554 40.7657 26.5995 40.7146 26.6576 40.7124C26.7158 40.7102 26.7647 40.7576 26.7668 40.8184C26.7952 41.6264 26.6396 42.3012 26.3909 43.0553C26.3719 43.1128 26.3119 43.1433 26.2569 43.1235Z" fill="black"/>
<path fill-rule="evenodd" clip-rule="evenodd" d="M25.3148 43.7078C25.2586 43.692 25.2253 43.6315 25.2405 43.5728C25.4234 42.8638 25.4914 42.1632 25.562 41.4355C25.5733 41.3183 25.5848 41.2004 25.5968 41.0816C25.6029 41.0211 25.6548 40.9772 25.7126 40.9836C25.7705 40.99 25.8125 41.0442 25.8064 41.1048C25.7946 41.2219 25.7832 41.3388 25.7719 41.4555C25.7015 42.1823 25.6318 42.9025 25.444 43.6301C25.4288 43.6889 25.371 43.7237 25.3148 43.7078Z" fill="black"/>
<path fill-rule="evenodd" clip-rule="evenodd" d="M24.2961 44.3711C24.2396 44.3564 24.2052 44.2967 24.2193 44.2376C24.4108 43.4328 24.5376 42.8024 24.5093 41.9964C24.5071 41.9356 24.5526 41.8845 24.6107 41.8823C24.6689 41.8801 24.7178 41.9275 24.7199 41.9883C24.7494 42.8266 24.6164 43.4818 24.4238 44.2908C24.4098 44.3499 24.3526 44.3858 24.2961 44.3711Z" fill="black"/>
<path fill-rule="evenodd" clip-rule="evenodd" d="M23.1225 44.7298C23.0652 44.7192 23.027 44.662 23.0372 44.6021C23.0503 44.5249 23.0907 44.3892 23.1371 44.2337C23.1443 44.2095 23.1516 44.1848 23.159 44.1598C23.2158 43.9684 23.28 43.7457 23.3267 43.5313C23.374 43.3144 23.4009 43.1169 23.3888 42.9727C23.3828 42.9009 23.3678 42.8523 23.3491 42.8222C23.333 42.7964 23.3125 42.781 23.2792 42.7754C23.2217 42.7656 23.1827 42.709 23.192 42.649C23.2013 42.5889 23.2554 42.5481 23.3129 42.5579C23.4065 42.5737 23.4781 42.6256 23.5258 42.702C23.5708 42.7743 23.5912 42.8633 23.5988 42.9536C23.6138 43.1337 23.5804 43.3593 23.5323 43.5802C23.4836 43.8036 23.4172 44.0333 23.3604 44.225C23.3529 44.2504 23.3456 44.2749 23.3385 44.2986C23.2908 44.4589 23.2553 44.5784 23.2447 44.6406C23.2345 44.7006 23.1798 44.7405 23.1225 44.7298Z" fill="black"/>
<path fill-rule="evenodd" clip-rule="evenodd" d="M22.2186 44.9155C22.1635 44.8958 22.1342 44.8331 22.1531 44.7756C22.2059 44.6148 22.3365 44.0705 22.4066 43.578C22.4418 43.3308 22.4603 43.106 22.4489 42.9519C22.4432 42.8752 22.431 42.8304 22.4198 42.8095C22.3656 42.8191 22.3128 42.7832 22.2998 42.7264C22.2863 42.6673 22.3213 42.6078 22.3779 42.5937C22.4204 42.5831 22.4657 42.5847 22.5086 42.6054C22.5503 42.6257 22.5794 42.6593 22.5993 42.6939C22.6369 42.7594 22.6526 42.8473 22.6591 42.9349C22.6724 43.115 22.6507 43.3604 22.6151 43.6104C22.5436 44.1123 22.4105 44.6703 22.3525 44.8471C22.3336 44.9046 22.2736 44.9353 22.2186 44.9155Z" fill="black"/>
<path fill-rule="evenodd" clip-rule="evenodd" d="M21.2546 45.0311C21.1993 45.0121 21.1691 44.9499 21.1872 44.8921C21.2281 44.7616 21.3814 44.2698 21.4951 43.8228C21.5522 43.5983 21.5979 43.3903 21.6153 43.2461C21.6209 43.1993 21.6228 43.1643 21.6226 43.14C21.5991 43.1281 21.5798 43.1071 21.5699 43.0795C21.5495 43.0226 21.5771 42.9591 21.6316 42.9377C21.6699 42.9227 21.7238 42.9192 21.7701 42.9582C21.8077 42.9899 21.8208 43.0346 21.8263 43.0621C21.8379 43.1202 21.8337 43.1967 21.8244 43.2737C21.8051 43.4336 21.7562 43.6538 21.6988 43.8795C21.5834 44.333 21.4284 44.83 21.3876 44.9606C21.3695 45.0185 21.3099 45.05 21.2546 45.0311ZM21.6191 43.1038C21.6191 43.1038 21.6193 43.1043 21.6196 43.1054C21.6192 43.1044 21.6191 43.1038 21.6191 43.1038Z" fill="black"/>
<path fill-rule="evenodd" clip-rule="evenodd" d="M20.5912 44.8271C20.5338 44.8168 20.4953 44.7599 20.5051 44.6999C20.5768 44.2624 20.6675 43.8345 20.7586 43.4051L20.759 43.4031C20.7793 43.3075 20.7926 43.2434 20.8002 43.1994C20.78 43.1948 20.7567 43.1875 20.7313 43.1754C20.6783 43.1503 20.6549 43.0849 20.679 43.0295C20.7031 42.9742 20.7656 42.9497 20.8186 42.9749C20.8379 42.9841 20.8527 42.986 20.8714 42.9878C20.872 42.9878 20.8728 42.9879 20.8737 42.988C20.882 42.9887 20.9001 42.9903 20.9165 42.9948C20.9394 43.0012 20.9723 43.0162 20.9951 43.0532C21.015 43.0853 21.0178 43.1193 21.018 43.1408C21.0183 43.1638 21.0154 43.1891 21.0115 43.215C21.0035 43.2671 20.9876 43.3432 20.9648 43.4508C20.8734 43.8817 20.7836 44.3051 20.7128 44.7371C20.703 44.7971 20.6485 44.8374 20.5912 44.8271ZM20.8072 43.142C20.8072 43.142 20.8073 43.1423 20.8073 43.143C20.8072 43.1424 20.8072 43.142 20.8072 43.142Z" fill="black"/>
<path fill-rule="evenodd" clip-rule="evenodd" d="M19.8331 44.6983C19.7767 44.6835 19.7424 44.6236 19.7565 44.5646C19.7985 44.3899 19.8617 44.2056 19.9237 44.0247C19.9524 43.941 19.9809 43.858 20.0069 43.7771C20.0914 43.5136 20.154 43.2611 20.1456 43.0214C20.1434 42.9606 20.1889 42.9095 20.247 42.9072C20.3052 42.905 20.3541 42.9525 20.3562 43.0133C20.3661 43.2949 20.2927 43.5791 20.2067 43.8471C20.1775 43.9381 20.1472 44.0264 20.1176 44.1126C20.0576 44.2875 20.0004 44.454 19.961 44.6182C19.9468 44.6772 19.8896 44.7131 19.8331 44.6983Z" fill="black"/>
<path fill-rule="evenodd" clip-rule="evenodd" d="M18.9065 44.5652C18.8563 44.5345 18.8393 44.467 18.8687 44.4145C19.2533 43.726 19.5381 43.1547 19.6787 42.3909C19.6897 42.3312 19.745 42.292 19.8021 42.3035C19.8593 42.315 19.8967 42.3728 19.8857 42.4325C19.7381 43.2345 19.438 43.8324 19.0507 44.5256C19.0213 44.5781 18.9568 44.5959 18.9065 44.5652Z" fill="black"/>
<path fill-rule="evenodd" clip-rule="evenodd" d="M18.2354 44.0548C18.1804 44.0346 18.1516 43.9717 18.1708 43.9143C18.4161 43.1839 18.6289 42.4548 18.8373 41.7116C18.8536 41.6532 18.9122 41.6197 18.9681 41.6368C19.0239 41.6539 19.0559 41.7151 19.0396 41.7735C18.8308 42.5181 18.6168 43.2515 18.3697 43.9873C18.3504 44.0447 18.2903 44.0749 18.2354 44.0548Z" fill="black"/>
<path fill-rule="evenodd" clip-rule="evenodd" d="M17.3279 43.6229C17.2725 43.6043 17.2421 43.5422 17.2599 43.4843C17.4966 42.7151 17.7443 41.9535 18.0007 41.1924C18.02 41.1351 18.0802 41.1049 18.1351 41.1251C18.19 41.1453 18.2188 41.2082 18.1995 41.2656C17.9437 42.0252 17.6966 42.7849 17.4605 43.5518C17.4427 43.6097 17.3834 43.6415 17.3279 43.6229Z" fill="black"/>
<path fill-rule="evenodd" clip-rule="evenodd" d="M16.3289 43.1103C16.276 43.0849 16.2529 43.0195 16.2772 42.9642C16.6323 42.1583 17.008 41.3698 17.3883 40.5796C17.4145 40.5253 17.4778 40.5034 17.5298 40.5307C17.5818 40.5581 17.6028 40.6243 17.5766 40.6787C17.1964 41.4687 16.8221 42.2542 16.4687 43.0564C16.4443 43.1116 16.3817 43.1358 16.3289 43.1103Z" fill="black"/>
<path fill-rule="evenodd" clip-rule="evenodd" d="M15.7097 42.3565C15.6559 42.3334 15.6302 42.269 15.6524 42.2127C15.9236 41.5247 16.1983 40.8386 16.4753 40.1535C16.498 40.0974 16.5598 40.0712 16.6134 40.0949C16.6671 40.1186 16.6921 40.1832 16.6695 40.2392C16.3926 40.924 16.1181 41.6094 15.8473 42.2966C15.8251 42.3529 15.7635 42.3797 15.7097 42.3565Z" fill="black"/>
<path fill-rule="evenodd" clip-rule="evenodd" d="M42.2431 36.5258C43.162 36.061 43.9685 35.2443 44.6278 34.1813C46.1242 31.7683 45.5703 28.7912 44.4438 26.1176C43.8748 24.767 43.1634 23.7907 42.2729 23.0624C41.3794 22.3317 40.2823 21.8317 38.9155 21.4705C37.3704 21.0622 35.5359 20.9509 33.7683 21.2088C31.9984 21.467 30.3268 22.0905 29.0822 23.1216C28.8997 23.2728 28.6346 23.2407 28.49 23.05C28.3454 22.8592 28.3761 22.5821 28.5585 22.4309C29.9546 21.2743 31.7824 20.6086 33.6517 20.3359C35.5233 20.0628 37.4677 20.1788 39.1221 20.616C40.5625 20.9967 41.7785 21.5391 42.7924 22.3682C43.8092 23.1998 44.5996 24.3008 45.2154 25.7624C46.3686 28.4993 47.0757 31.8542 45.3352 34.6607C44.6161 35.8204 43.7028 36.7666 42.6102 37.3191C41.5098 37.8757 40.2515 38.0198 38.881 37.6105C36.0827 36.7748 32.7156 35.4784 30.4688 33.3254C28.5703 31.5062 27.4779 29.3549 26.3908 27.0681C26.3656 27.0149 26.3163 26.9418 26.2426 26.8445C26.227 26.824 26.2088 26.8005 26.1894 26.7754C26.135 26.7052 26.0711 26.6226 26.0275 26.5569C25.9989 26.5137 25.9504 26.437 25.9221 26.3457C25.8966 26.2632 25.8427 25.9953 26.0687 25.8067C26.1552 25.7344 26.2466 25.7109 26.3037 25.7022C26.363 25.6931 26.4174 25.6953 26.4593 25.6994C26.5424 25.7076 26.6329 25.7299 26.7235 25.7571C26.9472 25.8243 27.0765 26.0684 27.0122 26.3023C27.0031 26.3352 26.9907 26.3661 26.9755 26.3948C27.035 26.4782 27.098 26.5752 27.1459 26.6759C28.2318 28.9604 29.2662 30.9775 31.0385 32.6757C33.1298 34.6797 36.3295 35.932 39.1126 36.7631C40.2872 37.1139 41.3321 36.9865 42.2431 36.5258ZM26.7094 26.0371C26.7094 26.0371 26.7096 26.0375 26.7101 26.0383C26.7096 26.0375 26.7094 26.0371 26.7094 26.0371Z" fill="black"/>
<path fill-rule="evenodd" clip-rule="evenodd" d="M44.8434 25.6093C44.818 25.664 44.755 25.6869 44.7026 25.6604C44.0276 25.3185 43.4317 25.089 42.6972 25.0255C42.6392 25.0205 42.5961 24.9673 42.6008 24.9067C42.6056 24.846 42.6566 24.8009 42.7146 24.8059C43.4854 24.8726 44.1078 25.1143 44.7945 25.4621C44.8469 25.4886 44.8688 25.5545 44.8434 25.6093Z" fill="black"/>
<path fill-rule="evenodd" clip-rule="evenodd" d="M45.2864 26.6565C45.2646 26.713 45.2032 26.7403 45.1492 26.7176C44.4976 26.4434 43.8402 26.2896 43.1574 26.1298C43.0475 26.1041 42.9368 26.0782 42.8254 26.0516C42.7687 26.0381 42.7332 25.979 42.7461 25.9197C42.7591 25.8604 42.8156 25.8233 42.8723 25.8368C42.9822 25.863 43.0918 25.8887 43.2014 25.9143C43.8834 26.0738 44.5591 26.2318 45.2279 26.5132C45.2819 26.5359 45.3081 26.6001 45.2864 26.6565Z" fill="black"/>
<path fill-rule="evenodd" clip-rule="evenodd" d="M45.7953 27.7927C45.7747 27.8496 45.7138 27.8782 45.6594 27.8566C44.9177 27.5621 44.334 27.3556 43.5651 27.2891C43.5071 27.2841 43.4639 27.2309 43.4687 27.1703C43.4735 27.1096 43.5244 27.0645 43.5824 27.0695C44.3821 27.1386 44.9886 27.3546 45.7342 27.6506C45.7886 27.6722 45.816 27.7359 45.7953 27.7927Z" fill="black"/>
<path fill-rule="evenodd" clip-rule="evenodd" d="M45.9965 29.0535C45.9795 29.1117 45.9207 29.1445 45.865 29.1268C45.7932 29.104 45.6692 29.046 45.527 28.9794C45.5049 28.969 45.4823 28.9585 45.4594 28.9478C45.2843 28.8661 45.0804 28.773 44.8823 28.699C44.682 28.6242 44.4976 28.5728 44.3592 28.5682C44.2902 28.5659 44.2423 28.5756 44.2115 28.5915C44.185 28.6051 44.168 28.6246 44.1587 28.6585C44.1426 28.717 44.0842 28.7508 44.0283 28.734C43.9723 28.7172 43.94 28.6561 43.9561 28.5977C43.9823 28.5024 44.0401 28.4342 44.1183 28.3938C44.1924 28.3557 44.2793 28.3451 44.3659 28.348C44.5389 28.3538 44.7491 28.4153 44.9533 28.4915C45.1596 28.5686 45.37 28.6648 45.5453 28.7466C45.5685 28.7574 45.5909 28.7679 45.6125 28.778C45.7592 28.8466 45.8684 28.8976 45.9263 28.916C45.982 28.9337 46.0134 28.9953 45.9965 29.0535Z" fill="black"/>
<path fill-rule="evenodd" clip-rule="evenodd" d="M46.0654 30.0138C46.0401 30.0686 45.9771 30.0916 45.9247 30.0651C45.7782 29.9912 45.2767 29.7909 44.8173 29.6596C44.5867 29.5937 44.3753 29.5477 44.2277 29.5412C44.1541 29.538 44.1101 29.5454 44.089 29.5545C44.0916 29.612 44.0512 29.6625 43.9958 29.6692C43.938 29.6761 43.8857 29.6328 43.879 29.5724C43.874 29.527 43.8808 29.4801 43.9057 29.4381C43.9299 29.3972 43.9653 29.371 44.0005 29.3545C44.0672 29.3232 44.1525 29.3174 44.2365 29.3211C44.4092 29.3287 44.6396 29.3804 44.8729 29.4471C45.3411 29.5809 45.8553 29.7854 46.0163 29.8667C46.0687 29.8931 46.0907 29.959 46.0654 30.0138Z" fill="black"/>
<path fill-rule="evenodd" clip-rule="evenodd" d="M46.0605 31.028C46.036 31.0832 45.9733 31.1071 45.9205 31.0814C45.8014 31.0235 45.3525 30.8059 44.9415 30.6348C44.735 30.5488 44.5429 30.4767 44.408 30.4415C44.3642 30.4301 44.3312 30.4239 44.3081 30.4213C44.294 30.4442 44.2717 30.4618 44.2444 30.4688C44.1878 30.4832 44.1308 30.4469 44.117 30.3878C44.1073 30.3463 44.1104 30.29 44.1529 30.2465C44.1875 30.2113 44.2315 30.203 44.2583 30.2006C44.3149 30.1954 44.387 30.2089 44.459 30.2277C44.6086 30.2667 44.8119 30.3437 45.0195 30.4301C45.4366 30.6038 45.8903 30.8237 46.0094 30.8817C46.0622 30.9073 46.0851 30.9729 46.0605 31.028ZM44.2733 30.4206C44.2732 30.4206 44.2737 30.4204 44.2749 30.4203C44.2739 30.4205 44.2733 30.4206 44.2733 30.4206Z" fill="black"/>
<path fill-rule="evenodd" clip-rule="evenodd" d="M45.788 31.6924C45.7714 31.7507 45.7127 31.784 45.6569 31.7666C45.2499 31.6402 44.8542 31.4952 44.4571 31.3496L44.4553 31.3489C44.367 31.3165 44.3077 31.295 44.2667 31.2819C44.26 31.3023 44.2503 31.3256 44.2358 31.3506C44.2056 31.4026 44.1407 31.4191 44.091 31.3875C44.0413 31.3559 44.0254 31.2881 44.0557 31.2361C44.0667 31.2172 44.0703 31.202 44.0742 31.1829C44.0743 31.1822 44.0745 31.1814 44.0747 31.1805C44.0764 31.1719 44.08 31.1534 44.0863 31.1369C44.095 31.1139 44.1132 31.0816 44.1511 31.0622C44.1839 31.0454 44.2165 31.0465 44.237 31.0489C44.2588 31.0513 44.2825 31.0573 44.3066 31.0645C44.3552 31.079 44.4256 31.1045 44.5251 31.141C44.9236 31.2871 45.315 31.4306 45.7169 31.5554C45.7727 31.5727 45.8045 31.6341 45.788 31.6924ZM44.213 31.2678C44.213 31.2678 44.2133 31.2678 44.214 31.2679C44.2134 31.2679 44.213 31.2678 44.213 31.2678Z" fill="black"/>
<path fill-rule="evenodd" clip-rule="evenodd" d="M45.5754 32.4639C45.5547 32.5207 45.4938 32.5492 45.4394 32.5274C45.2784 32.4632 45.1109 32.3756 44.9464 32.2897C44.8703 32.25 44.7949 32.2106 44.7211 32.174C44.4809 32.0549 44.2485 31.9599 44.0198 31.9402C43.9618 31.9352 43.9187 31.882 43.9235 31.8213C43.9283 31.7607 43.9792 31.7156 44.0372 31.7206C44.3058 31.7438 44.567 31.8538 44.8114 31.9749C44.8944 32.0161 44.9746 32.058 45.0529 32.099C45.2119 32.1821 45.3633 32.2612 45.5146 32.3216C45.569 32.3434 45.5962 32.407 45.5754 32.4639Z" fill="black"/>
<path fill-rule="evenodd" clip-rule="evenodd" d="M45.3388 33.4098C45.3037 33.4583 45.2376 33.4679 45.1912 33.4312C44.583 32.9501 44.0742 32.5865 43.3654 32.3498C43.31 32.3313 43.2794 32.2693 43.2971 32.2113C43.3148 32.1534 43.3741 32.1214 43.4296 32.1399C44.1738 32.3885 44.706 32.771 45.3184 33.2555C45.3648 33.2922 45.374 33.3613 45.3388 33.4098Z" fill="black"/>
<path fill-rule="evenodd" clip-rule="evenodd" d="M44.7743 34.0457C44.7486 34.1003 44.6854 34.1228 44.6332 34.096C43.9686 33.7545 43.3014 33.447 42.6201 33.1424C42.5666 33.1184 42.5418 33.0537 42.5647 32.9978C42.5876 32.9418 42.6495 32.9159 42.703 32.9398C43.3854 33.2449 44.0566 33.5543 44.7262 33.8982C44.7784 33.9251 44.7999 33.9911 44.7743 34.0457Z" fill="black"/>
<path fill-rule="evenodd" clip-rule="evenodd" d="M44.2562 34.9362C44.2319 34.9915 44.1693 35.0157 44.1164 34.9904C43.414 34.6532 42.72 34.3055 42.0276 33.949C41.9754 33.9221 41.9539 33.8561 41.9796 33.8015C42.0054 33.7469 42.0685 33.7244 42.1207 33.7513C42.8118 34.1072 43.504 34.454 44.2044 34.7901C44.2573 34.8155 44.2805 34.8809 44.2562 34.9362Z" fill="black"/>
<path fill-rule="evenodd" clip-rule="evenodd" d="M43.6505 35.9122C43.6201 35.9641 43.5552 35.9803 43.5056 35.9484C42.7823 35.4841 42.0781 35.0004 41.3727 34.5117C41.3242 34.4781 41.3109 34.4097 41.3431 34.359C41.3752 34.3083 41.4406 34.2945 41.4891 34.3281C42.1943 34.8166 42.896 35.2985 43.6159 35.7607C43.6655 35.7925 43.681 35.8604 43.6505 35.9122Z" fill="black"/>
<path fill-rule="evenodd" clip-rule="evenodd" d="M42.8609 36.4653C42.8325 36.5184 42.7683 36.5373 42.7175 36.5076C42.0962 36.1444 41.4773 35.7777 40.8594 35.4087C40.8088 35.3785 40.7913 35.3112 40.8202 35.2584C40.849 35.2055 40.9134 35.1872 40.9639 35.2174C41.5814 35.5862 42.1998 35.9525 42.8204 36.3153C42.8712 36.345 42.8893 36.4122 42.8609 36.4653Z" fill="black"/>
<path fill-rule="evenodd" clip-rule="evenodd" d="M39.6779 9.46582C39.7098 9.51666 39.6963 9.58497 39.6477 9.6184C38.7343 10.2462 38.0644 10.9383 37.351 11.8017C37.313 11.8477 37.2464 11.8528 37.2024 11.8131C37.1583 11.7733 37.1535 11.7037 37.1915 11.6577C37.9119 10.7857 38.5963 10.0774 39.5319 9.4343C39.5805 9.40087 39.6459 9.41498 39.6779 9.46582Z" fill="black"/>
<path fill-rule="evenodd" clip-rule="evenodd" d="M40.6128 9.77894C40.654 9.82196 40.654 9.89172 40.6128 9.93474C39.7772 10.8083 39.0419 11.7131 38.3021 12.6798C38.2657 12.7273 38.1994 12.735 38.1539 12.697C38.1085 12.659 38.1011 12.5897 38.1375 12.5422C38.8797 11.5724 39.6204 10.6606 40.4638 9.77894C40.505 9.73592 40.5717 9.73592 40.6128 9.77894Z" fill="black"/>
<path fill-rule="evenodd" clip-rule="evenodd" d="M41.5603 10.2186C41.602 10.261 41.6029 10.3307 41.5623 10.3743C40.7249 11.274 39.986 12.2313 39.2518 13.229C39.2163 13.2772 39.1501 13.2863 39.104 13.2492C39.0579 13.2121 39.0492 13.1429 39.0847 13.0947C39.8205 12.0948 40.5653 11.1296 41.4113 10.2207C41.4519 10.1771 41.5186 10.1761 41.5603 10.2186Z" fill="black"/>
<path fill-rule="evenodd" clip-rule="evenodd" d="M42.5024 10.543C42.5473 10.5817 42.5537 10.6511 42.5166 10.6981C41.7941 11.614 41.0908 12.5441 40.3861 13.476C40.2537 13.6511 40.1213 13.8262 39.9886 14.0014C39.9525 14.0491 39.8862 14.0571 39.8406 14.0194C39.7949 13.9816 39.7872 13.9123 39.8234 13.8646C39.9558 13.6897 40.0881 13.5147 40.2204 13.3398C40.9251 12.4079 41.63 11.4757 42.354 10.5579C42.391 10.511 42.4575 10.5043 42.5024 10.543Z" fill="black"/>
<path fill-rule="evenodd" clip-rule="evenodd" d="M43.6683 11.2102C43.7099 11.2528 43.7106 11.3225 43.6699 11.366C42.9182 12.1693 42.1966 13.0016 41.4734 13.8357C41.3284 14.003 41.1833 14.1704 41.0378 14.3376C40.9987 14.3826 40.932 14.3859 40.889 14.345C40.8459 14.3041 40.8427 14.2344 40.8819 14.1894C41.0268 14.0227 41.1716 13.8557 41.3165 13.6886C42.0396 12.8545 42.7645 12.0185 43.5192 11.212C43.5599 11.1685 43.6267 11.1677 43.6683 11.2102Z" fill="black"/>
<path fill-rule="evenodd" clip-rule="evenodd" d="M36.3664 38.4109C36.4135 38.3752 36.4794 38.3862 36.5135 38.4355C37.1147 39.3033 37.6811 40.0947 38.3997 40.8459C38.4408 40.8889 38.4408 40.9587 38.3997 41.0017C38.3585 41.0447 38.2918 41.0447 38.2506 41.0017C37.5192 40.2371 36.9444 39.4331 36.3428 38.5647C36.3087 38.5155 36.3192 38.4466 36.3664 38.4109Z" fill="black"/>
<path fill-rule="evenodd" clip-rule="evenodd" d="M36.8847 36.4351C36.928 36.3945 36.9947 36.3983 37.0335 36.4435C37.1863 36.6215 37.3383 36.7996 37.4901 36.9774C38.0667 37.6531 38.6406 38.3256 39.2438 38.9742C39.2844 39.0178 39.2835 39.0875 39.2417 39.1299C39.2 39.1723 39.1333 39.1714 39.0927 39.1277C38.486 38.4754 37.9083 37.7985 37.3313 37.1223C37.1798 36.9449 37.0285 36.7675 36.8767 36.5907C36.8378 36.5454 36.8414 36.4758 36.8847 36.4351Z" fill="black"/>
<path fill-rule="evenodd" clip-rule="evenodd" d="M11.3036 34.2257C11.3501 34.2622 11.3596 34.3312 11.3247 34.3799C11.102 34.6903 10.8569 34.9999 10.612 35.3093C10.4497 35.5145 10.2874 35.7195 10.1317 35.9247C9.73702 36.4447 9.37518 36.9771 9.12307 37.5544C9.0989 37.6097 9.03638 37.6341 8.98343 37.6088C8.93048 37.5836 8.90716 37.5182 8.93133 37.4629C9.19411 36.8612 9.5685 36.3123 9.96654 35.7877C10.1285 35.5743 10.293 35.3666 10.4558 35.161C10.6971 34.8562 10.9349 34.5559 11.156 34.2477C11.191 34.199 11.257 34.1891 11.3036 34.2257Z" fill="black"/>
<path fill-rule="evenodd" clip-rule="evenodd" d="M10.3531 33.6733C10.4005 33.7087 10.4114 33.7775 10.3776 33.827C9.58851 34.9819 8.78144 36.1217 7.95134 37.2455C7.91577 37.2936 7.84959 37.3025 7.80352 37.2653C7.75745 37.2281 7.74894 37.159 7.78451 37.1108C8.61287 35.9894 9.41837 34.8518 10.2061 33.6989C10.2399 33.6494 10.3058 33.638 10.3531 33.6733Z" fill="black"/>
<path fill-rule="evenodd" clip-rule="evenodd" d="M9.19743 33.2355C9.24331 33.2729 9.25148 33.3421 9.21567 33.3901C9.10698 33.5357 8.99824 33.681 8.88957 33.8263C8.28819 34.6302 7.68878 35.4315 7.10962 36.252C7.07507 36.301 7.00908 36.3114 6.96225 36.2753C6.91541 36.2392 6.90546 36.1702 6.94002 36.1212C7.52108 35.298 8.12256 34.4939 8.7239 33.6901C8.83248 33.5449 8.94106 33.3998 9.04951 33.2545C9.08532 33.2066 9.15155 33.198 9.19743 33.2355Z" fill="black"/>
<path fill-rule="evenodd" clip-rule="evenodd" d="M9.73869 31.9276C9.77711 31.9733 9.77282 32.0429 9.72909 32.0831C8.51909 33.1946 7.40474 34.3085 6.36773 35.5966C6.33026 35.6431 6.26377 35.6491 6.21924 35.6099C6.17471 35.5707 6.16899 35.5012 6.20647 35.4547C7.2529 34.1549 8.37582 33.0329 9.58996 31.9176C9.63368 31.8774 9.70027 31.8819 9.73869 31.9276Z" fill="black"/>
<path fill-rule="evenodd" clip-rule="evenodd" d="M6.98617 32.7964C7.03121 32.8349 7.03785 32.9043 7.001 32.9514C6.97366 32.9863 6.94634 33.0212 6.91903 33.0561C6.51827 33.568 6.12071 34.0757 5.73865 34.6008C5.70342 34.6493 5.6373 34.6587 5.59097 34.6218C5.54465 34.585 5.53565 34.5159 5.57089 34.4675C5.95531 33.9391 6.35514 33.4284 6.75538 32.9172C6.78288 32.8821 6.81037 32.847 6.83787 32.8119C6.87472 32.7648 6.94112 32.7579 6.98617 32.7964Z" fill="black"/>
<path fill-rule="evenodd" clip-rule="evenodd" d="M7.62881 30.8235C7.66852 30.868 7.66622 30.9377 7.62367 30.9792C6.51798 32.058 5.49277 33.1242 4.57941 34.3805C4.54419 34.4289 4.47807 34.4383 4.43173 34.4015C4.38539 34.3647 4.37638 34.2956 4.41159 34.2472C5.33595 32.9757 6.37162 31.8994 7.47985 30.8181C7.52241 30.7766 7.58909 30.779 7.62881 30.8235Z" fill="black"/>
<path fill-rule="evenodd" clip-rule="evenodd" d="M7.00039 30.0569C7.03765 30.1037 7.03161 30.1732 6.98689 30.2121C6.22124 30.8791 5.49007 31.5674 4.78027 32.2991C4.73883 32.3418 4.6721 32.3413 4.63123 32.298C4.59036 32.2547 4.59083 32.1849 4.63227 32.1422C5.34659 31.4059 6.08216 30.7134 6.85196 30.0428C6.89667 30.0039 6.96313 30.0102 7.00039 30.0569Z" fill="black"/>
<path fill-rule="evenodd" clip-rule="evenodd" d="M6.89248 28.6217C6.93135 28.667 6.92775 28.7367 6.88443 28.7773C6.75809 28.8958 6.6319 29.0145 6.50573 29.1331C5.76181 29.8325 5.01836 30.5315 4.2468 31.2036C4.20209 31.2426 4.13564 31.2362 4.09837 31.1895C4.06111 31.1428 4.06715 31.0733 4.11187 31.0343C4.88011 30.3651 5.62023 29.6693 6.36429 28.9697C6.49058 28.851 6.61698 28.7322 6.74365 28.6133C6.78697 28.5727 6.8536 28.5764 6.89248 28.6217Z" fill="black"/>
<path fill-rule="evenodd" clip-rule="evenodd" d="M23.466 21.0938C23.5242 21.0942 23.5711 21.1438 23.5708 21.2046C23.5637 22.5241 23.5187 23.8371 23.4736 25.1526C23.4708 25.2332 23.4681 25.3137 23.4653 25.3942C23.4633 25.455 23.4144 25.5026 23.3563 25.5004C23.2981 25.4982 23.2526 25.4472 23.2547 25.3864C23.2574 25.3061 23.2602 25.2258 23.2629 25.1456C23.308 23.8293 23.3529 22.5194 23.36 21.2034C23.3603 21.1425 23.4078 21.0935 23.466 21.0938Z" fill="black"/>
<path fill-rule="evenodd" clip-rule="evenodd" d="M23.9954 21.204C24.0535 21.2058 24.0994 21.2565 24.0977 21.3173C24.0721 22.2555 24.012 23.1929 23.9521 24.1277C23.9297 24.4778 23.9073 24.8275 23.8868 25.1767C23.8832 25.2375 23.8332 25.2837 23.7751 25.2799C23.717 25.2762 23.6728 25.2239 23.6764 25.1632C23.6971 24.8113 23.7196 24.4601 23.7421 24.1091C23.8019 23.1757 23.8615 22.2446 23.887 21.311C23.8887 21.2502 23.9372 21.2023 23.9954 21.204Z" fill="black"/>
<path fill-rule="evenodd" clip-rule="evenodd" d="M24.5193 20.7633C24.5775 20.7633 24.6247 20.8127 24.6247 20.8735V25.0598C24.6247 25.1207 24.5775 25.17 24.5193 25.17C24.4611 25.17 24.4139 25.1207 24.4139 25.0598V20.8735C24.4139 20.8127 24.4611 20.7633 24.5193 20.7633Z" fill="black"/>
<path fill-rule="evenodd" clip-rule="evenodd" d="M25.3769 20.7644C25.4346 20.7728 25.4748 20.8284 25.4668 20.8887C25.2493 22.5229 25.2053 24.1612 25.161 25.8145C25.1579 25.9312 25.1548 26.0478 25.1516 26.1646C25.1499 26.2254 25.1014 26.2733 25.0432 26.2716C24.985 26.2699 24.9392 26.2191 24.9409 26.1583C24.9441 26.0408 24.9472 25.9233 24.9504 25.8057C24.9946 24.155 25.0388 22.5051 25.258 20.8583C25.266 20.798 25.3193 20.756 25.3769 20.7644Z" fill="black"/>
<path fill-rule="evenodd" clip-rule="evenodd" d="M26.0031 20.8738C26.0611 20.8787 26.1044 20.9317 26.0998 20.9924C26.0316 21.886 25.9522 22.7825 25.8728 23.6782C25.8056 24.437 25.7384 25.1952 25.6782 25.9503C25.6734 26.0109 25.6224 26.056 25.5644 26.0509C25.5064 26.0459 25.4633 25.9926 25.4681 25.932C25.5289 25.17 25.5961 24.4119 25.6633 23.6543C25.7423 22.7622 25.8213 21.8709 25.8897 20.9749C25.8943 20.9142 25.9451 20.869 26.0031 20.8738Z" fill="black"/>
<path fill-rule="evenodd" clip-rule="evenodd" d="M26.5373 21.2052C26.5949 21.2142 26.6345 21.2703 26.6259 21.3305C26.411 22.8282 26.2905 24.3242 26.2053 25.8375C26.2019 25.8982 26.152 25.9445 26.0939 25.941C26.0358 25.9374 25.9915 25.8853 25.9949 25.8245C26.0803 24.3078 26.2012 22.8046 26.4174 21.2978C26.4261 21.2376 26.4797 21.1962 26.5373 21.2052Z" fill="black"/>
<path fill-rule="evenodd" clip-rule="evenodd" d="M27.2697 21.8655C27.3277 21.8715 27.37 21.9255 27.3643 21.986C27.2532 23.1602 27.1504 24.3349 27.0482 25.5105C27.0429 25.5711 26.9916 25.6157 26.9337 25.6102C26.8757 25.6047 26.833 25.5511 26.8383 25.4905C26.9405 24.315 27.0434 23.1395 27.1545 21.9643C27.1602 21.9038 27.2118 21.8595 27.2697 21.8655Z" fill="black"/>
</svg>
